<?xml version="1.0" encoding="UTF-8" standalone="yes"?>
<svg xmlns="http://www.w3.org/2000/svg" xmlns:xlink="http://www.w3.org/1999/xlink" viewBox="0 0 50 50" version="1.1" width="50" height="50" fill="#000000">
  <g id="surface1">
    <path style=" " d="M 21 7 C 19.347656 7 18 8.347656 18 10 L 18 15 C 18 16.652344 19.347656 18 21 18 L 29 18 C 30.652344 18 32 16.652344 32 15 L 32 10 C 32 8.347656 30.652344 7 29 7 Z M 24 20 L 24 22 L 11 22 C 8.242188 22 6 24.242188 6 27 L 6 30 L 8 30 L 8 27 C 8 25.347656 9.347656 24 11 24 L 24 24 L 24 30 L 26 30 L 26 24 L 39 24 C 40.652344 24 42 25.347656 42 27 L 42 30 L 44 30 L 44 27 C 44 24.242188 41.757813 22 39 22 L 26 22 L 26 20 Z M 3 32 C 1.347656 32 0 33.347656 0 35 L 0 40 C 0 41.652344 1.347656 43 3 43 L 11 43 C 12.652344 43 14 41.652344 14 40 L 14 35 C 14 33.347656 12.652344 32 11 32 Z M 21 32 C 19.347656 32 18 33.347656 18 35 L 18 40 C 18 41.652344 19.347656 43 21 43 L 29 43 C 30.652344 43 32 41.652344 32 40 L 32 35 C 32 33.347656 30.652344 32 29 32 Z M 39 32 C 37.347656 32 36 33.347656 36 35 L 36 40 C 36 41.652344 37.347656 43 39 43 L 47 43 C 48.652344 43 50 41.652344 50 40 L 50 35 C 50 33.347656 48.652344 32 47 32 Z "/>
  </g>
</svg>
