<svg xmlns="http://www.w3.org/2000/svg" width="120" height="36" viewBox="0 0 120 36">
  <path fill="#15d1a0"
    d="M41.69 24.1c-2.78 0-4.33-1.57-4.33-4.5v-2.11c0-2.92 1.54-4.5 4.31-4.5 2.57 0 4.05 1.35 4.15 3.67h-1.12c-.12-1.78-1.14-2.65-2.99-2.65-2.13 0-3.19 1.16-3.19 3.54v1.99c0 2.39 1.05 3.55 3.19 3.55 1.85 0 2.86-.87 2.99-2.65h1.12c-.1 2.28-1.54 3.67-4.12 3.67m6.88-.26V8.7h1.16v6.39c.74-1.34 2.16-2.15 3.69-2.11 2.2 0 3.32 1.33 3.32 3.84v7.03h-1.17v-6.91c0-1.94-.74-2.9-2.34-2.9-1.5 0-2.66.83-3.51 2.76v7.05h-1.16zm15.68.24c-2.9 0-4.5-1.57-4.5-4.5v-2.11c0-2.92 1.56-4.5 4.4-4.5s4.38 1.57 4.38 4.5v1.31h-7.61v.72c0 2.41 1.08 3.57 3.3 3.57 1.91 0 2.99-.87 3.11-2.34h1.12c-.14 2.18-1.68 3.36-4.19 3.36m-3.34-6.3h6.49v-.23c0-2.41-1.06-3.57-3.25-3.57s-3.23 1.16-3.23 3.57v.23zm14.49 6.3c-2.78 0-4.33-1.57-4.33-4.5v-2.11c0-2.92 1.54-4.5 4.31-4.5 2.57 0 4.05 1.35 4.15 3.67h-1.12c-.12-1.78-1.14-2.65-2.99-2.65-2.14 0-3.19 1.16-3.19 3.54v1.99c0 2.39 1.06 3.55 3.19 3.55 1.85 0 2.86-.87 2.99-2.65h1.12c-.1 2.28-1.54 3.67-4.12 3.67m6.88-.26V8.7h1.16v10.44l5.93-5.91h1.49l-4.36 4.33 4.44 6.28h-1.41l-3.86-5.45-2.24 2.2v3.25h-1.16zm10.66 0V13.13h1.55l.07 1.68c.67-1.22 1.97-1.97 3.36-1.93 1.5 0 2.51.64 2.94 1.87.7-1.18 1.98-1.9 3.36-1.87 2.14 0 3.32 1.29 3.32 3.65v7.3h-1.83v-7.16c0-1.43-.62-2.11-1.74-2.11s-2.03.7-2.82 2.26v7.01h-1.83v-7.16c0-1.43-.62-2.11-1.74-2.11s-2.03.7-2.82 2.36v6.91h-1.83zm17.88 0V8.7h1.83v9.71l4.93-5.27h2.28l-4.11 4.36 4.19 6.34h-2.18l-3.28-5.01-1.84 1.92v3.09h-1.83zM14.19 1.64l14.13 8.18v16.36l-14.13 8.18L.05 26.18V9.82L14.19 1.64zm-9.28 11.91v5.43l6.66-4.3v11.2l2.62 1.52 2.62-1.52v-11.2l6.66 4.3v-5.43l-9.28-5.81-9.28 5.81z" />
</svg>