<?xml version="1.0" encoding="utf-8"?>
<!-- Generator: Adobe Illustrator 25.0.0, SVG Export Plug-In . SVG Version: 6.00 Build 0)  -->
<svg version="1.1" id="Ebene_1" xmlns="http://www.w3.org/2000/svg" xmlns:xlink="http://www.w3.org/1999/xlink" x="0px" y="0px"
	 viewBox="0 0 23 23" style="enable-background:new 0 0 23 23;" xml:space="preserve">
<style type="text/css">
	.st0{fill-rule:evenodd;clip-rule:evenodd;fill:#FFFFFF;}
	.st1{fill:none;stroke:#F3F3F3;}
</style>
<desc>Created with Sketch.</desc>
<g id="Master">
	<g id="weiß---weiß" transform="translate(-246.000000, -240.000000)">
		<g id="actions" transform="translate(217.000000, 240.000000)">
			<g id="edit" transform="translate(29.500000, 1.000000)">
				<path id="Fill-1" class="st0" d="M10.9,13.5c-1.8,0-3.2-1.4-3.2-3.2c0-1.8,1.4-3.2,3.2-3.2s3.2,1.4,3.2,3.2
					C14.1,12,12.6,13.5,10.9,13.5L10.9,13.5z M15.3,11.6c0.1-0.4,0.2-0.8,0.2-1.3c0-0.4-0.1-0.9-0.2-1.3l1.3-0.8
					c0.1-0.1,0.2-0.3,0.1-0.4l-0.8-1.3c-0.1-0.1-0.3-0.2-0.4-0.1l-1.3,0.8c-0.6-0.6-1.4-1.1-2.3-1.3V4.3c0-0.2-0.1-0.3-0.3-0.3h-1.6
					C9.9,4,9.8,4.1,9.8,4.3v1.5C8.9,6,8.2,6.5,7.6,7.1L6.3,6.3c-0.1-0.1-0.3,0-0.4,0.1L5.1,7.8C5,7.9,5,8.1,5.2,8.2l1.3,0.8
					c-0.1,0.4-0.2,0.9-0.2,1.3c0,0.4,0.1,0.9,0.2,1.3l-1.3,0.8C5,12.4,5,12.5,5,12.7L5.8,14c0.1,0.1,0.3,0.2,0.4,0.1l1.3-0.7
					c0.6,0.6,1.4,1.1,2.2,1.3l0,1.5c0,0.2,0.1,0.3,0.3,0.3l1.6,0c0.2,0,0.3-0.1,0.3-0.3l0-1.5c0.9-0.2,1.7-0.7,2.3-1.3l1.3,0.8
					c0.1,0.1,0.3,0,0.4-0.1l0.8-1.3c0.1-0.1,0-0.3-0.1-0.4L15.3,11.6z"/>
				<circle id="Oval" class="st1" cx="11" cy="10.5" r="10.5"/>
			</g>
		</g>
	</g>
</g>
</svg>
