<?xml version="1.0" encoding="utf-8"?>
<svg version="1.1" id="Ebene_1" xmlns="http://www.w3.org/2000/svg" xmlns:xlink="http://www.w3.org/1999/xlink" x="0px" y="0px"
	 viewBox="0 0 48 48" style="enable-background:new 0 0 48 48;" xml:space="preserve">
<style type="text/css">
	.st0{fill-rule:evenodd;clip-rule:evenodd;fill:#FFFFFF;}
	.st1{fill-rule:evenodd;clip-rule:evenodd;}
</style>
<g id="Menu-Icons-EXPORT">
	<g id="EXPORT" transform="translate(-966.000000, -5617.000000)">
		<g id="download" transform="translate(966.000000, 5617.000000)">
			<path id="Fill-1" class="st0" d="M24,47.6C11,47.6,0.4,37,0.4,24S11,0.4,24,0.4S47.6,11,47.6,24S37,47.6,24,47.6"/>
			<path id="Fill-6" class="st1" d="M10,26.8l13.4,13.4c0.3,0.3,0.8,0.3,1.1,0L38,26.8c0.3-0.3,0.3-0.8,0-1.1l-3.6-3.6
				c-0.2-0.2-0.4-0.2-0.6-0.2c-0.2,0-0.4,0.1-0.6,0.2l-5.8,5.8V8.4c0-0.4-0.4-0.8-0.8-0.8h-5.5c-0.4,0-0.8,0.3-0.8,0.8v19.5
				l-5.8-5.8c-0.3-0.3-0.8-0.3-1.1,0L10,25.7c-0.2,0.1-0.2,0.4-0.2,0.6S9.9,26.6,10,26.8"/>
		</g>
	</g>
</g>
</svg>
