<?xml version="1.0" encoding="utf-8"?>
<svg version="1.1" id="Ebene_1" xmlns="http://www.w3.org/2000/svg" xmlns:xlink="http://www.w3.org/1999/xlink" x="0px" y="0px"
	 viewBox="0 0 48 48" style="enable-background:new 0 0 48 48;" xml:space="preserve">
<style type="text/css">
	.st0{fill-rule:evenodd;clip-rule:evenodd;fill:#FFFFFF;}
	.st1{fill-rule:evenodd;clip-rule:evenodd;}
</style>
<g id="Menu-Icons-EXPORT">
	<g id="EXPORT" transform="translate(-861.000000, -5617.000000)">
		<g id="more" transform="translate(861.000000, 5617.000000)">
			<path id="Fill-1" class="st0" d="M24,47.6C11,47.6,0.4,37,0.4,24S11,0.4,24,0.4S47.6,11,47.6,24S37,47.6,24,47.6"/>
			<path id="Fill-6" class="st1" d="M26.8,38l13.4-13.4c0.3-0.3,0.3-0.8,0-1.1L26.8,10c-0.3-0.3-0.8-0.3-1.1,0l-3.6,3.6
				c-0.1,0.2-0.2,0.4-0.2,0.6s0.1,0.4,0.2,0.6l5.8,5.7H8.4c-0.4,0-0.8,0.4-0.8,0.8v5.5c0,0.4,0.4,0.8,0.8,0.8h19.5l-5.8,5.8
				c-0.3,0.3-0.3,0.8,0,1.1l3.6,3.6c0.1,0.1,0.3,0.2,0.6,0.2C26.4,38.2,26.6,38.1,26.8,38"/>
		</g>
	</g>
</g>
</svg>
