<?xml version="1.0" encoding="utf-8"?>
<!-- Generator: Adobe Illustrator 26.0.1, SVG Export Plug-In . SVG Version: 6.00 Build 0)  -->
<svg version="1.1" id="Ebene_1" xmlns="http://www.w3.org/2000/svg" xmlns:xlink="http://www.w3.org/1999/xlink" x="0px" y="0px"
	 viewBox="0 0 15 15" style="enable-background:new 0 0 15 15;" xml:space="preserve">
<style type="text/css">
	.st0{fill-rule:evenodd;clip-rule:evenodd;fill:#FFFFFF;}
	.st1{fill-rule:evenodd;clip-rule:evenodd;}
</style>
<g id="Page-1">
	
		<g id="API_light" transform="translate(7.444444, 7.444444) rotate(-270.000000) translate(-7.444444, -7.444444) translate(0.766214, 0.766214)">
		<path id="Fill-1" class="st0" d="M3.3,10c-1.8-1.8-1.8-4.8,0-6.7s4.8-1.8,6.7,0s1.8,4.8,0,6.7C8.2,11.9,5.2,11.9,3.3,10"/>
		
			<g id="Group-2" transform="translate(6.590564, 6.717008) rotate(-45.000000) translate(-6.590564, -6.717008) translate(4.178342, 4.678120)">
			<path id="Fill-6" class="st1" d="M0.2,0h3.4c0.1,0,0.2,0.1,0.2,0.2v1.1c0,0.1-0.1,0.2-0.2,0.2H0.2C0.1,1.6,0,1.5,0,1.4l0-1.1
				C0,0.1,0.1,0,0.2,0"/>
			<path id="Fill-6_00000130618065031672489520000006639040463910504888_" class="st1" d="M1.2,2.5h3.4c0.1,0,0.2,0.1,0.2,0.2v1.1
				c0,0.1-0.1,0.2-0.2,0.2H1.2C1.1,4.1,1,4,1,3.9V2.7C1,2.6,1.1,2.5,1.2,2.5"/>
		</g>
	</g>
</g>
</svg>
