<?xml version="1.0" encoding="utf-8"?>
<svg version="1.1" id="Ebene_1" xmlns="http://www.w3.org/2000/svg" xmlns:xlink="http://www.w3.org/1999/xlink" x="0px" y="0px"
	 viewBox="0 0 48 48" style="enable-background:new 0 0 48 48;" xml:space="preserve">
<style type="text/css">
	.st0{fill-rule:evenodd;clip-rule:evenodd;fill:#FFFFFF;}
	.st1{fill-rule:evenodd;clip-rule:evenodd;}
	.st2{fill:none;stroke:#000000;stroke-width:6.5;}
</style>
<g id="Menu-Icons-EXPORT">
	<g id="EXPORT" transform="translate(-1066.000000, -5617.000000)">
		<g id="settings" transform="translate(1066.000000, 5617.000000)">
			<path id="Fill-1" class="st0" d="M24,47.6C11,47.6,0.4,37,0.4,24S11,0.4,24,0.4S47.6,11,47.6,24S37,47.6,24,47.6"/>
			<path id="Fill-6" class="st1" d="M20.1,15.9V7.7c0-0.6,0.5-1.1,1.1-1.1h5.5c0.6,0,1.1,0.5,1.1,1.1v8.3c0,0.6-0.5,1.1-1.1,1.1
				h-5.5C20.6,17,20.1,16.5,20.1,15.9"/>
			<path id="Fill-8" class="st1" d="M29.1,16.6l7.2-4.1c0.5-0.3,1.2-0.1,1.5,0.4l2.8,4.8c0.3,0.5,0.1,1.2-0.4,1.5l-7.2,4.1
				c-0.5,0.3-1.2,0.1-1.5-0.4l-2.8-4.8C28.4,17.6,28.5,16.9,29.1,16.6"/>
			<path id="Fill-10" class="st1" d="M32.9,24.7l7.2,4.1c0.5,0.3,0.7,1,0.4,1.5l-2.8,4.8c-0.3,0.5-1,0.7-1.5,0.4l-7.2-4.1
				c-0.5-0.3-0.7-1-0.4-1.5l2.8-4.8C31.7,24.6,32.4,24.4,32.9,24.7"/>
			<path id="Fill-12" class="st1" d="M27.9,32.1v8.3c0,0.6-0.5,1.1-1.1,1.1h-5.5c-0.6,0-1.1-0.5-1.1-1.1v-8.3c0-0.6,0.5-1.1,1.1-1.1
				h5.5C27.4,31,27.9,31.5,27.9,32.1"/>
			<path id="Fill-14" class="st1" d="M18.9,31.4l-7.2,4.1c-0.5,0.3-1.2,0.1-1.5-0.4l-2.8-4.8c-0.3-0.5-0.1-1.2,0.4-1.5l7.2-4.1
				c0.5-0.3,1.2-0.1,1.5,0.4l2.8,4.8C19.6,30.4,19.5,31.1,18.9,31.4"/>
			<path id="Fill-16" class="st1" d="M15.1,23.3l-7.2-4.1c-0.5-0.3-0.7-1-0.4-1.5l2.8-4.8c0.3-0.5,1-0.7,1.5-0.4l7.2,4.1
				c0.5,0.3,0.7,1,0.4,1.5l-2.8,4.8C16.3,23.4,15.6,23.6,15.1,23.3"/>
			<path id="Stroke-18" class="st2" d="M32.6,24c0,4.7-3.8,8.6-8.6,8.6c-4.7,0-8.6-3.8-8.6-8.6s3.8-8.6,8.6-8.6
				C28.7,15.4,32.6,19.3,32.6,24z"/>
		</g>
	</g>
</g>
</svg>
