<svg width="20" height="20" viewBox="0 0 20 20" fill="none" xmlns="http://www.w3.org/2000/svg">
<path d="M12.3228 13.5862L13.5946 12.3144L19 17.7196L17.7282 18.9915L12.3228 13.5862Z" fill="#F3F7FA"/>
<path d="M8.19464 1C6.2865 1 4.45652 1.758 3.10726 3.10726C1.758 4.45652 1 6.2865 1 8.19464C1 10.1028 1.758 11.9328 3.10726 13.282C4.45652 14.6313 6.2865 15.3893 8.19464 15.3893C10.1028 15.3893 11.9328 14.6313 13.282 13.282C14.6313 11.9328 15.3893 10.1028 15.3893 8.19464C15.3893 6.2865 14.6313 4.45652 13.282 3.10726C11.9328 1.758 10.1028 1 8.19464 1Z" fill="#F3F7FA"/>
<path d="M13.7956 15.0929L15.0674 13.8211L18.9784 17.7319L17.7066 19.0038L13.7956 15.0929Z" fill="#899BA8"/>
<path d="M8.19467 2.34901C6.64431 2.34901 5.15744 2.96489 4.06117 4.06116C2.9649 5.15744 2.34902 6.6443 2.34902 8.19466C2.34902 9.74502 2.9649 11.2319 4.06117 12.3282C5.15744 13.4244 6.64431 14.0403 8.19467 14.0403C9.74503 14.0403 11.2319 13.4244 12.3282 12.3282C13.4244 11.2319 14.0403 9.74502 14.0403 8.19466C14.0403 6.6443 13.4244 5.15744 12.3282 4.06116C11.2319 2.96489 9.74503 2.34901 8.19467 2.34901Z" fill="#535C65"/>
<path d="M7.4655 12.8219C8.57718 13.2186 9.82053 13.1238 10.872 12.5167C11.9234 11.9097 12.6272 10.8803 12.8395 9.71924C12.9054 9.47354 12.709 9.22343 12.4858 9.19654C12.2401 9.1307 11.99 9.32703 11.9631 9.55025C11.7776 10.4881 11.2401 11.2657 10.4223 11.7379C9.60452 12.21 8.66227 12.2867 7.75735 11.9784C7.6345 11.9455 7.47271 11.9351 7.35588 12.0025C7.278 12.0475 7.18365 12.1539 7.16719 12.2153C7.10136 12.461 7.25874 12.7336 7.4655 12.8219Z" fill="#A9BCCC"/>
</svg>
