<?xml version="1.0" encoding="UTF-8"?>
<svg width="17px" height="17px" viewBox="0 0 17 17" version="1.1" xmlns="http://www.w3.org/2000/svg" xmlns:xlink="http://www.w3.org/1999/xlink">
    <title>customization</title>
    <g id="design" stroke="none" stroke-width="1" fill="none" fill-rule="evenodd">
        <g id="bar_left_actions" transform="translate(-23.000000, -213.000000)" fill="#F6F6F6">
            <g id="Nav" transform="translate(-0.000000, 0.000000)">
                <g id="customization" transform="translate(23.000000, 213.000000)">
                    <path d="M5.794656,6.345728 L0.550976,6.345728 C0.247936,6.345728 -6.39999998e-05,6.097728 -6.39999998e-05,5.794848 L-6.39999998e-05,0.550848 C-6.39999998e-05,0.247968 0.247936,0.000128 0.550976,0.000128 L5.794656,0.000128 C6.097856,0.000128 6.345536,0.247968 6.345536,0.550848 L6.345536,5.794848 C6.345536,6.097728 6.097856,6.345728 5.794656,6.345728 Z" id="Stroke-1"></path>
                    <path d="M15.807952,6.345728 L10.564272,6.345728 C10.261232,6.345728 10.013392,6.097728 10.013392,5.794848 L10.013392,0.550848 C10.013392,0.247968 10.261232,0.000128 10.564272,0.000128 L15.807952,0.000128 C16.110992,0.000128 16.358832,0.247968 16.358832,0.550848 L16.358832,5.794848 C16.358832,6.097728 16.110992,6.345728 15.807952,6.345728 Z" id="Stroke-3"></path>
                    <path d="M5.794656,16.369008 L0.550976,16.369008 C0.247936,16.369008 -6.4e-05,16.121008 -6.4e-05,15.818128 L-6.4e-05,10.574288 C-6.4e-05,10.271248 0.247936,10.023408 0.550976,10.023408 L5.794656,10.023408 C6.097856,10.023408 6.345536,10.271248 6.345536,10.574288 L6.345536,15.818128 C6.345536,16.121008 6.097856,16.369008 5.794656,16.369008 Z" id="Stroke-5"></path>
                    <path d="M15.807952,16.369008 L10.564272,16.369008 C10.261232,16.369008 10.013392,16.121008 10.013392,15.818128 L10.013392,10.574288 C10.013392,10.271248 10.261232,10.023408 10.564272,10.023408 L15.807952,10.023408 C16.110992,10.023408 16.358832,10.271248 16.358832,10.574288 L16.358832,15.818128 C16.358832,16.121008 16.110992,16.369008 15.807952,16.369008 Z" id="Stroke-7"></path>
                </g>
            </g>
        </g>
    </g>
</svg>