<?xml version="1.0" encoding="utf-8"?>
<!-- Generator: Adobe Illustrator 24.2.1, SVG Export Plug-In . SVG Version: 6.00 Build 0)  -->
<svg version="1.1" id="Ebene_1" xmlns="http://www.w3.org/2000/svg" xmlns:xlink="http://www.w3.org/1999/xlink" x="0px" y="0px"
	 viewBox="0 0 19 18" style="enable-background:new 0 0 19 18;" xml:space="preserve">
<style type="text/css">
	.st0{fill:#E1E2E3;}
</style>
<desc>Created with Sketch.</desc>
<g id="Master">
	<g id="Text-Sidebar-Right" transform="translate(-1339.000000, -14.000000)">
		<g id="Sidebar" transform="translate(1139.000000, 0.000000)">
			<g id="Links" transform="translate(140.000000, 14.000000)">
				<path id="Shape" class="st0" d="M78.1,13.3l-6.5-12C71,0.5,70.2,0,69.2,0c-1,0-1.8,0.5-2.3,1.3c0,0,0,0,0,0l-6.5,12
					c-0.5,0.8-0.5,1.9,0,2.7c0.5,0.9,1.4,1.4,2.3,1.4h13c1,0,1.9-0.5,2.4-1.4C78.6,15.2,78.5,14.2,78.1,13.3z M68.1,5.5
					c0-0.6,0.5-1.1,1.1-1.1c0.6,0,1.1,0.5,1.1,1.1v4.3c0,0.6-0.5,1.1-1.1,1.1s-1.1-0.5-1.1-1.1V5.5L68.1,5.5z M69.2,15.2
					c-0.9,0-1.6-0.7-1.6-1.6c0-0.9,0.7-1.6,1.6-1.6c0.9,0,1.6,0.7,1.6,1.6C70.8,14.5,70.1,15.2,69.2,15.2z"/>
			</g>
		</g>
	</g>
</g>
</svg>
