<?xml version="1.0" encoding="UTF-8"?>
<svg width="19px" height="19px" viewBox="0 0 19 19" version="1.1" xmlns="http://www.w3.org/2000/svg" xmlns:xlink="http://www.w3.org/1999/xlink">
    <title>search</title>
    <g id="design" stroke="none" stroke-width="1" fill="none" fill-rule="evenodd">
        <g id="bar_left_actions" transform="translate(-23.000000, -90.000000)" fill="#F6F6F6">
            <g id="Nav" transform="translate(-0.000000, 0.000000)">
                <g id="search" transform="translate(23.000000, 90.000000)">
                    <path d="M3.325,7.913177 C3.325,5.383232 5.38327,3.324962 7.91312,3.324962 C10.443065,3.324962 12.501335,5.383232 12.501335,7.913177 C12.501335,10.443122 10.443065,12.501392 7.91312,12.501392 C5.38327,12.501392 3.325,10.443122 3.325,7.913177 M17.58431,15.430717 L14.47895,12.325262 C15.329295,11.063947 15.826335,9.545562 15.826335,7.913177 C15.826335,3.549827 12.27647,-3.80000001e-05 7.91312,-3.80000001e-05 C3.549865,-3.80000001e-05 0,3.549827 0,7.913177 C0,12.276527 3.549865,15.826392 7.91312,15.826392 C9.268105,15.826392 10.544335,15.483537 11.66049,14.880952 L14.89733,18.117792 C15.268305,18.488767 15.754515,18.674207 16.24082,18.674207 C16.727125,18.674207 17.213335,18.488767 17.58431,18.117792 C18.326355,17.375747 18.326355,16.172667 17.58431,15.430717" id="Fill-1"></path>
                </g>
            </g>
        </g>
    </g>
</svg>