<?xml version="1.0" encoding="utf-8"?>
<!-- Generator: Adobe Illustrator 26.0.3, SVG Export Plug-In . SVG Version: 6.00 Build 0)  -->
<svg version="1.1" id="Ebene_1" xmlns="http://www.w3.org/2000/svg" xmlns:xlink="http://www.w3.org/1999/xlink" x="0px" y="0px"
	 viewBox="0 0 110 110" style="enable-background:new 0 0 110 110;" xml:space="preserve">
<style type="text/css">
	.st0{fill:#FFFFFF;}
</style>
<path class="st0" d="M55,110C24.7,110,0,85.3,0,55S24.7,0,55,0s55,24.7,55,55S85.3,110,55,110z M55,10c-24.8,0-45,20.2-45,45
	s20.2,45,45,45s45-20.2,45-45S79.8,10,55,10z"/>
<circle id="Oval_00000040569283963309162980000013782094169077946281_" class="st0" cx="55.2" cy="36.3" r="6.6"/>
<path class="st0" d="M55.2,86.5L55.2,86.5c-3.6,0-6.6-3-6.6-6.6V56.1c0-3.6,3-6.6,6.6-6.6h0c3.6,0,6.6,3,6.6,6.6v23.8
	C61.8,83.5,58.9,86.5,55.2,86.5z"/>
</svg>
