<?xml version="1.0" encoding="utf-8"?>
<!-- Generator: Adobe Illustrator 24.2.1, SVG Export Plug-In . SVG Version: 6.00 Build 0)  -->
<svg version="1.1" id="Ebene_1" xmlns="http://www.w3.org/2000/svg" xmlns:xlink="http://www.w3.org/1999/xlink" x="0px" y="0px"
	 viewBox="0 0 14 18" style="enable-background:new 0 0 14 18;" xml:space="preserve">
<style type="text/css">
	.st0{fill:#E1E2E3;}
</style>
<desc>Created with Sketch.</desc>
<g id="Symbols">
	<g id="Sidebar" transform="translate(-258.000000, -19.000000)">
		<path id="Shape" class="st0" d="M271.3,21.9h-1.1v-2.2c0-0.4-0.3-0.6-0.7-0.7h-9.5c-1.2,0-2.1,0.9-2.1,2.1v13.8
			c0,1.2,0.9,2.1,2.1,2.1h11.2c0.4,0,0.7-0.3,0.7-0.7V22.5C272,22.2,271.7,21.9,271.3,21.9z M265.7,28.8l-1.6-1.3
			c-0.2-0.1-0.5-0.1-0.7,0l-1.6,1.3v-5.6h3.9V28.8L265.7,28.8z M268.9,21.9h-8.8c-0.4,0-0.8-0.4-0.8-0.8c0-0.4,0.4-0.8,0.8-0.8h8.8
			V21.9z"/>
	</g>
</g>
</svg>
