<?xml version="1.0" encoding="utf-8"?>
<!-- Generator: Adobe Illustrator 25.0.0, SVG Export Plug-In . SVG Version: 6.00 Build 0)  -->
<svg version="1.1" id="Ebene_1" xmlns="http://www.w3.org/2000/svg" xmlns:xlink="http://www.w3.org/1999/xlink" x="0px" y="0px"
	 viewBox="0 0 235 240" style="enable-background:new 0 0 235 240;" xml:space="preserve">
<style type="text/css">
	.st0{fill:#E1DCF3;}
	.st1{fill:#BCB7D0;}
</style>
<desc>Created with Sketch.</desc>
<g id="Icons">
	<g id="Artboard" transform="translate(-393.000000, -518.000000)">
		<g id="global-settings" transform="translate(393.000000, 518.000000)">
			<path id="Shape" class="st0" d="M206.1,132.6c0.6-4,1.1-8,1.1-12.6s-0.6-8.6-1.1-12.6l25.7-18.3c2.3-1.7,3.4-5.1,1.7-8
				l-25.1-42.3c-1.7-2.9-4.6-4-7.4-2.3l-28.6,13.1c-6.9-5.1-13.7-9.1-21.7-12.6l-2.9-31.4c-0.6-2.9-2.9-5.1-5.7-5.1H93
				c-2.9,0-5.7,2.3-5.7,5.1l-2.9,31.4c-8,3.4-15.4,7.4-21.7,12.6L34.1,36.6c-2.9-1.1-6.3,0-7.4,2.3L2.1,81.1c-1.7,2.9-0.6,6.3,1.7,8
				l25.7,18.3c-0.6,4-1.1,8-1.1,12.6s0.6,8.6,1.1,12.6L2.7,150.9c-2.3,1.7-3.4,5.1-1.7,8l24.6,42.3c1.7,2.9,4.6,4,7.4,2.3l28.6-13.1
				c6.9,5.1,13.7,9.1,21.7,12.6l2.9,31.4c0.6,2.9,2.9,5.1,5.7,5.1H141c2.9,0,5.7-2.3,5.7-5.1l2.9-31.4c8-3.4,15.4-7.4,21.7-12.6
				l28.6,13.1c2.9,1.1,6.3,0,7.4-2.3l24.6-42.3c1.7-2.9,0.6-6.3-1.7-8L206.1,132.6z M117,177.1c-31.4,0-57.1-25.7-57.1-57.1
				S85.6,62.9,117,62.9s57.1,25.7,57.1,57.1S148.4,177.1,117,177.1z"/>
			<path id="Shape_1_" class="st1" d="M117,51.4c-37.7,0-68.6,30.9-68.6,68.6s30.9,68.6,68.6,68.6s68.6-30.9,68.6-68.6
				S154.7,51.4,117,51.4z M117,148.6c-16,0-28.6-12.6-28.6-28.6S101,91.4,117,91.4s28.6,12.6,28.6,28.6S133,148.6,117,148.6z"/>
		</g>
	</g>
</g>
</svg>
