<?xml version="1.0" encoding="utf-8"?>
<svg version="1.1" id="Ebene_1" xmlns="http://www.w3.org/2000/svg" xmlns:xlink="http://www.w3.org/1999/xlink" x="0px" y="0px"
	 viewBox="0 0 384 351" style="enable-background:new 0 0 384 351;" xml:space="preserve">
<style type="text/css">
	.st0{filter:url(#Adobe_OpacityMaskFilter);}
	.st1{fill-rule:evenodd;clip-rule:evenodd;fill:#FFFFFF;}
	.st2{mask:url(#mask-2_1_);fill-rule:evenodd;clip-rule:evenodd;fill:#E1DCF3;}
	.st3{filter:url(#Adobe_OpacityMaskFilter_1_);}
	.st4{mask:url(#mask-4_1_);fill-rule:evenodd;clip-rule:evenodd;fill:#F5F0FF;}
</style>
<g id="Menu-Icons-EXPORT">
	<g id="EXPORT" transform="translate(-514.000000, -553.000000)">
		<g id="comments" transform="translate(514.000000, 553.000000)">
			<g id="Group-3" transform="translate(0.000000, 0.495965)">
				<g id="Clip-2">
				</g>
				<defs>
					<filter id="Adobe_OpacityMaskFilter" filterUnits="userSpaceOnUse" x="0" y="0.3" width="383.8" height="349.7">
						<feColorMatrix  type="matrix" values="1 0 0 0 0  0 1 0 0 0  0 0 1 0 0  0 0 0 1 0"/>
					</filter>
				</defs>
				<mask maskUnits="userSpaceOnUse" x="0" y="0.3" width="383.8" height="349.7" id="mask-2_1_">
					<g class="st0">
						<polygon id="path-1_1_" class="st1" points="0,0.3 383.8,0.3 383.8,350 0,350 						"/>
					</g>
				</mask>
				<path id="Fill-1" class="st2" d="M274.5,143.7h-158c-6.9,0-12.4-5.6-12.4-12.4c0-6.9,5.6-12.4,12.4-12.4h158
					c6.9,0,12.4,5.6,12.4,12.4C286.9,138.1,281.3,143.7,274.5,143.7 M104.1,175.2c0-6.9,5.6-12.4,12.4-12.4h158
					c6.9,0,12.4,5.6,12.4,12.4c0,6.9-5.6,12.4-12.4,12.4h-158C109.6,187.6,104.1,182.1,104.1,175.2 M296.7,0.3H87.1
					C39.1,0.3,0,39.4,0,87.4v134.5c0,38.3,25.2,71.7,61.6,82.4l42.1,42.1c2.3,2.3,5.5,3.6,8.8,3.6c3.3,0,6.5-1.3,8.8-3.6l38.6-38.6
					h136.8c48,0,87.1-39.1,87.1-87.1V87.4C383.8,39.4,344.7,0.3,296.7,0.3"/>
			</g>
			<g id="Group-6" transform="translate(0.000000, 0.495965)">
				<g id="Clip-5">
				</g>
				<defs>
					<filter id="Adobe_OpacityMaskFilter_1_" filterUnits="userSpaceOnUse" x="0" y="0.3" width="195.5" height="349.7">
						<feColorMatrix  type="matrix" values="1 0 0 0 0  0 1 0 0 0  0 0 1 0 0  0 0 0 1 0"/>
					</filter>
				</defs>
				<mask maskUnits="userSpaceOnUse" x="0" y="0.3" width="195.5" height="349.7" id="mask-4_1_">
					<g class="st3">
						<polygon id="path-3_1_" class="st1" points="0,0.3 195.5,0.3 195.5,350 0,350 						"/>
					</g>
				</mask>
				<path id="Fill-4" class="st4" d="M0,87.4v134.5c0,38.3,25.2,71.7,61.6,82.4l42.1,42.1c2.3,2.3,5.5,3.6,8.8,3.6
					c3.3,0,6.5-1.3,8.8-3.6l38.6-38.6h35.6V187.6h-79c-6.9,0-12.4-5.6-12.4-12.4c0-6.9,5.6-12.4,12.4-12.4h79v-19.1h-79
					c-6.9,0-12.4-5.6-12.4-12.4c0-6.9,5.6-12.4,12.4-12.4h79V0.3H87.1C39.1,0.3,0,39.4,0,87.4"/>
			</g>
		</g>
	</g>
</g>
</svg>
