<?xml version="1.0" encoding="utf-8"?>
<!-- Generator: Adobe Illustrator 25.0.0, SVG Export Plug-In . SVG Version: 6.00 Build 0)  -->
<svg version="1.1" id="Ebene_1" xmlns="http://www.w3.org/2000/svg" xmlns:xlink="http://www.w3.org/1999/xlink" x="0px" y="0px"
	 viewBox="0 0 117 117" style="enable-background:new 0 0 117 117;" xml:space="preserve">
<style type="text/css">
	.st0{fill-rule:evenodd;clip-rule:evenodd;fill:#FFFFFF;}
</style>
<desc>Created with Sketch.</desc>
<g id="Icons">
	<g id="EXIT" transform="translate(-345.000000, -148.000000)">
		<g id="icon_close" transform="translate(343.000000, 146.000000)">
			<path id="Rectangle" class="st0" d="M16.2,3.9l100.9,100.9c2,2,2,5.1,0,7.1l-4.9,4.9c-2,2-5.1,2-7.1,0L4.2,15.9c-2-2-2-5.1,0-7.1
				l4.9-4.9C11.1,1.9,14.2,1.9,16.2,3.9z"/>
			<path id="Rectangle_1_" class="st0" d="M117.1,15.9L16.2,116.8c-2,2-5.1,2-7.1,0l-4.9-4.9c-2-2-2-5.1,0-7.1L105.1,3.9
				c2-2,5.1-2,7.1,0l4.9,4.9C119.1,10.8,119.1,13.9,117.1,15.9z"/>
		</g>
	</g>
</g>
</svg>
