<?xml version="1.0" encoding="utf-8"?>
<!-- Generator: Adobe Illustrator 24.2.1, SVG Export Plug-In . SVG Version: 6.00 Build 0)  -->
<svg version="1.1" id="Ebene_1" xmlns="http://www.w3.org/2000/svg" xmlns:xlink="http://www.w3.org/1999/xlink" x="0px" y="0px"
	 viewBox="0 0 18 19" style="enable-background:new 0 0 18 19;" xml:space="preserve">
<style type="text/css">
	.st0{fill-rule:evenodd;clip-rule:evenodd;fill:#F6F6F6;}
</style>
<desc>Created with Sketch.</desc>
<g id="configuration">
	<g id="Fill-1">
		<path class="st0" d="M9,6c1.9,0,3.4,1.5,3.4,3.4s-1.5,3.4-3.4,3.4c-1.9,0-3.4-1.5-3.4-3.4S7.1,6,9,6 M0.1,12.6l1.7,2.9
			c0.2,0.3,0.6,0.5,1,0.4L5.3,15c0.2,0.1,0.4,0.3,0.7,0.4L6.5,18c0.1,0.4,0.4,0.7,0.8,0.7h3.4c0.4,0,0.7-0.3,0.8-0.7l0.5-2.6
			c0.2-0.1,0.5-0.2,0.7-0.4l2.5,0.8c0.4,0.1,0.8,0,1-0.4l1.7-2.9c0.2-0.3,0.1-0.8-0.2-1.1l-2-1.7c0-0.1,0-0.3,0-0.4
			c0-0.1,0-0.3,0-0.4l2-1.7C18,7,18.1,6.6,17.9,6.2l-1.7-2.9c-0.2-0.3-0.6-0.5-1-0.4l-2.5,0.8c-0.2-0.1-0.4-0.3-0.7-0.4l-0.5-2.6
			c-0.1-0.4-0.4-0.7-0.8-0.7H7.3c-0.4,0-0.7,0.3-0.8,0.7L6,3.3C5.7,3.5,5.5,3.6,5.3,3.7L2.8,2.9c-0.4-0.1-0.8,0-1,0.4L0.1,6.2
			C-0.1,6.6,0,7,0.3,7.3l2,1.7c0,0.1,0,0.3,0,0.4c0,0.1,0,0.3,0,0.4l-2,1.7C0,11.8-0.1,12.2,0.1,12.6"/>
	</g>
</g>
</svg>
