<?xml version="1.0" encoding="utf-8"?>
<!-- Generator: Adobe Illustrator 24.2.1, SVG Export Plug-In . SVG Version: 6.00 Build 0)  -->
<svg version="1.1" id="Ebene_1" xmlns="http://www.w3.org/2000/svg" xmlns:xlink="http://www.w3.org/1999/xlink" x="0px" y="0px"
	 viewBox="0 0 17 17" style="enable-background:new 0 0 17 17;" xml:space="preserve">
<style type="text/css">
	.st0{fill-rule:evenodd;clip-rule:evenodd;fill:#F6F6F6;}
</style>
<desc>Created with Sketch.</desc>
<g id="customization">
	<g>
		<path id="Stroke-1" class="st0" d="M5.8,6.3H0.6C0.2,6.3,0,6.1,0,5.8V0.6C0,0.2,0.2,0,0.6,0h5.2c0.3,0,0.6,0.2,0.6,0.6v5.2
			C6.3,6.1,6.1,6.3,5.8,6.3z"/>
		<path id="Stroke-3" class="st0" d="M15.8,6.3h-5.2c-0.3,0-0.6-0.2-0.6-0.6V0.6C10,0.2,10.3,0,10.6,0h5.2c0.3,0,0.6,0.2,0.6,0.6
			v5.2C16.4,6.1,16.1,6.3,15.8,6.3z"/>
		<path id="Stroke-5" class="st0" d="M5.8,16.4H0.6c-0.3,0-0.6-0.2-0.6-0.6v-5.2C0,10.3,0.2,10,0.6,10h5.2c0.3,0,0.6,0.2,0.6,0.6
			v5.2C6.3,16.1,6.1,16.4,5.8,16.4z"/>
		<path id="Stroke-7" class="st0" d="M15.8,16.4h-5.2c-0.3,0-0.6-0.2-0.6-0.6v-5.2c0-0.3,0.2-0.6,0.6-0.6h5.2c0.3,0,0.6,0.2,0.6,0.6
			v5.2C16.4,16.1,16.1,16.4,15.8,16.4z"/>
	</g>
</g>
</svg>
