<?xml version="1.0" encoding="utf-8"?>
<!-- Generator: Adobe Illustrator 24.2.1, SVG Export Plug-In . SVG Version: 6.00 Build 0)  -->
<svg version="1.1" id="Ebene_1" xmlns="http://www.w3.org/2000/svg" xmlns:xlink="http://www.w3.org/1999/xlink" x="0px" y="0px"
	 viewBox="0 0 19 19" style="enable-background:new 0 0 19 19;" xml:space="preserve">
<style type="text/css">
	.st0{fill:#E1E2E3;}
</style>
<desc>Created with Sketch.</desc>
<g id="Master">
	<g id="Text-Sidebar-Right" transform="translate(-1164.000000, -14.000000)">
		<g id="Sidebar" transform="translate(1139.000000, 0.000000)">
			<g id="worldwide" transform="translate(25.000000, 14.000000)">
				<path id="Shape" class="st0" d="M9.3,0C4.2,0,0,4.2,0,9.3s4.2,9.3,9.3,9.3s9.3-4.2,9.3-9.3S14.5,0,9.3,0z M16.4,7.9l-1.7,0.3
					c-0.3,0-0.6,0.3-0.7,0.5l-0.4,0.7c-0.1,0.2-0.2,0.7-0.1,0.9l0.4,1.9c0.1,0.3-0.1,0.5-0.4,0.6l-1,0.3c-0.3,0.1-0.6,0.3-0.8,0.5
					l-0.6,0.7c-0.2,0.2-0.5,0.3-0.8,0.3l-1.1-0.1c-0.3,0-0.4-0.2-0.3-0.5l0.2-0.6c0.1-0.3,0-0.6-0.3-0.7l-0.4-0.3
					c-0.2-0.1-0.5-0.1-0.7,0.1l-1.3,1.7c-0.2,0.2-0.1,0.5,0.1,0.7L7,15.5c0.2,0.2,0.3,0.5,0.3,0.8l-0.1,0.4
					c-1.9-0.6-3.5-1.9-4.5-3.6L3,12.8c0.2-0.2,0.4-0.5,0.5-0.8l0.1-0.3c0.1-0.3-0.1-0.6-0.2-0.8l-0.3-0.3C2.8,10.3,2.8,10,3,9.9
					l0.6-0.4c0.2-0.1,0.6-0.1,0.8,0l0.6,0.4c0.2,0.1,0.6,0.2,0.8,0l0.7-0.4c0.2-0.1,0.5-0.4,0.5-0.7l0.1-0.5c0.1-0.3,0-0.7-0.1-0.9
					L6.8,6.5C6.7,6.3,6.8,6,7,5.9l1-0.5C8.3,5.3,8.5,5,8.5,4.7l0.1-0.8c0-0.3,0-0.7-0.2-0.9L7.9,2.3C7.9,2.1,7.8,2,7.8,1.9
					c0.5-0.1,1-0.2,1.5-0.2c3.7,0,6.8,2.7,7.5,6.2C16.7,7.9,16.5,7.9,16.4,7.9z"/>
			</g>
		</g>
	</g>
</g>
</svg>
