<?xml version="1.0" encoding="utf-8"?>
<!-- Generator: Adobe Illustrator 23.0.1, SVG Export Plug-In . SVG Version: 6.00 Build 0)  -->
<svg version="1.1" id="Layer_1" xmlns="http://www.w3.org/2000/svg" xmlns:xlink="http://www.w3.org/1999/xlink" x="0px" y="0px"
	 viewBox="0 0 1920 576" style="enable-background:new 0 0 1920 576;" xml:space="preserve">
<style type="text/css">
	.st0{clip-path:url(#SVGID_2_);}
	.st1{clip-path:url(#SVGID_4_);fill:#FFFFFF;}
	.st2{clip-path:url(#SVGID_6_);}
	.st3{clip-path:url(#SVGID_8_);fill:#13D389;}
</style>
<g>
	<g>
		<g>
			<defs>
				<path id="SVGID_1_" d="M1761.9,381.1V142.2h28.8v153.1l77.9-83.1h36l-64.8,68.7l66.1,100.1h-34.4l-51.7-79.2l-29.1,30.4V381
					h-28.8V381.1z M1479.8,381.1V212.3h24.5l1,26.5c13.4-20.9,30.1-30.4,53-30.4c23.6,0,39.6,10.1,46.5,29.4
					c14.1-20.9,31.4-29.4,53-29.4c33.7,0,52.4,20.3,52.4,57.6v115.2h-28.8v-113c0-22.6-9.8-33.4-27.5-33.4s-32.1,11.1-44.5,35.7
					v110.6h-28.8V268.2c0-22.6-9.8-33.4-27.5-33.4c-18,0-32.1,11.1-44.5,37.3v109H1479.8z M1311.6,381.1V142.2h18.3v164.6l93.6-93.3
					h23.6l-68.7,68.4l70,99.1h-22.3l-60.9-86.1l-35.3,34.7V381L1311.6,381.1L1311.6,381.1z M1203,385c-43.8,0-68.4-24.9-68.4-71
					v-33.4c0-46.1,24.2-71,68.1-71c40.6,0,63.8,21.3,65.4,57.9h-17.7c-2-28.1-18-41.9-47.1-41.9c-33.7,0-50.4,18.3-50.4,56V313
					c0,37.6,16.7,56,50.4,56c29.1,0,45.2-13.7,47.1-41.9h17.7C1266.5,363.1,1243.9,385,1203,385z M974.3,285.6h102.4V282
					c0-38-16.7-56.3-51.4-56.3c-34.7,0-51,18.3-51,56.3L974.3,285.6L974.3,285.6z M1026.9,385c-45.8,0-71-24.9-71-71v-33.4
					c0-46.1,24.5-71,69.4-71s69,24.9,69,71v20.6h-120v11.5c0,38,17,56.3,52,56.3c30.1,0,47.1-13.7,49.1-37h17.7
					C1090.8,366.4,1066.5,385,1026.9,385z M779.6,381.1V142.2h18.3V243c14.1-22.6,33.4-33.4,58.2-33.4c34.7,0,52.4,20.9,52.4,60.5
					V381h-18.3V272c0-30.8-11.8-45.8-37-45.8c-23.6,0-41.9,13.1-55.3,43.5V381L779.6,381.1L779.6,381.1z M670.9,385
					c-43.8,0-68.4-24.9-68.4-71v-33.4c0-46.1,24.2-71,68.1-71c40.6,0,63.8,21.3,65.4,57.9h-17.7c-2-28.1-18-41.9-47.1-41.9
					c-33.7,0-50.4,18.3-50.4,56V313c0,37.6,16.7,56,50.4,56c29.1,0,45.2-13.7,47.1-41.9H736C734.4,363.1,711.8,385,670.9,385z"/>
			</defs>
			<clipPath id="SVGID_2_">
				<use xlink:href="#SVGID_1_"  style="overflow:visible;"/>
			</clipPath>
			<g class="st0">
				<g>
					<defs>
						<rect id="SVGID_3_" x="-471.6" y="-1081" width="4986.2" height="2804.8"/>
					</defs>
					<clipPath id="SVGID_4_">
						<use xlink:href="#SVGID_3_"  style="overflow:visible;"/>
					</clipPath>
					<rect x="589.6" y="129.2" class="st1" width="1329.3" height="268.8"/>
				</g>
			</g>
		</g>
	</g>
	<g>
		<g>
			<defs>
				<path id="SVGID_5_" d="M90.6,218.4v85.7l105-67.9v176.7l41.4,23.9l41.4-23.9V236.3l105,67.9v-85.7L237,126.7L90.6,218.4z
					 M237.1,30.5l223.1,129v258.1l-223.1,129L14,417.7V159.6L237.1,30.5z"/>
			</defs>
			<clipPath id="SVGID_6_">
				<use xlink:href="#SVGID_5_"  style="overflow:visible;"/>
			</clipPath>
			<g class="st2">
				<g>
					<defs>
						<rect id="SVGID_7_" x="-471.6" y="-1081" width="4986.2" height="2804.8"/>
					</defs>
					<clipPath id="SVGID_8_">
						<use xlink:href="#SVGID_7_"  style="overflow:visible;"/>
					</clipPath>
					<rect x="1" y="17.5" class="st3" width="472.1" height="542.2"/>
				</g>
			</g>
		</g>
	</g>
</g>
</svg>
