<?xml version="1.0" encoding="UTF-8"?>
<svg width="370px" height="240px" viewBox="0 0 370 240" version="1.1" xmlns="http://www.w3.org/2000/svg" xmlns:xlink="http://www.w3.org/1999/xlink">
    <!-- Generator: Sketch 58 (84663) - https://sketch.com -->
    <title>speedo</title>
    <desc>Created with Sketch.</desc>
    <g id="speedo" stroke="none" stroke-width="1" fill="none" fill-rule="evenodd">
        <g id="speedometer" transform="translate(10.000000, 18.000000)">
            <path d="M50.6,57.6 L56.2,66.6" id="Path" stroke="#EAEAEA" stroke-width="2"></path>
            <path d="M44.2,61.6 L50.2,70.6" id="Path" stroke="#EAEAEA" stroke-width="2"></path>
            <path d="M38.2,66 L44.4,74.6" id="Path" stroke="#EAEAEA" stroke-width="2"></path>
            <path d="M32.2,70.4 L38.6,78.8" id="Path" stroke="#EAEAEA" stroke-width="2"></path>
            <path d="M26.4,75.2 L33.2,83.4" id="Path" stroke="#EAEAEA" stroke-width="2"></path>
            <path d="M20.6,80.2 L27.8,88" id="Path" stroke="#EAEAEA" stroke-width="2"></path>
            <path d="M15.2,85.2 L30.6,101.2" id="Path" stroke="#EAEAEA" stroke-width="4"></path>
            <path d="M313.2,85.2 L297.8,101.2" id="Path" stroke="#EAEAEA" stroke-width="4"></path>
            <path d="M307.8,80.2 L300.6,88" id="Path" stroke="#EAEAEA" stroke-width="2"></path>
            <path d="M302.2,75.2 L295.4,83.4" id="Path" stroke="#EAEAEA" stroke-width="2"></path>
            <path d="M296.4,70.4 L289.8,78.8" id="Path" stroke="#EAEAEA" stroke-width="2"></path>
            <path d="M290.4,66 L284.2,74.6" id="Path" stroke="#EAEAEA" stroke-width="2"></path>
            <path d="M284.2,61.6 L278.2,70.6" id="Path" stroke="#EAEAEA" stroke-width="2"></path>
            <path d="M278,57.6 L272.4,66.6" id="Path" stroke="#EAEAEA" stroke-width="2"></path>
            <path d="M164.2,25 L164.2,35.6" id="Path" stroke="#EAEAEA" stroke-width="2"></path>
            <path d="M156.8,25.2 L157.2,35.8" id="Path" stroke="#EAEAEA" stroke-width="2"></path>
            <path d="M149.2,26.2 L150.8,46.2" id="Path" stroke="#EAEAEA" stroke-width="4"></path>
            <path d="M141.8,26.2 L143,36.8" id="Path" stroke="#EAEAEA" stroke-width="2"></path>
            <path d="M134.4,27 L135.8,37.6" id="Path" stroke="#EAEAEA" stroke-width="2"></path>
            <path d="M127,28.2 L128.8,38.8" id="Path" stroke="#EAEAEA" stroke-width="2"></path>
            <path d="M119.6,29.6 L121.8,40.2" id="Path" stroke="#EAEAEA" stroke-width="2"></path>
            <path d="M112.4,31.4 L115,41.8" id="Path" stroke="#EAEAEA" stroke-width="2"></path>
            <path d="M105,33.4 L108,43.6" id="Path" stroke="#EAEAEA" stroke-width="2"></path>
            <path d="M98,35.6 L101.2,45.6" id="Path" stroke="#EAEAEA" stroke-width="2"></path>
            <path d="M90.8,38 L94.4,48" id="Path" stroke="#EAEAEA" stroke-width="2"></path>
            <path d="M83.8,40.6 L87.8,50.6" id="Path" stroke="#EAEAEA" stroke-width="2"></path>
            <path d="M77,43.6 L81.2,53.2" id="Path" stroke="#EAEAEA" stroke-width="2"></path>
            <path d="M70.2,46.8 L74.8,56.2" id="Path" stroke="#EAEAEA" stroke-width="2"></path>
            <path d="M63.4,50.2 L68.6,59.6" id="Path" stroke="#EAEAEA" stroke-width="2"></path>
            <path d="M57,53.8 L62.2,63" id="Path" stroke="#EAEAEA" stroke-width="2"></path>
            <path d="M271.6,53.8 L266.2,63" id="Path" stroke="#EAEAEA" stroke-width="2"></path>
            <path d="M265,50.2 L260,59.6" id="Path" stroke="#EAEAEA" stroke-width="2"></path>
            <path d="M258.4,46.8 L253.6,56.2" id="Path" stroke="#EAEAEA" stroke-width="2"></path>
            <path d="M251.6,43.6 L247.2,53.2" id="Path" stroke="#EAEAEA" stroke-width="2"></path>
            <path d="M244.6,40.6 L240.6,50.6" id="Path" stroke="#EAEAEA" stroke-width="2"></path>
            <path d="M237.6,38 L234,48" id="Path" stroke="#EAEAEA" stroke-width="2"></path>
            <path d="M230.6,35.6 L227.2,45.6" id="Path" stroke="#EAEAEA" stroke-width="2"></path>
            <path d="M223.4,33.4 L220.4,43.6" id="Path" stroke="#EAEAEA" stroke-width="2"></path>
            <path d="M216.2,31.4 L213.6,41.8" id="Path" stroke="#EAEAEA" stroke-width="2"></path>
            <path d="M208.8,29.6 L206.6,40.2" id="Path" stroke="#EAEAEA" stroke-width="2"></path>
            <path d="M201.6,28.2 L199.6,38.8" id="Path" stroke="#EAEAEA" stroke-width="2"></path>
            <path d="M194.2,27 L192.6,37.6" id="Path" stroke="#EAEAEA" stroke-width="2"></path>
            <path d="M186.6,26.2 L185.6,36.8" id="Path" stroke="#EAEAEA" stroke-width="2"></path>
            <path d="M179.2,25.6 L178.4,36.2" id="Path" stroke="#EAEAEA" stroke-width="2"></path>
            <path d="M171.8,25.2 L171.4,35.8" id="Path" stroke="#EAEAEA" stroke-width="2"></path>
            <path d="M9,73.6 C9,74.6 8.8,75.4 8.6,76.2 C8.4,77 8,77.6 7.8,78 C7.4,78.4 7,78.8 6.4,79 C5.8,79.2 5.4,79.4 4.8,79.4 C4.2,79.4 3.6,79.2 3.2,79 C2.6,78.8 2.2,78.4 1.8,78 C1.4,77.6 1.2,77 1,76.2 C0.8,75.4 0.6,74.6 0.6,73.6 C0.6,72.6 0.8,71.8 1,71 C1.2,70.2 1.6,69.6 1.8,69.2 C2.2,68.8 2.6,68.4 3.2,68.2 C3.8,68 4.2,67.8 4.8,67.8 C5.4,67.8 6,68 6.4,68.2 C7,68.4 7.4,68.8 7.8,69.2 C8.2,69.6 8.4,70.2 8.6,71 C9,71.6 9,72.4 9,73.6 Z M7,73.6 C7,72.8 7,72 6.8,71.6 C6.6,71 6.6,70.6 6.4,70.2 C6.2,69.8 6,69.6 5.6,69.6 C5.4,69.4 5,69.4 4.8,69.4 C4.6,69.4 4.2,69.4 4,69.6 C3.8,69.8 3.6,70 3.2,70.2 C3,70.6 2.8,71 2.8,71.6 C2.6,72.2 2.6,72.8 2.6,73.6 C2.6,74.4 2.6,75.2 2.8,75.6 C3,76.2 3,76.6 3.2,77 C3.4,77.4 3.6,77.6 4,77.6 C4.2,77.8 4.6,77.8 4.8,77.8 C5,77.8 5.4,77.8 5.6,77.6 C5.8,77.4 6.2,77.2 6.4,77 C6.6,76.6 6.8,76.2 6.8,75.6 C7,75 7,74.4 7,73.6 Z" id="Shape" fill="#FFFFFF" fill-rule="nonzero"></path>
            <g id="Group" transform="translate(136.000000, 0.000000)" fill="#FFFFFF" fill-rule="nonzero">
                <path d="M7.8,1.6 C7.8,1.8 7.8,2.2 7.6,2.2 C7.4,2.4 7.2,2.4 6.8,2.4 L3.6,2.4 L3.2,4.8 C3.8,4.6 4.2,4.6 4.6,4.6 C5.2,4.6 5.8,4.6 6.2,4.8 C6.6,5 7,5.2 7.4,5.6 C7.8,6 8,6.2 8.2,6.8 C8.4,7.2 8.4,7.6 8.4,8.2 C8.4,8.8 8.2,9.4 8,9.8 C7.8,10.4 7.4,10.8 7,11.2 C6.6,11.6 6.2,11.8 5.6,12 C5,12.2 4.6,12.2 3.8,12.2 C3.4,12.2 3,12.2 2.8,12 C2.4,12 2.2,11.8 1.8,11.8 C1.6,11.6 1.2,11.6 1,11.4 C0.8,11.2 0.6,11 0.4,10.8 L1,10 C1.2,9.8 1.2,9.8 1.6,9.8 C1.8,9.8 1.8,9.8 2,10 C2.2,10 2.2,10.2 2.4,10.2 C2.6,10.4 2.8,10.4 3,10.4 C3.2,10.4 3.6,10.6 3.8,10.6 C4.2,10.6 4.4,10.6 4.8,10.4 C5.2,10.2 5.4,10.2 5.4,10 C5.6,9.8 5.8,9.6 5.8,9.2 C5.8,9 6,8.6 6,8.2 C6,7.6 5.8,7 5.4,6.8 C5,6.4 4.4,6.2 3.8,6.2 C3.2,6.2 2.6,6.4 2.2,6.6 L1,6.2 L2,0.6 L7.8,0.6 L7.8,1.6 Z" id="Path"></path>
                <path d="M18,6.6 C18,7.6 17.8,8.4 17.6,9.2 C17.4,10 17,10.6 16.8,11 C16.4,11.4 16,11.8 15.4,12 C14.8,12.2 14.4,12.4 13.8,12.4 C13.2,12.4 12.6,12.2 12.2,12 C11.6,11.8 11.2,11.4 10.8,11 C10.4,10.6 10.2,10 10,9.2 C9.8,8.4 9.6,7.6 9.6,6.6 C9.6,5.6 9.8,4.8 10,4 C10.2,3.2 10.6,2.6 10.8,2.2 C11.2,1.8 11.6,1.4 12.2,1.2 C12.8,1 13.2,0.8 13.8,0.8 C14.4,0.8 15,1 15.4,1.2 C15.8,1.4 16.4,1.8 16.8,2.2 C17.2,2.6 17.4,3.2 17.6,4 C17.8,4.8 18,5.6 18,6.6 Z M16,6.6 C16,5.8 16,5 15.8,4.6 C15.6,4 15.6,3.6 15.4,3.2 C15.2,2.8 15,2.6 14.6,2.6 C14.4,2.4 14,2.4 13.8,2.4 C13.6,2.4 13.2,2.4 13,2.6 C12.8,2.8 12.6,3 12.2,3.2 C12,3.6 11.8,4 11.8,4.6 C11.6,5.2 11.6,5.8 11.6,6.6 C11.6,7.4 11.6,8.2 11.8,8.6 C12,9.2 12,9.6 12.2,10 C12.4,10.4 12.6,10.6 13,10.6 C13.2,10.8 13.6,10.8 13.8,10.8 C14,10.8 14.4,10.8 14.6,10.6 C14.8,10.4 15.2,10.2 15.4,10 C15.6,9.6 15.8,9.2 15.8,8.6 C16,8 16,7.4 16,6.6 Z" id="Shape"></path>
                <path d="M24.2,3.6 C24.2,4 24.2,4.4 24,4.8 C23.8,5.2 23.6,5.4 23.4,5.8 C23.2,6.2 22.8,6.2 22.6,6.4 C22.2,6.6 22,6.6 21.6,6.6 C21.2,6.6 20.8,6.6 20.6,6.4 C20.2,6.2 20,6 19.8,5.8 C19.6,5.6 19.4,5.2 19.2,4.8 C19,4.4 19,4 19,3.6 C19,3.2 19,2.8 19.2,2.4 C19.4,2 19.6,1.8 19.8,1.4 C20,1.2 20.4,1 20.6,0.8 C21,0.6 21.2,0.6 21.6,0.6 C22,0.6 22.4,0.6 22.6,0.8 C23,1 23.2,1.2 23.4,1.4 C23.6,1.6 23.8,2 24,2.4 C24.2,2.8 24.2,3.2 24.2,3.6 Z M28,1 L28,1 C28.2,0.8 28.4,0.8 28.6,0.8 L30,0.8 L21.4,12 L21.2,12.2 C21.2,12.2 21,12.2 20.8,12.2 L19.4,12.2 L28,1 Z M22.8,3.6 C22.8,3.2 22.8,3 22.8,2.8 C22.8,2.6 22.6,2.4 22.6,2.2 C22.4,2 22.4,2 22.2,2 C22,2 22,2 21.8,2 C21.6,2 21.4,2 21.4,2 C21.2,2 21.2,2.2 21,2.2 C20.8,2.2 20.8,2.4 20.8,2.8 C20.8,3.2 20.8,3.2 20.8,3.6 C20.8,3.8 20.8,4.2 20.8,4.4 C20.8,4.6 21,4.8 21,4.8 C21.2,5 21.2,5 21.4,5 C21.6,5 21.6,5 21.8,5 C22,5 22.2,5 22.2,5 C22.4,5 22.4,4.8 22.6,4.8 C22.8,4.6 22.8,4.6 22.8,4.4 C22.6,4.2 22.8,3.8 22.8,3.6 Z M30.8,9.6 C30.8,10 30.8,10.4 30.6,10.8 C30.4,11.2 30.2,11.4 30,11.6 C29.8,11.8 29.4,12 29.2,12.2 C28.8,12.4 28.6,12.4 28.2,12.4 C27.8,12.4 27.4,12.4 27.2,12.2 C26.8,12 26.6,11.8 26.4,11.6 C26.2,11.4 26,11 25.8,10.8 C25.6,10.4 25.6,10 25.6,9.6 C25.6,9.2 25.6,8.8 25.8,8.4 C26,8 26.2,7.8 26.4,7.4 C26.6,7.2 27,7 27.2,6.8 C27.6,6.6 27.8,6.6 28.2,6.6 C28.6,6.6 29,6.6 29.2,6.8 C29.6,7 29.8,7.2 30,7.4 C30.2,7.6 30.4,8 30.6,8.4 C30.8,8.8 30.8,9.2 30.8,9.6 Z M29.2,9.6 C29.2,9.2 29.2,9 29.2,8.8 C29.2,8.6 29,8.4 29,8.2 C29,8 28.8,8 28.6,8 C28.4,8 28.4,8 28.2,8 C28,8 27.8,8 27.8,8 C27.6,8 27.6,8.2 27.4,8.2 C27.4,8.4 27.2,8.4 27.2,8.8 C27.2,9 27.2,9.2 27.2,9.6 C27.2,9.8 27.2,10.2 27.2,10.4 C27.2,10.6 27.4,10.8 27.4,10.8 C27.4,11 27.6,11 27.8,11 C28,11 28,11 28.2,11 C28.4,11 28.6,11 28.6,11 C28.8,11 28.8,10.8 29,10.8 C29.2,10.8 29.2,10.6 29.2,10.4 C29.2,10.2 29.2,10 29.2,9.6 Z" id="Shape"></path>
            </g>
            <g id="Group" transform="translate(314.000000, 62.000000)" fill="#FFFFFF" fill-rule="nonzero">
                <path d="M1.4,11.2 L3.8,11.2 L3.8,4.4 C3.8,4.2 3.8,3.8 3.8,3.6 L2.2,5 C2.2,5 2,5 2,5.2 L1.8,5.2 C1.6,5.2 1.6,5.2 1.6,5.2 C1.6,5.2 1.4,5.2 1.4,5 L0.8,4.2 L4.4,1.2 L6,1.2 L6,11.4 L8,11.4 L8,12.8 L1.6,12.8 L1.4,11.2 L1.4,11.2 Z" id="Path"></path>
                <path d="M17.4,6.8 C17.4,7.8 17.2,8.6 17,9.4 C16.8,10.2 16.4,10.8 16.2,11.2 C15.8,11.6 15.4,12 14.8,12.2 C14.2,12.4 13.8,12.6 13.2,12.6 C12.6,12.6 12,12.4 11.6,12.2 C11,12 10.6,11.6 10.2,11.2 C9.8,10.8 9.6,10.2 9.4,9.4 C9.2,8.6 9,7.8 9,6.8 C9,5.8 9.2,5 9.4,4.2 C9.6,3.4 10,2.8 10.2,2.4 C10.4,2 11,1.6 11.6,1.4 C12.2,1.2 12.6,1 13.2,1 C13.8,1 14.4,1.2 14.8,1.4 C15.4,1.6 15.8,2 16.2,2.4 C16.6,2.8 16.8,3.4 17,4.2 C17.4,5 17.4,5.8 17.4,6.8 Z M15.4,6.8 C15.4,6 15.4,5.2 15.2,4.8 C15,4.2 15,3.8 14.8,3.4 C14.6,3 14.4,2.8 14,2.8 C13.8,2.6 13.4,2.6 13.2,2.6 C13,2.6 12.6,2.6 12.4,2.8 C12.2,3 12,3.2 11.8,3.4 C11.6,3.6 11.4,4.2 11.4,4.8 C11.2,5.4 11.2,6 11.2,6.8 C11.2,7.6 11.2,8.4 11.4,8.8 C11.6,9.4 11.6,9.8 11.8,10.2 C12,10.6 12.2,10.8 12.4,10.8 C12.6,11 13,11 13.2,11 C13.4,11 13.8,11 14,10.8 C14.2,10.6 14.6,10.4 14.8,10.2 C15,9.8 15.2,9.4 15.2,8.8 C15.4,8.4 15.4,7.6 15.4,6.8 Z" id="Shape"></path>
                <path d="M26.8,6.8 C26.8,7.8 26.6,8.6 26.4,9.4 C26.2,10.2 25.8,10.8 25.6,11.2 C25.2,11.6 24.8,12 24.2,12.2 C23.6,12.4 23.2,12.6 22.6,12.6 C22,12.6 21.4,12.4 21,12.2 C20.4,12 20,11.6 19.6,11.2 C19.2,10.8 19,10.2 18.8,9.4 C18.6,8.6 18.4,7.8 18.4,6.8 C18.4,5.8 18.6,5 18.8,4.2 C19,3.4 19.4,2.8 19.6,2.4 C20,2 20.4,1.6 21,1.4 C21.6,1.2 22,1 22.6,1 C23.2,1 23.8,1.2 24.2,1.4 C24.6,1.6 25.2,2 25.6,2.4 C26,2.8 26.2,3.4 26.4,4.2 C26.6,5 26.8,5.8 26.8,6.8 Z M24.6,6.8 C24.6,6 24.6,5.2 24.4,4.8 C24.2,4.2 24.2,3.8 24,3.4 C23.8,3 23.6,2.8 23.2,2.8 C23,2.6 22.6,2.6 22.4,2.6 C22.2,2.6 21.8,2.6 21.6,2.8 C21.4,3 21.2,3.2 20.8,3.4 C20.6,3.8 20.4,4.2 20.4,4.8 C20.2,5.4 20.2,6 20.2,6.8 C20.2,7.6 20.2,8.4 20.4,8.8 C20.6,9.4 20.6,9.8 20.8,10.2 C21,10.6 21.2,10.8 21.6,10.8 C21.8,11 22.2,11 22.4,11 C22.6,11 23,11 23.2,10.8 C23.4,10.6 23.8,10.4 24,10.2 C24.2,9.8 24.4,9.4 24.4,8.8 C24.6,8.4 24.6,7.6 24.6,6.8 Z" id="Shape"></path>
                <path d="M33,3.8 C33,4.2 33,4.6 32.8,5 C32.6,5.4 32.4,5.6 32.2,6 C32,6.4 31.6,6.4 31.4,6.6 C31,6.8 30.8,6.8 30.4,6.8 C30,6.8 29.6,6.8 29.4,6.6 C29,6.4 28.8,6.2 28.6,6 C28.4,5.8 28.2,5.4 28,5 C27.8,4.6 27.8,4.2 27.8,3.8 C27.8,3.4 27.8,3 28,2.6 C28.2,2.2 28.4,2 28.6,1.6 C28.8,1.4 29.2,1.2 29.4,1 C29.8,0.8 30,0.8 30.4,0.8 C30.8,0.8 31.2,0.8 31.4,1 C31.8,1.2 32,1.4 32.2,1.6 C32.4,1.8 32.6,2.2 32.8,2.6 C33,3 33,3.4 33,3.8 Z M36.8,1.4 L37,1.2 C37,1.2 37.2,1.2 37.4,1.2 L38.8,1.2 L30.2,12.4 L30,12.6 C30,12.6 29.8,12.6 29.6,12.6 L28.2,12.6 L36.8,1.4 Z M31.4,3.8 C31.4,3.4 31.4,3.2 31.4,3 C31.4,2.8 31.2,2.6 31.2,2.4 C31,2.2 31,2.2 30.8,2.2 C30.6,2.2 30.6,2.2 30.4,2.2 C30.2,2.2 30,2.2 30,2.2 C29.8,2.2 29.8,2.4 29.6,2.4 C29.4,2.4 29.4,2.6 29.4,3 C29.4,3.4 29.4,3.4 29.4,3.8 C29.4,4 29.4,4.4 29.4,4.6 C29.4,4.8 29.6,5 29.6,5 C29.8,5.2 29.8,5.2 30,5.2 C30.2,5.2 30.2,5.2 30.4,5.2 C30.6,5.2 30.8,5.2 30.8,5.2 C31,5.2 31,5 31.2,5 C31.4,4.8 31.4,4.8 31.4,4.6 C31.4,4.4 31.4,4.2 31.4,3.8 Z M39.4,9.8 C39.4,10.2 39.4,10.6 39.2,11 C39,11.4 38.8,11.6 38.6,11.8 C38.4,12 38,12.2 37.8,12.4 C37.4,12.6 37.2,12.6 36.8,12.6 C36.4,12.6 36,12.6 35.8,12.4 C35.4,12.2 35.2,12 35,11.8 C34.8,11.6 34.6,11.2 34.4,11 C34.2,10.6 34.2,10.2 34.2,9.8 C34.2,9.4 34.2,9 34.4,8.6 C34.6,8.2 34.8,8 35,7.6 C35.2,7.4 35.6,7.2 35.8,7 C36.2,6.8 36.4,6.8 36.8,6.8 C37.2,6.8 37.6,6.8 37.8,7 C38.2,7.2 38.4,7.4 38.6,7.6 C38.8,7.8 39,8.2 39.2,8.6 C39.4,9 39.4,9.4 39.4,9.8 Z M38,9.8 C38,9.4 38,9.2 38,9 C38,8.8 37.8,8.6 37.8,8.4 C37.8,8.2 37.6,8.2 37.4,8.2 C37.2,8.2 37.2,8.2 37,8.2 C36.8,8.2 36.6,8.2 36.6,8.2 C36.4,8.2 36.4,8.4 36.2,8.4 C36.2,8.6 36,8.6 36,9 C36,9.2 36,9.4 36,9.8 C36,10 36,10.4 36,10.6 C36,10.8 36.2,11 36.2,11 C36.2,11.2 36.4,11.2 36.6,11.2 C36.8,11.2 36.8,11.2 37,11.2 C37.2,11.2 37.4,11.2 37.4,11.2 C37.6,11.2 37.6,11 37.8,11 C38,11 38,10.8 38,10.6 C38,10.4 38,10.2 38,9.8 Z" id="Shape"></path>
            </g>
            <path d="M268.2,51 L202.6,177.8 L215.2,186.8 L314.8,86.6 C301.2,72.6 285.4,60.6 268.2,51 Z" id="Path" fill="#EAEAEA" fill-rule="nonzero" opacity="0.1"></path>
            <polyline id="Path" points="259.6 66.6 179.8 221.8 293 109.2"></polyline>
        </g>
    </g>
</svg>