<?xml version="1.0" encoding="utf-8"?>
<!-- Generator: Adobe Illustrator 25.0.0, SVG Export Plug-In . SVG Version: 6.00 Build 0)  -->
<svg version="1.1" id="Ebene_1" xmlns="http://www.w3.org/2000/svg" xmlns:xlink="http://www.w3.org/1999/xlink" x="0px" y="0px"
	 viewBox="0 0 158 52" style="enable-background:new 0 0 158 52;" xml:space="preserve">
<style type="text/css">
	.st0{fill-rule:evenodd;clip-rule:evenodd;fill:#13D389;}
	.st1{fill-rule:evenodd;clip-rule:evenodd;fill:#FFFFFF;}
</style>
<desc>Created with Sketch.</desc>
<g id="Welcome">
	<g id="Release-Content-_x7C_-USP-small" transform="translate(-931.000000, -89.000000)">
		<g id="Logo_1_" transform="translate(931.000000, 89.000000)">
			<g id="tribe29">
				<g id="Logo">
					<path id="Fill-1" class="st0" d="M22.3,0L0,13.1v26.1L22.3,52l22.3-13V13L22.3,0z M7.6,19l14.6-9.2L36.8,19v8.7l-10.5-6.8v17.8
						L22.2,41l-4.1-2.4V20.9L7.6,27.7V19z"/>
					<g id="Group-12" transform="translate(52.221637, 10.748915)">
						<path id="Fill-2" class="st1" d="M4,19.6V9.2H0.8V7.7H4L4.2,3h1.6v4.7h4.7v1.5H5.8v10.4c0,2.5,0.7,3.3,2.8,3.3h2v1.6H8.2
							C5.4,24.7,4,23.2,4,19.6"/>
						<path id="Fill-4" class="st1" d="M14.3,7.7h1.6v3.5c0.9-2.7,2.7-3.7,5.2-3.7h1.2v1.7h-0.9c-2.8,0-4.5,1.6-5.2,5.2v10.3h-1.9
							V7.7z"/>
						<path id="Fill-6" class="st1" d="M25.7,24.6h1.9V7.7h-1.9V24.6z M25.6,4.4h2V1.6h-2V4.4z"/>
						<path id="Fill-8" class="st1" d="M45.7,18v-3.6c0-3.5-1.6-5.5-4.5-5.5c-2.7,0-4.7,1.6-6,4.5v5.5c1.3,2.9,3.3,4.5,6,4.5
							C44.1,23.5,45.7,21.5,45.7,18 M35,21.4v3.3h-1.6V0.6h1.9v10.3c1.5-2.3,3.6-3.5,6.1-3.5c3.9,0,6.1,2.5,6.1,7v3.7
							c0,4.5-2.3,7-6.1,7C38.7,25.1,36.6,23.8,35,21.4"/>
						<path id="Fill-9" class="st1" d="M63.7,15.1v-0.4c0-3.9-1.7-5.6-5.2-5.6c-3.5,0-5.2,1.9-5.2,5.6v0.4H63.7z M51.6,17.9v-3.3
							c0-4.7,2.5-7.2,6.9-7.2c4.5,0,6.9,2.5,6.9,7.2v2.1H53.4v1.1c0,3.9,1.7,5.6,5.2,5.6c3.1,0,4.8-1.3,4.9-3.7h1.7
							c-0.3,3.5-2.7,5.3-6.6,5.3C54.2,25.1,51.6,22.6,51.6,17.9L51.6,17.9z"/>
						<path id="Fill-10" class="st1" d="M69.9,22.7c0-4.3,2-6.7,7-9.1c3.6-1.7,4.9-2.9,4.9-5.1c0-2-1.2-3.2-3.7-3.2
							c-2.7,0-4,1.3-4,3.9v0.5h-4V8.8c0-4.5,2.8-7,7.8-7c5.1,0,7.7,2.5,7.7,6.6c0,3.6-1.9,5.9-6.8,8.2c-3.6,1.6-4.9,2.7-5.1,4.5
							h11.8v3.5H69.9V22.7z"/>
						<path id="Fill-11" class="st1" d="M101.2,10.1V9.6c0-2.8-1.5-4.3-4.1-4.3c-2.7,0-4,1.5-4,4s1.2,3.9,3.6,3.9
							C99,13.2,100.4,12.1,101.2,10.1 M89.5,18.8h3.9c0.1,1.7,1.3,2.8,3.7,2.8c2.8,0,4.1-1.5,4.1-4.4v-2.7c-1.3,1.5-3.1,2.1-5.3,2.1
							c-4.3,0-6.6-2.5-6.6-7.2c0-4.9,2.7-7.6,7.8-7.6c5.2,0,8,2.5,8,7.6v7.9c0,5.1-2.8,7.8-8.1,7.8C92.2,25.1,89.7,22.8,89.5,18.8"
							/>
					</g>
				</g>
			</g>
		</g>
	</g>
</g>
</svg>
