<?xml version="1.0" encoding="utf-8"?>
<!-- Generator: Adobe Illustrator 24.2.1, SVG Export Plug-In . SVG Version: 6.00 Build 0)  -->
<svg version="1.1" id="Ebene_1" xmlns="http://www.w3.org/2000/svg" xmlns:xlink="http://www.w3.org/1999/xlink" x="0px" y="0px"
	 viewBox="0 0 46 44" style="enable-background:new 0 0 46 44;" xml:space="preserve">
<style type="text/css">
	.st0{fill-rule:evenodd;clip-rule:evenodd;fill:#13D389;}
	.st1{fill-rule:evenodd;clip-rule:evenodd;fill:#FFFFFF;}
</style>
<desc>Created with Sketch.</desc>
<g id="dashboard">
	<g id="edit_dashboard" transform="translate(-10.000000, -14.000000)">
		<g id="Logo" transform="translate(10.000000, 14.000000)">
			<g id="icon" transform="translate(10.000000, 0.000000)">
				<path id="Fill-3" class="st0" d="M12,0l12,7v13.9l-12,7l-12-7V7L12,0z M4.1,10.1v4.6L9.8,11v9.5l2.2,1.3l2.2-1.3V11l5.7,3.7
					v-4.6l-7.9-5L4.1,10.1z"/>
			</g>
			<g id="font" transform="translate(0.000000, 35.000000)">
				<g id="Clip-2">
				</g>
				<path id="Fill-1_1_" class="st1" d="M2.4,8.5C0.9,8.5,0,7.6,0,6V4.8c0-1.6,0.8-2.5,2.4-2.5c1.4,0,2.2,0.7,2.3,2H4.1
					C4,3.4,3.4,2.9,2.4,2.9c-1.2,0-1.8,0.6-1.8,2V6c0,1.3,0.6,2,1.8,2C3.4,8,4,7.5,4,6.5h0.6C4.6,7.7,3.8,8.5,2.4,8.5L2.4,8.5z
					 M6.2,8.4V0h0.6v3.5c0.5-0.8,1.2-1.2,2-1.2c1.2,0,1.8,0.7,1.8,2.1v3.9H10V4.5c0-1.1-0.4-1.6-1.3-1.6c-0.8,0-1.5,0.5-1.9,1.5v3.9
					L6.2,8.4z M14.9,8.5c-1.6,0-2.5-0.9-2.5-2.5V4.8c0-1.6,0.9-2.5,2.4-2.5s2.4,0.9,2.4,2.5v0.7H13V6c0,1.3,0.6,2,1.8,2
					c1.1,0,1.6-0.5,1.7-1.3h0.6C17.1,7.8,16.2,8.5,14.9,8.5L14.9,8.5z M13,5h3.6V4.9c0-1.3-0.6-2-1.8-2S13,3.6,13,5L13,5z M21,8.5
					c-1.5,0-2.4-0.9-2.4-2.5V4.8c0-1.6,0.8-2.5,2.4-2.5c1.4,0,2.2,0.7,2.3,2h-0.6c-0.1-1-0.6-1.5-1.6-1.5c-1.2,0-1.8,0.6-1.8,2V6
					c0,1.3,0.6,2,1.8,2c1,0,1.6-0.5,1.6-1.5h0.6C23.2,7.7,22.4,8.5,21,8.5L21,8.5z M24.8,8.4V0h0.6v5.8l3.3-3.3h0.8l-2.4,2.4
					l2.5,3.5h-0.8l-2.1-3l-1.2,1.2v1.8L24.8,8.4z M30.7,8.4V2.5h0.9v0.9c0.5-0.7,1.1-1.1,1.9-1.1s1.4,0.4,1.6,1c0.5-0.7,1.1-1,1.9-1
					c1.2,0,1.8,0.7,1.8,2v4h-1v-4c0-0.8-0.3-1.2-1-1.2s-1.1,0.4-1.6,1.2v3.9h-1v-4c0-0.8-0.3-1.2-1-1.2c-0.6,0-1.1,0.4-1.6,1.3v3.8
					h-0.9V8.4z M40.6,8.4V0h1v5.4l2.7-2.9h1.3l-2.3,2.4l2.3,3.5h-1.2l-1.8-2.8l-1,1.1v1.7H40.6L40.6,8.4z"/>
			</g>
		</g>
	</g>
</g>
</svg>
