<svg width="12" height="12" viewBox="-1 -1 14 14" fill="none" xmlns="http://www.w3.org/2000/svg">
  <path class="icon-primary-color"
    d="M4.21875 9.94287H4.6875V6.55713H4.21875C3.95986 6.55713 3.75 6.34727 3.75 6.08838V4.96875C3.75 4.70986 3.95986 4.5 4.21875 4.5H6.84375C7.10264 4.5 7.3125 4.70986 7.3125 4.96875V9.94287H7.78125C8.04014 9.94287 8.25 10.1527 8.25 10.4116V11.5312C8.25 11.7901 8.04014 12 7.78125 12H4.21875C3.95986 12 3.75 11.7901 3.75 11.5312V10.4116C3.75 10.1527 3.95986 9.94287 4.21875 9.94287ZM6 0C5.06801 0 4.3125 0.755508 4.3125 1.6875C4.3125 2.61949 5.06801 3.375 6 3.375C6.93199 3.375 7.6875 2.61949 7.6875 1.6875C7.6875 0.755508 6.93197 0 6 0Z"
  />
</svg>
