<svg version="1.1" xmlns="http://www.w3.org/2000/svg" xmlns:xlink="http://www.w3.org/1999/xlink"
	x="0px" y="0px"
	viewBox="0 0 18 18" xml:space="preserve">
	<g transform="translate(-15.000000, -566.000000)">
		<path class="icon-primary-color" d="M30.4,568.6c-1.7-1.7-4-2.6-6.4-2.6s-4.7,0.9-6.4,2.6c-1.7,1.7-2.6,4-2.6,6.4s0.9,4.7,2.6,6.4
			s4,2.6,6.4,2.6s4.7-0.9,6.4-2.6c1.7-1.7,2.6-4,2.6-6.4S32.1,570.3,30.4,568.6z M24,568.5c1.1,0,1.9,0.9,1.9,1.9s-0.9,1.9-1.9,1.9
			s-1.9-0.9-1.9-1.9S22.9,568.5,24,568.5z M26.5,580.8h-4.9v-1.1h1.1v-5.3h-1.1v-1.1h3.9v6.3h1.1v1.2H26.5z"/>
	</g>
</svg>
