<svg xmlns="http://www.w3.org/2000/svg" viewBox="0 0 12 12">
  <path class="icon-primary-color"
        d="m5.16 8.76 4.23-4.23-.84-.84-3.39 3.39-1.71-1.71-.84.84 2.55 2.55ZM6 12a5.84 5.84 0 0 1-2.34-.473 6.055 6.055 0 0 1-1.905-1.282A6.055 6.055 0 0 1 .473 8.34 5.84 5.84 0 0 1 0 6c0-.83.158-1.61.473-2.34a6.055 6.055 0 0 1 1.282-1.905A6.063 6.063 0 0 1 3.66.472 5.846 5.846 0 0 1 6 0c.83 0 1.61.157 2.34.472.73.315 1.365.743 1.905 1.283.54.54.967 1.175 1.282 1.905.315.73.473 1.51.473 2.34 0 .83-.158 1.61-.473 2.34a6.055 6.055 0 0 1-1.282 1.905c-.54.54-1.175.967-1.905 1.282A5.84 5.84 0 0 1 6 12Zm0-1.2c1.34 0 2.475-.465 3.405-1.395C10.335 8.475 10.8 7.34 10.8 6c0-1.34-.465-2.475-1.395-3.405C8.475 1.665 7.34 1.2 6 1.2c-1.34 0-2.475.465-3.405 1.395C1.665 3.525 1.2 4.66 1.2 6c0 1.34.465 2.475 1.395 3.405.93.93 2.065 1.395 3.405 1.395Z"/>
</svg>
