<svg width="20" height="20" viewBox="0 0 16 15" fill="none" xmlns="http://www.w3.org/2000/svg">
  <path class="icon-primary-color" fill-rule="evenodd" clip-rule="evenodd" d="M9.01932 8.07937C9.01932 8.64752 8.55979 9.10705 7.99164 9.10705C7.42349 9.10705 6.96397 8.64752 6.96397 8.07937V3.35875C6.96397 3.09139 7.1812 2.86997 7.45275 2.86997H8.53472C8.80209 2.86997 9.02349 3.0872 9.02349 3.35875L9.01932 8.07937ZM7.98747 12.4449C7.42349 12.4449 6.96397 11.9854 6.96397 11.4214C6.96397 10.8574 7.42349 10.4021 7.98747 10.4021C8.55144 10.4021 9.01096 10.8616 9.01096 11.4214C9.01096 11.9854 8.55144 12.4449 7.98747 12.4449ZM15.766 11.8977L9.34935 0.781201C9.06528 0.292428 8.55561 0 7.98747 0C7.41932 0 6.91384 0.292428 6.62976 0.785375L0.213055 11.8977C-0.0710182 12.3906 -0.0710182 12.9755 0.213055 13.4684C0.497128 13.9613 1.00261 14.2537 1.57076 14.2537H14.4041C14.9723 14.2537 15.4779 13.9613 15.7619 13.4684C16.0501 12.9755 16.0501 12.3906 15.766 11.8977Z"/>
</svg>