<svg version="1.1" xmlns="http://www.w3.org/2000/svg" xmlns:xlink="http://www.w3.org/1999/xlink"
	x="0px" y="0px" viewBox="0 0 16 19" xml:space="preserve">
					<g transform="translate(3.600000, 0.015390)">

						<path class="icon-primary-color" d="M4.2,8.7c2.2,0,4.1-1.9,4.1-4.3S7.7,0.1,4.2,0.1C0.7,0.1,0.1,2,0.1,4.4S1.9,8.7,4.2,8.7"/>
					</g>
					<g transform="translate(0.000000, 9.735390)">
						<path class="icon-primary-color" d="M15.4,6.1c-0.1-4.1-0.7-5.3-5.4-6c0,0-0.7,0.7-2.2,0.7S5.5,0.1,5.5,0.1C0.9,0.8,0.2,2,0.1,6
							c0,0.3,0,0.3,0,0.3c0,0.1,0,0.2,0,0.4c0,0,1.1,2,7.7,2c6.5,0,7.7-2,7.7-2c0-0.1,0-0.3,0-0.3C15.4,6.4,15.4,6.4,15.4,6.1"/>
					</g>
				</svg>
