<svg width="20" height="20" viewBox="0 0 20 20" xmlns="http://www.w3.org/2000/svg">
	<path class="icon-primary-color" fill-rule="evenodd" clip-rule="evenodd" d="M10 0.5C4.75329 0.5 0.5 4.75329 0.5 10C0.5 15.2467 4.75329 19.5 10 19.5C15.2467 19.5 19.5 15.2467 19.5 10C19.5 4.75329 15.2467 0.5 10 0.5ZM15.5303 6.46967C15.8232 6.76256 15.8232 7.23744 15.5303 7.53033L9.53034 13.5303C9.25323 13.8074 8.80947 13.8245 8.51192 13.5694L5.01192 10.5694C4.69743 10.2999 4.661 9.8264 4.93057 9.51191C5.20014 9.19741 5.67361 9.16099 5.98811 9.43056L8.96079 11.9786L14.4697 6.46967C14.7626 6.17678 15.2375 6.17678 15.5303 6.46967Z"/>
</svg>
