<svg viewBox="0 0 23 24" xmlns="http://www.w3.org/2000/svg">
  <path class="icon-primary-color"
        d="M11.4 15C9.6 15 8.2 13.6 8.2 11.8C8.2 10 9.6 8.6 11.4 8.6C13.2 8.6 14.6 10 14.6 11.8C14.6 13.5 13.1 15 11.4 15ZM15.8 13.1C15.9 12.7 16 12.3 16 11.8C16 11.4 15.9 10.9 15.8 10.5L17.1 9.7C17.2 9.6 17.3 9.4 17.2 9.3L16.4 8C16.3 7.9 16.1 7.8 16 7.9L14.7 8.7C14.1 8.1 13.3 7.6 12.4 7.4V5.8C12.4 5.6 12.3 5.5 12.1 5.5H10.5C10.4 5.5 10.3 5.6 10.3 5.8V7.3C9.4 7.5 8.7 8 8.1 8.6L6.8 7.8C6.7 7.7 6.5 7.8 6.4 7.9L5.6 9.3C5.5 9.4 5.5 9.6 5.7 9.7L7 10.5C6.9 10.9 6.8 11.4 6.8 11.8C6.8 12.2 6.9 12.7 7 13.1L5.7 13.9C5.5 13.9 5.5 14 5.5 14.2L6.3 15.5C6.4 15.6 6.6 15.7 6.7 15.6L8 14.9C8.6 15.5 9.4 16 10.2 16.2V17.7C10.2 17.9 10.3 18 10.5 18H12.1C12.3 18 12.4 17.9 12.4 17.7V16.2C13.3 16 14.1 15.5 14.7 14.9L16 15.7C16.1 15.8 16.3 15.7 16.4 15.6L17.2 14.3C17.3 14.2 17.2 14 17.1 13.9L15.8 13.1Z"/>
</svg>
