<svg version="1.1" viewBox="0 0 10 10" xmlns="http://www.w3.org/2000/svg">
  <g class="icon-primary-color">
    <path
      d="M5 0C2.25 0 0 2.25 0 5C0 7.75 2.25 10 5 10C7.75 10 10 7.75 10 5C10 2.25 7.75 0 5 0ZM5 8.9375C2.875 8.9375 1.0625 7.1875 1.0625 5C1.0625 2.875 2.8125 1.0625 5 1.0625C7.1875 1.0625 8.9375 2.8125 8.9375 5C8.9375 7.125 7.125 8.9375 5 8.9375Z"/>
    <path
      d="M5.4375 5V2.9375C5.4375 2.6875 5.25 2.5 5 2.5C4.75 2.5 4.5625 2.6875 4.5625 2.9375V5.1875C4.5625 5.3125 4.625 5.4375 4.6875 5.5L6.25 7.0625C6.4375 7.25 6.6875 7.25 6.875 7.0625C7.0625 6.875 7.0625 6.625 6.875 6.4375L5.4375 5Z"/>
  </g>
</svg>
