<svg width="16" height="16" viewBox="0 0 16 16" fill="none" xmlns="http://www.w3.org/2000/svg">
  <path
    class="icon-primary-color-stroke"
    d="M3 6.5C4.38071 6.5 5.5 7.61929 5.5 9C5.5 10.3807 4.38071 11.5 3 11.5C1.61929 11.5 0.5 10.3807 0.5 9C0.5 7.61929 1.61929 6.5 3 6.5Z"
  />
  <path
    class="icon-primary-color-stroke"
    d="M13 10.5C14.3807 10.5 15.5 11.6193 15.5 13C15.5 14.3807 14.3807 15.5 13 15.5C11.6193 15.5 10.5 14.3807 10.5 13C10.5 11.6193 11.6193 10.5 13 10.5Z"
  />
  <path
    class="icon-primary-color-stroke"
    d="M13 0.5C14.3807 0.5 15.5 1.61929 15.5 3C15.5 4.38071 14.3807 5.5 13 5.5C11.6193 5.5 10.5 4.38071 10.5 3C10.5 1.61929 11.6193 0.5 13 0.5Z"
  />
  <path
    class="icon-primary-color"
    d="M10.584 11.2275C10.2896 11.6277 10.0903 12.1021 10.0244 12.6191L5.41504 10.7754C5.70953 10.375 5.90887 9.90105 5.97461 9.38379L10.584 11.2275ZM10.123 3.85156C10.2688 4.34578 10.538 4.78654 10.8955 5.13867L5.87598 8.15039C5.72998 7.65655 5.46099 7.21606 5.10352 6.86426L10.123 3.85156Z"
  />
</svg>
