<svg width="20" height="20" viewBox="0 0 16 16" fill="none" xmlns="http://www.w3.org/2000/svg">
  <path class="icon-primary-color" d="M8 0C12.4182 0 16 3.58182 16 8C16 12.4182 12.4182 16 8 16C3.58182 16 0 12.4182 0 8C0 3.58182 3.58182 0 8 0ZM7.27164 8.74946C7.28545 9.23164 7.53018 9.47273 8.00546 9.47273C8.46655 9.47273 8.70073 9.23164 8.70764 8.74946L8.844 4.45164C8.85091 4.22109 8.77236 4.02727 8.608 3.86982C8.44364 3.71273 8.23927 3.63382 7.99491 3.63382C7.74327 3.63382 7.53891 3.71055 7.38182 3.86436C7.22473 4.01818 7.14946 4.21018 7.15636 4.44073L7.27164 8.74946ZM7.08836 11.3058C7.08836 11.7062 7.42982 12.1778 8 12.1778C8.57018 12.1778 8.91164 11.7316 8.91164 11.3058C8.91164 10.88 8.55782 10.4338 8 10.4338C7.44218 10.4338 7.08836 10.9055 7.08836 11.3058Z"/>
</svg>