<svg version="1.1" id="Ebene_1" xmlns="http://www.w3.org/2000/svg"
	xmlns:xlink="http://www.w3.org/1999/xlink" x="0px" y="0px"
	viewBox="0 0 18 15" xml:space="preserve">
<g>
	<g>
		<path  class="icon-primary-color" d="M4.6,13.9c0,0.5-0.3,0.9-0.8,0.9h-3c-0.4,0-0.8-0.4-0.8-0.9v-8C0,5.4,0.3,5,0.8,5h3.1
			c0.4,0,0.8,0.4,0.8,0.9L4.6,13.9L4.6,13.9z"/>
		<path  class="icon-primary-color" d="M11,13.9c0,0.5-0.3,0.9-0.8,0.9H7.1c-0.4,0-0.8-0.4-0.8-0.9V3.6c0-0.5,0.3-0.9,0.8-0.9h3.1
			c0.4,0,0.8,0.4,0.8,0.9V13.9z"/>
		<path  class="icon-primary-color" d="M17.3,13.9c0,0.5-0.3,0.9-0.8,0.9h-3.1c-0.4,0-0.8-0.4-0.8-0.9V1.1c0-0.5,0.3-0.9,0.8-0.9h3.1
			c0.4,0,0.8,0.4,0.8,0.9V13.9z"/>
	</g>
</g>
</svg>
