<svg version="1.1" viewBox="0 0 11 11" xmlns="http://www.w3.org/2000/svg">
  <g class="icon-primary-color">
    <path
      d="m1.334 0c-0.36111 0-0.71214 0.12815-0.95898 0.375s-0.375 0.59787-0.375 0.95898v3.25h11v-3.25c0-0.3611-0.12815-0.71213-0.375-0.95898s-0.59786-0.375-0.95898-0.375zm0 1h8.332c0.13891 0 0.20714 0.03722 0.25195 0.082031 0.04481 0.044812 0.082031 0.11306 0.082031 0.25195v2.25h-9v-2.25c0-0.13889 0.037213-0.20714 0.082031-0.25195 0.044818-0.044818 0.11307-0.082031 0.25195-0.082031z"/>
    <path
      d="m0 3.584v6.082c0 0.36112 0.12815 0.71214 0.375 0.95898s0.59789 0.375 0.95898 0.375h8.332c0.36111 0 0.71213-0.12815 0.95898-0.375s0.375-0.59788 0.375-0.95898v-6.082zm1 1h9v5.082c0 0.13891-0.037227 0.20715-0.082031 0.25195-0.044804 0.044804-0.11303 0.082031-0.25195 0.082031h-8.332c-0.1389 0-0.20714-0.037221-0.25195-0.082031-0.044812-0.04481-0.082031-0.11305-0.082031-0.25195z"/>
    <path
      d="m1.9168 1.75c-0.33333 0-0.58333 0.25-0.58333 0.58333 0 0.33334 0.25 0.58334 0.58333 0.58334s0.58333-0.25 0.58333-0.58334c0-0.33333-0.33333-0.58333-0.58333-0.58333z"/>
    <path
      d="M3.58333 1.75C3.25 1.75 3 2 3 2.33333C3 2.66667 3.25 2.91667 3.58333 2.91667C3.91667 2.91667 4.16667 2.66667 4.16667 2.33333C4.16667 2 3.83333 1.75 3.58333 1.75Z"/>
    <path
      d="m9.6667 2.5833c0 0.16667-0.08334 0.25-0.25 0.25h-4.1667c-0.16667 0-0.25-0.08333-0.25-0.25v-0.58333c0-0.16667 0.08333-0.25 0.25-0.25h4.1667c0.16666 0 0.25 0.08333 0.25 0.25v0.58333z"/>
  </g>
</svg>
