<svg viewBox="0 0 23 24" version="1.1" xmlns="http://www.w3.org/2000/svg" xmlns:svg="http://www.w3.org/2000/svg">
  <path class="icon-primary-color"
        d="m 6.9003906,6.8007812 a 0.60000002,0.60000002 0 0 0 -0.4238281,0.1757813 0.60000002,0.60000002 0 0 0 0,0.8476562 l 9.1992185,9.1992183 a 0.60000002,0.60000002 0 0 0 0.847656,0 0.60000002,0.60000002 0 0 0 0,-0.847656 L 7.3242187,6.9765625 A 0.60000002,0.60000002 0 0 0 6.9003906,6.8007812 Z"/>
  <path class="icon-primary-color"
        d="M 15.675781,6.9765625 6.4765625,16.175781 a 0.60000002,0.60000002 0 0 0 0,0.847656 0.60000002,0.60000002 0 0 0 0.8476562,0 L 16.523437,7.8242187 a 0.60000002,0.60000002 0 0 0 0,-0.8476562 0.60000002,0.60000002 0 0 0 -0.847656,0 z"/>
</svg>
