<svg viewBox="0 0 23 24" version="1.1" xmlns="http://www.w3.org/2000/svg" xmlns:svg="http://www.w3.org/2000/svg">
  <path class="icon-primary-color"
        d="m 7.6992187,8.9003906 c -0.6999993,0 -1.2988281,0.5988288 -1.2988281,1.2988284 v 5.601562 c 0,0.7 0.5988288,1.298828 1.2988281,1.298828 h 5.6015623 c 0.7,0 1.298828,-0.598828 1.298828,-1.298828 v -5.601562 c 0,-0.6999996 -0.598828,-1.2988284 -1.298828,-1.2988284 z m 0,1.1992184 h 5.6015623 c 0.1,0 0.09961,-3.9e-4 0.09961,0.09961 v 5.601562 c 0,0.1 3.9e-4,0.09961 -0.09961,0.09961 H 7.6992187 c -0.1,0 -0.099609,3.9e-4 -0.099609,-0.09961 v -5.601562 c 0,-0.1 -3.905e-4,-0.09961 0.099609,-0.09961 z"/>
  <path class="icon-primary-color"
        d="M 9.5,6.4003906 A 0.60000002,0.60000002 0 0 0 8.9003906,7 0.60000002,0.60000002 0 0 0 9.5,7.5996094 h 5 c 0.772726,0 1.400391,0.6276641 1.400391,1.4003906 v 5 A 0.60000002,0.60000002 0 0 0 16.5,14.599609 0.60000002,0.60000002 0 0 0 17.099609,14 V 9 c 0,-1.4272713 -1.172338,-2.5996094 -2.599609,-2.5996094 z"/>
</svg>
