<?xml version="1.0" encoding="utf-8"?>
<!-- Generator: Adobe Illustrator 25.2.1, SVG Export Plug-In . SVG Version: 6.00 Build 0)  -->
<svg version="1.1" id="Ebene_1" xmlns="http://www.w3.org/2000/svg" xmlns:xlink="http://www.w3.org/1999/xlink" x="0px" y="0px"
	 viewBox="0 0 190 189" style="enable-background:new 0 0 190 189;" xml:space="preserve">
<style type="text/css">
	.st0{fill-rule:evenodd;clip-rule:evenodd;fill:#FFFFFF;}
	.st1{fill-rule:evenodd;clip-rule:evenodd;}
</style>
<g id="Icons">
	<g id="EXIT" transform="translate(-67.000000, -672.000000)">
		<g id="rulesets" transform="translate(67.000000, 672.000000)">
			<path id="Fill-1" class="st0" d="M94.9,188.9c-52.1,0-94.4-42.4-94.4-94.4S42.8,0,94.9,0s94.4,42.4,94.4,94.4
				S146.9,188.9,94.9,188.9"/>
			<g id="ruleset" transform="translate(44.000000, 39.000000)">
				<path id="Fill-6" class="st1" d="M6.1,13.7h88.4c3.2,0,5.8,1.5,5.8,3.4v17.2c0,1.9-2.6,3.4-5.8,3.4H6.1c-3.2,0-5.8-1.5-5.8-3.4
					V17.1C0.3,15.2,2.9,13.7,6.1,13.7"/>
				<path id="Fill-6_1_" class="st1" d="M6.1,73.7h88.4c3.2,0,5.8,1.5,5.8,3.4v17.2c0,1.9-2.6,3.4-5.8,3.4H6.1
					c-3.2,0-5.8-1.5-5.8-3.4V77.1C0.3,75.2,2.9,73.7,6.1,73.7"/>
				<path id="Fill-6_2_" class="st1" d="M78.3,63.6v44.2c0,1.6-1.3,2.9-2.8,2.9H61.1c-1.5,0-2.8-1.3-2.8-2.9V63.6
					c0-1.6,1.3-2.9,2.8-2.9h14.4C77,60.7,78.3,62,78.3,63.6"/>
				<path id="Fill-6_3_" class="st1" d="M38.3,3.6v44.2c0,1.6-1.3,2.9-2.8,2.9H21.1c-1.5,0-2.8-1.3-2.8-2.9V3.6
					c0-1.6,1.3-2.9,2.8-2.9h14.4C37,0.7,38.3,2,38.3,3.6"/>
			</g>
		</g>
	</g>
</g>
</svg>
