<?xml version="1.0" encoding="utf-8"?>
<!-- Generator: Adobe Illustrator 25.0.0, SVG Export Plug-In . SVG Version: 6.00 Build 0)  -->
<svg version="1.1" id="Ebene_1" xmlns="http://www.w3.org/2000/svg" xmlns:xlink="http://www.w3.org/1999/xlink" x="0px" y="0px"
	 viewBox="0 0 242 187" style="enable-background:new 0 0 242 187;" xml:space="preserve">
<style type="text/css">
	.st0{fill:#117496;}
	.st1{fill:#1697C4;}
</style>
<desc>Created with Sketch.</desc>
<g id="Icons">
	<g id="Artboard" transform="translate(-389.000000, -545.000000)">
		<g id="folder" transform="translate(389.000000, 545.000000)">
			<path id="Path" class="st0" d="M229,186.5H12.9c-7.1,0-12.9-5.8-12.9-13V13C0,5.8,5.8,0,12.9,0h61c4.7,0,9,2.5,11.2,6.6l7.1,12.7
				c2.3,4.1,6.6,6.6,11.2,6.6H229c7.1,0,12.9,5.8,12.9,13v134.7C241.9,180.7,236.1,186.5,229,186.5z"/>
			<path id="Path_1_" class="st1" d="M12.9,186.5H229c7.1,0,12.9-5.1,12.9-11.3V57.8c0-6.2-5.8-11.3-12.9-11.3h-93.3
				c-4.7,0-9,2.2-11.2,5.8l-7.1,11.1c-2.3,3.6-6.6,5.8-11.2,5.8H12.9C5.8,69.1,0,74.1,0,80.4v94.8C0,181.4,5.8,186.5,12.9,186.5z"/>
			<path id="Path_2_" class="st0" d="M234.3,26.9c0.7,1.6,1.2,3.4,1.2,5.3V167c0,7.2-5.8,13-12.9,13H7c-1.9,0-3.7-0.4-5.3-1.2
				c2,4.5,6.5,7.7,11.7,7.7H229c7.1,0,12.9-5.8,12.9-13V38.7C241.9,33.4,238.8,28.9,234.3,26.9z"/>
		</g>
	</g>
</g>
</svg>
