<?xml version="1.0" encoding="utf-8"?>
<svg version="1.1" id="Ebene_1" xmlns="http://www.w3.org/2000/svg" xmlns:xlink="http://www.w3.org/1999/xlink" x="0px" y="0px"
	 viewBox="0 0 384 384" style="enable-background:new 0 0 384 384;" xml:space="preserve">
<style type="text/css">
	.st0{fill-rule:evenodd;clip-rule:evenodd;fill:#E1DCF3;}
	.st1{fill-rule:evenodd;clip-rule:evenodd;fill:#F5F0FF;}
</style>
<g id="Menu-Icons-EXPORT">
	<g id="EXPORT" transform="translate(-514.000000, -541.000000)">
		<g id="stale-service" transform="translate(514.000000, 541.000000)">
			<path id="Fill-2" class="st0" d="M217.6,0l-8,42.6L116.2,64L90.7,26.7L74.5,37.8l23.8,34.7l-51.4,82l-43.2-8.1L0,165.7l41.3,7.7
				l21.6,94.4l-36.2,24.8l11.1,16.2l35.6-24.3l81.3,51l-8.3,44.2l19.3,3.6l8.3-44.1l92.3-21.2l15.5,22.7l16.2-11.1l-15.2-22.2
				l49.8-79.4l47.1,8.8l3.6-19.3l-45.4-8.5L317,117.8l39.6-27.1l-11.1-16.2l-37.2,25.4l-80.1-50.2l8.6-46.1L217.6,0z M128.1,81.4
				l77.6-17.8l-7.3,39.2l-48.1,11L128.1,81.4z M217.1,109l7.2-38.6l66.3,41.6l-32.9,22.5L217.1,109z M67.5,158.4l42.8-68.2
				l22.5,32.9l-26.7,42.6L67.5,158.4z M162.2,131.2l32.2-7.4l-8,42.7L162.2,131.2z M277.7,197.8l-10.5-46l32.4-22.2l17.3,75.5
				L277.7,197.8z M213.2,129.7l26.9,16.9l-34.5,23.6L213.2,129.7z M126.8,169.5l18.1-28.8l25.3,36.9L126.8,169.5z M216.7,186.4
				l33.1-22.6l6.9,30.1L216.7,186.4z M62.3,177.4l39.2,7.3l11.2,49.1l-32.4,22.2L62.3,177.4z M122.5,188.6l44.1,8.3l-36.5,25
				L122.5,188.6z M213.1,205.6l39.5,7.4l-16.5,26.2L213.1,205.6z M141.6,237.8l36.1-24.7l-7.9,42.3L141.6,237.8z M196.9,216.7
				l23.4,34.2l-31.1,7.1L196.9,216.7z M248.2,256.9l25.1-40l38.6,7.2l-41.2,65.6L248.2,256.9z M91,272.4l32.9-22.5l41.9,26.3
				l-7.2,38.6L91,272.4z M185.2,279l47-10.8l22.2,32.4l-76.5,17.5L185.2,279z"/>
			<path id="Fill-3" class="st1" d="M74.5,37.8l23.8,34.7l-51.4,82l-43.2-8.1L0,165.7l41.3,7.7l21.6,94.4l-36.2,24.8l11.1,16.2
				l35.6-24.3l81.3,51l-8.3,44.2l19.3,3.6l8.3-44.1l28.9-6.6l-0.5-20l-24.5,5.6l7.3-39.2l16.2-3.7l-0.5-20l-11.8,2.7l7.7-41.3
				l3.3,4.8L197.3,103l-47.1,10.8l-22.2-32.4l68.4-15.7l-0.5-20L116.2,64L90.7,26.7L74.5,37.8z M67.5,158.4l42.8-68.2l22.5,32.9
				l-26.7,42.6L67.5,158.4z M162.2,131.2l32.2-7.4l-8,42.7L162.2,131.2z M126.8,169.5l18.1-28.8l25.3,36.9L126.8,169.5z M62.3,177.4
				l39.2,7.3l11.2,49.1l-32.4,22.2L62.3,177.4z M122.5,188.6l44.1,8.3l-36.5,25L122.5,188.6z M141.6,237.8l36.1-24.7l-7.9,42.3
				L141.6,237.8z M91,272.4l32.9-22.5l41.9,26.3l-7.2,38.6L91,272.4z"/>
		</g>
	</g>
</g>
</svg>
