<?xml version="1.0" encoding="utf-8"?>
<!-- Generator: Adobe Illustrator 25.0.0, SVG Export Plug-In . SVG Version: 6.00 Build 0)  -->
<svg version="1.1" id="Ebene_1" xmlns="http://www.w3.org/2000/svg" xmlns:xlink="http://www.w3.org/1999/xlink" x="0px" y="0px"
	 viewBox="0 0 240 192" style="enable-background:new 0 0 240 192;" xml:space="preserve">
<style type="text/css">
	.st0{fill-rule:evenodd;clip-rule:evenodd;fill:#697C86;}
	.st1{fill-rule:evenodd;clip-rule:evenodd;fill:#E1DCF3;}
	.st2{fill-rule:evenodd;clip-rule:evenodd;fill:#FFFFFF;}
</style>
<desc>Created with Sketch.</desc>
<g id="Icons">
	<g id="Artboard" transform="translate(-390.000000, -542.000000)">
		<g id="parameters" transform="translate(390.000000, 542.000000)">
			<path id="Rectangle" class="st0" d="M5.3,4.8h229.4c2.9,0,5.3,2.4,5.3,5.3v27.8c0,2.9-2.4,5.3-5.3,5.3H5.3
				c-2.9,0-5.3-2.4-5.3-5.3V10.1C0,7.2,2.4,4.8,5.3,4.8z"/>
			<path id="Rectangle_1_" class="st0" d="M5.3,76.8h229.4c2.9,0,5.3,2.4,5.3,5.3v27.8c0,2.9-2.4,5.3-5.3,5.3H5.3
				c-2.9,0-5.3-2.4-5.3-5.3V82.1C0,79.2,2.4,76.8,5.3,76.8z"/>
			<path id="Rectangle_2_" class="st1" d="M5.3,4.8h157.4c2.9,0,5.3,2.4,5.3,5.3v27.8c0,2.9-2.4,5.3-5.3,5.3H5.3
				c-2.9,0-5.3-2.4-5.3-5.3V10.1C0,7.2,2.4,4.8,5.3,4.8z"/>
			<path id="Rectangle_3_" class="st1" d="M5.3,76.8h133.4c2.9,0,5.3,2.4,5.3,5.3v27.8c0,2.9-2.4,5.3-5.3,5.3H5.3
				c-2.9,0-5.3-2.4-5.3-5.3V82.1C0,79.2,2.4,76.8,5.3,76.8z"/>
			<path id="Rectangle_4_" class="st0" d="M5.3,148.8h229.4c2.9,0,5.3,2.4,5.3,5.3v27.8c0,2.9-2.4,5.3-5.3,5.3H5.3
				c-2.9,0-5.3-2.4-5.3-5.3v-27.8C0,151.2,2.4,148.8,5.3,148.8z"/>
			<path id="Rectangle_5_" class="st1" d="M5.3,148.8h181.4c2.9,0,5.3,2.4,5.3,5.3v27.8c0,2.9-2.4,5.3-5.3,5.3H5.3
				c-2.9,0-5.3-2.4-5.3-5.3v-27.8C0,151.2,2.4,148.8,5.3,148.8z"/>
			<rect id="Rectangle_6_" x="144" class="st2" width="24" height="48"/>
			<rect id="Rectangle_7_" x="120" y="72" class="st2" width="24" height="48"/>
			<rect id="Rectangle_8_" x="180" y="144" class="st2" width="24" height="48"/>
		</g>
	</g>
</g>
</svg>
