<svg width="24" height="24" viewBox="0 0 24 24" fill="none" xmlns="http://www.w3.org/2000/svg">
<path d="M9.57185 0C4.28006 0 0 4.18195 0 9.35244C0 14.5229 4.28006 18.7049 9.57185 18.7049C11.4611 18.7049 13.2097 18.1633 14.6921 17.2436L21.607 24L24 21.6619L17.173 15.0086C18.4003 13.4355 19.1437 11.4864 19.1437 9.35244C19.1437 4.18195 14.8636 0 9.57185 0ZM9.57185 2.20057C13.6254 2.20057 16.8915 5.39183 16.8915 9.35244C16.8915 13.313 13.6254 16.5043 9.57185 16.5043C5.51833 16.5043 2.2522 13.313 2.2522 9.35244C2.2522 5.39183 5.51833 2.20057 9.57185 2.20057Z" fill="white"/>
</svg>
