<svg width="20" height="20" viewBox="0 0 20 20" fill="none" xmlns="http://www.w3.org/2000/svg">
<g clip-path="url(#clip0_2464_2735)">
<path d="M19.5837 10.8338L14.5388 9.21217L12.9171 4.16675L12.5 10.4167L6.25 10.8338L11.2954 12.4555L12.9171 17.5009L13.3333 11.2501L19.5837 10.8338Z" fill="#8380FF" fill-opacity="0.6"/>
<path d="M12.9172 17.5008L14.5388 12.4553L19.5838 10.8337L12.9167 10.8333L12.9172 17.5008Z" fill="#8380FF"/>
<path d="M12.9171 4.16675L11.2954 9.21216L6.25 10.8338L12.9167 10.8334L12.9171 4.16675Z" fill="#8380FF"/>
<path d="M9.99992 5.41756L6.56242 4.27173L5.41659 0.834229L4.99992 5.00006L0.833252 5.41756L4.27075 6.5634L5.41659 10.0009L5.83325 5.8334L9.99992 5.41756Z" fill="#8380FF" fill-opacity="0.6"/>
<path d="M5.41658 0.834229L4.27075 4.27173L0.833252 5.41756L5.41658 5.41673V0.834229Z" fill="#8380FF"/>
<path d="M5.41675 10.0009L6.56258 6.56341L10.0001 5.41758L5.41675 5.41675V10.0009Z" fill="#8380FF"/>
<path d="M7.91758 15.4163L5.10467 14.4788L4.16717 11.6667L3.75008 15.0001L0.416748 15.4163L3.22966 16.3538L4.16717 19.1659L4.58341 15.8334L7.91758 15.4163Z" fill="#8380FF" fill-opacity="0.6"/>
<path d="M4.16699 19.1658L5.10449 16.3538L7.91741 15.4163H4.16699V19.1658Z" fill="#8380FF"/>
<path d="M0.416748 15.4163L3.22966 14.4788L4.16717 11.6667V15.4163H0.416748Z" fill="#8380FF"/>
</g>
<defs>
<clipPath id="clip0_2464_2735">
<rect width="20" height="20" fill="white"/>
</clipPath>
</defs>
</svg>
