<svg width="100" height="100" viewBox="0 0 100 100" fill="none" xmlns="http://www.w3.org/2000/svg">
<circle cx="50" cy="50" r="50" fill="#48525C"/>
<path d="M50 24.24C35.795 24.24 24.24 35.7962 24.24 50C24.24 64.2039 35.795 75.76 50 75.76C64.2049 75.76 75.76 64.2039 75.76 50C75.76 35.7962 64.2049 24.24 50 24.24ZM29.84 50C29.84 45.4506 31.3755 41.264 33.928 37.8872L62.1128 66.072C58.736 68.6245 54.5494 70.16 50 70.16C38.884 70.16 29.84 61.116 29.84 50ZM66.072 62.1128L37.8872 33.928C41.264 31.3755 45.4505 29.84 50 29.84C61.116 29.84 70.16 38.884 70.16 50C70.16 54.5495 68.6245 58.736 66.072 62.1128Z" fill="#20272E"/>
</svg>
