<svg width="48" height="48" viewBox="0 0 48 48" fill="none" xmlns="http://www.w3.org/2000/svg">
<path d="M7 24H13L10 28L7 24Z" fill="#F5F0FF"/>
<path d="M35 24H41L38 28L35 24Z" fill="#F5F0FF"/>
<path d="M21 24H27L24 28L21 24Z" fill="#F5F0FF"/>
<path d="M16 40.772C16 40.772 14.34 37 10 37C5.66 37 4 40.772 4 40.772V42H16V40.772Z" fill="#12C0FF"/>
<path d="M13 33C13 34.658 11.657 36 10 36C8.342 36 7 34.658 7 33C7 31.342 8.342 30 10 30C11.656 30 13 31.342 13 33Z" fill="#00ABE9"/>
<path d="M30 40.772C30 40.772 28.34 37 24 37C19.66 37 18 40.772 18 40.772V42H30V40.772Z" fill="#12C0FF"/>
<path d="M27 33C27 34.658 25.657 36 24 36C22.342 36 21 34.658 21 33C21 31.342 22.342 30 24 30C25.656 30 27 31.342 27 33Z" fill="#00ABE9"/>
<path d="M44 40.772C44 40.772 42.34 37 38 37C33.66 37 32 40.772 32 40.772V42H44V40.772Z" fill="#12C0FF"/>
<path d="M41 33C41 34.658 39.657 36 38 36C36.342 36 35 34.658 35 33C35 31.342 36.342 30 38 30C39.657 30 41 31.342 41 33Z" fill="#00ABE9"/>
<path d="M39 26H37V20C37 19.449 36.552 19 36 19H12C11.448 19 11 19.449 11 20V26H9V20C9 18.346 10.346 17 12 17H36C37.654 17 39 18.346 39 20V26Z" fill="#F5F0FF"/>
<path d="M25 10H23V26H25V10Z" fill="#F5F0FF"/>
<path d="M28 8C28 10.21 26.209 12 24 12C21.79 12 20 10.21 20 8C20 5.79 21.79 4 24 4C26.209 4 28 5.79 28 8Z" fill="#28A2F3"/>
</svg>
