<?xml version="1.0" encoding="utf-8"?>
<!-- Generator: Adobe Illustrator 25.0.0, SVG Export Plug-In . SVG Version: 6.00 Build 0)  -->
<svg version="1.1" id="Ebene_1" xmlns="http://www.w3.org/2000/svg" xmlns:xlink="http://www.w3.org/1999/xlink" x="0px" y="0px"
	 viewBox="0 0 260 260" style="enable-background:new 0 0 260 260;" xml:space="preserve">
<style type="text/css">
	.st0{fill:#F5F0FF;}
	.st1{filter:url(#Adobe_OpacityMaskFilter);}
	.st2{fill-rule:evenodd;clip-rule:evenodd;fill:#FFFFFF;}
	.st3{mask:url(#mask-2_1_);fill-rule:evenodd;clip-rule:evenodd;fill:#E1DCF3;}
</style>
<desc>Created with Sketch.</desc>
<g id="Page-1">
	<g id="EXPORT" transform="translate(-525.000000, -58.000000)">
		<g id="info" transform="translate(525.000000, 58.000000)">
			<g id="Shape">
				<path id="path-1_1_" class="st0" d="M221.9,38.1C197.4,13.5,164.7,0,130,0S62.6,13.5,38.1,38.1C13.5,62.6,0,95.3,0,130
					s13.5,67.4,38.1,91.9C62.6,246.5,95.3,260,130,260s67.4-13.5,91.9-38.1c24.6-24.6,38.1-57.2,38.1-91.9S246.5,62.6,221.9,38.1z
					 M130,35.5c15.4,0,27.9,12.5,27.9,27.9S145.4,91.4,130,91.4s-27.9-12.5-27.9-27.9S114.6,35.5,130,35.5z M165.5,213.3H94.5V198
					h15.2v-76.2H94.5v-15.2h55.9V198h15.2V213.3z"/>
			</g>
			<defs>
				<filter id="Adobe_OpacityMaskFilter" filterUnits="userSpaceOnUse" x="140" y="-20" width="180" height="320">
					<feColorMatrix  type="matrix" values="1 0 0 0 0  0 1 0 0 0  0 0 1 0 0  0 0 0 1 0"/>
				</filter>
			</defs>
			<mask maskUnits="userSpaceOnUse" x="140" y="-20" width="180" height="320" id="mask-2_1_">
				<g class="st1">
					<path id="path-1_2_" class="st2" d="M221.9,38.1C197.4,13.5,164.7,0,130,0S62.6,13.5,38.1,38.1C13.5,62.6,0,95.3,0,130
						s13.5,67.4,38.1,91.9C62.6,246.5,95.3,260,130,260s67.4-13.5,91.9-38.1c24.6-24.6,38.1-57.2,38.1-91.9S246.5,62.6,221.9,38.1z
						 M130,35.5c15.4,0,27.9,12.5,27.9,27.9S145.4,91.4,130,91.4s-27.9-12.5-27.9-27.9S114.6,35.5,130,35.5z M165.5,213.3H94.5V198
						h15.2v-76.2H94.5v-15.2h55.9V198h15.2V213.3z"/>
				</g>
			</mask>
			<rect id="Rectangle" x="140" y="-20" class="st3" width="180" height="320"/>
		</g>
	</g>
</g>
</svg>
