<?xml version="1.0" encoding="utf-8"?>
<svg version="1.1" id="Ebene_1" xmlns="http://www.w3.org/2000/svg" xmlns:xlink="http://www.w3.org/1999/xlink" x="0px" y="0px"
	 viewBox="0 0 383 342" style="enable-background:new 0 0 383 342;" xml:space="preserve">
<style type="text/css">
	.st0{fill-rule:evenodd;clip-rule:evenodd;fill:#F5F0FF;}
	.st1{fill-rule:evenodd;clip-rule:evenodd;fill:#E1DCF3;}
</style>
<g id="Menu-Icons-EXPORT">
	<g id="EXPORT" transform="translate(-552.000000, -561.000000)">
		<g id="problems_white" transform="translate(552.000000, 561.000000)">
			<path id="Fill-1" class="st0" d="M215.9,194c0,13.6-11,24.6-24.6,24.6c-13.6,0-24.6-11-24.6-24.6V81c0-6.4,5.2-11.7,11.7-11.7
				h25.9c6.4,0,11.7,5.2,11.7,11.7L215.9,194L215.9,194z M191.2,298.5c-13.5,0-24.5-11-24.5-24.5c0-13.5,11-24.4,24.5-24.4
				s24.5,11,24.5,24.4C215.7,287.5,204.7,298.5,191.2,298.5L191.2,298.5z M377.4,285.4L223.8,19.3C217,7.6,204.8,0.6,191.2,0.6
				c-13.6,0-25.7,7-32.5,18.8L5.1,285.4c-6.8,11.8-6.8,25.8,0,37.6c6.8,11.8,18.9,18.8,32.5,18.8h307.2c13.6,0,25.7-7,32.5-18.8
				C384.2,311.2,384.2,297.2,377.4,285.4L377.4,285.4z"/>
			<path id="Fill-4" class="st1" d="M377.4,285.4L223.8,19.3c-6.8-11.8-19-18.8-32.5-18.8v68.8h13c6.4,0,11.7,5.2,11.7,11.7v113h0
				c0,13.6-11,24.6-24.6,24.6l0,0v31l0,0c13.5,0,24.5,11,24.5,24.4c0,13.5-11,24.5-24.5,24.5l0,0v43.3h153.6
				c13.6,0,25.7-7,32.5-18.8C384.2,311.2,384.2,297.2,377.4,285.4"/>
		</g>
	</g>
</g>
</svg>
