<?xml version="1.0" encoding="UTF-8"?>
<svg width="15px" height="15px" viewBox="0 0 15 15" version="1.1" xmlns="http://www.w3.org/2000/svg" xmlns:xlink="http://www.w3.org/1999/xlink">
    <title>less</title>
    <g id="less" stroke="none" stroke-width="1" fill="none" fill-rule="evenodd">
        <g fill="#FFFFFF" id="Combined-Shape">
            <path d="M7.5,0 C11.6421356,0 15,3.35786438 15,7.5 C15,11.6421356 11.6421356,15 7.5,15 C3.35786438,15 0,11.6421356 0,7.5 C0,3.35786438 3.35786438,0 7.5,0 Z M4.5,6.5 C3.94771525,6.5 3.5,6.94771525 3.5,7.5 C3.5,8.05228475 3.94771525,8.5 4.5,8.5 C5.05228475,8.5 5.5,8.05228475 5.5,7.5 C5.5,6.94771525 5.05228475,6.5 4.5,6.5 Z M10.5,6.5 C9.94771525,6.5 9.5,6.94771525 9.5,7.5 C9.5,8.05228475 9.94771525,8.5 10.5,8.5 C11.0522847,8.5 11.5,8.05228475 11.5,7.5 C11.5,6.94771525 11.0522847,6.5 10.5,6.5 Z M7.5,6.5 C6.94771525,6.5 6.5,6.94771525 6.5,7.5 C6.5,8.05228475 6.94771525,8.5 7.5,8.5 C8.05228475,8.5 8.5,8.05228475 8.5,7.5 C8.5,6.94771525 8.05228475,6.5 7.5,6.5 Z"></path>
        </g>
    </g>
</svg>