<svg xmlns="http://www.w3.org/2000/svg" width="16" height="16" fill="none" viewBox="0 0 16 16"><g fill="#fff" clip-path="url(#a)"><path d="M1.164 15.5h8.878c.63 0 1.146-.52 1.146-1.157v-1.494H5.97a2.205 2.205 0 0 1-2.194-2.216V5.44H1.17c-.63 0-1.146.52-1.146 1.157v7.745a1.145 1.145 0 0 0 1.14 1.157"/><path d="M5.97 11.79h8.878c.63 0 1.146-.52 1.146-1.157v-8.97c0-.643-.515-1.163-1.146-1.163H5.97c-.63 0-1.146.52-1.146 1.157v8.97c0 .642.515 1.163 1.146 1.163"/></g><defs><clipPath id="a"><path fill="#fff" d="M0 .5h16v15H0z"/></clipPath></defs></svg>