<svg width="20" height="20" viewBox="0 0 20 20" fill="none" xmlns="http://www.w3.org/2000/svg">
<path fill-rule="evenodd" clip-rule="evenodd" d="M10 18C14.4183 18 18 14.4183 18 10C18 5.58172 14.4183 2 10 2C5.58172 2 2 5.58172 2 10C2 14.4183 5.58172 18 10 18ZM10 19.5C15.2467 19.5 19.5 15.2467 19.5 10C19.5 4.75329 15.2467 0.5 10 0.5C4.75329 0.5 0.5 4.75329 0.5 10C0.5 15.2467 4.75329 19.5 10 19.5Z" fill="#13D389"/>
<path fill-rule="evenodd" clip-rule="evenodd" d="M15.5303 6.46967C15.8232 6.76256 15.8232 7.23744 15.5303 7.53033L9.53033 13.5303C9.25321 13.8074 8.80946 13.8245 8.5119 13.5694L5.0119 10.5694C4.69741 10.2999 4.66099 9.8264 4.93056 9.51191C5.20012 9.19741 5.6736 9.16099 5.98809 9.43056L8.96077 11.9786L14.4697 6.46967C14.7626 6.17678 15.2374 6.17678 15.5303 6.46967Z" fill="#13D389"/>
</svg>
