<svg width="32" height="32" viewBox="0 0 32 32" fill="none" xmlns="http://www.w3.org/2000/svg">
<g clip-path="url(#clip0_1417_104)">
<path fill-rule="evenodd" clip-rule="evenodd" d="M21.1589 27.2C21.1589 29.8203 18.837 31.9459 15.9747 31.9459C13.1124 31.9459 10.7905 29.8203 10.7905 27.2L15.9831 24.7575L21.1589 27.2Z" fill="#EDBA3B"/>
<path fill-rule="evenodd" clip-rule="evenodd" d="M20.9056 28.6609C20.3652 30.1758 19.0396 31.343 17.3594 31.7681C16.3209 31.5053 15.3921 30.9488 14.7166 30.1836C14.4718 29.8976 14.4211 29.5188 14.5984 29.1942C14.7673 28.8696 15.1304 28.6609 15.5272 28.6609H20.9056Z" fill="#F7D360"/>
<path d="M23.3134 4.58587C21.7567 3.29159 19.4364 2.48116 15.9746 2.48116C5.53072 2.48116 5.48042 9.85762 5.44095 15.6458C5.42662 17.7471 5.41372 19.639 4.9055 20.8928C4.63531 21.8435 3.66434 22.4928 2.59204 22.4541L5.09269 22.8066L23.3134 4.58587Z" fill="#F7D360"/>
<path d="M12.5297 23.8549L18.2205 24.657L29.3572 22.4541C28.2849 22.4928 27.3224 21.8435 27.0438 20.885C26.5385 19.6352 26.526 17.7486 26.512 15.6522C26.5003 13.8982 26.4876 11.9974 26.1846 10.1999L12.5297 23.8549Z" fill="#F7D360"/>
<path d="M5.44849 22.4508H2.59208C1.15673 22.4508 0 23.5097 0 24.8237C0 25.6366 0.442654 26.3518 1.12009 26.7792L5.44849 22.4508Z" fill="#EDBA3B"/>
<path d="M9.18787 27.1967H29.3573C30.7842 27.1967 31.9493 26.1377 31.9493 24.8237C31.9493 23.5175 30.7926 22.4508 29.3573 22.4508H13.9338L9.18787 27.1967Z" fill="#EDBA3B"/>
<path d="M10.5004 17.3989C10.5082 16.842 10.5101 16.2577 10.512 15.6561C10.5303 9.90724 10.5536 2.58041 15.8733 2.48116C5.52878 2.52808 5.47943 9.87725 5.4407 15.6446C5.41564 19.3767 5.39503 22.4464 2.59204 22.4464H5.45291L10.5004 17.3989Z" fill="#EDBA3B"/>
<path d="M13.9382 22.4464H29.1417C29.2129 22.4495 29.2848 22.4495 29.3572 22.4464H29.1417C28.158 22.4037 27.3036 21.7793 27.0438 20.8927H15.4918L13.9382 22.4464Z" fill="#EDBA3B"/>
<path d="M9.29724 27.0873C9.54407 27.1584 9.80703 27.1967 10.0801 27.1967H29.3561C30.7914 27.1967 31.9481 26.1377 31.9481 24.8237C31.9481 23.5175 30.7914 22.4508 29.3561 22.4508H13.9337L9.29724 27.0873Z" fill="#F7D360"/>
<path fill-rule="evenodd" clip-rule="evenodd" d="M18.6102 2.66666C18.6186 2.60482 18.6186 2.54299 18.6186 2.48115C18.6186 1.14395 17.4366 0.0618286 15.9759 0.0618286C14.5152 0.0618286 13.3331 1.15168 13.3331 2.48115C13.3331 2.54299 13.3331 2.60482 13.3416 2.66666" fill="#EDBA3B"/>
</g>
<path d="M28.7279 1.9998L30.1421 3.41402L1.85785 31.6983L0.443635 30.2841L28.7279 1.9998Z" fill="white"/>
<defs>
<clipPath id="clip0_1417_104">
<rect width="32" height="32" fill="white"/>
</clipPath>
</defs>
</svg>
