<svg width="16" height="16" viewBox="0 0 16 16" fill="none" xmlns="http://www.w3.org/2000/svg">
<path d="M9.85742 10.869L10.8749 9.85156L15.1992 14.1757L14.1817 15.1932L9.85742 10.869Z" fill="white"/>
<path d="M6.55649 0.800049C5.02998 0.800049 3.566 1.40645 2.48659 2.48586C1.40718 3.56526 0.800781 5.02925 0.800781 6.55576C0.800781 8.08229 1.40718 9.54629 2.48659 10.6256C3.566 11.7051 5.02998 12.3115 6.55649 12.3115C8.08302 12.3115 9.54702 11.7051 10.6264 10.6256C11.7058 9.54629 12.3122 8.08229 12.3122 6.55576C12.3122 5.02925 11.7058 3.56526 10.6264 2.48586C9.54702 1.40645 8.08302 0.800049 6.55649 0.800049Z" fill="white"/>
<path d="M11.0352 12.0743L12.0526 11.0569L15.1814 14.1855L14.164 15.203L11.0352 12.0743Z" fill="#85939C"/>
<path d="M6.55543 1.87915C5.31514 1.87915 4.12564 2.37185 3.24863 3.24887C2.37161 4.12589 1.87891 5.31538 1.87891 6.55567C1.87891 7.79596 2.37161 8.98546 3.24863 9.8625C4.12564 10.7395 5.31514 11.2322 6.55543 11.2322C7.79571 11.2322 8.98521 10.7395 9.86225 9.8625C10.7392 8.98546 11.2319 7.79596 11.2319 6.55567C11.2319 5.31538 10.7392 4.12589 9.86225 3.24887C8.98521 2.37185 7.79571 1.87915 6.55543 1.87915Z" fill="#61707C"/>
<path d="M5.97344 10.2575C6.86279 10.5749 7.85747 10.4991 8.69864 10.0134C9.53976 9.52778 10.1028 8.70426 10.2726 7.77541C10.3254 7.57885 10.1682 7.37876 9.98968 7.35725C9.79312 7.30458 9.59304 7.46165 9.57152 7.64022C9.42312 8.3905 8.99312 9.01258 8.33888 9.39034C7.68466 9.76802 6.93086 9.82938 6.20692 9.58274C6.10864 9.55642 5.97921 9.5481 5.88575 9.60202C5.82344 9.63802 5.74796 9.72314 5.73479 9.77226C5.68213 9.96882 5.80803 10.1869 5.97344 10.2575Z" fill="#99A5AC"/>
</svg>
