<?xml version="1.0" encoding="utf-8"?>
<!-- Generator: Adobe Illustrator 25.0.0, SVG Export Plug-In . SVG Version: 6.00 Build 0)  -->
<svg version="1.1" id="Ebene_1" xmlns="http://www.w3.org/2000/svg" xmlns:xlink="http://www.w3.org/1999/xlink" x="0px" y="0px"
	 viewBox="0 0 10 15" style="enable-background:new 0 0 10 15;" xml:space="preserve">
<style type="text/css">
	.st0{fill:#F5F0FF;}
</style>
<desc>Created with Sketch.</desc>
<g id="Dashboard">
	<g id="Hexagon-Variant-01" transform="translate(-1009.000000, -305.000000)">
		<g id="unreached" transform="translate(1009.000000, 305.000000)">
			<path id="Mask" class="st0" d="M9,5.4H5.4L6,0.7c0,0,0-0.1,0-0.1C6,0.3,5.7,0,5.4,0C5.2,0,5,0.1,4.9,0.3L0.1,7.4
				C0,7.5,0,7.6,0,7.8c0,0.3,0.3,0.6,0.6,0.6h3L3,13.7c0,0,0,0.1,0,0.1c0,0.3,0.3,0.6,0.6,0.6c0.2,0,0.4-0.1,0.5-0.2l5.4-7.8
				C9.5,6.2,9.6,6.1,9.6,6C9.6,5.6,9.3,5.4,9,5.4z"/>
		</g>
	</g>
</g>
</svg>
