<?xml version="1.0" encoding="UTF-8"?>
<svg id="Ebene_1" data-name="Ebene 1" xmlns="http://www.w3.org/2000/svg" width="120" height="36" viewBox="0 0 120 36">
  <defs>
    <style>
      .cls-1 {
        fill: #15d1a0;
      }
    </style>
  </defs>
  <g id="Ebene_1-2" data-name="Ebene 1-2">
    <g id="Gruppe_1280" data-name="Gruppe 1280">
      <g id="Gruppe_1276" data-name="Gruppe 1276">
        <path id="Pfad_1" data-name="Pfad 1" class="cls-1" d="m41.6868,24.1058c-2.7785,0-4.3314-1.5735-4.3314-4.497v-2.1119c0-2.9235,1.5363-4.497,4.3107-4.497,2.5715,0,4.0457,1.3499,4.145,3.673h-1.1222c-.1242-1.7806-1.1429-2.6543-2.9897-2.6543-2.1326,0-3.1926,1.1636-3.1926,3.5446v1.9918c0,2.3852,1.0559,3.5446,3.1926,3.5446,1.8468,0,2.8614-.8696,2.9897-2.6502h1.1222c-.0994,2.2775-1.5363,3.673-4.1243,3.673m6.8822-.2609v-15.1392h1.1636v6.3894c.7412-1.3417,2.1616-2.1491,3.6937-2.1119,2.1988,0,3.321,1.3292,3.321,3.8386v7.0271h-1.1677v-6.907c0-1.9462-.7454-2.9028-2.3438-2.9028-1.4949,0-2.6543.8282-3.5073,2.7578v7.0478h-1.1595Zm15.6775.2443c-2.9028,0-4.497-1.5735-4.497-4.497v-2.1119c0-2.9235,1.557-4.497,4.3976-4.497s4.3769,1.5735,4.3769,4.497v1.3085h-7.611v.7247c0,2.4059,1.0766,3.5653,3.2962,3.5653,1.909,0,2.9897-.8696,3.1098-2.3438h1.1222c-.1449,2.1781-1.6812,3.3624-4.1906,3.3624m-3.3376-6.3025h6.4888v-.2277c0-2.4059-1.0559-3.5653-3.2548-3.5653s-3.234,1.1636-3.234,3.5653v.2277Zm14.4932,6.3025c-2.7785,0-4.3314-1.5735-4.3314-4.497v-2.1119c0-2.9235,1.5363-4.497,4.3107-4.497,2.5715,0,4.0457,1.3499,4.145,3.673h-1.1222c-.1242-1.7806-1.1429-2.6543-2.9897-2.6543-2.1367,0-3.1926,1.1636-3.1926,3.5446v1.9918c0,2.3852,1.0559,3.5446,3.1926,3.5446,1.8468,0,2.8614-.8696,2.9897-2.6502h1.1222c-.0994,2.2775-1.5363,3.673-4.1243,3.673m6.8822-.265v-15.1433h1.1636v10.4351l5.9298-5.9132h1.4949l-4.3562,4.3314,4.4391,6.2818h-1.4079l-3.8593-5.4536-2.2402,2.1988v3.2548h-1.1595l-.0042.0083h0Zm10.6628,0v-10.7084h1.5528l.0663,1.6812c.6708-1.2216,1.9711-1.9669,3.3624-1.9255,1.4949,0,2.5094.6418,2.9442,1.8675.6998-1.1843,1.9835-1.9007,3.3624-1.8675,2.1367,0,3.321,1.2878,3.321,3.6481v7.3004h-1.8261v-7.1555c0-1.4286-.6253-2.1119-1.7392-2.1119s-2.0332.704-2.8241,2.2609v7.0106h-1.8261v-7.1555c0-1.4286-.6253-2.1119-1.7433-2.1119s-2.0332.704-2.8241,2.3645v6.907h-1.8303l.0041-.0041h0Zm17.8763,0v-15.1433h1.8261v9.7063l4.936-5.2672h2.2775l-4.1078,4.3562,4.1906,6.3439h-2.1781l-3.2755-5.0146-1.8468,1.9255v3.0891h-1.8261l.0042.0041h0Z"/>
      </g>
      <path id="Pfad_2630" data-name="Pfad 2630" class="cls-1" d="m14.1871,1.6413l14.1371,8.1824v16.3566l-14.1371,8.1783L.05,26.1762V9.8196L14.1871,1.6413ZM4.9073,13.5506v5.4287l6.6586-4.3024v11.2012l2.6253,1.5156,2.6212-1.5156v-11.2012l6.6544,4.3024v-5.4287l-9.2798-5.8138-9.2798,5.8138h0Z"/>
    </g>
  </g>
</svg>