<?xml version="1.0" encoding="utf-8"?>
<!-- Generator: Adobe Illustrator 25.0.0, SVG Export Plug-In . SVG Version: 6.00 Build 0)  -->
<svg version="1.1" id="Ebene_1" xmlns="http://www.w3.org/2000/svg" xmlns:xlink="http://www.w3.org/1999/xlink" x="0px" y="0px"
	 viewBox="0 0 17 17" style="enable-background:new 0 0 17 17;" xml:space="preserve">
<style type="text/css">
	.st0{fill:#172127;}
</style>
<desc>Created with Sketch.</desc>
<path class="st0" d="M16.4,11.3l0-1.2L13.7,10l0,1.2l0.8,0c-1,1.9-2.9,3.1-5,3.4V6.8h2.2V5.4H9.6V4.1c0.6-0.3,1.1-1,1.1-1.7
	c0-1.1-0.9-1.9-1.9-1.9c-1.1,0-2,0.9-2,1.9c0,0.8,0.4,1.4,1.1,1.7v1.2H5.6v1.5h2.2v7.8c-2.1-0.3-4-1.6-5-3.4l0.8,0l0-1.2L1,10.1
	l0,1.2l0,0l0,0c1.3,3.1,4.3,5.1,7.7,5.1C12.1,16.5,15.1,14.4,16.4,11.3L16.4,11.3L16.4,11.3C16.4,11.3,16.4,11.3,16.4,11.3
	L16.4,11.3z M8.7,1.5c0.5,0,0.8,0.4,0.8,0.9S9.2,3.2,8.7,3.2S7.8,2.9,7.8,2.4S8.2,1.5,8.7,1.5z"/>
</svg>
