<?xml version="1.0" encoding="utf-8"?>
<!-- Generator: Adobe Illustrator 25.0.0, SVG Export Plug-In . SVG Version: 6.00 Build 0)  -->
<svg version="1.1" id="Ebene_1" xmlns="http://www.w3.org/2000/svg" xmlns:xlink="http://www.w3.org/1999/xlink" x="0px" y="0px"
	 viewBox="0 0 23 23" style="enable-background:new 0 0 23 23;" xml:space="preserve">
<style type="text/css">
	.st0{fill-rule:evenodd;clip-rule:evenodd;}
	.st1{fill:none;stroke:#505862;}
</style>
<desc>Created with Sketch.</desc>
<path id="Fill-1" class="st0" d="M11.4,14.5c-1.8,0-3.2-1.4-3.2-3.2s1.4-3.2,3.2-3.2s3.2,1.4,3.2,3.2C14.6,13,13.1,14.5,11.4,14.5
	L11.4,14.5z M15.8,12.6c0.1-0.4,0.2-0.8,0.2-1.3c0-0.4-0.1-0.9-0.2-1.3l1.3-0.8c0.1-0.1,0.2-0.3,0.1-0.4l-0.8-1.3
	c-0.1-0.1-0.3-0.2-0.4-0.1l-1.3,0.8c-0.6-0.6-1.4-1.1-2.3-1.3V5.3c0-0.2-0.1-0.3-0.3-0.3h-1.6c-0.1,0-0.2,0.1-0.2,0.3v1.5
	C9.4,7,8.7,7.5,8.1,8.1L6.8,7.3c-0.1-0.1-0.3,0-0.4,0.1L5.6,8.8C5.5,8.9,5.5,9.1,5.7,9.2L7,10c-0.1,0.4-0.2,0.9-0.2,1.3
	c0,0.4,0.1,0.9,0.2,1.3l-1.3,0.8c-0.2,0-0.2,0.1-0.2,0.3L6.3,15c0.1,0.1,0.3,0.2,0.4,0.1L8,14.4c0.6,0.6,1.4,1.1,2.2,1.3v1.5
	c0,0.2,0.1,0.3,0.3,0.3h1.6c0.2,0,0.3-0.1,0.3-0.3v-1.5c0.9-0.2,1.7-0.7,2.3-1.3l1.3,0.8c0.1,0.1,0.3,0,0.4-0.1l0.8-1.3
	c0.1-0.1,0-0.3-0.1-0.4L15.8,12.6z"/>
<circle id="Oval" class="st1" cx="11.5" cy="11.5" r="10.5"/>
</svg>
