<?xml version="1.0" encoding="utf-8"?>
<!-- Generator: Adobe Illustrator 25.0.0, SVG Export Plug-In . SVG Version: 6.00 Build 0)  -->
<svg version="1.1" id="Ebene_1" xmlns="http://www.w3.org/2000/svg" xmlns:xlink="http://www.w3.org/1999/xlink" x="0px" y="0px"
	 viewBox="0 0 184 243" style="enable-background:new 0 0 184 243;" xml:space="preserve">
<style type="text/css">
	.st0{fill:#E5E1F5;}
	.st1{fill:#5E5E5E;}
</style>
<desc>Created with Sketch.</desc>
<g id="Icons">
	<g id="Artboard" transform="translate(-418.000000, -517.000000)">
		<g id="sign" transform="translate(418.000000, 517.000000)">
			<polygon id="Path" class="st0" points="183.3,242.7 0,242.7 0,0.7 124.7,0.7 183.3,59.3 			"/>
			<path id="Shape" class="st1" d="M147.4,184.4c-2.5-1.3-5.5-2.9-9.9-3.5c-3.6-0.5-6.7,0.4-8.9,1c-0.2,0.1-0.5,0.1-0.8,0.2
				c-2.6-3.6-6.2-5.2-10.8-4.9c-6,0.5-9.7,4.6-12.1,7.7c-0.2-1.7-0.4-3.8-0.5-5.3c-0.3-4.9-0.6-9.9-2.8-14c-1.7-3.3-5.3-5-8.8-4.2
				c-8.9,2.2-14.5,9.2-19.4,15.6c-5.2,6.7-8.5,10.7-13.2,10.4c-5.7-0.3-10.7-14.7-12.2-28.4c-1.4-12.3-3.9-35.3,3.6-48.3
				c2.5-4.4,6.6-9.6,11.3-9.1c5.6,0.5,12.3,7.8,16.3,17.7c1.7,4.2,6.2,6.2,10.3,4.6c4-1.7,5.8-6.4,4.1-10.6
				C87.2,97,75.8,86.3,64,85.2C57,84.6,46.8,86.9,38.2,102c-9.4,16.3-7.9,38.7-5.7,58.4c1.1,9.8,6.2,42,27.3,43.2
				c12.8,0.8,20.1-8.7,26-16.3c1.1-1.4,2.1-2.8,3.2-4c0.5,6.1,1.6,12.4,6.4,16.5c7.2,6.2,14.4,4.9,21.3-3.8c0.3-0.3,0.6-0.7,0.9-1.1
				c1.3,1.5,3.4,3,6.4,3.6c3.6,0.7,6.8-0.2,9.1-0.9c1-0.3,2.3-0.7,2.8-0.6c1.6,0.2,2.7,0.8,4.8,1.9c1.6,0.8,3.2,1.7,5.2,2.5
				c1.7,0.6,3.4,0.7,4.9,0.2c2.3-0.7,4.2-2.5,5-5c1.4-4.2-0.8-8.9-4.9-10.5C149.6,185.5,148.4,184.9,147.4,184.4z"/>
			<polygon id="Path_1_" class="st1" points="172.3,66.7 117.3,66.7 117.3,11.7 			"/>
		</g>
	</g>
</g>
</svg>
