<?xml version="1.0" encoding="utf-8"?>
<!-- Generator: Adobe Illustrator 25.0.0, SVG Export Plug-In . SVG Version: 6.00 Build 0)  -->
<svg version="1.1" id="Ebene_1" xmlns="http://www.w3.org/2000/svg" xmlns:xlink="http://www.w3.org/1999/xlink" x="0px" y="0px"
	 viewBox="0 0 48 48" style="enable-background:new 0 0 48 48;" xml:space="preserve">
<style type="text/css">
	.st0{fill-rule:evenodd;clip-rule:evenodd;}
	.st1{fill-rule:evenodd;clip-rule:evenodd;fill:#FFFFFF;}
</style>
<g id="Icons">
	<g id="Artboard" transform="translate(-615.000000, -140.000000)">
		<g id="emblem_statistic" transform="translate(615.000000, 140.000000)">
			<path id="Fill-1_1_" class="st0" d="M23.9,47.6C10.9,47.6,0.3,37,0.3,24S10.9,0.4,23.9,0.4S47.5,11,47.5,24S36.9,47.6,23.9,47.6"
				/>
			<g id="Group-2" transform="translate(38.000000, 38.000000)">
				<path id="Fill-6_3_" class="st1" d="M-17.7-4.1v-22.1c0-0.8,0.5-1.5,1.1-1.5h5.4c0.6,0,1.1,0.7,1.1,1.5v22.1
					c0,0.8-0.5,1.5-1.1,1.5h-5.4C-17.2-2.6-17.7-3.3-17.7-4.1"/>
				<path id="Fill-6_1_" class="st1" d="M-6.5-3.8v-17.7c0-0.6,0.5-1.2,1.1-1.2h5.4c0.6,0,1.1,0.5,1.1,1.2v17.7
					c0,0.6-0.5,1.2-1.1,1.2h-5.4C-6.1-2.6-6.5-3.1-6.5-3.8"/>
				<path id="Fill-6_2_" class="st1" d="M-27.7-3.5v-13.3c0-0.5,0.5-0.9,1.1-0.9h5.4c0.6,0,1.1,0.4,1.1,0.9v13.3
					c0,0.5-0.5,0.9-1.1,0.9h-5.4C-27.2-2.6-27.7-3-27.7-3.5"/>
			</g>
		</g>
	</g>
</g>
</svg>
