<?xml version="1.0" encoding="utf-8"?>
<svg version="1.1" id="Ebene_1" xmlns="http://www.w3.org/2000/svg" xmlns:xlink="http://www.w3.org/1999/xlink" x="0px" y="0px"
	 viewBox="0 0 48 48" style="enable-background:new 0 0 48 48;" xml:space="preserve">
<style type="text/css">
	.st0{fill-rule:evenodd;clip-rule:evenodd;}
	.st1{fill-rule:evenodd;clip-rule:evenodd;fill:#FFFFFF;}
</style>
<g id="Menu-Icons-EXPORT">
	<g id="EXPORT" transform="translate(-661.000000, -5734.000000)">
		<g id="embleme" transform="translate(356.000000, 5734.000000)">
			<g id="refresh" transform="translate(305.000000, 0.000000)">
				<path id="Fill-1" class="st0" d="M24,47.6C11,47.6,0.4,37,0.4,24S11,0.4,24,0.4S47.6,11,47.6,24S37,47.6,24,47.6"/>
				<path id="Fill-6" class="st1" d="M24.2,40.4c-5.6,0-10.8-2.8-13.8-7.5c-0.2-0.4-0.3-0.8-0.2-1.3c0.1-0.4,0.3-0.8,0.7-1l4.1-2.7
					c0.3-0.2,0.6-0.3,0.9-0.3c0.6,0,1.1,0.3,1.4,0.8c1.5,2.3,4.1,3.8,6.9,3.8c4.5,0,8.2-3.7,8.2-8.2s-3.7-8.2-8.2-8.2
					c-0.9,0-1.7-0.8-1.7-1.7V9.3c0-0.9,0.7-1.7,1.7-1.7c9.1,0,16.4,7.4,16.4,16.4C40.6,33,33.2,40.4,24.2,40.4"/>
			</g>
		</g>
	</g>
</g>
</svg>
