<?xml version="1.0" encoding="utf-8"?>
<!-- Generator: Adobe Illustrator 25.0.0, SVG Export Plug-In . SVG Version: 6.00 Build 0)  -->
<svg version="1.1" id="Ebene_1" xmlns="http://www.w3.org/2000/svg" xmlns:xlink="http://www.w3.org/1999/xlink" x="0px" y="0px"
	 viewBox="0 0 266 266" style="enable-background:new 0 0 266 266;" xml:space="preserve">
<style type="text/css">
	.st0{fill:#0A7FA8;}
	.st1{fill:#FFCA28;}
	.st2{fill:#1697C4;}
	.st3{fill:#24B7EA;}
</style>
<desc>Created with Sketch.</desc>
<g id="Icons">
	<g id="Artboard" transform="translate(-377.000000, -505.000000)">
		<g id="edit" transform="translate(377.000000, 505.000000)">
			<path id="Path" class="st0" d="M231.5,105.1c-2.2,0-4.3-0.9-5.9-2.4L163,40.1c-3.2-3.2-3.2-8.5,0-11.7l16.2-16.3
				c7.7-7.7,18-12,28.9-12h0.1c10.9,0,21.1,4.3,28.7,12l16.7,16.7c7.7,7.6,11.9,17.8,12,28.7c0,10.9-4.2,21.2-12,28.9l-16.1,16.2
				C235.8,104.2,233.7,105.1,231.5,105.1L231.5,105.1z"/>
			<path id="Path_1_" class="st1" d="M8.3,265.6c-2.2,0-4.3-0.9-5.9-2.4c-2-2-2.8-4.8-2.3-7.5l15.6-78.2c0.6-3,2.8-5.4,5.7-6.3
				c3-0.9,6.1-0.1,8.3,2.1l62.6,62.6c2.2,2.2,3,5.3,2.1,8.3c-0.9,2.9-3.3,5.1-6.3,5.7L9.9,265.4C9.4,265.5,8.8,265.6,8.3,265.6
				L8.3,265.6z"/>
			<path id="Path_2_" class="st2" d="M49.3,204.5l145-144.9c3.3-3.2,8.5-3.2,11.7,0L244,96L92.4,247.6L49.3,204.5z"/>
			<polygon id="Path_3_" class="st3" points="55.2,210.4 18,173.2 168.9,22.5 206,59.7 			"/>
		</g>
	</g>
</g>
</svg>
