<?xml version="1.0" encoding="utf-8"?>
<!-- Generator: Adobe Illustrator 25.2.1, SVG Export Plug-In . SVG Version: 6.00 Build 0)  -->
<svg version="1.1" id="Capa_1" xmlns="http://www.w3.org/2000/svg" xmlns:xlink="http://www.w3.org/1999/xlink" x="0px" y="0px"
	 viewBox="0 0 130 130" style="enable-background:new 0 0 130 130;" xml:space="preserve">
<style type="text/css">
	.st0{fill:none;stroke:#13D389;stroke-width:7;stroke-miterlimit:10;}
</style>
<path class="st0" d="M27.7,114.3H11.4c-3.1,0-5.7-2.6-5.7-5.7V57.3c0-3.1,2.6-5.7,5.7-5.7h16.3c3.1,0,5.7,2.6,5.7,5.7v51.3
	C33.4,111.7,30.8,114.3,27.7,114.3z"/>
<path class="st0" d="M71.9,114.3H55.6c-3.1,0-5.7-2.6-5.7-5.7V45.1c0-3.1,2.6-5.7,5.7-5.7h16.3c3.1,0,5.7,2.6,5.7,5.7v63.5
	C77.6,111.7,75,114.3,71.9,114.3z"/>
<path class="st0" d="M116.2,114.3H99.8c-3.1,0-5.7-2.6-5.7-5.7V26.3c0-3.1,2.6-5.7,5.7-5.7h16.3c3.1,0,5.7,2.6,5.7,5.7v82.3
	C121.8,111.7,119.3,114.3,116.2,114.3z"/>
</svg>
