<?xml version="1.0" encoding="utf-8"?>
<!-- Generator: Adobe Illustrator 25.2.1, SVG Export Plug-In . SVG Version: 6.00 Build 0)  -->
<svg version="1.1" id="Ebene_1" xmlns="http://www.w3.org/2000/svg" xmlns:xlink="http://www.w3.org/1999/xlink" x="0px" y="0px"
	 viewBox="0 0 446 344" style="enable-background:new 0 0 446 344;" xml:space="preserve">
<style type="text/css">
	.st0{fill-rule:evenodd;clip-rule:evenodd;fill:#43A047;}
</style>
<g id="Page-1">
	<g id="accept" transform="translate(0.183239, 0.913016)">
		<path id="Rectangle" class="st0" d="M406.6,11.3l27.6,27.6c6.2,6.2,6.2,16.4,0,22.6L164.8,330.9c-6.2,6.2-16.4,6.2-22.6,0
			l-27.6-27.6c-6.2-6.2-6.2-16.4,0-22.6L384,11.3C390.2,5.1,400.3,5.1,406.6,11.3z"/>
		<path id="Rectangle_1_" class="st0" d="M11.3,177.5l27.6-27.6c6.2-6.2,16.4-6.2,22.6,0l130.8,130.8c6.2,6.2,6.2,16.4,0,22.6
			l-27.6,27.6c-6.2,6.2-16.4,6.2-22.6,0L11.3,200.1C5.1,193.9,5.1,183.7,11.3,177.5z"/>
	</g>
</g>
</svg>
