<?xml version="1.0" encoding="utf-8"?>
<!-- Generator: Adobe Illustrator 25.0.0, SVG Export Plug-In . SVG Version: 6.00 Build 0)  -->
<svg version="1.1" id="Ebene_1" xmlns="http://www.w3.org/2000/svg" xmlns:xlink="http://www.w3.org/1999/xlink" x="0px" y="0px"
	 viewBox="0 0 184 243" style="enable-background:new 0 0 184 243;" xml:space="preserve">
<style type="text/css">
	.st0{fill:#B894EE;}
	.st1{fill:#5A24AB;}
</style>
<desc>Created with Sketch.</desc>
<g id="Icons">
	<g id="Artboard" transform="translate(-315.000000, -884.000000)">
		<g id="Link-view" transform="translate(315.000000, 884.000000)">
			<g id="Group" transform="translate(0.000000, 0.666667)">
				<polygon id="Path" class="st0" points="183.3,242 0,242 0,0 124.7,0 183.3,58.7 				"/>
				<polygon id="Path_1_" class="st1" points="172.3,66 117.3,66 117.3,11 				"/>
			</g>
			<g id="link-3" transform="translate(40.000000, 106.000000)">
				<path id="Path_2_" class="st1" d="M32.5,86.9c-4.7,4.7-12.3,4.7-17,0c-4.6-4.6-4.7-12-0.2-16.8l25.3-25.3
					c-7.8-2.1-16.5-0.2-22.7,5.8L6.6,61.9C-2.3,71.3-2.2,86.1,7,95.4c9.4,9.4,24.6,9.4,33.9,0L51.3,85c6.3-6.3,8.4-15.2,6.2-23.2
					L32.5,86.9z"/>
				<path id="Path_3_" class="st1" d="M95.4,7c-9.2-9.2-24.1-9.4-33.5-0.4L50.6,17.8c-5.9,6.3-7.9,14.9-5.8,22.7l25.3-25.3
					c4.7-4.5,12.1-4.4,16.8,0.2c4.7,4.7,4.7,12.3,0,17L61.8,57.6c8,2.1,16.9,0.1,23.2-6.2L95.4,41C104.7,31.6,104.7,16.4,95.4,7
					L95.4,7z"/>
				<path id="Path_4_" class="st1" d="M33,69.4c2.3,2.3,6.1,2.3,8.5,0l28-28c2.3-2.3,2.3-6.1,0-8.5c-2.3-2.3-6-2.3-8.4-0.1
					L32.8,61.1C30.6,63.4,30.6,67.1,33,69.4z"/>
			</g>
		</g>
	</g>
</g>
</svg>
