<?xml version="1.0" encoding="UTF-8"?>
<svg width="16px" height="19px" viewBox="0 0 16 19" version="1.1" xmlns="http://www.w3.org/2000/svg" xmlns:xlink="http://www.w3.org/1999/xlink">
    <title>account</title>
    <defs>
        <polygon id="path-1" points="0.002313 0.07461 8.108613 0.07461 8.108613 8.697654 0.002313 8.697654"></polygon>
        <polygon id="path-3" points="5.40000001e-05 0.052128 15.310584 0.052128 15.310584 8.73 5.40000001e-05 8.73"></polygon>
    </defs>
    <g id="design" stroke="none" stroke-width="1" fill="none" fill-rule="evenodd">
        <g id="bar_left_actions" transform="translate(-24.000000, -333.000000)">
            <g id="Nav" transform="translate(-0.000000, 0.000000)">
                <g id="account" transform="translate(24.000000, 333.000000)">
                    <g id="Group-3" transform="translate(3.600000, 0.015390)">
                        <mask id="mask-2" fill="white">
                            <use xlink:href="#path-1"></use>
                        </mask>
                        <g id="Clip-2"></g>
                        <path d="M4.055553,8.697654 C6.293943,8.697654 8.108613,6.767334 8.108613,4.386204 C8.108613,2.004894 7.512813,0.074484 4.055553,0.074484 C0.598203,0.074484 0.002313,2.004894 0.002313,4.386204 C0.002313,6.767334 1.817073,8.697654 4.055553,8.697654" id="Fill-1" fill="#505862" mask="url(#mask-2)"></path>
                    </g>
                    <g id="Group-6" transform="translate(0.000000, 9.735390)">
                        <mask id="mask-4" fill="white">
                            <use xlink:href="#path-3"></use>
                        </mask>
                        <g id="Clip-5"></g>
                        <path d="M15.302034,6.130458 C15.226974,1.982268 14.608404,0.800298 9.874854,0.052128 C9.874854,0.052128 9.208494,0.795798 7.655454,0.795798 C6.102414,0.795798 5.435964,0.052128 5.435964,0.052128 C0.754074,0.792198 0.097884,1.956618 0.011574,5.995638 C0.004554,6.325488 0.001314,6.342768 5.4e-05,6.304518 C0.000234,6.376248 0.000594,6.508908 0.000594,6.740298 C0.000594,6.740298 1.127574,8.730018 7.655454,8.730018 C14.183244,8.730018 15.310314,6.740298 15.310314,6.740298 C15.310314,6.591708 15.310404,6.488298 15.310584,6.417918 C15.309324,6.441678 15.306804,6.395688 15.302034,6.130458" id="Fill-4" fill="#505862" mask="url(#mask-4)"></path>
                    </g>
                </g>
            </g>
        </g>
    </g>
</svg>