<?xml version="1.0" encoding="utf-8"?>
<svg version="1.1" id="Ebene_1" xmlns="http://www.w3.org/2000/svg" xmlns:xlink="http://www.w3.org/1999/xlink" x="0px" y="0px"
	 viewBox="0 0 269 370" style="enable-background:new 0 0 269 370;" xml:space="preserve">
<style type="text/css">
	.st0{fill:#BBDEFB;}
	.st1{fill:#FFFFFF;}
	.st2{fill:#37474F;}
	.st3{fill:#546E7A;}
	.st4{fill:#DEA808;}
</style>
<g id="Menu-Icons-EXPORT">
	<g id="EXPORT" transform="translate(-570.000000, -545.000000)">
		<g id="background-jobs" transform="translate(570.000000, 545.000000)">
			<path id="Path" class="st0" d="M161.3,201.1c29.1-24.1,73.9-63.9,73.9-94.4c0-46.3-44.8-73.1-100.8-73.1S33.6,60.4,33.6,106.7
				c0,30.5,44.8,71.3,73.9,95.3c-29.1,23.1-73.9,62.9-73.9,94.4c0,46.3,44.8,73.1,100.8,73.1s100.8-26.8,100.8-73.1
				C235.2,265,190.4,225.2,161.3,201.1z"/>
			<path id="Path_1_" class="st1" d="M189,336c0,0,0,0,0.9-0.8c0.9-0.8,1.7-2.5,1.7-3.4c1.7-3.4,3.5-7.6,5.2-12.7
				c0.9-2.5,1.7-5.1,2.6-8.5c0.9-3.4,0.9-6.8,1.7-9.3c0-3.4,0.9-6.8,0-10.2c0-3.4-0.9-6.8-1.7-10.2c-0.9-3.4-1.7-6.8-2.6-10.2
				c-0.9-3.4-2.6-5.9-4.4-9.3c-1.7-2.5-3.5-5.1-5.2-7.6c-1.7-2.5-3.5-4.2-5.2-5.9c-3.5-4.2-7-6.8-8.7-8.5c-2.6-3.4-3.5-4.2-3.5-4.2
				s0.9,1.7,2.6,3.4c1.7,2.5,4.4,5.1,6.1,10.2c0.9,2.5,2.6,4.2,3.5,6.8c0.9,2.5,1.7,5.1,2.6,7.6c0.9,2.5,1.7,5.9,1.7,8.5
				s0.9,5.9,0,8.5c0,2.5,0,5.9-0.9,8.5c0,2.5-1.7,5.1-1.7,7.6c-0.9,2.5-1.7,5.1-3.5,6.8c-0.9,2.5-2.6,4.2-3.5,5.9
				c-2.6,3.4-4.4,5.9-6.1,7.6c-0.9,2.5-1.7,3.4-1.7,3.4c-0.9,0.8-0.9,0.8-0.9,0.8L189,336z"/>
			<path id="Shape" class="st2" d="M235.2,360.4c0,5.5-4.5,9.2-11.2,9.2H44.8c-6.7,0-11.2-3.7-11.2-9.2v-37c0-5.5,4.5-9.2,11.2-9.2
				H224c6.7,0,11.2,3.7,11.2,9.2V360.4z M235.2,9.2c0-5.5-4.5-9.2-11.2-9.2H44.8c-6.7,0-11.2,3.7-11.2,9.2v37
				c0,5.5,4.5,9.2,11.2,9.2H224c6.7,0,11.2-3.7,11.2-9.2V9.2z"/>
			<path id="Shape_1_" class="st3" d="M268.8,360.4c0,5.5-4.5,9.2-11.2,9.2H11.2c-6.7,0-11.2-3.7-11.2-9.2v-9.2
				c0-5.5,4.5-9.2,11.2-9.2h246.4c6.7,0,11.2,3.7,11.2,9.2V360.4z M268.8,9.2c0-5.5-4.5-9.2-11.2-9.2H11.2C4.5,0,0,3.7,0,9.2v9.2
				c0,5.5,4.5,9.2,11.2,9.2h246.4c6.7,0,11.2-3.7,11.2-9.2V9.2z"/>
			<path id="Path_2_" class="st4" d="M50.4,100.8c2.4,26.5,45.6,70,84,100.8c37.2-29.7,80.4-74.3,84-100.8H50.4z"/>
		</g>
	</g>
</g>
</svg>
