<?xml version="1.0" encoding="utf-8"?>
<!-- Generator: Adobe Illustrator 25.0.0, SVG Export Plug-In . SVG Version: 6.00 Build 0)  -->
<svg version="1.1" id="Ebene_1" xmlns="http://www.w3.org/2000/svg" xmlns:xlink="http://www.w3.org/1999/xlink" x="0px" y="0px"
	 viewBox="0 0 228 228" style="enable-background:new 0 0 228 228;" xml:space="preserve">
<style type="text/css">
	.st0{fill:#1697C4;}
</style>
<desc>Created with Sketch.</desc>
<g id="Icons">
	<g id="Artboard" transform="translate(-396.000000, -524.000000)">
		<g id="plus" transform="translate(396.000000, 524.000000)">
			<path id="Path-2" class="st0" d="M204.4,0.9H24.1C11.3,0.9,0.9,11.3,0.9,24.1v180.2c0,12.8,10.4,23.3,23.3,23.3h180.2
				c12.8,0,23.3-10.4,23.3-23.3V24.1C227.7,11.3,217.2,0.9,204.4,0.9z M183.5,117.9c0,6.9-5.5,12.4-12.4,12.4h-41.5v41.5
				c0,6.9-5.5,12.4-12.4,12.4c-6.9,0-12.4-5.5-12.4-12.4v-41.5H63.3c-6.9,0-12.4-5.5-12.4-12.4c0-6.9,5.5-12.4,12.4-12.4h41.5V64
				c0-6.9,5.5-12.4,12.4-12.4c6.9,0,12.4,5.5,12.4,12.4v41.5h41.5C178,105.5,183.5,111,183.5,117.9z"/>
		</g>
	</g>
</g>
</svg>
