<?xml version="1.0" encoding="utf-8"?>
<svg version="1.1" id="Ebene_1" xmlns="http://www.w3.org/2000/svg" xmlns:xlink="http://www.w3.org/1999/xlink" x="0px" y="0px"
	 viewBox="0 0 387 339" style="enable-background:new 0 0 387 339;" xml:space="preserve">
<style type="text/css">
	.st0{fill:#FFC107;}
	.st1{fill:#FFD54F;}
	.st2{fill:#FFCA28;}
	.st3{fill:#DEA806;}
	.st4{fill:#FFD90A;}
</style>
<g id="Menu-Icons-EXPORT">
	<g id="EXPORT" transform="translate(-514.000000, -561.000000)">
		<g id="distributed" transform="translate(514.000000, 561.000000)">
			<g id="services" transform="translate(96.000000, 0.000000)">
				<polygon id="Path" class="st0" points="97.4,0.1 194.8,41.8 97.4,83.5 0.1,41.8 				"/>
				<polygon id="Path_1_" class="st1" points="0.1,41.8 97.4,83.5 97.4,194.8 0.1,153.1 				"/>
				<polygon id="Path_2_" class="st2" points="194.8,41.8 97.4,83.5 97.4,194.8 194.8,153.1 				"/>
				<polygon id="Path_3_" class="st3" points="97.4,0.1 0.1,41.8 97.4,83.5 				"/>
				<polygon id="Path_4_" class="st4" points="0.1,41.8 0.1,153.1 97.4,194.8 97.4,83.5 				"/>
			</g>
			<g id="services_1_" transform="translate(0.000000, 144.000000)">
				<polygon id="Path_5_" class="st0" points="97.4,0.1 194.8,41.8 97.4,83.5 0.1,41.8 				"/>
				<polygon id="Path_6_" class="st1" points="0.1,41.8 97.4,83.5 97.4,194.8 0.1,153.1 				"/>
				<polygon id="Path_7_" class="st2" points="194.8,41.8 97.4,83.5 97.4,194.8 194.8,153.1 				"/>
				<polygon id="Path_8_" class="st3" points="97.4,0.1 0.1,41.8 97.4,83.5 				"/>
				<polygon id="Path_9_" class="st4" points="0.1,41.8 0.1,153.1 97.4,194.8 97.4,83.5 				"/>
			</g>
			<g id="services_2_" transform="translate(192.000000, 144.000000)">
				<polygon id="Path_10_" class="st0" points="97.4,0.1 194.8,41.8 97.4,83.5 0.1,41.8 				"/>
				<polygon id="Path_11_" class="st1" points="0.1,41.8 97.4,83.5 97.4,194.8 0.1,153.1 				"/>
				<polygon id="Path_12_" class="st2" points="194.8,41.8 97.4,83.5 97.4,194.8 194.8,153.1 				"/>
				<polygon id="Path_13_" class="st3" points="97.4,0.1 0.1,41.8 97.4,83.5 				"/>
				<polygon id="Path_14_" class="st4" points="0.1,41.8 0.1,153.1 97.4,194.8 97.4,83.5 				"/>
			</g>
		</g>
	</g>
</g>
</svg>
