<?xml version="1.0" encoding="utf-8"?>
<!-- Generator: Adobe Illustrator 25.2.1, SVG Export Plug-In . SVG Version: 6.00 Build 0)  -->
<svg version="1.1" id="Capa_1" xmlns="http://www.w3.org/2000/svg" xmlns:xlink="http://www.w3.org/1999/xlink" x="0px" y="0px"
	 viewBox="0 0 130 130" style="enable-background:new 0 0 130 130;" xml:space="preserve">
<style type="text/css">
	.st0{fill-rule:evenodd;clip-rule:evenodd;fill:none;stroke:#42D389;stroke-width:7;stroke-miterlimit:10;}
	.st1{fill-rule:evenodd;clip-rule:evenodd;fill:none;stroke:#42D389;stroke-width:7;stroke-linejoin:round;stroke-miterlimit:10;}
</style>
<path class="st0" d="M53,58.1H18.5c-3.1,0-5.7-2.6-5.7-5.7V18c0-3.1,2.6-5.7,5.7-5.7H53c3.1,0,5.7,2.6,5.7,5.7v34.5
	C58.6,55.6,56.1,58.1,53,58.1z"/>
<path class="st0" d="M111.9,117.1H77.4c-3.1,0-5.7-2.6-5.7-5.7V76.9c0-3.1,2.6-5.7,5.7-5.7h34.5c3.1,0,5.7,2.6,5.7,5.7v34.5
	C117.6,114.5,115,117.1,111.9,117.1z"/>
<polyline class="st1" points="59.5,34.7 95.2,34.7 95.2,69.6 "/>
<polyline class="st1" points="34.4,59.1 34.4,95.5 71.1,95.5 "/>
</svg>
