<?xml version="1.0" encoding="utf-8"?>
<svg version="1.1" id="Ebene_1" xmlns="http://www.w3.org/2000/svg" xmlns:xlink="http://www.w3.org/1999/xlink" x="0px" y="0px"
	 viewBox="0 0 384 302" style="enable-background:new 0 0 384 302;" xml:space="preserve">
<style type="text/css">
	.st0{fill:#FF3D00;}
	.st1{fill:#FF9E80;}
	.st2{fill:#FFF59D;}
</style>
<g id="Menu-Icons-EXPORT">
	<g id="EXPORT" transform="translate(-514.000000, -581.000000)">
		<g id="crash-report" transform="translate(514.000000, 581.000000)">
			<polygon id="Path" class="st0" points="292.6,219.4 374.9,64 228.6,146.3 182.9,0 155.4,146.3 45.7,54.9 109.7,219.4 0,246.9 
				109.7,301.7 155.4,301.7 82.3,265.1 146.3,246.9 118.9,164.6 179.9,214.3 191.4,153 191.7,151 207.1,200.3 284.3,156.9 
				246.9,246.9 310.9,265.1 256,301.7 292.6,301.7 384,246.9 			"/>
			<polygon id="Path_1_" class="st1" points="246.9,246.9 284.3,156.9 207.1,200.3 191.7,151 191.4,153 179.9,214.3 118.9,164.6 
				146.3,246.9 82.3,265.1 155.4,301.7 182.9,301.7 146.3,274.3 182.9,274.3 164.6,237.7 201.1,256 228.6,219.4 219.4,274.3 
				256,274.3 228.6,301.7 256,301.7 310.9,265.1 			"/>
			<polygon id="Path_2_" class="st2" points="182.9,301.7 146.3,274.3 182.9,274.3 164.6,237.7 201.1,256 228.6,219.4 219.4,274.3 
				256,274.3 228.6,301.7 			"/>
		</g>
	</g>
</g>
</svg>
