<svg width="18" height="18" viewBox="0 0 18 18" fill="none" xmlns="http://www.w3.org/2000/svg">
<g clip-path="url(#clip0_156_1758)">
<path fill-rule="evenodd" clip-rule="evenodd" d="M16.155 0H1.845C0.825 0 0 0.832498 0 1.845V16.1475C0 17.1675 0.8325 17.9925 1.845 17.9925H16.1475C17.1675 17.9925 17.9925 17.16 17.9925 16.1475V1.845C18 0.832498 17.1675 0 16.155 0ZM3.75 9C3.75 6.10036 6.10036 3.75 9 3.75C9.336 3.75 9.66314 3.78478 9.98175 3.84516L10.2091 2.57695C9.82852 2.47425 9.41409 2.43914 9 2.43914C5.37323 2.43914 2.4375 5.37488 2.4375 9.00164C2.4375 10.3968 2.86373 11.7378 3.6687 12.8386L2.4375 14.0249L6.70312 14.5781L5.94975 10.6406L4.63354 11.9089C4.07642 11.0763 3.75 10.0769 3.75 9ZM15.5625 3.97575L14.3354 5.15787C15.1363 6.27321 15.5625 7.61744 15.5625 8.93306C15.5625 12.5598 12.6268 15.4956 9 15.4956C8.6197 15.4956 8.20528 15.4605 7.79119 15.3915L8.013 14.1542C8.33292 14.2152 8.66236 14.25 9 14.25C11.8996 14.25 14.25 11.8996 14.25 9C14.25 7.92297 13.9256 6.92176 13.3692 6.08869L12.0503 7.35938L11.2969 3.42254L15.5625 3.97575Z" fill="#3DA2F3"/>
</g>
<defs>
<clipPath id="clip0_156_1758">
<rect width="18" height="18" fill="white"/>
</clipPath>
</defs>
</svg>

