<?xml version="1.0" encoding="utf-8"?>
<!-- Generator: Adobe Illustrator 25.0.0, SVG Export Plug-In . SVG Version: 6.00 Build 0)  -->
<svg version="1.1" id="Ebene_1" xmlns="http://www.w3.org/2000/svg" xmlns:xlink="http://www.w3.org/1999/xlink" x="0px" y="0px"
	 viewBox="0 0 434 282" style="enable-background:new 0 0 434 282;" xml:space="preserve">
<style type="text/css">
	.st0{fill:#13D389;}
</style>
<desc>Created with Sketch.</desc>
<g id="Icons">
	<g id="Artboard" transform="translate(-297.000000, -120.000000)">
		<g id="containerization" transform="translate(308.000000, 131.000000)">
			<path class="st0" d="M139.2,271c-52,0-91.5-14.9-117.5-44.1c-39-44-32.4-103.9-32.1-106.4l1.2-9.7h38.4V38.4h79.3V-11h154.1
				v121.8c19.6-0.1,33.7-3.2,42.5-6.4c-8-16.2-12.3-42.5,6.7-71l5.8-8.7l9,5.4c23.2,13.9,32.4,31,36,42.6
				c13.4-1.9,35.8-2.3,53.9,10.6l6.6,4.7l-2.6,7.7c-6.6,19.7-21.7,33.5-43.7,40c-8.5,2.5-16.5,3.4-22.1,3.7
				c-5.4,12.1-18.4,37.3-42.8,62.5c-19.4,20.1-42.1,36.1-67.3,47.6C213.1,263.7,177.7,271,139.2,271z M11,132.8
				c0,16.9,3.2,52.6,27.2,79.6C59.9,236.7,93.9,249,139.2,249c35.3,0,67.7-6.6,96.2-19.6c22.7-10.3,43.1-24.8,60.6-42.9
				c29.8-30.8,40.8-61.5,40.9-61.8l2.8-7.9l8.3,0.6c1.5,0.1,33.8,1.7,47.7-20.5c-17.5-6.8-38.5-0.8-38.7-0.8l-14.5,4.3l0.4-14.7
				c-0.1-1.5-1.2-16.2-18.3-30.2c-11.7,26.5,3.8,45,4.6,45.9l7.7,8.7l-9.2,7.2c-2,1.6-20.8,15.6-66.3,15.6h-20.9V11H130.4v49.4H51.1
				v72.4H11z"/>
		</g>
	</g>
</g>
</svg>
