<?xml version="1.0" encoding="utf-8"?>
<!-- Generator: Adobe Illustrator 25.0.0, SVG Export Plug-In . SVG Version: 6.00 Build 0)  -->
<svg version="1.1" id="Ebene_1" xmlns="http://www.w3.org/2000/svg" xmlns:xlink="http://www.w3.org/1999/xlink" x="0px" y="0px"
	 viewBox="0 0 403 248" style="enable-background:new 0 0 403 248;" xml:space="preserve">
<style type="text/css">
	.st0{fill:#13D389;}
</style>
<desc>Created with Sketch.</desc>
<g id="Icons">
	<g id="Artboard" transform="translate(-307.000000, -130.000000)">
		<g id="cloud-based-environments" transform="translate(318.000000, 141.000000)">
			<path class="st0" d="M314.4,236.8H68c-26.1,0-51.6-15.5-66.6-40.5c-15.4-25.7-15.4-51.7,0-77.3c12.9-21.5,33.7-36,55.8-39.7
				c2.7-38.5,32.9-66.9,72.4-66.9c16.1,0,29,6.1,40.3,13.1c17.3-25.5,45.5-39,74.8-35.1c23.9,0.2,46.3,9.5,63.1,26.3
				c17,17,26.3,39.7,26.3,63.9v3.1c15.4,2.5,29.1,10.5,39.3,22.9c11.5,14.1,17.9,33,17.9,53.2c0,19.7-8.4,39.3-23,54
				S334.1,236.8,314.4,236.8z M68,100.4c-18.4,0-36.7,11.4-47.8,29.9c-11,18.4-11,36.3,0,54.7c11.1,18.4,29.4,29.9,47.8,29.9h246.4
				c29.3,0,55-25.7,55-55c0-27.3-15.9-55-46.2-55h-11V80.6c0-18.3-7.1-35.5-19.9-48.3c-12.8-12.8-30-19.9-48.3-19.9h-0.8l-0.8-0.1
				c-24.3-3.5-46.9,9.4-59,33.6l-5.6,11.1l-10.4-6.9c-12.7-8.5-23.6-15.8-37.9-15.8c-14.1,0-27,5.1-36.2,14.4C84.1,58,79,70.9,79,85
				v15.4H68z"/>
		</g>
	</g>
</g>
</svg>
