<?xml version="1.0" encoding="utf-8"?>
<!-- Generator: Adobe Illustrator 25.0.0, SVG Export Plug-In . SVG Version: 6.00 Build 0)  -->
<svg version="1.1" id="Ebene_1" xmlns="http://www.w3.org/2000/svg" xmlns:xlink="http://www.w3.org/1999/xlink" x="0px" y="0px"
	 viewBox="0 0 315 315" style="enable-background:new 0 0 315 315;" xml:space="preserve">
<style type="text/css">
	.st0{fill:#DD4814;}
	.st1{fill:#FFFFFF;}
</style>
<desc>Created with Sketch.</desc>
<g id="Icons">
	<g id="Artboard" transform="translate(-353.000000, -481.000000)">
		<g id="Logo-ubuntu_cof-orange-hex" transform="translate(353.000000, 481.000000)">
			<circle id="Oval" class="st0" cx="157.4" cy="157.6" r="157.2"/>
			<g id="U" transform="translate(28.828800, 81.142400)">
				<circle id="Oval_1_" class="st1" cx="21.8" cy="76.5" r="21"/>
				<path id="Path" class="st1" d="M78.1,152.3c-18.4-12.3-32-31-37.7-53C47,94,51.2,85.7,51.2,76.5S47,59.1,40.4,53.7
					c5.7-22,19.3-40.7,37.7-53l15.3,25.7C77.6,37.5,67.3,55.8,67.3,76.5s10.3,39.1,26.1,50.1L78.1,152.3z"/>
			</g>
			
				<g id="U-link" transform="translate(198.189547, 86.480281) rotate(120.000000) translate(-198.189547, -86.480281) translate(150.689547, 9.480281)">
				<g id="U_1_" transform="translate(0.883612, 0.189970)">
					<circle id="Oval_2_" class="st1" cx="21.8" cy="76.5" r="21"/>
					<path id="Path_1_" class="st1" d="M78.1,152.3c-18.4-12.3-32-31-37.7-53C47,94,51.2,85.7,51.2,76.5c0-9.2-4.2-17.4-10.9-22.8
						c5.7-22,19.3-40.7,37.7-53l15.3,25.7C77.6,37.5,67.3,55.8,67.3,76.5s10.3,39.1,26.1,50.1L78.1,152.3z"/>
				</g>
			</g>
			
				<g id="U-link_1_" transform="translate(198.253765, 228.338886) rotate(-120.000000) translate(-198.253765, -228.338886) translate(151.253765, 151.838886)">
				<g id="U_2_">
					<circle id="Oval_3_" class="st1" cx="21.8" cy="76.5" r="21"/>
					<path id="Path_2_" class="st1" d="M78.1,152.3c-18.4-12.3-32-31-37.7-53C47,94,51.2,85.7,51.2,76.5c0-9.2-4.2-17.4-10.9-22.8
						c5.7-22,19.3-40.7,37.7-53l15.3,25.7C77.6,37.5,67.3,55.8,67.3,76.5s10.3,39.1,26.1,50.1L78.1,152.3z"/>
				</g>
			</g>
		</g>
	</g>
</g>
</svg>
