<?xml version="1.0" encoding="utf-8"?>
<!-- Generator: Adobe Illustrator 25.0.0, SVG Export Plug-In . SVG Version: 6.00 Build 0)  -->
<svg version="1.1" id="Ebene_1" xmlns="http://www.w3.org/2000/svg" xmlns:xlink="http://www.w3.org/1999/xlink" x="0px" y="0px"
	 viewBox="0 0 240 240" style="enable-background:new 0 0 240 240;" xml:space="preserve">
<style type="text/css">
	.st0{fill:#697C86;}
</style>
<desc>Created with Sketch.</desc>
<g id="Icons">
	<g id="Artboard" transform="translate(-390.000000, -518.000000)">
		<path id="monitor_service" class="st0" d="M605.4,518H414.6c-13.6,0-24.6,11.1-24.6,24.6v190.7c0,13.6,11.1,24.6,24.6,24.6h190.7
			c13.6,0,24.6-11.1,24.6-24.6V542.6C630,529.1,618.9,518,605.4,518z M513.1,712.1c-7.3,0-13.2-5.9-13.2-13.2v-43.9H456
			c-7.3,0-13.2-5.9-13.2-13.2c0-7.3,5.9-13.2,13.2-13.2h43.9v-43.9c0-7.3,5.9-13.2,13.2-13.2c7.3,0,13.2,5.9,13.2,13.2v43.9h43.9
			c7.3,0,13.2,5.9,13.2,13.2c0,7.3-5.9,13.2-13.2,13.2h-43.9V699C526.3,706.3,520.4,712.1,513.1,712.1z"/>
	</g>
</g>
</svg>
