<svg width="20" height="20" viewBox="0 0 20 20" fill="none" xmlns="http://www.w3.org/2000/svg">
<circle cx="10" cy="10" r="9.5" fill="#C2BABA"/>
<path d="M13.5407 13.5407C13.8336 13.2478 13.8336 12.773 13.5407 12.4801L11.0659 10.0052L13.5407 7.53034C13.8336 7.23745 13.8336 6.76257 13.5407 6.46968C13.2479 6.17678 12.773 6.17678 12.4801 6.46968L10.0052 8.94455L7.53033 6.46967C7.23744 6.17678 6.76256 6.17678 6.46967 6.46967C6.17678 6.76256 6.17678 7.23744 6.46967 7.53033L8.94455 10.0052L6.46968 12.4801C6.17678 12.773 6.17678 13.2479 6.46968 13.5407C6.76257 13.8336 7.23744 13.8336 7.53034 13.5407L10.0052 11.0659L12.4801 13.5407C12.773 13.8336 13.2478 13.8336 13.5407 13.5407Z" fill="#20272E"/>
</svg>
