<?xml version="1.0" encoding="utf-8"?>
<!-- Generator: Adobe Illustrator 25.0.0, SVG Export Plug-In . SVG Version: 6.00 Build 0)  -->
<svg version="1.1" id="Ebene_1" xmlns="http://www.w3.org/2000/svg" xmlns:xlink="http://www.w3.org/1999/xlink" x="0px" y="0px"
	 viewBox="0 0 273.4 273.4" style="enable-background:new 0 0 273.4 273.4;" xml:space="preserve">
<style type="text/css">
	.st0{fill:none;}
	.st1{fill:#FFD90A;}
	.st2{fill:#FFCE00;}
</style>
<rect y="0.7" class="st0" width="273.4" height="272.7"/>
<g id="Icons">
	<g id="Artboard" transform="translate(-402.000000, -515.000000)">
		<g id="refresh-3" transform="translate(402.000000, 515.000000)">
			<path id="Path" class="st1" d="M227.1,80.4c-2.3-3.5-6.9-4.3-10.4-1.9l-23,17.4c-2.8,2.3-3.7,6.2-1.9,9.3
				c5.8,10,8.8,20.6,8.8,31.7c0,35.2-28.8,64-64,64s-64.1-28.8-64.1-64c0-32.9,24.9-60.1,56.9-63.6v20.8c0,4.3,3.4,6.9,7.1,7.1
				c1.4,0,2.9-0.4,4.3-1.4l56.9-42.5c3.8-2.8,3.8-8.5,0-11.4L140.9,2.7c-1.3-1-2.8-1.4-4.3-1.4c-3.7,0-7.1,2.9-7.1,7.1v22.1
				C74,34,30,80.3,30,136.9C30,195.7,77.9,244,136.7,244s106.7-48.2,106.7-107.2C243.2,116.9,237.6,97.6,227.1,80.4z"/>
		</g>
	</g>
</g>
<path class="st2" d="M129.3,200.5c-31.8-3.7-56.8-30.8-56.8-63.6c0-32.8,24.8-60,56.8-63.6V30.5C73.9,34.1,30,80.4,30,136.9
	c0,56.3,43.9,103,99.3,106.8V200.5z"/>
</svg>
