<?xml version="1.0" encoding="utf-8"?>
<!-- Generator: Adobe Illustrator 25.0.0, SVG Export Plug-In . SVG Version: 6.00 Build 0)  -->
<svg version="1.1" id="Ebene_1" xmlns="http://www.w3.org/2000/svg" xmlns:xlink="http://www.w3.org/1999/xlink" x="0px" y="0px"
	 viewBox="0 0 198 148" style="enable-background:new 0 0 198 148;" xml:space="preserve">
<style type="text/css">
	.st0{fill:#42D389;}
</style>
<desc>Created with Sketch.</desc>
<g id="Icons">
	<g id="EXIT" transform="translate(-304.000000, -133.000000)">

			<g id="icon_sidebar_logout" transform="translate(403.000000, 207.000000) rotate(-180.000000) translate(-403.000000, -207.000000) translate(304.000000, 133.000000)">
			<path id="XMLID_4_" class="st0" d="M30.7,82.8H125c5,0,9-4,9-9c0-5-4-9-9-9H30.7l11.6-11.6c3.5-3.5,3.5-9.2,0-12.7
				c-3.5-3.5-9.2-3.5-12.7,0l-27,27c-0.2,0.2-0.4,0.4-0.6,0.7c0,0.1-0.1,0.1-0.1,0.2c-0.1,0.2-0.3,0.3-0.4,0.5
				c0,0.1-0.1,0.1-0.1,0.2c-0.1,0.2-0.2,0.4-0.4,0.6c0,0,0,0.1-0.1,0.1c-0.1,0.2-0.2,0.4-0.3,0.7c0,0,0,0.1,0,0.1
				c-0.1,0.2-0.2,0.5-0.3,0.7c0,0,0,0.1,0,0.1c-0.1,0.2-0.1,0.5-0.2,0.8c0,0.1,0,0.2,0,0.2c0,0.2-0.1,0.4-0.1,0.6c0,0.3,0,0.6,0,0.9
				c0,0.3,0,0.6,0,0.9c0,0.2,0.1,0.4,0.1,0.6c0,0.1,0,0.2,0,0.2c0.1,0.3,0.1,0.5,0.2,0.8c0,0,0,0.1,0,0.1c0.1,0.3,0.2,0.5,0.3,0.7
				c0.1,0.3,0.2,0.5,0.4,0.8C1,78,1,78,1.1,78c0.1,0.2,0.2,0.4,0.4,0.6c0,0.1,0.1,0.1,0.1,0.2c0.1,0.2,0.3,0.4,0.4,0.5
				C2,79.4,2,79.5,2,79.5c0.2,0.2,0.4,0.4,0.6,0.7l27,27c1.8,1.8,4.1,2.6,6.4,2.6s4.6-0.9,6.4-2.6c3.5-3.5,3.5-9.2,0-12.7L30.7,82.8
				z"/>
			<path id="XMLID_5_" class="st0" d="M124.4,0.2C99.8,0.2,77,12.4,63.2,32.8c-2.8,4.1-1.7,9.7,2.4,12.5c4.1,2.8,9.7,1.7,12.5-2.4
				c10.4-15.4,27.6-24.6,46.2-24.6c30.7,0,55.6,25,55.6,55.6s-25,55.6-55.6,55.6c-18.5,0-35.8-9.2-46.1-24.5
				c-2.8-4.1-8.4-5.2-12.5-2.4c-4.1,2.8-5.2,8.4-2.4,12.5c13.7,20.3,36.5,32.5,61,32.5c40.6,0,73.6-33,73.6-73.6S165,0.2,124.4,0.2z
				"/>
		</g>
	</g>
</g>
</svg>
