<svg width="32" height="32" viewBox="0 0 32 32" fill="none" xmlns="http://www.w3.org/2000/svg">
<path d="M25.3333 30H8V2H25.3333C26.8 2 28 3.26 28 4.8V27.2C28 28.74 26.8 30 25.3333 30Z" fill="#00ABE9"/>
<path d="M6.66667 2H8V30H6.66667C5.2 30 4 28.74 4 27.2V4.8C4 3.26 5.2 2 6.66667 2Z" fill="#045873"/>
<path d="M17.3333 10.6667C16.626 10.6667 15.9478 10.9477 15.4477 11.4478C14.9476 11.9479 14.6666 12.6262 14.6666 13.3334C14.6666 14.0407 14.9476 14.7189 15.4477 15.219C15.9478 15.7191 16.626 16.0001 17.3333 16.0001C18.0405 16.0001 18.7188 15.7191 19.2189 15.219C19.719 14.7189 20 14.0407 20 13.3334C20 12.6262 19.719 11.9479 19.2189 11.4478C18.7188 10.9477 18.0405 10.6667 17.3333 10.6667ZM22 20.0001C22 20.0001 20.7333 17.3334 17.3333 17.3334C13.9333 17.3334 12.6666 20.0001 12.6666 20.0001V21.3334H22V20.0001Z" fill="#045873"/>
</svg>
