<svg width="20" height="20" viewBox="0 0 20 20" fill="none" xmlns="http://www.w3.org/2000/svg">
<path d="M9.64645 0.353553C9.84171 0.158291 10.1583 0.158291 10.3536 0.353553L19.6464 9.64645C19.8417 9.84171 19.8417 10.1583 19.6464 10.3536L10.3536 19.6464C10.1583 19.8417 9.84171 19.8417 9.64645 19.6464L0.353553 10.3536C0.158291 10.1583 0.158291 9.84171 0.353553 9.64645L9.64645 0.353553Z" fill="#F44336"/>
<path d="M13.6014 13.6014C13.8943 13.3085 13.8943 12.8336 13.6014 12.5407L11.1265 10.0659L13.6014 7.59101C13.8943 7.29811 13.8943 6.82324 13.6014 6.53035C13.3085 6.23745 12.8336 6.23745 12.5407 6.53035L10.0659 9.00522L7.59098 6.53034C7.29809 6.23745 6.82322 6.23745 6.53032 6.53034C6.23743 6.82323 6.23743 7.29811 6.53032 7.591L9.0052 10.0659L6.53033 12.5408C6.23744 12.8336 6.23744 13.3085 6.53033 13.6014C6.82322 13.8943 7.2981 13.8943 7.59099 13.6014L10.0659 11.1265L12.5407 13.6014C12.8336 13.8943 13.3085 13.8943 13.6014 13.6014Z" fill="#F9F9FF"/>
</svg>
