<?xml version="1.0" encoding="utf-8"?>
<!-- Generator: Adobe Illustrator 26.0.1, SVG Export Plug-In . SVG Version: 6.00 Build 0)  -->
<svg version="1.1" id="Ebene_1" xmlns="http://www.w3.org/2000/svg" xmlns:xlink="http://www.w3.org/1999/xlink" x="0px" y="0px"
	 viewBox="0 0 110 110" style="enable-background:new 0 0 110 110;" xml:space="preserve">
<style type="text/css">
	.st0{fill:#505862;}
</style>
<g id="Page-1">
	<g id="warn_gray">
		<path id="Path" class="st0" d="M46.7,35.1L49.8,60c0.4,2.8,2.3,5.2,5.1,5.2c2.3,0,4.7-2.4,5.1-5.2l3.1-24.9
			c0.8-6.1-3.1-9.9-8.2-9.9C49.8,25.2,46.3,29,46.7,35.1z"/>
		<path class="st0" d="M55,110C24.7,110,0,85.3,0,55S24.7,0,55,0s55,24.7,55,55S85.3,110,55,110z M55,10c-24.8,0-45,20.2-45,45
			c0,24.8,20.2,45,45,45c24.8,0,45-20.2,45-45C100,30.2,79.8,10,55,10z"/>
		<circle id="Oval_00000040569283963309162980000013782094169077946281_" class="st0" cx="55.2" cy="76.2" r="6.6"/>
	</g>
</g>
</svg>
