<?xml version="1.0" encoding="utf-8"?>
<!-- Generator: Adobe Illustrator 24.2.1, SVG Export Plug-In . SVG Version: 6.00 Build 0)  -->
<svg version="1.1" id="Ebene_1" xmlns="http://www.w3.org/2000/svg" xmlns:xlink="http://www.w3.org/1999/xlink" x="0px" y="0px"
	 viewBox="0 0 18 19" style="enable-background:new 0 0 18 19;" xml:space="preserve">
<style type="text/css">
	.st0{fill-rule:evenodd;clip-rule:evenodd;fill:#13D389;}
</style>
<desc>Created with Sketch.</desc>
<g id="configuration_active">
	<g id="configuration">
		<path id="Fill-1" class="st0" d="M9,5.9c1.9,0,3.4,1.5,3.4,3.4s-1.5,3.4-3.4,3.4c-1.9,0-3.4-1.5-3.4-3.4S7.1,5.9,9,5.9 M0.1,12.5
			l1.7,2.9c0.2,0.3,0.6,0.5,1,0.4l2.5-0.8c0.2,0.1,0.4,0.3,0.7,0.4l0.5,2.6c0.1,0.4,0.4,0.7,0.8,0.7h3.4c0.4,0,0.7-0.3,0.8-0.7
			l0.5-2.6c0.2-0.1,0.5-0.2,0.7-0.4l2.5,0.8c0.4,0.1,0.8,0,1-0.4l1.7-2.9c0.2-0.3,0.1-0.8-0.2-1.1l-2-1.7c0-0.1,0-0.3,0-0.4
			c0-0.1,0-0.3,0-0.4l2-1.7c0.3-0.3,0.4-0.7,0.2-1.1l-1.7-2.9c-0.2-0.3-0.6-0.5-1-0.4l-2.5,0.8c-0.2-0.1-0.4-0.3-0.7-0.4l-0.5-2.6
			C11.4,0.3,11.1,0,10.7,0H7.3C6.9,0,6.6,0.3,6.5,0.7L6,3.2C5.7,3.4,5.5,3.5,5.3,3.6L2.8,2.8c-0.4-0.1-0.8,0-1,0.4L0.1,6.1
			C-0.1,6.5,0,6.9,0.3,7.2l2,1.7c0,0.1,0,0.3,0,0.4c0,0.1,0,0.3,0,0.4l-2,1.7C0,11.7-0.1,12.1,0.1,12.5"/>
	</g>
</g>
</svg>
