<?xml version="1.0" encoding="utf-8"?>
<!-- Generator: Adobe Illustrator 25.2.1, SVG Export Plug-In . SVG Version: 6.00 Build 0)  -->
<svg version="1.1" id="Ebene_1" xmlns="http://www.w3.org/2000/svg" xmlns:xlink="http://www.w3.org/1999/xlink" x="0px" y="0px"
	 viewBox="0 0 252 292" style="enable-background:new 0 0 252 292;" xml:space="preserve">
<style type="text/css">
	.st0{fill:#28A2F3;}
	.st1{fill:url(#Path_8_);}
	.st2{fill:#50E6FF;}
	.st3{fill:url(#Path_9_);}
	.st4{fill:#FFC107;}
	.st5{fill:#FFD54F;}
	.st6{fill:#FFCA28;}
	.st7{fill:#DEA806;}
	.st8{fill:#FFD90A;}
</style>
<g id="Icons">
	<g id="EXIT" transform="translate(-39.000000, -394.000000)">
		<g id="Site-overview" transform="translate(39.000000, 394.000000)">
			<path id="Path" class="st0" d="M204.5,0h-189C6.9,0,0,6.7,0,15V225c0,8.4,6.9,15,15.5,15h189c8.6,0,15.5-6.7,15.5-15V15.6
				C220.5,6.7,213.1,0,204.5,0z"/>
			
				<linearGradient id="Path_8_" gradientUnits="userSpaceOnUse" x1="-171.9978" y1="345.2444" x2="-170.9978" y2="345.2444" gradientTransform="matrix(172.62 0 0 -42.21 29707.1094 14630.7197)">
				<stop  offset="0" style="stop-color:#1D59B3"/>
				<stop  offset="1" style="stop-color:#195BBC"/>
			</linearGradient>
			<path id="Path_1_" class="st1" d="M185.1,79.1H21.3c-2.5,0-4.4-1.3-4.4-3.8V40.6c0-1.9,1.9-3.8,4.4-3.8h163.8
				c2.5,0,4.4,1.3,4.4,3.8v35.3C189.5,77.2,187.6,79.1,185.1,79.1z"/>
			<circle id="Oval" class="st2" cx="163.6" cy="57.6" r="8.8"/>
			
				<linearGradient id="Path_9_" gradientUnits="userSpaceOnUse" x1="-171.9978" y1="345.2444" x2="-170.9978" y2="345.2444" gradientTransform="matrix(172.62 0 0 -42.21 29707.1094 14690.7197)">
				<stop  offset="0" style="stop-color:#1D59B3"/>
				<stop  offset="1" style="stop-color:#195BBC"/>
			</linearGradient>
			<path id="Path_2_" class="st3" d="M185.1,139.1H21.3c-2.5,0-4.4-1.3-4.4-3.8v-34.7c0-1.9,1.9-3.8,4.4-3.8h163.8
				c2.5,0,4.4,1.3,4.4,3.8v35.3C189.5,137.2,187.6,139.1,185.1,139.1z"/>
			<circle id="Oval_1_" class="st2" cx="163.6" cy="117.6" r="8.8"/>
			<g id="services" transform="translate(56.850000, 96.850000)">
				<polygon id="Path_3_" class="st4" points="97.4,0.1 194.8,41.8 97.4,83.5 0.1,41.8 				"/>
				<polygon id="Path_4_" class="st5" points="0.1,41.8 97.4,83.5 97.4,194.8 0.1,153.1 				"/>
				<polygon id="Path_5_" class="st6" points="194.8,41.8 97.4,83.5 97.4,194.8 194.8,153.1 				"/>
				<polygon id="Path_6_" class="st7" points="97.4,0.1 0.1,41.8 97.4,83.5 				"/>
				<polygon id="Path_7_" class="st8" points="0.1,41.8 0.1,153.1 97.4,194.8 97.4,83.5 				"/>
			</g>
		</g>
	</g>
</g>
</svg>
