<?xml version="1.0" encoding="utf-8"?>
<!-- Generator: Adobe Illustrator 25.0.0, SVG Export Plug-In . SVG Version: 6.00 Build 0)  -->
<svg version="1.1" id="Ebene_1" xmlns="http://www.w3.org/2000/svg" xmlns:xlink="http://www.w3.org/1999/xlink" x="0px" y="0px"
	 viewBox="0 0 16 16" style="enable-background:new 0 0 16 16;" xml:space="preserve">
<style type="text/css">
	.st0{fill:#333333;}
	.st1{fill-rule:evenodd;clip-rule:evenodd;fill:#333333;}
</style>
<desc>Created with Sketch.</desc>
<g id="Dashboard">
	<g id="Hexagon-Variant-01" transform="translate(-1064.000000, -573.000000)">
		<g id="down_light" transform="translate(1064.000000, 573.000000)">
			<path id="Shape" class="st0" d="M8,0C3.6,0,0,3.6,0,8c0,4.4,3.6,8,8,8c4.4,0,8-3.6,8-8S12.4,0,8,0z M8,14.3
				c-3.4,0-6.3-2.8-6.3-6.3c0-3.4,2.8-6.3,6.3-6.3s6.3,2.8,6.3,6.3C14.3,11.4,11.4,14.3,8,14.3z"/>
			
				<rect id="Rectangle" x="7.4" y="0.9" transform="matrix(0.7071 -0.7071 0.7071 0.7071 -3.2091 7.9596)" class="st1" width="1.3" height="14"/>
			
				<rect id="Rectangle_1_" x="1" y="7.2" transform="matrix(0.7071 -0.7071 0.7071 0.7071 -3.2091 7.9596)" class="st1" width="14" height="1.3"/>
		</g>
	</g>
</g>
</svg>
