<?xml version="1.0" encoding="utf-8"?>
<svg version="1.1" id="Ebene_1" xmlns="http://www.w3.org/2000/svg" xmlns:xlink="http://www.w3.org/1999/xlink" x="0px" y="0px"
	 viewBox="0 0 353 353" style="enable-background:new 0 0 353 353;" xml:space="preserve">
<style type="text/css">
	.st0{fill-rule:evenodd;clip-rule:evenodd;fill:#8F5ED8;}
	.st1{fill-rule:evenodd;clip-rule:evenodd;fill:#B894EE;}
</style>
<g id="Menu-Icons-EXPORT">
	<g id="EXPORT" transform="translate(-315.000000, -473.000000)">
		<g id="dashboard" transform="translate(314.000000, 473.000000)">
			<path id="Fill-1" class="st0" d="M304.8,54.7l-18.2,12.2l-30.4-6.1l-18.2-6.1l-24.3,6.1l-18.2-6.1l12.2-24.3h24.3l23.8-11.9
				C274,27.6,290.6,39.8,304.8,54.7"/>
			<path id="Fill-3" class="st0" d="M165,30.4l-6.1,18.2l-18.2,6.1l-18.2,30.4l-30.4,18.2l-42.5,6.1v18.2l12.2,12.2V164l-18.2-12.2
				l-18.2-12.1L14.7,108c18.2-43.4,53-77.6,96.6-95.2l17.3,11.5L165,30.4z"/>
			<polygon id="Fill-5" class="st0" points="177.2,200.5 171.1,230.9 146.8,255.2 146.8,273.4 122.5,291.6 122.5,322 104.3,315.9 
				92.1,285.6 92.1,224.8 61.7,218.7 49.6,194.4 49.6,176.2 61.7,164 80,145.8 92.1,170.1 134.6,170.1 152.9,200.5 			"/>
			<path id="Fill-7" class="st0" d="M330.9,90.1c33.2,59.2,29.4,132.1-9.7,187.6l-16.4-16.4v-24.3l-12.2-24.3l-12.1-24.3V164
				l-18.2-12.2l-24.3,6.1l-42.5-18.2l-6.1-42.5L207.5,79H244l12.1,18.2l36.5,6.1l36.5-12.2L330.9,90.1z"/>
			<g id="Group-11">
				<path id="Fill-9" class="st1" d="M213.6,60.8l24.3-6.1l18.2,6.1l30.4,6.1l18.2-12.2c10.2,10.6,19,22.6,26.1,35.4l-1.8,1
					l-36.5,12.2l-36.5-6.1L244,79h-36.5l-18.2,18.2l6.1,42.5l42.5,18.2l24.3-6.1l18.2,12.2v24.3l12.1,24.3l12.1,24.3v24.3l16.4,16.4
					c-51.8,73.4-150.7,96.1-229.3,52.5S-20,190.9,14.7,108l10.6,31.8l18.2,12.1L61.7,164l-12.2,12.1v18.2l12.2,24.3l30.4,6.1v60.8
					l12.2,30.4l18.2,6.1v-30.4l24.3-18.2v-18.2l24.3-24.3l6.1-30.4h-24.3l-18.2-30.4H92.1L80,145.8L61.7,164v-24.3l-12.2-12.2v-18.2
					l42.5-6.1l30.4-18.2l18.2-30.4l18.2-6.1l6.1-18.2l-36.4-6.1l-17.3-11.5C158-6.1,210.6-4,255.7,18.5l-23.8,11.9h-24.3l-12.1,24.3
					L213.6,60.8z"/>
			</g>
		</g>
	</g>
</g>
</svg>
