<?xml version="1.0" encoding="utf-8"?>
<!-- Generator: Adobe Illustrator 25.0.0, SVG Export Plug-In . SVG Version: 6.00 Build 0)  -->
<svg version="1.1" id="Ebene_1" xmlns="http://www.w3.org/2000/svg" xmlns:xlink="http://www.w3.org/1999/xlink" x="0px" y="0px"
	 viewBox="0 0 205 205" style="enable-background:new 0 0 205 205;" xml:space="preserve">
<style type="text/css">
	.st0{fill:#F5F0FF;}
	.st1{fill:#E1DCF3;}
</style>
<desc>Created with Sketch.</desc>
<g id="Icons">
	<g id="Artboard" transform="translate(-408.000000, -536.000000)">
		<g id="dns" transform="translate(408.000000, 536.000000)">
			<path id="Path" class="st0" d="M65,173.8c-9.4,9.4-24.6,9.4-33.9,0c-9.2-9.2-9.4-24.1-0.4-33.5l50.6-50.6
				c-15.6-4.2-33-0.3-45.5,11.6l-22.5,22.5c-17.9,18.8-17.6,48.6,0.9,67c18.7,18.8,49.1,18.8,67.9,0l20.7-20.7
				c12.6-12.6,16.7-30.4,12.4-46.4L65,173.8z"/>
			<path id="Path_1_" class="st0" d="M190.7,14.1c-18.4-18.5-48.2-18.8-67-0.9l-22.5,22.5C89.3,48.2,85.5,65.5,89.7,81.2l50.6-50.6
				c9.4-8.9,24.3-8.8,33.5,0.4c9.4,9.4,9.4,24.6,0,33.9l-50.1,50.1c16,4.3,33.8,0.1,46.4-12.4L190.7,82
				C209.5,63.2,209.5,32.8,190.7,14.1L190.7,14.1z"/>
			<path id="Path_2_" class="st1" d="M65.9,138.9c4.7,4.7,12.3,4.7,17,0l56-56c4.7-4.7,4.7-12.3,0-17c-4.6-4.6-12-4.7-16.8-0.2
				l-56.4,56.4C61.2,126.8,61.3,134.3,65.9,138.9z"/>
		</g>
	</g>
</g>
</svg>
