<?xml version="1.0" encoding="utf-8"?>
<!-- Generator: Adobe Illustrator 25.0.0, SVG Export Plug-In . SVG Version: 6.00 Build 0)  -->
<svg version="1.1" id="Ebene_1" xmlns="http://www.w3.org/2000/svg" xmlns:xlink="http://www.w3.org/1999/xlink" x="0px" y="0px"
	 viewBox="0 0 200 200" style="enable-background:new 0 0 200 200;" xml:space="preserve">
<style type="text/css">
	.st0{fill-rule:evenodd;clip-rule:evenodd;fill:#ED3B3B;}
	.st1{fill-rule:evenodd;clip-rule:evenodd;fill:#FA950D;}
	.st2{fill-rule:evenodd;clip-rule:evenodd;fill:#52D300;}
	.st3{fill-rule:evenodd;clip-rule:evenodd;fill:#FAD90D;}
</style>
<desc>Created with Sketch.</desc>
<g id="Icons">
	<g id="Artboard" transform="translate(-410.000000, -538.000000)">
		<g id="fake-check-results" transform="translate(410.000000, 538.000000)">
			<path id="Rectangle" class="st0" d="M20,0h80l0,0v100H0V20C0,9,9,0,20,0z"/>
			<path id="Rectangle_1_" class="st1" d="M100,0h80c11,0,20,9,20,20v80l0,0H100V0z"/>
			<path id="Rectangle_2_" class="st2" d="M0,100h100v100H20c-11,0-20-9-20-20V100L0,100z"/>
			<path id="Rectangle_3_" class="st3" d="M100,100h100v80c0,11-9,20-20,20h-80l0,0V100z"/>
		</g>
	</g>
</g>
</svg>
