<svg width="12" height="12" viewBox="0 0 12 12" fill="none" xmlns="http://www.w3.org/2000/svg">
<g clip-path="url(#clip0_17_3)">
<path fill-rule="evenodd" clip-rule="evenodd" d="M6.76449 6.57833C6.76449 7.00444 6.41984 7.34909 5.99373 7.34909C5.56762 7.34909 5.22298 7.00444 5.22298 6.57833V3.03786C5.22298 2.83734 5.3859 2.67128 5.58956 2.67128H6.40104C6.60157 2.67128 6.76762 2.8342 6.76762 3.03786L6.76449 6.57833ZM5.9906 9.85248C5.56762 9.85248 5.22298 9.50783 5.22298 9.08486C5.22298 8.66188 5.56762 8.32037 5.9906 8.32037C6.41358 8.32037 6.75822 8.66501 6.75822 9.08486C6.75822 9.50783 6.41358 9.85248 5.9906 9.85248ZM11.8245 9.44204L7.01201 1.1047C6.79896 0.73812 6.41671 0.518799 5.9906 0.518799C5.56449 0.518799 5.18538 0.73812 4.97232 1.10783L0.159791 9.44204C-0.0532637 9.81175 -0.0532637 10.2504 0.159791 10.6201C0.372846 10.9898 0.751958 11.2091 1.17807 11.2091H10.8031C11.2292 11.2091 11.6084 10.9898 11.8214 10.6201C12.0376 10.2504 12.0376 9.81175 11.8245 9.44204Z" fill="#1C2228"/>
</g>
<defs>
<clipPath id="clip0_17_3">
<rect width="12" height="12" fill="white"/>
</clipPath>
</defs>
</svg>
