<?xml version="1.0" encoding="utf-8"?>
<!-- Generator: Adobe Illustrator 25.0.0, SVG Export Plug-In . SVG Version: 6.00 Build 0)  -->
<svg version="1.1" id="Ebene_1" xmlns="http://www.w3.org/2000/svg" xmlns:xlink="http://www.w3.org/1999/xlink" x="0px" y="0px"
	 viewBox="0 0 288 288" style="enable-background:new 0 0 288 288;" xml:space="preserve">
<style type="text/css">
	.st0{fill-rule:evenodd;clip-rule:evenodd;fill:#42D389;}
	.st1{fill:#24975C;}
	.st2{fill:#20272E;}
</style>
<desc>Created with Sketch.</desc>
<g id="Icons">
	<g id="Artboard" transform="translate(-263.000000, -862.000000)">
		<g id="Filter" transform="translate(272.000000, 871.000000)">
			<g>
				<circle id="Oval_1_" class="st0" cx="135" cy="135" r="135"/>
				<path class="st1" d="M135,279C55.6,279-9,214.4-9,135C-9,55.6,55.6-9,135-9c79.4,0,144,64.6,144,144
					C279,214.4,214.4,279,135,279z M135,9C65.5,9,9,65.5,9,135s56.5,126,126,126s126-56.5,126-126S204.5,9,135,9z"/>
			</g>
			<path class="st2" d="M207,102.6H63c-7,0-12.6-5.6-12.6-12.6S56,77.4,63,77.4h144c7,0,12.6,5.6,12.6,12.6S214,102.6,207,102.6z"/>
			<path class="st2" d="M189,156.6H81c-7,0-12.6-5.6-12.6-12.6S74,131.4,81,131.4h108c7,0,12.6,5.6,12.6,12.6S196,156.6,189,156.6z"
				/>
			<path class="st2" d="M153,210.6h-36c-7,0-12.6-5.6-12.6-12.6s5.6-12.6,12.6-12.6h36c7,0,12.6,5.6,12.6,12.6S160,210.6,153,210.6z
				"/>
		</g>
	</g>
</g>
</svg>
