<svg width="20" height="20" viewBox="0 0 20 20" fill="none" xmlns="http://www.w3.org/2000/svg">
<path d="M17.9934 4C17.9934 4 18.4934 15.5 10.0854 20C1.50545 15.5 2.00545 4 2.00545 4C6.00345 4 9.99945 0 9.99945 0C9.99945 0 13.4974 4 17.9934 4Z" fill="#64B5F6"/>
<path d="M7.82995 7.79299H6.67095V11.979H5.71195V7.79299H4.58345V7.04399H7.83045V7.79299H7.82995ZM9.55345 11.2335H11.3939V11.979H8.59745V7.04399H9.55345V11.2335ZM14.46 10.698C14.46 10.5015 14.4095 10.346 14.309 10.232C14.2085 10.118 14.0279 10.0065 13.7684 9.89849C13.2619 9.71999 12.8814 9.51749 12.6259 9.29149C12.3705 9.06549 12.2429 8.74949 12.2429 8.34249C12.2429 7.93799 12.389 7.60849 12.6805 7.35449C12.972 7.10049 13.344 6.97299 13.7955 6.97299C14.2745 6.97299 14.66 7.10849 14.9515 7.37949C15.243 7.65049 15.3844 8.01449 15.3755 8.47099L15.3685 8.49149H14.44C14.44 8.23599 14.383 8.04249 14.269 7.90999C14.1545 7.77749 13.9914 7.71199 13.7794 7.71199C13.5964 7.71199 13.4539 7.77249 13.3524 7.89299C13.2509 8.01399 13.1999 8.16499 13.1999 8.34549C13.1999 8.51249 13.2579 8.65049 13.3729 8.75899C13.4879 8.86749 13.6854 8.98599 13.966 9.11449C14.443 9.27249 14.804 9.47299 15.049 9.71449C15.294 9.95599 15.4165 10.2815 15.4165 10.6905C15.4165 11.113 15.273 11.4455 14.986 11.687C14.699 11.929 14.3185 12.05 13.8435 12.05C13.3755 12.05 12.9759 11.9195 12.6439 11.6585C12.3114 11.3975 12.1515 11.0005 12.1625 10.467L12.1695 10.4465H13.1014C13.1014 10.756 13.1639 10.9785 13.2894 11.114C13.4149 11.2495 13.6 11.3175 13.8435 11.3175C14.049 11.3175 14.2035 11.261 14.306 11.148C14.4085 11.036 14.46 10.8855 14.46 10.698Z" fill="#1565C0"/>
</svg>
