<?xml version="1.0" encoding="UTF-8"?>
<svg width="201px" height="254px" viewBox="0 0 201 254" version="1.1" xmlns="http://www.w3.org/2000/svg" xmlns:xlink="http://www.w3.org/1999/xlink">
    <!-- Generator: Sketch 58 (84663) - https://sketch.com -->
    <title>custom attributes</title>
    <desc>Created with Sketch.</desc>
    <g id="Page-1" stroke="none" stroke-width="1" fill="none" fill-rule="evenodd">
        <g id="EXPORT" transform="translate(-144.000000, -89.000000)" fill-rule="nonzero">
            <g id="custom-attributes" transform="translate(244.500000, 216.000000) scale(-1, 1) rotate(-180.000000) translate(-244.500000, -216.000000) translate(144.000000, 89.000000)">
                <path d="M180.887567,16.9965109 L180.887567,125.897716 L19.4594366,125.897716 L19.4594366,16.9965109 C19.4594366,7.62306485 27.082502,0 36.455948,0 L116.322899,0 C124.029223,0 130.786778,5.19886436 132.754021,12.649602 L139.559983,38.3747842 L146.805477,12.4211233 C148.852106,5.10592376 155.584491,0 163.176575,0 L163.891056,0 C173.264502,0 180.887567,7.62306485 180.887567,16.9965109 Z" id="Path" fill="#4DADF7"></path>
                <g id="Group" transform="translate(45.107168, 0.000000)">
                    <path d="M135.780399,16.9965109 L135.780399,125.897716 L55.067302,125.897716 L55.067302,0 L71.2157302,0 C78.9220545,0 85.6796099,5.19886436 87.6468525,12.649602 L94.4528149,38.3747842 L101.698309,12.4211233 C103.744938,5.10592376 110.477322,0 118.069407,0 L118.783888,0 C128.157334,0 135.780399,7.62306485 135.780399,16.9965109 Z" id="Path" fill="#3F9BE4"></path>
                    <path d="M15.2751738,0 L15.2751738,57.2397881 C15.2751738,61.3427282 11.9428663,64.6750356 7.83992624,64.6750356 C3.73505,64.6750356 0.404678713,61.3427282 0.404678713,57.2397881 L0.404678713,0 L15.2751738,0 Z" id="Path" fill="#3366C2"></path>
                    <path d="M40.8260921,0 L40.8260921,81.9639228 C40.8260921,86.0668624 37.4995936,89.3972337 33.3908446,89.3972337 C29.287905,89.3972337 25.955597,86.0668624 25.955597,81.9639228 L25.955597,0 L40.8260921,0 Z" id="Path" fill="#3366C2"></path>
                </g>
                <path d="M128.490371,160.227648 L128.490371,225.477753 C128.490371,241.091773 115.786554,253.789782 100.17447,253.789782 C84.5604505,253.789782 71.8566332,241.091773 71.8566332,225.477753 L71.8566332,160.227648 C71.8566332,156.118899 75.1870045,152.7924 79.2918807,152.7924 L100.17447,152.7924 L121.055124,152.7924 C125.16,152.7924 128.490371,156.118899 128.490371,160.227648 L128.490371,160.227648 Z" id="Path" fill="#738197"></path>
                <path d="M128.490371,160.227648 L128.490371,225.477753 C128.490371,241.091773 115.786554,253.789782 100.17447,253.789782 L100.17447,152.7924 L121.055124,152.7924 C125.16,152.7924 128.490371,156.118899 128.490371,160.227648 L128.490371,160.227648 Z" id="Path" fill="#606E86"></path>
                <path d="M200.099163,127.777827 L200.099163,150.910353 C200.099163,160.148261 192.584529,167.662896 183.350493,167.662896 L16.9965109,167.662896 C7.76247574,167.662896 0.247841584,160.148261 0.247841584,150.910353 L0.247841584,127.777827 C0.247841584,118.543792 7.76247574,111.029157 16.9965109,111.029157 L183.350493,111.029157 C192.584529,111.029157 200.099163,118.543792 200.099163,127.777827 Z" id="Path" fill="#738197"></path>
                <path d="M111.852069,0 L111.852069,32.4556297 C111.852069,36.5605059 108.519761,39.8908772 104.416821,39.8908772 C102.840703,39.8908772 101.378826,39.401003 100.17447,38.5626015 C98.245953,37.2188356 96.9815738,34.9843886 96.9815738,32.4556297 L96.9815738,0 L111.852069,0 Z" id="Path" fill="#3366C2"></path>
                <path d="M111.852069,0 L111.852069,32.4556297 C111.852069,36.5605059 108.519761,39.8908772 104.416821,39.8908772 C102.840703,39.8908772 101.378826,39.401003 100.17447,38.5626015 L100.17447,0 L111.852069,0 Z" id="Path" fill="#2352A7"></path>
                <path d="M200.099163,127.777827 L200.099163,150.910353 C200.099163,160.148261 192.584529,167.662896 183.350493,167.662896 L100.17447,167.662896 L100.17447,111.029157 L183.350493,111.029157 C192.584529,111.029157 200.099163,118.543792 200.099163,127.777827 Z" id="Path" fill="#606E86"></path>
            </g>
        </g>
    </g>
</svg>