<?xml version="1.0" encoding="utf-8"?>
<!-- Generator: Adobe Illustrator 25.0.0, SVG Export Plug-In . SVG Version: 6.00 Build 0)  -->
<svg version="1.1" id="Ebene_1" xmlns="http://www.w3.org/2000/svg" xmlns:xlink="http://www.w3.org/1999/xlink" x="0px" y="0px"
	 viewBox="0 0 329 257" style="enable-background:new 0 0 329 257;" xml:space="preserve">
<style type="text/css">
	.st0{fill:#13D389;}
</style>
<desc>Created with Sketch.</desc>
<g id="Icons">
	<g id="Artboard" transform="translate(-347.000000, -130.000000)">
		<g id="generic-ckeck-plugins" transform="translate(358.000000, 141.000000)">
			<path class="st0" d="M306.3,245.2H0c-6.1,0-11-4.9-11-11V46.3c0-6.1,4.9-11,11-11h25V0c0-6.1,4.9-11,11-11h82.4
				c6.1,0,11,4.9,11,11v35.3h47.5V0c0-6.1,4.9-11,11-11h82.4c6.1,0,11,4.9,11,11v35.3h25c6.1,0,11,4.9,11,11v187.9
				C317.3,240.3,312.4,245.2,306.3,245.2z M11,223.2h284.3V57.3h-25c-6.1,0-11-4.9-11-11V11h-60.4v35.3c0,6.1-4.9,11-11,11h-69.5
				c-6.1,0-11-4.9-11-11V11H47v35.3c0,6.1-4.9,11-11,11H11V223.2z"/>
		</g>
	</g>
</g>
</svg>
