<?xml version="1.0" encoding="utf-8"?>
<!-- Generator: Adobe Illustrator 24.2.1, SVG Export Plug-In . SVG Version: 6.00 Build 0)  -->
<svg version="1.1" id="Ebene_1" xmlns="http://www.w3.org/2000/svg" xmlns:xlink="http://www.w3.org/1999/xlink" x="0px" y="0px"
	 viewBox="0 0 17 17" style="enable-background:new 0 0 17 17;" xml:space="preserve">
<style type="text/css">
	.st0{fill-rule:evenodd;clip-rule:evenodd;fill:#13D389;}
</style>
<desc>Created with Sketch.</desc>
<g id="customization_active">
	<g id="customization">
		<path id="Stroke-1" class="st0" d="M5.8,6.4H0.6C0.2,6.4,0,6.2,0,5.9V0.7c0-0.3,0.2-0.6,0.6-0.6h5.2c0.3,0,0.6,0.2,0.6,0.6v5.2
			C6.3,6.2,6.1,6.4,5.8,6.4z"/>
		<path id="Stroke-3" class="st0" d="M15.8,6.4h-5.2c-0.3,0-0.6-0.2-0.6-0.6V0.7c0-0.3,0.2-0.6,0.6-0.6h5.2c0.3,0,0.6,0.2,0.6,0.6
			v5.2C16.4,6.2,16.1,6.4,15.8,6.4z"/>
		<path id="Stroke-5" class="st0" d="M5.8,16.5H0.6c-0.3,0-0.6-0.2-0.6-0.6v-5.2c0-0.3,0.2-0.6,0.6-0.6h5.2c0.3,0,0.6,0.2,0.6,0.6
			v5.2C6.3,16.2,6.1,16.5,5.8,16.5z"/>
		<path id="Stroke-7" class="st0" d="M15.8,16.5h-5.2c-0.3,0-0.6-0.2-0.6-0.6v-5.2c0-0.3,0.2-0.6,0.6-0.6h5.2c0.3,0,0.6,0.2,0.6,0.6
			v5.2C16.4,16.2,16.1,16.5,15.8,16.5z"/>
	</g>
</g>
</svg>
