<svg width="14" height="14" viewBox="0 0 14 14" fill="none" xmlns="http://www.w3.org/2000/svg">
<g clip-path="url(#clip0_267_88)">
<path d="M3.94538 6.27929C3.94538 6.45341 3.96405 6.59429 3.99671 6.69783C4.03405 6.80137 4.08042 6.91424 4.14576 7.03645C4.16909 7.07408 4.17842 7.1117 4.17842 7.14466C4.17842 7.19162 4.15042 7.23858 4.09005 7.28583L3.79663 7.48329C3.75463 7.51158 3.71292 7.52558 3.67559 7.52558C3.62892 7.52558 3.58255 7.50195 3.53588 7.45966C3.47055 7.38908 3.41484 7.31383 3.36817 7.23858C3.32151 7.15866 3.27513 7.06941 3.2238 6.9612C2.86067 7.39374 2.40421 7.61016 1.85471 7.61016C1.46359 7.61016 1.15151 7.49729 0.923423 7.27154C0.695339 7.04579 0.578964 6.74479 0.578964 6.36854C0.578964 5.96895 0.718673 5.64433 1.00276 5.39991C1.28684 5.15549 1.66396 5.033 2.14346 5.033C2.30184 5.033 2.46488 5.04699 2.63696 5.07062C2.80905 5.09424 2.98609 5.13187 3.17246 5.17416V4.83087C3.17246 4.47358 3.09809 4.2242 2.95371 4.07837C2.80467 3.93254 2.55326 3.86195 2.1948 3.86195C2.03176 3.86195 1.86434 3.88062 1.69196 3.9232C1.51959 3.96549 1.35217 4.01712 1.18913 4.08304C1.11476 4.11599 1.05876 4.13466 1.02609 4.14429C0.993423 4.15362 0.970089 4.15829 0.951714 4.15829C0.886381 4.15829 0.854006 4.11133 0.854006 4.01245V3.78204C0.854006 3.70679 0.863339 3.65049 0.886673 3.61754C0.910006 3.58458 0.952006 3.55162 1.01705 3.51866C1.18009 3.43408 1.37551 3.36349 1.60388 3.30691C1.83196 3.24566 2.07405 3.21766 2.33013 3.21766C2.8843 3.21766 3.28942 3.34454 3.55017 3.59858C3.80626 3.85262 3.93663 4.2382 3.93663 4.75533V6.27899L3.94538 6.27929ZM2.0548 6.99387C2.20851 6.99387 2.36688 6.96558 2.5343 6.90929C2.70201 6.85299 2.85105 6.74945 2.97676 6.60829C3.05113 6.51904 3.10713 6.42016 3.13513 6.30729C3.16313 6.19441 3.1818 6.05791 3.1818 5.89808V5.70062C3.04676 5.66766 2.90238 5.63937 2.75334 5.6207C2.6043 5.60204 2.45992 5.59241 2.31555 5.59241C2.00346 5.59241 1.77538 5.65366 1.62167 5.78054C1.46796 5.90741 1.39359 6.0862 1.39359 6.32129C1.39359 6.54237 1.44959 6.70687 1.56596 6.81974C1.67767 6.93758 1.84071 6.99387 2.0548 6.99387ZM5.79396 7.50195C5.71026 7.50195 5.65426 7.48795 5.61692 7.45499C5.57959 7.4267 5.54721 7.36108 5.51921 7.27154L4.42488 3.6365C4.39688 3.54258 4.38288 3.48133 4.38288 3.44837C4.38288 3.37312 4.42021 3.33083 4.49459 3.33083H4.95105C5.03942 3.33083 5.10009 3.34483 5.13276 3.37779C5.17009 3.40608 5.1978 3.4717 5.2258 3.56124L6.00805 6.6745L6.7343 3.56124C6.75763 3.46733 6.78563 3.40608 6.82267 3.37779C6.86001 3.3495 6.92505 3.33083 7.00905 3.33083H7.38151C7.46988 3.33083 7.53055 3.34483 7.56788 3.37779C7.60521 3.40608 7.63759 3.4717 7.65626 3.56124L8.39184 6.71212L9.19742 3.56124C9.22542 3.46733 9.25809 3.40608 9.29046 3.37779C9.3278 3.3495 9.38817 3.33083 9.47217 3.33083H9.9053C9.97967 3.33083 10.0217 3.36845 10.0217 3.44837C10.0217 3.47199 10.017 3.49533 10.0123 3.52362C10.0077 3.55191 9.99834 3.58954 9.97967 3.64116L8.85763 7.2762C8.82963 7.37012 8.79696 7.43137 8.75992 7.45966C8.72288 7.48795 8.66221 7.50662 8.58288 7.50662H8.18242C8.09405 7.50662 8.03338 7.49262 7.99605 7.45966C7.95871 7.4267 7.92634 7.36574 7.90767 7.27154L7.18609 4.2382L6.46917 7.26687C6.44584 7.36079 6.41784 7.42204 6.3808 7.45499C6.34346 7.48795 6.27842 7.50195 6.19442 7.50195H5.79396ZM11.7772 7.62883C11.5351 7.62883 11.293 7.60054 11.0603 7.54424C10.8275 7.48795 10.6458 7.4267 10.5248 7.35612C10.4504 7.31383 10.3991 7.26687 10.3804 7.22458C10.3618 7.18229 10.3524 7.13533 10.3524 7.09304V6.85329C10.3524 6.75441 10.3898 6.70745 10.4595 6.70745C10.4875 6.70745 10.5155 6.71212 10.5432 6.72145C10.5712 6.73079 10.6129 6.74974 10.6595 6.76841C10.8179 6.83899 10.99 6.89529 11.1717 6.93291C11.3581 6.97054 11.5395 6.9892 11.7259 6.9892C12.0193 6.9892 12.2474 6.93758 12.4058 6.83404C12.5641 6.73049 12.6478 6.57999 12.6478 6.3872C12.6478 6.25566 12.6058 6.14745 12.5221 6.05791C12.4384 5.96866 12.28 5.88874 12.052 5.81349L11.3768 5.60174C11.037 5.49354 10.7855 5.3337 10.6318 5.12195C10.4781 4.91516 10.3991 4.68474 10.3991 4.44004C10.3991 4.24258 10.4411 4.06845 10.5248 3.91795C10.6085 3.76745 10.7205 3.63591 10.8599 3.53237C10.9996 3.42416 11.158 3.34424 11.3441 3.28795C11.5305 3.23195 11.7259 3.20833 11.9309 3.20833C12.0333 3.20833 12.1403 3.21299 12.243 3.22699C12.35 3.24099 12.4478 3.25995 12.5458 3.27862C12.6388 3.30224 12.7275 3.32558 12.8112 3.35387C12.8949 3.38216 12.9602 3.41016 13.0069 3.43845C13.0722 3.47608 13.1186 3.5137 13.1466 3.556C13.1746 3.59362 13.1886 3.64524 13.1886 3.71116V3.93224C13.1886 4.03112 13.1513 4.08274 13.0815 4.08274C13.0442 4.08274 12.9838 4.06408 12.9045 4.02645C12.6391 3.90424 12.341 3.84299 12.0105 3.84299C11.7451 3.84299 11.5357 3.88529 11.3913 3.97454C11.247 4.06379 11.1726 4.20029 11.1726 4.39308C11.1726 4.52462 11.2193 4.6375 11.3123 4.72704C11.4053 4.81629 11.5777 4.90583 11.8245 4.98574L12.4857 5.19749C12.8208 5.3057 13.0632 5.4562 13.2073 5.64899C13.3513 5.84179 13.4213 6.06287 13.4213 6.30729C13.4213 6.50941 13.3793 6.69287 13.3003 6.8527C13.2166 7.01254 13.1046 7.1537 12.9605 7.26658C12.8161 7.38412 12.6438 7.4687 12.4437 7.52995C12.2334 7.59587 12.0146 7.62883 11.7772 7.62883Z" fill="#252F3E"/>
<path d="M12.6572 9.91433C11.1253 11.0571 8.89962 11.6638 6.9857 11.6638C4.30383 11.6638 1.88708 10.6622 0.0618265 8.99733C-0.0825486 8.86579 0.0478264 8.687 0.220201 8.79054C2.19449 9.94729 4.62962 10.6482 7.14874 10.6482C8.84829 10.6482 10.7155 10.2909 12.4335 9.55704C12.6898 9.4395 12.9086 9.72621 12.6572 9.91433ZM13.295 9.18079C13.0993 8.92675 12.0006 9.05858 11.5025 9.11954C11.3534 9.13821 11.3301 9.00667 11.4651 8.90779C12.3404 8.28712 13.7792 8.46562 13.9469 8.67271C14.1146 8.88446 13.9002 10.3375 13.081 11.0335C12.9552 11.1417 12.8342 11.0851 12.8899 10.9442C13.0763 10.4787 13.4907 9.42987 13.295 9.18079Z" fill="#FF9900"/>
</g>
<defs>
<clipPath id="clip0_267_88">
<rect width="14" height="14" fill="white"/>
</clipPath>
</defs>
</svg>
