<?xml version="1.0" encoding="utf-8"?>
<svg version="1.1" id="Ebene_1" xmlns="http://www.w3.org/2000/svg" xmlns:xlink="http://www.w3.org/1999/xlink" x="0px" y="0px"
	 viewBox="0 0 396 276" style="enable-background:new 0 0 396 276;" xml:space="preserve">
<style type="text/css">
	.st0{fill-rule:evenodd;clip-rule:evenodd;fill:#009DDB;}
</style>
<g id="Menu-Icons-EXPORT">
	<g id="EXPORT" transform="translate(-510.000000, -593.000000)">
		<g id="docker" transform="translate(510.000000, 593.000000)">
			<path id="Fill-5" class="st0" d="M134,275.3C-16.9,275.3,0.6,142.4,0.6,142.4h252c42.5,0,56.5-13.5,56.5-13.5s-24-31,4.1-68.5
				c31.6,18.1,30.4,45.1,30.4,45.1s32.2-10.5,52.1,7.6c-11.1,36.3-60.3,33.9-60.3,33.9S289.8,275.3,134,275.3"/>
			<polygon id="Fill-2" class="st0" points="133.2,124.8 261.2,124.8 261.2,3.2 133.2,3.2 			"/>
			<polygon id="Fill-2_1_" class="st0" points="35,124.8 122.2,124.8 122.2,42 35,42 			"/>
		</g>
	</g>
</g>
</svg>
