<?xml version="1.0" encoding="utf-8"?>
<!-- Generator: Adobe Illustrator 26.0.3, SVG Export Plug-In . SVG Version: 6.00 Build 0)  -->
<svg version="1.1" id="Ebene_1" xmlns="http://www.w3.org/2000/svg" xmlns:xlink="http://www.w3.org/1999/xlink" x="0px" y="0px"
	 viewBox="0 0 62.6 62.6" style="enable-background:new 0 0 62.6 62.6;" xml:space="preserve">
<style type="text/css">
	.st0{fill:#13D389;}
</style>
<g>
	<path class="st0" d="M46.2,45V8.5c0-1.3-1-2.3-2.3-2.3H7.4c-1.3,0-2.3,1-2.3,2.3V45c0,1.3,1,2.3,2.3,2.3h36.5
		C45.2,47.3,46.2,46.3,46.2,45z M41.6,42.7H9.7v-32h31.9V42.7z"/>
	<path class="st0" d="M53,15.3h-4.5v4.6h2.3v31.9H18.8v-2.3h-4.6v4.6c0,1.3,1,2.3,2.3,2.3H53c1.3,0,2.3-1,2.3-2.3V17.6
		C55.3,16.4,54.3,15.3,53,15.3z"/>
	<path class="st0" d="M17.4,29.2C17.4,29.2,17.4,29.2,17.4,29.2H23v5.7c0,1.2,0.9,2.1,2.1,2.1c1.2,0,2.1-0.9,2.1-2.1v-5.7h5.6
		c1.2,0,2.1-0.9,2.1-2.1c0-1.2-0.9-2.1-2.1-2.1h-5.6v-5.6c0-1.2-0.9-2.1-2.1-2.1c-1.2,0-2.1,0.9-2.1,2.1c0,0,0,0,0,0V25h-5.7
		c-1.2,0-2.1,0.9-2.1,2.1S16.2,29.2,17.4,29.2z"/>
</g>
</svg>
