<svg width="6" height="12" viewBox="0 0 6 12" fill="none" xmlns="http://www.w3.org/2000/svg">
<path d="M1.21875 9.94287H1.6875V6.55713H1.21875C0.959859 6.55713 0.75 6.34727 0.75 6.08838V4.96875C0.75 4.70986 0.959859 4.5 1.21875 4.5H3.84375C4.10264 4.5 4.3125 4.70986 4.3125 4.96875V9.94287H4.78125C5.04014 9.94287 5.25 10.1527 5.25 10.4116V11.5312C5.25 11.7901 5.04014 12 4.78125 12H1.21875C0.959859 12 0.75 11.7901 0.75 11.5312V10.4116C0.75 10.1527 0.959859 9.94287 1.21875 9.94287ZM3 0C2.06801 0 1.3125 0.755508 1.3125 1.6875C1.3125 2.61949 2.06801 3.375 3 3.375C3.93199 3.375 4.6875 2.61949 4.6875 1.6875C4.6875 0.755508 3.93197 0 3 0Z" fill="white"/>
</svg>
