<?xml version="1.0" encoding="utf-8"?>
<svg version="1.1" id="Ebene_1" xmlns="http://www.w3.org/2000/svg" xmlns:xlink="http://www.w3.org/1999/xlink" x="0px" y="0px"
	 viewBox="0 0 382 381" style="enable-background:new 0 0 382 381;" xml:space="preserve">
<style type="text/css">
	.st0{fill-rule:evenodd;clip-rule:evenodd;fill:#28A2F3;}
	.st1{fill-rule:evenodd;clip-rule:evenodd;fill:#178FDE;}
</style>
<g id="Menu-Icons-EXPORT">
	<g id="EXPORT" transform="translate(-514.000000, -541.000000)">
		<g id="host-tags" transform="translate(514.000000, 541.000000)">
			<g id="Page-1">
				<g id="icon_tag">
					<g id="Group-3">
						<path id="Fill-1" class="st0" d="M322.6,87.9c7.7-7.7,7.7-20.5,0-28.8c-8.3-7.7-21.1-7.7-28.8,0c-7.7,7.7-7.7,20.5,0,28.8l0,0
							C301.4,95.6,314.2,95.6,322.6,87.9L322.6,87.9z M181.8,374.6c-8.3,8.3-21.8,8.3-29.4,0l0,0L7,230c-8.3-8.3-8.3-21.8,0-30.1
							L200.3,6.6c4.5-4.5,10.2-6.4,16-6.4l137,8.3c10.9,0.6,19.2,9,19.8,19.8l8.3,137c0.6,5.8-1.9,12.2-6.4,16L181.8,374.6z"/>
					</g>
				</g>
			</g>
			<path id="Path" class="st1" d="M152.3,374.6c7.7,8.3,21.1,8.3,29.4,0L375,181.3c4.5-3.8,7-10.2,6.4-16l-8.3-137
				c0-5.1-1.9-9-5.1-12.8l-44.8,44.2c7,8.3,6.4,20.5-0.6,28.2c-8.3,7.7-20.5,7.7-28.2,0.6L78.7,301L152.3,374.6z"/>
		</g>
	</g>
</g>
</svg>
