<svg width="24" height="24" viewBox="0 0 24 24" fill="none" xmlns="http://www.w3.org/2000/svg">
<path d="M13.9761 6.5H8.00001V3L1.45001 8.5L7.17166 13.3044L8.00001 12.4761V10.5H9.9761L13.9761 6.5Z" fill="#2196F3"/>
<path d="M8.00001 13.8903L7.94038 13.9499L8.00001 14V13.8903Z" fill="#2196F3"/>
<path d="M3.9761 16.5H2.50001V17.9761L3.9761 16.5Z" fill="#2196F3"/>
<path d="M2.50001 19.3903L4.50001 17.3903V20.5H2.50001V19.3903Z" fill="#2196F3"/>
<path d="M7.0239 20.5H7.50001V20.0239L7.0239 20.5Z" fill="#2196F3"/>
<path d="M7.50001 18.6097L5.60968 20.5H5.50001V16.5H7.50001V18.6097Z" fill="#2196F3"/>
<path d="M8.50001 19.0239V20.5H10.5V17.0239L8.50001 19.0239Z" fill="#2196F3"/>
<path d="M9.60968 16.5L8.50001 17.6097V16.5H9.60968Z" fill="#2196F3"/>
<path d="M15.6078 10.5019C15.572 10.5006 15.5361 10.5 15.5 10.5H11.3903L15.3903 6.5H15.5C16.6853 6.5 17.8043 6.79858 18.7854 7.32425L15.6078 10.5019Z" fill="#2196F3"/>
<path d="M16.7496 10.7743C17.7803 11.2504 18.5 12.2953 18.5 13.5C18.5 15.15 17.15 16.5 15.5 16.5H14.5V20.5H15.5C19.35 20.5 22.5 17.35 22.5 13.5C22.5 11.2006 21.3764 9.15087 19.6511 7.87281L16.7496 10.7743Z" fill="#2196F3"/>
<path d="M11.5 16.5H13.5V20.5H11.5V16.5Z" fill="#2196F3"/>
<path fill-rule="evenodd" clip-rule="evenodd" d="M1 20.8903L20.8903 1L23 3.10969L3.10969 23L1 20.8903Z" fill="#F44336"/>
</svg>
