<?xml version="1.0" encoding="utf-8"?>
<!-- Generator: Adobe Illustrator 24.2.1, SVG Export Plug-In . SVG Version: 6.00 Build 0)  -->
<svg version="1.1" id="Ebene_1" xmlns="http://www.w3.org/2000/svg" xmlns:xlink="http://www.w3.org/1999/xlink" x="0px" y="0px"
	 viewBox="0 0 16 19" style="enable-background:new 0 0 16 19;" xml:space="preserve">
<style type="text/css">
	.st0{fill-rule:evenodd;clip-rule:evenodd;fill:#13D389;}
</style>
<desc>Created with Sketch.</desc>
<g id="Symbols">
	<g id="Navbar" transform="translate(-17.000000, -610.000000)">
		<g id="account">
			<g transform="translate(17.000000, 610.000000)">
				<g>
					<g id="Group-3" transform="translate(3.600000, 0.015390)">
						<g id="Clip-2">
						</g>
						<path id="Fill-1" class="st0" d="M4.1,8.7c2.2,0,4.1-1.9,4.1-4.3S7.6,0.1,4.1,0.1C0.6,0.1,0,2,0,4.4S1.8,8.7,4.1,8.7"/>
					</g>
					<g id="Group-6" transform="translate(0.000000, 9.735390)">
						<g id="Clip-5">
						</g>
						<path id="Fill-4" class="st0" d="M15.3,6.1c-0.1-4.1-0.7-5.3-5.4-6c0,0-0.7,0.7-2.2,0.7S5.4,0.1,5.4,0.1C0.8,0.8,0.1,2,0,6
							c0,0.3,0,0.3,0,0.3c0,0.1,0,0.2,0,0.4c0,0,1.1,2,7.7,2c6.5,0,7.7-2,7.7-2c0-0.1,0-0.3,0-0.3C15.3,6.4,15.3,6.4,15.3,6.1"/>
					</g>
				</g>
			</g>
		</g>
	</g>
</g>
</svg>
