<svg width="32" height="32" viewBox="0 0 32 32" fill="none" xmlns="http://www.w3.org/2000/svg">
<path fill-rule="evenodd" clip-rule="evenodd" d="M23.2683 10.4014L20.7489 7.25014L23.2691 4.09972L27.8141 6.37265C28.2968 6.61446 28.8818 6.4184 29.1226 5.93684C29.3634 5.45524 29.1684 4.86928 28.6867 4.62843L23.4366 2.00334C23.0254 1.79871 22.5262 1.90771 22.2394 2.2667L20.432 4.52512H17.75C16.7632 4.52512 15.9548 5.30111 15.9027 6.27512H8.95225C8.52512 4.76566 7.14606 3.65012 5.50002 3.65012C3.51455 3.65012 1.90002 5.26464 1.90002 7.25012C1.90002 9.2356 3.51455 10.8501 5.50002 10.8501C5.58867 10.8501 5.6799 10.8378 5.76266 10.8267L5.78651 10.8235L10.2825 24.6501H6.37502C5.8368 24.6501 5.40002 25.0869 5.40002 25.6251V29.1251C5.40002 29.6633 5.8368 30.1001 6.37502 30.1001H16.875C17.4133 30.1001 17.85 29.6633 17.85 29.1251V25.6251C17.85 25.0869 17.4133 24.6501 16.875 24.6501H12.3338L7.61974 10.1517C8.25912 9.68301 8.7314 9.00724 8.95228 8.22512H15.9027C15.9548 9.19913 16.7632 9.97512 17.75 9.97512H20.4319L22.2385 12.2344C22.4288 12.4725 22.7117 12.6001 23 12.6001C23.1472 12.6001 23.2966 12.5668 23.4359 12.4977L28.6859 9.87269C29.1676 9.63184 29.3625 9.04587 29.1217 8.56427C28.8809 8.08256 28.2957 7.88771 27.8133 8.12843L23.2683 10.4014ZM16 8.12509C16 8.12508 16 8.1251 16 8.12509ZM7.25 26.5001V28.2501H16V26.5001H7.25ZM19.1334 6.37509H17.75V8.12509H19.1334C18.8105 7.57822 18.8105 6.92197 19.1334 6.37509ZM7.25 7.25009C7.25 6.28497 6.46513 5.50009 5.5 5.50009C4.53488 5.50009 3.75 6.28497 3.75 7.25009C3.75 8.21522 4.53488 9.00009 5.5 9.00009C6.46513 9.00009 7.25 8.21522 7.25 7.25009Z" fill="#15D1A0"/>
<path d="M5.5 8.125C5.98325 8.125 6.375 7.73325 6.375 7.25C6.375 6.76675 5.98325 6.375 5.5 6.375C5.01675 6.375 4.625 6.76675 4.625 7.25C4.625 7.73325 5.01675 8.125 5.5 8.125Z" fill="#15D1A0"/>
</svg>
