<?xml version="1.0" encoding="UTF-8"?>
<svg width="19px" height="19px" viewBox="0 0 19 19" version="1.1" xmlns="http://www.w3.org/2000/svg" xmlns:xlink="http://www.w3.org/1999/xlink">
    <title>pie</title>
    <g id="design" stroke="none" stroke-width="1" fill="none" fill-rule="evenodd">
        <g id="bar_left_actions" transform="translate(-90.000000, -20.000000)" fill="#505862" fill-rule="nonzero">
            <g id="Sidebar" transform="translate(63.000000, 0.000000)">
                <g id="Links" transform="translate(27.000000, 20.000000)">
                    <g id="pie">
                        <path d="M15.491952,9.84204 L8.61048,9.84204 L8.608104,2.960604 C8.607996,2.642832 8.3502,2.384784 8.032104,2.384784 C5.902956,2.384784 3.887892,3.224268 2.363652,4.748976 C-0.787176,7.90092 -0.78894,12.93444 2.36466,16.08804 C5.516856,19.240236 10.551096,19.24164 13.704696,16.08804 C15.228648,14.564088 16.067952,12.550428 16.067952,10.41804 C16.067952,10.099908 15.810048,9.84204 15.491952,9.84204 Z" id="Path"></path>
                        <path d="M10.404072,-5.31448592e-06 C10.08648,0.001296 9.829836,0.259416 9.83037515,0.577008 L9.843444,8.034228 C9.84402,8.351964 10.101708,8.60922 10.419444,8.60922 L17.8767,8.60922 C18.194796,8.60922 18.4527,8.351316 18.4527,8.03322 C18.4527,3.626676 14.839848,-0.005076 10.404072,-5.31448592e-06 L10.404072,-5.31448592e-06 Z" id="Path"></path>
                    </g>
                </g>
            </g>
        </g>
    </g>
</svg>