<?xml version="1.0" encoding="utf-8"?>
<!-- Generator: Adobe Illustrator 26.0.3, SVG Export Plug-In . SVG Version: 6.00 Build 0)  -->
<svg version="1.1" id="Ebene_1" xmlns="http://www.w3.org/2000/svg" xmlns:xlink="http://www.w3.org/1999/xlink" x="0px" y="0px"
	 viewBox="0 0 260 260" style="enable-background:new 0 0 260 260;" xml:space="preserve">
<style type="text/css">
	.st0{fill-rule:evenodd;clip-rule:evenodd;fill:#1CA9DA;}
	.st1{filter:url(#Adobe_OpacityMaskFilter);}
	.st2{fill-rule:evenodd;clip-rule:evenodd;fill:#FFFFFF;}
	.st3{mask:url(#mask-2_00000131357322901083619270000001701231931579769511_);fill-rule:evenodd;clip-rule:evenodd;fill:#1697C4;}
</style>
<g id="Icons">
	<g id="EXIT" transform="translate(-510.000000, -1997.000000)">
		<g id="export_rule" transform="translate(510.000000, 1997.000000)">
			<g id="Oval-2">
				<path id="path-1_00000078757382217600897290000016614918382310995622_" class="st0" d="M130,260c71.8,0,130-58.2,130-130
					S201.8,0,130,0S0,58.2,0,130S58.2,260,130,260z M99.3,77.9l-0.5,13c-0.1,3.6,2.7,6.8,6.3,7.1l34.2,3.2l-64.2,64.2
					c-2.5,2.5-2.4,6.6,0.3,9.3l9.5,9.5c2.6,2.6,6.8,2.7,9.3,0.3l64.2-64.2l3.2,34.2c0.3,3.6,3.5,6.4,7.1,6.3l13-0.5
					c3.6-0.1,6.3-3.2,5.9-6.8l-6.5-68.8c-0.3-3.3-3-6-6.3-6.3L106.1,72C102.4,71.6,99.4,74.3,99.3,77.9z"/>
			</g>
			<defs>
				<filter id="Adobe_OpacityMaskFilter" filterUnits="userSpaceOnUse" x="127" y="0" width="160" height="260">
					<feColorMatrix  type="matrix" values="1 0 0 0 0  0 1 0 0 0  0 0 1 0 0  0 0 0 1 0"/>
				</filter>
			</defs>
			
				<mask maskUnits="userSpaceOnUse" x="127" y="0" width="160" height="260" id="mask-2_00000131357322901083619270000001701231931579769511_">
				<g class="st1">
					<path id="path-1_00000183961304409740815370000002214468800657982905_" class="st2" d="M130,260c71.8,0,130-58.2,130-130
						S201.8,0,130,0S0,58.2,0,130S58.2,260,130,260z M99.3,77.9l-0.5,13c-0.1,3.6,2.7,6.8,6.3,7.1l34.2,3.2l-64.2,64.2
						c-2.5,2.5-2.4,6.6,0.3,9.3l9.5,9.5c2.6,2.6,6.8,2.7,9.3,0.3l64.2-64.2l3.2,34.2c0.3,3.6,3.5,6.4,7.1,6.3l13-0.5
						c3.6-0.1,6.3-3.2,5.9-6.8l-6.5-68.8c-0.3-3.3-3-6-6.3-6.3L106.1,72C102.4,71.6,99.4,74.3,99.3,77.9z"/>
				</g>
			</mask>
			<rect id="Rectangle" x="127" class="st3" width="160" height="260"/>
		</g>
	</g>
</g>
</svg>
