<?xml version="1.0" encoding="utf-8"?>
<svg version="1.1" id="Ebene_1" xmlns="http://www.w3.org/2000/svg" xmlns:xlink="http://www.w3.org/1999/xlink" x="0px" y="0px"
	 viewBox="0 0 366 387" style="enable-background:new 0 0 366 387;" xml:space="preserve">
<style type="text/css">
	.st0{fill:#43A047;}
	.st1{fill:#FFCC80;}
</style>
<g id="Menu-Icons-EXPORT">
	<g id="EXPORT" transform="translate(-522.000000, -537.000000)">
		<g id="custom-integration" transform="translate(522.000000, 537.000000)">
			<path id="Path" class="st0" d="M0,24.9C0,11.2,11.2,0,24.9,0h174.2C212.8,0,224,11.2,224,24.9v174.2c0,13.7-11.2,24.9-24.9,24.9
				H24.9C11.2,224,0,212.8,0,199.1V24.9z"/>
			<path id="Shape" class="st1" d="M134.4,209.9H96v-65.3c0-10.8,8.4-19.2,19.2-19.2l0,0c10.8,0,19.2,8.4,19.2,19.2V209.9z
				 M188.2,209.9h-38.4V98.6c0-10.8,8.4-19.2,19.2-19.2l0,0c10.8,0,19.2,8.4,19.2,19.2V209.9z M241.9,209.9h-38.4V83.2
				c0-10.8,8.4-19.2,19.2-19.2l0,0c10.8,0,19.2,8.4,19.2,19.2V209.9z M295.7,209.9h-38.4V106.2c0-10.8,8.4-19.2,19.2-19.2l0,0
				c10.8,0,19.2,8.4,19.2,19.2V209.9z M281.1,371.2l-38.4-38.4l76.8-76.8c10.8-10.8,27.6-10.8,37.6,0l0,0
				c10.8,10.8,10.8,27.6,0,37.6L281.1,371.2z"/>
			<path id="Path_1_" class="st1" d="M257.3,202.2c0,4.6-3.1,7.7-7.7,7.7c-4.6,0-7.7-3.1-7.7-7.7h-38.4c0,4.6-3.1,7.7-7.7,7.7
				s-7.7-3.1-7.7-7.7h-38.4c0,4.6-3.1,7.7-7.7,7.7s-7.7-3.1-7.7-7.7H96v122.9c0,33.8,27.6,61.4,61.4,61.4h86
				c28.4,0,52.2-23,52.2-52.2V202.2H257.3z"/>
		</g>
	</g>
</g>
</svg>
