<?xml version="1.0" encoding="utf-8"?>
<!-- Generator: Adobe Illustrator 25.0.0, SVG Export Plug-In . SVG Version: 6.00 Build 0)  -->
<svg version="1.1" id="Layer_1" xmlns="http://www.w3.org/2000/svg" xmlns:xlink="http://www.w3.org/1999/xlink" x="0px" y="0px"
	 viewBox="0 0 54 56" style="enable-background:new 0 0 54 56;" xml:space="preserve">
<style type="text/css">
	.st0{fill:#FF9800;}
	.st1{fill:#607D8B;}
	.st2{fill:#465B65;}
</style>
<g>
	<rect x="0.5" y="15.1" class="st0" width="32.3" height="4.9"/>
	<g>
		<g>
			<rect x="0.5" y="15.1" class="st0" width="53" height="4.9"/>
			<rect x="0.5" y="25.6" class="st0" width="53" height="4.9"/>
			<rect x="0.5" y="36.1" class="st0" width="53" height="4.9"/>
		</g>
		<g>
			<rect x="35" y="1.6" class="st0" width="4.9" height="53"/>
			<rect x="24.5" y="1.6" class="st0" width="4.9" height="53"/>
			<rect x="14" y="1.6" class="st0" width="4.9" height="53"/>
		</g>
	</g>
	<path class="st1" d="M44.7,48.9H9.4c-1.7,0-3.1-1.4-3.1-3.1V11.2c0-1.7,1.3-3.1,3.1-3.1h35.4c1.7,0,3.1,1.4,3.1,3.1v34.6
		C47.8,47.5,46.4,48.9,44.7,48.9z"/>
	<circle class="st2" cx="14.9" cy="16.1" r="2.7"/>
	<circle class="st2" cx="39" cy="40.4" r="2.7"/>
</g>
</svg>
