<?xml version="1.0" encoding="utf-8"?>
<svg version="1.1" id="Ebene_1" xmlns="http://www.w3.org/2000/svg" xmlns:xlink="http://www.w3.org/1999/xlink" x="0px" y="0px"
	 viewBox="0 0 350 437" style="enable-background:new 0 0 350 437;" xml:space="preserve">
<style type="text/css">
	.st0{fill:#3949AB;}
	.st1{fill:#EEEEEE;}
	.st2{fill:#263238;}
	.st3{fill:#9FA8DA;}
	.st4{fill:#90A4AE;}
	.st5{fill:#FFD90A;}
</style>
<g id="Menu-Icons-EXPORT">
	<g id="EXPORT" transform="translate(-316.000000, -431.000000)">
		<g id="check-duration" transform="translate(316.000000, 431.000000)">
			<polygon id="Path" class="st0" points="290.5,82.4 324.5,109.9 290.2,152.3 256.2,124.8 			"/>
			<polygon id="Path_1_" class="st0" points="141.8,54.5 207.3,54.5 207.3,98.2 141.8,98.2 			"/>
			<path id="Path_2_" class="st1" d="M174.5,114.5c-81.3,0-147.3,65.9-147.3,147.3s65.9,147.3,147.3,147.3s147.3-65.9,147.3-147.3
				S255.9,114.5,174.5,114.5z"/>
			<path id="Path_3_" class="st2" d="M159.6,284.9c12.8,8.3,29.9,4.6,38.1-8.3c8.2-12.9,4.5-30.1-8.3-38.5
				c-12.8-8.3-29.8-4.5-38.1,8.4C143.1,259.4,146.8,276.7,159.6,284.9"/>
			<polygon id="Path_4_" class="st2" points="73.9,196.4 176.7,240.9 156.9,272.1 			"/>
			<path id="Path_5_" class="st3" d="M169.6,269.4c4.3,2.7,10,1.5,12.7-2.8c2.7-4.3,1.5-10-2.8-12.8c-4.2-2.8-10-1.5-12.7,2.8
				C164,260.8,165.3,266.6,169.6,269.4"/>
			<path id="Shape" class="st4" d="M185.4,98.8c-4.1-0.3-8.1-0.7-12.2-0.7c-3.2,0-6.4,0.3-9.6,0.5v54h21.8V98.8z M185.4,371.6
				c-4.1-0.3-8.1-0.7-12.2-0.7c-3.2,0-6.4,0.3-9.6,0.5v54h21.8V371.6z M11.5,272.7c-0.3-4.1-0.7-8.1-0.7-12.2c0-3.2,0.3-6.4,0.5-9.6
				h54v21.8H11.5z M284.2,272.7c-0.3-4.1-0.7-8.1-0.7-12.2c0-3.2,0.3-6.4,0.5-9.6h54v21.8H284.2z M264.8,125.7
				c-3.4-2.3-6.7-4.6-10.3-6.6c-2.8-1.6-5.7-2.9-8.6-4.3l-26.8,46.9l18.9,10.8L264.8,125.7z M129.5,362.5c-3.4-2.3-6.7-4.6-10.3-6.6
				c-2.8-1.6-5.7-2.9-8.6-4.3l-26.8,46.9l18.9,10.8L129.5,362.5z M264.3,325.7c1.8-3.7,3.5-7.4,5.5-10.9c1.6-2.8,3.5-5.4,5.2-8.1
				l46.9,26.8l-10.8,18.9L264.3,325.7z M319.3,186.3c-1.9-3.6-3.7-7.3-5.8-10.8c-1.7-2.7-3.6-5.3-5.4-7.9l-46.1,28.1l11.4,18.6
				L319.3,186.3z M86.4,328.2c-1.9-3.6-3.7-7.3-5.8-10.8c-1.7-2.8-3.6-5.3-5.4-7.9l-46.1,28.1l11.4,18.6L86.4,328.2z M80.3,128.3
				c3.3-2.3,6.6-4.8,10.1-6.9c2.8-1.7,5.6-3,8.5-4.6L127,163l-18.6,11.3L80.3,128.3z M222.3,361.2c3.3-2.4,6.6-4.8,10.1-6.9
				c2.7-1.7,5.6-3,8.5-4.6l28.1,46.1l-18.6,11.3L222.3,361.2z"/>
			<path id="Shape_1_" class="st5" d="M326.1,125.2c-3.8,4.7-10.7,5.4-15.3,1.6l-33.9-27.4c-4.7-3.8-5.4-10.7-1.6-15.3l20.6-25.5
				c3.8-4.7,10.7-5.4,15.3-1.6L345,84.4c4.7,3.8,5.4,10.7,1.6,15.3L326.1,125.2z M174.5,87.3C78.2,87.3,0,165.4,0,261.8
				s78.2,174.5,174.5,174.5s174.5-78.2,174.5-174.5S270.9,87.3,174.5,87.3z M174.5,403.6c-78.3,0-141.8-63.5-141.8-141.8
				c0-78.3,63.5-141.8,141.8-141.8s141.8,63.5,141.8,141.8C316.4,340.2,252.9,403.6,174.5,403.6z M229.1,54.5
				c0,6-4.9,10.9-10.9,10.9h-87.3c-6,0-10.9-4.9-10.9-10.9V10.9c0-6,4.9-10.9,10.9-10.9h87.3c6,0,10.9,4.9,10.9,10.9V54.5z"/>
		</g>
	</g>
</g>
</svg>
