<?xml version="1.0" encoding="utf-8"?>
<!-- Generator: Adobe Illustrator 25.0.0, SVG Export Plug-In . SVG Version: 6.00 Build 0)  -->
<svg version="1.1" id="Ebene_1" xmlns="http://www.w3.org/2000/svg" xmlns:xlink="http://www.w3.org/1999/xlink" x="0px" y="0px"
	 viewBox="0 0 17 17" style="enable-background:new 0 0 17 17;" xml:space="preserve">
<style type="text/css">
	.st0{fill:#13D389;}
	.st1{fill:none;stroke:#13D389;stroke-width:1.4;}
</style>
<desc>Created with Sketch.</desc>
<g id="Master">
	<g id="Menu-Monitoring" transform="translate(-271.000000, -487.000000)">
		<g id="workspace" transform="translate(272.000000, 488.000000)">
			<path id="Path" class="st0" d="M12,1.6c-0.4,0-0.6,0.3-0.6,0.6v1H10v-1c0-0.8-1.2-0.8-1.3,0v1H7.3v-1c0-0.8-1.2-0.8-1.3,0v1H4.5
				v-1c0-0.8-1.2-0.8-1.3,0v1h-1c-0.8,0-0.8,1.2,0,1.3h1V6h-1c-0.8,0-0.8,1.2,0,1.3h1v1.4h-1c-0.8,0-0.8,1.2,0,1.3h1v1.4h-1
				c-0.8,0-0.8,1.2,0,1.3h1c0.7,0,1.3-0.6,1.3-1.3V4.5h6.8c0.7,0,1.3-0.6,1.3-1.3v-1C12.6,1.8,12.3,1.6,12,1.6z"/>
			<path id="Rectangle" class="st1" d="M2,0h11c1.1,0,2,0.9,2,2v11c0,1.1-0.9,2-2,2H2c-1.1,0-2-0.9-2-2V2C0,0.9,0.9,0,2,0z"/>
		</g>
	</g>
</g>
</svg>
