<?xml version="1.0" encoding="utf-8"?>
<!-- Generator: Adobe Illustrator 26.0.1, SVG Export Plug-In . SVG Version: 6.00 Build 0)  -->
<svg version="1.1" id="Ebene_1" xmlns="http://www.w3.org/2000/svg" xmlns:xlink="http://www.w3.org/1999/xlink" x="0px" y="0px"
	 viewBox="0 0 62.6 62.6" style="enable-background:new 0 0 62.6 62.6;" xml:space="preserve">
<style type="text/css">
	.st0{fill:#13D389;}
</style>
<path class="st0" d="M32.8,4.8C18.2,4.8,6.4,16.6,6.4,31.2s11.8,26.5,26.4,26.5s26.5-11.8,26.5-26.4c0,0,0,0,0,0
	C59.3,16.6,47.4,4.8,32.8,4.8C32.8,4.8,32.8,4.8,32.8,4.8z M32.8,53.5c-12.3,0-22.3-10-22.3-22.3s10-22.3,22.3-22.3
	s22.3,10,22.3,22.3v0C55.1,43.5,45.1,53.5,32.8,53.5C32.8,53.5,32.8,53.5,32.8,53.5z"/>
<path class="st0" d="M38,43.2L37.6,45c-1.3,0.5-2.3,0.9-3.1,1.2c-0.9,0.3-1.8,0.4-2.7,0.4c-1.3,0.1-2.6-0.3-3.6-1.1
	c-0.8-0.7-1.3-1.8-1.3-2.9c0-0.5,0-0.9,0.1-1.4c0.1-0.5,0.2-1.1,0.3-1.6l1.7-5.7c0.1-0.5,0.3-1.1,0.4-1.5c0.1-0.4,0.1-0.9,0.1-1.3
	c0.1-0.6-0.1-1.1-0.5-1.6c-0.5-0.3-1.1-0.5-1.7-0.4c-0.4,0-0.9,0.1-1.3,0.2c-0.4,0.1-0.8,0.2-1.1,0.4l0.4-1.8c1-0.4,2.1-0.8,3-1.1
	c0.9-0.3,1.8-0.5,2.7-0.5c1.3-0.1,2.6,0.3,3.6,1.1c0.8,0.7,1.3,1.8,1.3,2.9c0,0.2,0,0.7-0.1,1.3c0,0.6-0.2,1.2-0.3,1.7L33.9,39
	c-0.1,0.5-0.3,1-0.3,1.6c-0.1,0.4-0.1,0.9-0.2,1.3c-0.1,0.6,0.1,1.1,0.5,1.5c0.5,0.3,1.1,0.5,1.8,0.4c0.4,0,0.9-0.1,1.3-0.2
	C37.3,43.5,37.7,43.4,38,43.2z M38.4,19.5c0,1-0.4,1.9-1.1,2.5c-0.7,0.7-1.7,1-2.7,1c-1,0-2-0.3-2.7-1c-0.7-0.6-1.1-1.6-1.1-2.5
	c0-1,0.4-1.9,1.1-2.5c1.5-1.4,3.9-1.4,5.4,0C38,17.6,38.4,18.5,38.4,19.5L38.4,19.5z"/>
</svg>
