<?xml version="1.0" encoding="UTF-8"?>
<svg width="18px" height="19px" viewBox="0 0 18 19" version="1.1" xmlns="http://www.w3.org/2000/svg" xmlns:xlink="http://www.w3.org/1999/xlink">
    <title>configuration</title>
    <defs>
        <polygon id="path-1" points="0 5.40000001e-05 17.98938 5.40000001e-05 17.98938 18.562554 0 18.562554"></polygon>
    </defs>
    <g id="design" stroke="none" stroke-width="1" fill="none" fill-rule="evenodd">
        <g id="bar_left_actions" transform="translate(-23.000000, -275.000000)">
            <g id="Nav" transform="translate(-0.000000, 0.000000)">
                <g id="configuration" transform="translate(23.000000, 275.000000)">
                    <mask id="mask-2" fill="white">
                        <use xlink:href="#path-1"></use>
                    </mask>
                    <g id="Clip-2"></g>
                    <path d="M8.994708,5.906304 C10.855638,5.906304 12.369708,7.420284 12.369708,9.281304 C12.369708,11.142324 10.855638,12.656304 8.994708,12.656304 C7.133688,12.656304 5.619708,11.142324 5.619708,9.281304 C5.619708,7.420284 7.133688,5.906304 8.994708,5.906304 M0.113058,12.460554 L1.800558,15.383394 C2.001708,15.731694 2.420748,15.889644 2.801628,15.760764 L5.284728,14.920704 C5.504238,15.065424 5.731758,15.197004 5.965938,15.314814 L6.479838,17.884314 C6.558678,18.278694 6.904998,18.562554 7.307208,18.562554 L10.682208,18.562554 C11.084418,18.562554 11.430738,18.278694 11.509578,17.884314 L12.023478,15.314814 C12.257658,15.197004 12.485178,15.065424 12.704598,14.920704 L15.187788,15.760764 C15.568668,15.889554 15.987708,15.731784 16.188858,15.383394 L17.876358,12.460464 C18.077418,12.112164 18.004698,11.670354 17.702568,11.404854 L15.733278,9.674154 C15.740928,9.543114 15.744708,9.411894 15.744708,9.281304 C15.744708,9.150714 15.740928,9.019494 15.733278,8.888364 L17.702478,7.157754 C18.004608,6.892254 18.077238,6.450444 17.876178,6.102144 L16.188678,3.179214 C15.987618,2.830914 15.568488,2.672874 15.187608,2.801844 L12.704598,3.641904 C12.485178,3.497184 12.257658,3.365604 12.023478,3.247794 L11.509578,0.678294 C11.430738,0.283914 11.084418,5.40000001e-05 10.682208,5.40000001e-05 L7.307208,5.40000001e-05 C6.904998,5.40000001e-05 6.558678,0.283914 6.479838,0.678294 L5.965938,3.247794 C5.731758,3.365604 5.504238,3.497274 5.284818,3.641904 L2.801628,2.801844 C2.420838,2.673054 2.001708,2.830914 1.800558,3.179214 L0.113058,6.102144 C-0.088002,6.450444 -0.015372,6.892254 0.286758,7.157754 L2.255958,8.888364 C2.248488,9.019314 2.244708,9.150534 2.244708,9.281304 C2.244708,9.412074 2.248488,9.543384 2.255958,9.674244 L0.286758,11.404854 C-0.015372,11.670354 -0.088002,12.112164 0.113058,12.460554" id="Fill-1" fill="#505862" mask="url(#mask-2)"></path>
                </g>
            </g>
        </g>
    </g>
</svg>