<?xml version="1.0" encoding="UTF-8"?>
<svg id="Ebene_1" data-name="Ebene 1" xmlns="http://www.w3.org/2000/svg" width="48" height="48" viewBox="0 0 48 48">
  <defs>
    <style>
      .cls-1 {
        fill: #15d1a0;
      }
    </style>
  </defs>
  <g id="Ebene_2-2" data-name="Ebene 2-2">
    <g>
      <g id="Gruppe_1280" data-name="Gruppe 1280">
        <g id="Gruppe_1276" data-name="Gruppe 1276">
          <path id="Pfad_1" data-name="Pfad 1" class="cls-1" d="m2.563,40.5624c-1.6126,0-2.5131-.9117-2.5131-2.6089v-1.2262c0-1.6956.8909-2.6089,2.5003-2.6089,1.4912,0,2.3454.7823,2.4045,2.1283h-.6498c-.0718-1.033-.6626-1.5375-1.7339-1.5375-1.2374,0-1.8505.6738-1.8505,2.0548v1.1544c0,1.3843.6131,2.0548,1.8505,2.0548,1.0713,0,1.6589-.5045,1.7339-1.5375h.6498c-.0591,1.322-.8909,2.1283-2.3917,2.1283m3.9915-.1437v-8.7798h.6738v3.7041c.4295-.7775,1.2533-1.247,2.1411-1.2262,1.2757,0,1.9255.7712,1.9255,2.2257v4.0762h-.6738v-4.0043c0-1.1304-.4327-1.6828-1.3587-1.6828-.867,0-1.5375.4806-2.0341,1.5998v4.0889l-.6738-.0016h0Zm9.0927.1421c-1.6844,0-2.6089-.9133-2.6089-2.6089v-1.2262c0-1.6956.9037-2.6089,2.5498-2.6089s2.537.9133,2.537,2.6089v.7584h-4.413v.4215c0,1.3954.6259,2.0676,1.9127,2.0676,1.108,0,1.7339-.5045,1.8042-1.3587h.6498c-.083,1.2629-.9755,1.9495-2.43,1.9495m-1.9367-3.6546h3.7632v-.1325c0-1.3954-.6131-2.0676-1.8872-2.0676s-1.876.6738-1.876,2.0676v.1325h0Zm8.4046,3.6546c-1.6126,0-2.5131-.9133-2.5131-2.6089v-1.2262c0-1.6956.8909-2.6089,2.5003-2.6089,1.4912,0,2.3454.7823,2.4045,2.1283h-.6498c-.0703-1.033-.6626-1.5375-1.7339-1.5375-1.2374,0-1.8505.6738-1.8505,2.0548v1.1544c0,1.3843.6131,2.0548,1.8505,2.0548,1.0713,0,1.6589-.5045,1.7339-1.5375h.6498c-.0591,1.322-.8909,2.1283-2.3917,2.1283m3.9931-.1437v-8.783h.6738v6.0496l3.4375-3.4295h.867l-2.5258,2.5131,2.5753,3.6419h-.8159l-2.2369-3.1629-1.2996,1.2741v1.8872h-.6722l-.0032.0096h0Zm6.1821,0v-6.2108h.9005l.0367.9755c.3896-.7089,1.1416-1.1416,1.9495-1.1176.867,0,1.4545.3704,1.7084,1.0825.4055-.6865,1.1512-1.1017,1.9495-1.0825,1.2374,0,1.9255.7456,1.9255,2.1171v4.2342h-1.0586v-4.1496c0-.8286-.3624-1.2262-1.0091-1.2262s-1.1799.4087-1.6365,1.3124v4.0666h-1.0586v-4.1496c0-.8286-.3624-1.2262-1.0123-1.2262s-1.1799.4087-1.6365,1.3715v4.0043h-1.0617l.0032-.0016h0Zm10.3684,0v-8.783h1.0586v5.6297l2.8627-3.0543h1.322l-2.3821,2.5258,2.4285,3.6802h-1.2629l-1.9-2.909-1.0713,1.1176v1.7914h-1.0586l.0032.0016h0Z"/>
        </g>
      </g>
      <path id="Pfad_2630" data-name="Pfad 2630" class="cls-1" d="m23.9991,7.4327l8.197,4.7435v9.4855l-8.197,4.7451-8.1986-4.7451v-9.4855l8.1986-4.7435Zm-5.3822,6.9069v3.1469l3.8622-2.4939v6.495l1.5232.8781,1.52-.8781v-6.495l3.859,2.4939v-3.1469l-5.3822-3.3736-5.3822,3.3736h0Z"/>
    </g>
  </g>
</svg>