<?xml version="1.0" encoding="UTF-8"?>
<svg width="18px" height="18px" viewBox="0 0 18 18" version="1.1" xmlns="http://www.w3.org/2000/svg" xmlns:xlink="http://www.w3.org/1999/xlink">
    <title>Shape</title>
    <g id="design" stroke="none" stroke-width="1" fill="none" fill-rule="evenodd">
        <g id="bar_left_actions" transform="translate(-147.000000, -20.000000)" fill="#505862" fill-rule="nonzero">
            <g id="Sidebar" transform="translate(63.000000, 0.000000)">
                <g id="Links" transform="translate(27.000000, 20.000000)">
                    <path d="M66,0 C61.0294373,0 57,4.02943725 57,9 C57,13.9705627 61.0294373,18 66,18 C70.9705627,18 75,13.9705627 75,9 C74.9944201,4.03175034 70.9682497,0.00557987012 66,0 Z M65.1,10.2 C64.4372583,9.70294373 64.3029437,8.7627417 64.8,8.1 C65.296875,7.43728125 67.8,6.6 67.8,6.6 C67.8,6.6 67.696875,9.23728125 67.2,9.9 C66.9613052,10.2182598 66.6059584,10.4286633 66.212132,10.4849242 C65.8183056,10.5411852 65.4182598,10.4386948 65.1,10.2 L65.1,10.2 Z M66.046875,15.796875 L66.046875,14.296875 C68.9463699,14.296875 71.296875,11.9463699 71.296875,9.046875 C71.296875,6.14738006 68.9463699,3.796875 66.046875,3.796875 C63.1473801,3.796875 60.796875,6.14738006 60.796875,9.046875 L59.296875,9.046875 C59.296875,5.31895294 62.3189529,2.296875 66.046875,2.296875 C69.7747971,2.296875 72.796875,5.31895294 72.796875,9.046875 C72.796875,12.7747971 69.7747971,15.796875 66.046875,15.796875 Z" id="Shape"></path>
                </g>
            </g>
        </g>
    </g>
</svg>