<?xml version="1.0" encoding="utf-8"?>
<svg version="1.1" id="Ebene_1" xmlns="http://www.w3.org/2000/svg" xmlns:xlink="http://www.w3.org/1999/xlink" x="0px" y="0px"
	 viewBox="0 0 378 387" style="enable-background:new 0 0 378 387;" xml:space="preserve">
<style type="text/css">
	.st0{fill-rule:evenodd;clip-rule:evenodd;fill:#A1D35F;}
	.st1{opacity:0.2;fill-rule:evenodd;clip-rule:evenodd;fill:#657F3B;enable-background:new    ;}
</style>
<g id="Menu-Icons-EXPORT">
	<g id="EXPORT" transform="translate(-518.000000, -537.000000)">
		<g id="extension-packages" transform="translate(518.000000, 537.000000)">
			<path id="Fill-1" class="st0" d="M296,234.3c0,28.6,23,51.7,51.7,51.7c10.5,0,20.9-3.5,30-9.8v110.3H271.6
				c16.8-23,11.2-55.2-11.9-71.9c-9.1-6.3-19.5-9.8-30-9.8H229c-28.6,0.7-51,23.7-51,52.4c0,10.5,3.5,20.9,9.8,29.3H82.4V274.8
				c-23,16.8-55.2,11.2-71.9-11.9c-16.8-22.3-11.2-54.5,11.9-71.2c18.2-13.3,42.6-13.3,60,0V82.1h105.4
				c-16.8-23-11.2-55.2,11.9-71.9c8.4-6.3,18.9-9.8,29.3-9.8h0.7c28.6,0,51.7,23,51.7,51.7c0,10.5-3.5,20.9-9.8,30H377v110.3
				c-23-16.8-55.2-11.2-71.9,11.9C298.8,213.3,296,223.8,296,234.3"/>
			<path id="Fill-4" class="st1" d="M296,234.3c0,28.6,23,51.7,51.7,51.7c10.5,0,20.9-3.5,30-9.8v110.3H271.6
				c16.8-23,11.2-55.2-11.9-71.9c-9.1-6.3-19.5-9.8-30-9.8H229V0.4h0.7c28.6,0,51.7,23,51.7,51.7c0,10.5-3.5,20.9-9.8,30H377v110.3
				c-23-16.8-55.2-11.2-71.9,11.9C298.8,213.3,296,223.8,296,234.3"/>
		</g>
	</g>
</g>
</svg>
