<?xml version="1.0" encoding="utf-8"?>
<!-- Generator: Adobe Illustrator 25.0.0, SVG Export Plug-In . SVG Version: 6.00 Build 0)  -->
<svg version="1.1" id="Ebene_1" xmlns="http://www.w3.org/2000/svg" xmlns:xlink="http://www.w3.org/1999/xlink" x="0px" y="0px"
	 viewBox="0 0 264 245" style="enable-background:new 0 0 264 245;" xml:space="preserve">
<style type="text/css">
	.st0{fill:#1697C4;}
	.st1{fill:#B3E3FA;}
</style>
<desc>Created with Sketch.</desc>
<g id="Icons">
	<g id="Artboard" transform="translate(-378.000000, -516.000000)">
		
			<g id="copy" transform="translate(510.000000, 638.500000) rotate(-180.000000) translate(-510.000000, -638.500000) translate(378.000000, 516.000000)">
			<path id="Path" class="st0" d="M244.8,0H98.3C87.9,0,79.4,8.5,79.4,18.9v24.4c4,0,83,0,86.1,0c20,0,36.2,16.2,36.2,36.2
				c0,3.7,0,83.8,0,84.8h43c10.4,0,18.9-8.5,18.9-18.9V18.9C263.7,8.5,255.2,0,244.8,0z"/>
			<path id="Path_1_" class="st1" d="M165.5,60.6H19c-10.4,0-18.9,8.5-18.9,18.9V226C0.1,236.5,8.6,245,19,245h146.5
				c10.4,0,18.9-8.5,18.9-18.9V79.6C184.4,69.1,175.9,60.6,165.5,60.6z"/>
		</g>
	</g>
</g>
</svg>
