<?xml version="1.0" encoding="utf-8"?>
<!-- Generator: Adobe Illustrator 26.0.1, SVG Export Plug-In . SVG Version: 6.00 Build 0)  -->
<svg version="1.1" id="Ebene_1" xmlns="http://www.w3.org/2000/svg" xmlns:xlink="http://www.w3.org/1999/xlink" x="0px" y="0px"
	 viewBox="0 0 62.6 62.6" style="enable-background:new 0 0 62.6 62.6;" xml:space="preserve">
<style type="text/css">
	.st0{fill:#13D389;}
</style>
<path class="st0" d="M59.7,19.7l-27.6-12c-0.5-0.2-1-0.2-1.5,0l-27.7,12C2,20.1,1.6,21.2,2,22.1c0.2,0.4,0.5,0.8,0.9,0.9l10,4.3
	v16.4c0,6.2,8.1,11.1,18.4,11.1S49.8,50,49.8,43.8V27.4l1.8-0.8v19.7c-0.1,1,0.7,1.9,1.7,2c1,0.1,1.9-0.7,2-1.7c0-0.1,0-0.2,0-0.3
	V25l4.4-1.9c0.9-0.4,1.3-1.5,0.9-2.5C60.4,20.2,60.1,19.9,59.7,19.7z M31.3,11.4l23,10l-1.8,0.8l-21-2.6c-1-0.1-1.9,0.6-2.1,1.6
	s0.6,1.9,1.6,2.1l0,0l14.8,1.9l-14.5,6.3l-23-10L31.3,11.4z M46.1,43.8c0,1.7-1.4,3.5-3.9,4.9c-5.9,3.3-15.7,3.3-21.7,0
	c-2.5-1.4-3.9-3.2-3.9-4.9V29l14,6.1c0.5,0.2,1,0.2,1.5,0L46,29L46.1,43.8z"/>
</svg>
