<?xml version="1.0" encoding="utf-8"?>
<!-- Generator: Adobe Illustrator 25.0.0, SVG Export Plug-In . SVG Version: 6.00 Build 0)  -->
<svg version="1.1" id="Ebene_1" xmlns="http://www.w3.org/2000/svg" xmlns:xlink="http://www.w3.org/1999/xlink" x="0px" y="0px"
	 viewBox="0 0 239 219" style="enable-background:new 0 0 239 219;" xml:space="preserve">
<style type="text/css">
	.st0{fill:#F5F0FF;}
	.st1{fill:#54C2CB;}
	.st2{fill:#82DDE4;}
	.st3{fill:#045873;}
</style>
<desc>Created with Sketch.</desc>
<g id="Icons">
	<g id="Artboard" transform="translate(-391.000000, -529.000000)">
		<g id="rules" transform="translate(391.000000, 529.000000)">
			<path id="Path" class="st0" d="M162.2,218.7L162.2,218.7H29.8C13.2,218.7,0,205.3,0,189v-19.2h35h99.3V189
				C134.3,205,146.7,217.7,162.2,218.7z"/>
			<path id="Path_1_" class="st1" d="M238,22.3v35.3h-44.2V22.3c0-12.4,10-22.1,22.1-22.1c6.1,0,11.6,2.4,15.8,6.6
				C235.7,10.7,238,16.2,238,22.3z"/>
			<path id="Path_2_" class="st2" d="M57.1,0.2h158.8c-12.1,0-22.1,9.7-22.1,22.1v35.3V189c0,8.2-3.2,15.5-8.7,21.1
				c-5.3,5.3-12.9,8.7-21.1,8.7c-0.5,0-1.3,0-1.8,0c-15.5-1.1-27.9-13.7-27.9-29.8v-19.2H35v-0.3L36.1,21
				C36.1,9.4,45.6,0.2,57.1,0.2z"/>
			<g id="Group" transform="translate(60.482030, 35.785201)">
				<path id="Path_3_" class="st3" d="M8.2,16.3h40.8c4.5,0,7.9-3.4,7.9-7.9s-3.4-7.9-7.9-7.9H8.2c-4.5,0-7.9,3.4-7.9,7.9
					S3.8,16.3,8.2,16.3z"/>
				<path id="Path_4_" class="st3" d="M8.2,47.9h88.2c4.5,0,7.9-3.4,7.9-7.9c0-4.5-3.4-7.9-7.9-7.9H8.2c-4.5,0-7.9,3.4-7.9,7.9
					S3.8,47.9,8.2,47.9z"/>
				<path id="Path_5_" class="st3" d="M96.5,63.7H8.2c-4.5,0-7.9,3.4-7.9,7.9c0,4.5,3.4,7.9,7.9,7.9h88.2c4.5,0,7.9-3.4,7.9-7.9
					S100.9,63.7,96.5,63.7z"/>
				<path id="Path_6_" class="st3" d="M96.5,95.3H8.2c-4.5,0-7.9,3.4-7.9,7.9c0,4.5,3.4,7.9,7.9,7.9h88.2c4.5,0,7.9-3.4,7.9-7.9
					S100.9,95.3,96.5,95.3z"/>
			</g>
		</g>
	</g>
</g>
</svg>
