<?xml version="1.0" encoding="utf-8"?>
<svg version="1.1" id="Ebene_1" xmlns="http://www.w3.org/2000/svg" xmlns:xlink="http://www.w3.org/1999/xlink" x="0px" y="0px"
	 viewBox="0 0 360 324" style="enable-background:new 0 0 360 324;" xml:space="preserve">
<style type="text/css">
	.st0{fill:#28A2F3;}
	.st1{fill:#2E7D32;}
	.st2{fill:#CFD8DC;}
	.st3{fill:#37474F;}
	.st4{fill:#FFECB3;}
</style>
<g id="Menu-Icons-EXPORT">
	<g id="EXPORT" transform="translate(-311.000000, -488.000000)">
		<g id="hw_x2F_sw-inventory" transform="translate(311.000000, 488.000000)">
			<path id="Path" class="st0" d="M342,18c9.9,0,18,8.1,18,18v270c0,9.9-8.1,18-18,18H18c-9.9,0-18-8.1-18-18V36c0-9.9,8.1-18,18-18
				H342z"/>
			<path id="Shape" class="st1" d="M27,36c-5,0-9,4-9,9s4,9,9,9s9-4,9-9S32,36,27,36z M333,36c-5,0-9,4-9,9s4,9,9,9s9-4,9-9
				S338,36,333,36z M27,288c-5,0-9,4-9,9s4,9,9,9s9-4,9-9S32,288,27,288z M333,288c-5,0-9,4-9,9s4,9,9,9s9-4,9-9S338,288,333,288z"
				/>
			<path id="Shape_1_" class="st2" d="M162,0h18v36h-18V0z M108,0h36v45h-36V0z M180,81h126v126H180V81z"/>
			<polygon id="Path_1_" class="st3" points="198,99 288,99 288,189 198,189 			"/>
			<polygon id="Path_2_" class="st4" points="144,270 306,270 306,288 144,288 			"/>
			<path id="Shape_2_" class="st4" d="M54,81h18v126H54V81z M90,81h18v126H90V81z M126,81h18v126h-18V81z"/>
		</g>
	</g>
</g>
</svg>
