<?xml version="1.0" encoding="utf-8"?>
<!-- Generator: Adobe Illustrator 25.2.1, SVG Export Plug-In . SVG Version: 6.00 Build 0)  -->
<svg version="1.1" id="Ebene_1" xmlns="http://www.w3.org/2000/svg" xmlns:xlink="http://www.w3.org/1999/xlink" x="0px" y="0px"
	 viewBox="0 0 343 344" style="enable-background:new 0 0 343 344;" xml:space="preserve">
<style type="text/css">
	.st0{fill-rule:evenodd;clip-rule:evenodd;fill:#F44336;}
</style>
<g id="Page-1">
	<g id="cancel" transform="translate(0.692659, 0.989534)">
		<path id="Rectangle" class="st0" d="M303.3,11.3l27.6,27.6c6.2,6.2,6.2,16.4,0,22.6L61.5,330.9c-6.2,6.2-16.4,6.2-22.6,0
			l-27.6-27.6c-6.2-6.2-6.2-16.4,0-22.6L280.7,11.3C287,5.1,297.1,5.1,303.3,11.3z"/>
		<path id="Rectangle_1_" class="st0" d="M11.3,38.9l27.6-27.6c6.2-6.2,16.4-6.2,22.6,0l269.4,269.4c6.2,6.2,6.2,16.4,0,22.6
			l-27.6,27.6c-6.2,6.2-16.4,6.2-22.6,0L11.3,61.5C5.1,55.3,5.1,45.1,11.3,38.9z"/>
	</g>
</g>
</svg>
