<?xml version="1.0" encoding="utf-8"?>
<!-- Generator: Adobe Illustrator 25.0.0, SVG Export Plug-In . SVG Version: 6.00 Build 0)  -->
<svg version="1.1" id="Ebene_1" xmlns="http://www.w3.org/2000/svg" xmlns:xlink="http://www.w3.org/1999/xlink" x="0px" y="0px"
	 viewBox="0 0 228 247" style="enable-background:new 0 0 228 247;" xml:space="preserve">
<style type="text/css">
	.st0{fill:none;stroke:#1C5AB5;stroke-width:12.6;}
	.st1{fill:#178FDE;}
	.st2{fill:#28A2F3;}
	.st3{fill:#28A2F3;stroke:#1C5AB7;stroke-width:12.6;stroke-linecap:round;stroke-linejoin:round;}
</style>
<desc>Created with Sketch.</desc>
<g id="Icons">
	<g id="Artboard" transform="translate(-293.000000, -879.000000)">
		<g id="robot_yellow" transform="translate(293.000000, 886.000000)">
			<path id="Path" class="st0" d="M114,50.4V18.6C114,8.3,122.3,0,132.6,0h0.6c10.3,0,18.6,8.3,18.6,18.6l0,0"/>
			<path id="Path_1_" class="st1" d="M187.6,107h13.8c14.4,0,26,11.7,26,26v36.1c0,14.4-11.7,26-26,26h-13.8V107z"/>
			<path id="Path_2_" class="st1" d="M40.4,107H26.6c-14.4,0-26,11.7-26,26v36.1c0,14.4,11.7,26,26,26h13.8V107L40.4,107z"/>
			<path id="Path_3_" class="st1" d="M122.6,37.8h-17.2c-16.1,0-29.2,13.1-29.2,29.2c0,4.8,3.9,8.6,8.6,8.6h58.4
				c4.8,0,8.6-3.9,8.6-8.6C151.8,50.9,138.7,37.8,122.6,37.8z"/>
			<path id="Path_4_" class="st2" d="M170.6,56.7H57.4c-20.9,0-37.9,16.9-37.9,37.8v107.2c0,20.8,17,37.8,37.9,37.8h113.2
				c20.9,0,37.9-16.9,37.9-37.8V94.5C208.5,73.6,191.5,56.7,170.6,56.7z"/>
			<circle id="Oval" class="st2" cx="151.8" cy="25.2" r="12.6"/>
			<circle id="Oval_1_" class="st3" cx="158.1" cy="126" r="18.9"/>
			<circle id="Oval_2_" class="st3" cx="74.1" cy="126" r="18.9"/>
		</g>
	</g>
</g>
</svg>
