<?xml version="1.0" encoding="utf-8"?>
<svg version="1.1" id="Ebene_1" xmlns="http://www.w3.org/2000/svg" xmlns:xlink="http://www.w3.org/1999/xlink" x="0px" y="0px"
	 viewBox="0 0 375 384" style="enable-background:new 0 0 375 384;" xml:space="preserve">
<style type="text/css">
	.st0{fill:#E1DCF3;}
	.st1{fill:#BCB7D0;}
</style>
<g id="Menu-Icons-EXPORT">
	<g id="EXPORT" transform="translate(-518.000000, -541.000000)">
		<g id="global-settings" transform="translate(518.000000, 541.000000)">
			<path id="Shape" class="st0" d="M329.6,212.1c0.9-6.4,1.8-12.8,1.8-20.1s-0.9-13.7-1.8-20.1l41.1-29.3c3.7-2.7,5.5-8.2,2.7-12.8
				l-40.2-67.7c-2.7-4.6-7.3-6.4-11.9-3.7l-45.7,21c-11-8.2-21.9-14.6-34.7-20.1l-4.6-50.3c-0.9-4.6-4.6-8.2-9.1-8.2h-78.6
				c-4.6,0-9.1,3.7-9.1,8.2l-4.6,50.3c-12.8,5.5-24.7,11.9-34.7,20.1l-45.7-21c-4.6-1.8-10.1,0-11.9,3.7L3.2,129.8
				c-2.7,4.6-0.9,10.1,2.7,12.8l41.1,29.3c-0.9,6.4-1.8,12.8-1.8,20.1s0.9,13.7,1.8,20.1l-43,29.3c-3.7,2.7-5.5,8.2-2.7,12.8
				l39.3,67.7c2.7,4.6,7.3,6.4,11.9,3.7l45.7-21c11,8.2,21.9,14.6,34.7,20.1l4.6,50.3c0.9,4.6,4.6,8.2,9.1,8.2h78.6
				c4.6,0,9.1-3.7,9.1-8.2l4.6-50.3c12.8-5.5,24.7-11.9,34.7-20.1l45.7,21c4.6,1.8,10.1,0,11.9-3.7l39.3-67.7
				c2.7-4.6,0.9-10.1-2.7-12.8L329.6,212.1z M187,283.4c-50.3,0-91.4-41.1-91.4-91.4s41.1-91.4,91.4-91.4s91.4,41.1,91.4,91.4
				S237.3,283.4,187,283.4z"/>
			<path id="Shape_1_" class="st1" d="M187,82.3c-60.3,0-109.7,49.4-109.7,109.7S126.7,301.7,187,301.7S296.7,252.3,296.7,192
				S247.3,82.3,187,82.3z M187,237.7c-25.6,0-45.7-20.1-45.7-45.7s20.1-45.7,45.7-45.7s45.7,20.1,45.7,45.7S212.6,237.7,187,237.7z"
				/>
		</g>
	</g>
</g>
</svg>
