<?xml version="1.0" encoding="utf-8"?>
<!-- Generator: Adobe Illustrator 25.0.0, SVG Export Plug-In . SVG Version: 6.00 Build 0)  -->
<svg version="1.1" id="Ebene_1" xmlns="http://www.w3.org/2000/svg" xmlns:xlink="http://www.w3.org/1999/xlink" x="0px" y="0px"
	 viewBox="0 0 258 257" style="enable-background:new 0 0 258 257;" xml:space="preserve">
<style type="text/css">
	.st0{fill:#22814C;}
	.st1{fill:#42D389;}
</style>
<g id="Icons">
	<g id="EXIT" transform="translate(-359.000000, -510.000000)">
		<g id="main_dashboard_green" transform="translate(359.000000, 510.000000)">
			<path id="Path" class="st0" d="M129,0.1C58.2,0.1,0.8,57.6,0.8,128.3S58.2,256.4,129,256.4S257.1,199,257.1,128.3
				S199.7,0.1,129,0.1z"/>
			<path id="Shape" class="st1" d="M129,0.1C58.2,0.1,0.8,57.6,0.8,128.3S58.2,256.4,129,256.4S257.1,199,257.1,128.3
				S199.7,0.1,129,0.1z M219,185.7v-16.3l-8.2-16.3l-8.2-16.3v-16.3l-12.3-8.2l-16.3,4.2l-28.5-12.3l-4.2-28.6l12.3-12.3h24.5
				l8.2,12.3l24.5,4.2l12.3-4.2c8.8,15.7,13.8,33.6,13.8,52.8c0,21.4-6.2,41.4-17.1,58.2L219,185.7z M207.7,54.5l-1,0.6L186.2,51
				l-12.3-4.2L157.6,51l-12-4l8.2-16.3h16.3l2.4-1.1C185.8,35.3,197.8,44,207.7,54.5z M98.1,24.8l2.6,1.8l24.5,4.2L121,43l-12.2,4
				L96.5,67.5L76,79.8L47.4,84v12.3l8.2,8.2v16.3l12.3-12.3l8.2,16.3l27-1.6l13.9,22.1h16.3l-4.2,20.5L112.8,182v12.3l-16.3,12.3
				v20.5L84.2,223L76,202.5v-40.8l-20.5-4.2l-8.2-16.3v-12.6l8.2-8.2l-12.3-8.2l-12.3-8.2l-3.7-12C38.7,59.8,65.1,34.7,98.1,24.8z"
				/>
		</g>
	</g>
</g>
</svg>
