<svg width="20" height="20" viewBox="0 0 20 20" fill="none" xmlns="http://www.w3.org/2000/svg">
<circle cx="10" cy="10" r="9.5" fill="#13D389"/>
<path fill-rule="evenodd" clip-rule="evenodd" d="M14.0303 5.46967C14.3232 5.76256 14.3232 6.23744 14.0303 6.53033L8.03034 12.5303C7.75323 12.8074 7.30947 12.8245 7.01192 12.5694L3.51192 9.56944C3.19743 9.29988 3.161 8.8264 3.43057 8.51191C3.70014 8.19741 4.17361 8.16099 4.48811 8.43056L7.46079 10.9786L12.9697 5.46967C13.2626 5.17678 13.7375 5.17678 14.0303 5.46967Z" fill="#20272E"/>
<path d="M13.625 10.5C13.625 10.2239 13.4011 10 13.125 10H12.875C12.5989 10 12.375 10.2239 12.375 10.5V11.875H11C10.7239 11.875 10.5 12.0989 10.5 12.375V12.625C10.5 12.9011 10.7239 13.125 11 13.125H12.375V14.5C12.375 14.7761 12.5989 15 12.875 15H13.125C13.4011 15 13.625 14.7761 13.625 14.5V13.125H15C15.2761 13.125 15.5 12.9011 15.5 12.625V12.375C15.5 12.0989 15.2761 11.875 15 11.875H13.625V10.5Z" fill="#20272E"/>
</svg>
