<svg width="20" height="20" viewBox="0 0 20 20" fill="none" xmlns="http://www.w3.org/2000/svg">
<g clip-path="url(#clip0_103_45)">
<path d="M10 0H10.5V2.06574L12.7227 0.583975L13.2774 1.41603L10.5 3.26759V5.79289L11.6465 4.64645L12.3536 5.35355L10.5 7.20711V9.03949L12.001 7.98847L12.4562 5.40697L13.441 5.58062L13.1595 7.17731L15.2281 5.72886L15.1518 2.39177L16.1515 2.36891L16.2126 5.0395L17.9047 3.85464L18.4783 4.67379L16.7862 5.85865L19.2748 6.82944L18.9114 7.76106L15.8017 6.54801L13.7331 7.99646L15.3297 8.278L15.1561 9.26281L12.5746 8.80762L10.8717 9.99998L12.5746 11.1923L15.1561 10.7372L15.3297 11.722L13.7331 12.0035L15.8017 13.452L18.9114 12.2389L19.2748 13.1705L16.7862 14.1413L18.4783 15.3262L17.9047 16.1453L16.2126 14.9605L16.1515 17.6311L15.1518 17.6082L15.2281 14.2711L13.1595 12.8227L13.441 14.4193L12.4562 14.593L12.001 12.0115L10.5 10.9605V12.7929L12.3536 14.6464L11.6465 15.3536L10.5 14.2071V16.7324L13.2774 18.584L12.7227 19.416L10.5 17.9343V20H10V0Z" fill="#28A2F3"/>
<path d="M9.50001 20H10V0H9.50001V2.06574L7.27736 0.583975L6.72266 1.41603L9.50001 3.26759V5.79289L8.35356 4.64645L7.64645 5.35355L9.50001 7.20711V9.03949L7.99899 7.98847L7.54381 5.40698L6.559 5.58062L6.84054 7.17731L4.77193 5.72886L4.84824 2.39177L3.8485 2.36891L3.78743 5.03951L2.09528 3.85464L1.5217 4.6738L3.21386 5.85866L0.725204 6.82944L1.08862 7.76107L4.19835 6.54801L6.26696 7.99646L4.67027 8.278L4.84392 9.26281L7.42542 8.80762L9.12828 9.99998L7.42542 11.1923L4.84392 10.7372L4.67027 11.722L6.26696 12.0035L4.19835 13.452L1.08862 12.2389L0.725204 13.1705L3.21386 14.1413L1.5217 15.3262L2.09528 16.1453L3.78743 14.9605L3.8485 17.6311L4.84824 17.6082L4.77193 14.2711L6.84054 12.8227L6.559 14.4193L7.54381 14.593L7.99899 12.0115L9.50001 10.9605V12.7929L7.64645 14.6464L8.35356 15.3536L9.50001 14.2071V16.7324L6.72266 18.584L7.27736 19.416L9.50001 17.9343V20Z" fill="#50E6FF"/>
</g>
<defs>
<clipPath id="clip0_103_45">
<rect width="20" height="20" fill="white" transform="matrix(1 0 0 -1 0 20)"/>
</clipPath>
</defs>
</svg>
