<?xml version="1.0" encoding="utf-8"?>
<!-- Generator: Adobe Illustrator 26.0.1, SVG Export Plug-In . SVG Version: 6.00 Build 0)  -->
<svg version="1.1" id="Ebene_1" xmlns="http://www.w3.org/2000/svg" xmlns:xlink="http://www.w3.org/1999/xlink" x="0px" y="0px"
	 viewBox="0 0 280 260" style="enable-background:new 0 0 280 260;" xml:space="preserve">
<style type="text/css">
	.st0{fill:#1697C4;}
	.st1{fill:#B3E3FA;}
</style>
<g id="Icons">
	<g id="Icon-EXPORT" transform="translate(-905.000000, -1124.000000)">
		<g id="forum" transform="translate(905.000000, 1124.000000)">
			<path id="Path" class="st0" d="M243,0H87.1c-20.3,0-37,15.7-37,34.9v11.9h141c20.3,0,37,15.7,37,34.9v86.9H243
				c20.3,0,37-15.7,37-34.9V34.9C280,15.7,263.4,0,243,0z"/>
			<path id="Path_00000155838596707046273180000010909227954268575106_" class="st1" d="M192.9,45.1H37C16.6,45.1,0,60.8,0,80v98.8
				c0,19.2,16.6,34.9,37,34.9h93.6c4,0,7,3.5,6.1,7.2c-2.5,10-6.3,20.5-11.9,31.3c-2.5,4.9,3.2,9.8,8.1,6.9
				c14.1-8.2,34.1-22,51-41.4c2.2-2.6,5.6-4,9.1-4c20.3,0,37-15.7,37-34.9V80C229.8,60.8,213.2,45.1,192.9,45.1z"/>
			<g id="Group" transform="translate(38.981250, 120.695394)">
				<ellipse id="Oval" class="st0" cx="12.3" cy="11.6" rx="12.3" ry="11.6"/>
				<ellipse id="Oval_00000071528658498490241180000012599494823925466516_" class="st0" cx="51.9" cy="11.6" rx="12.3" ry="11.6"/>
				<ellipse id="Oval_00000001660032110768540990000014374765241247447699_" class="st0" cx="91.5" cy="11.6" rx="12.3" ry="11.6"/>
				
					<ellipse id="Oval_00000021828855515103509900000013923289600252298383_" class="st0" cx="131.1" cy="11.6" rx="12.3" ry="11.6"/>
			</g>
		</g>
	</g>
</g>
</svg>
