<?xml version="1.0" encoding="UTF-8"?>
<svg width="19px" height="18px" viewBox="0 0 19 18" version="1.1" xmlns="http://www.w3.org/2000/svg" xmlns:xlink="http://www.w3.org/1999/xlink">
    <title>Shape</title>
    <g id="design" stroke="none" stroke-width="1" fill="none" fill-rule="evenodd">
        <g id="bar_left_actions" transform="translate(-263.000000, -20.000000)" fill="#505862" fill-rule="nonzero">
            <g id="Sidebar" transform="translate(63.000000, 0.000000)">
                <g id="Links" transform="translate(27.000000, 20.000000)">
                    <path d="M191.057924,13.341708 L184.539548,1.34154 C184.047572,0.513324 183.178676,0.018684 182.215316,0.018684 C181.251956,0.018684 180.38306,0.513324 179.891084,1.34154 C179.887376,1.347876 179.884244,1.354212 179.880536,1.360548 L173.383832,13.322736 C172.881308,14.168412 172.871804,15.184008 173.357948,16.039188 C173.845208,16.894872 174.723032,17.405316 175.707524,17.405316 L188.687108,17.405316 C189.6716,17.405316 190.585496,16.894872 191.07272,16.039188 C191.558864,15.184044 191.549396,14.168376 191.057924,13.341708 Z M181.134236,5.513328 C181.134236,4.916232 181.618256,4.432248 182.215316,4.432248 C182.812412,4.432248 183.296396,4.916268 183.296396,5.513328 L183.296396,9.837684 C183.296396,10.434708 182.812376,10.918764 182.215316,10.918764 C181.618256,10.918764 181.134236,10.434672 181.134236,9.837684 L181.134236,5.513328 L181.134236,5.513328 Z M182.215316,15.243156 C181.321112,15.243156 180.59366,14.51574 180.59366,13.6215 C180.59366,12.727296 181.321076,11.99988 182.215316,11.99988 C183.10952,11.99988 183.836936,12.727296 183.836936,13.6215 C183.836972,14.515704 183.109556,15.243156 182.215316,15.243156 Z" id="Shape"></path>
                </g>
            </g>
        </g>
    </g>
</svg>