<?xml version="1.0" encoding="utf-8"?>
<!-- Generator: Adobe Illustrator 25.0.0, SVG Export Plug-In . SVG Version: 6.00 Build 0)  -->
<svg version="1.1" id="Ebene_1" xmlns="http://www.w3.org/2000/svg" xmlns:xlink="http://www.w3.org/1999/xlink" x="0px" y="0px"
	 viewBox="0 0 260 260" style="enable-background:new 0 0 260 260;" xml:space="preserve">
<style type="text/css">
	.st0{fill-rule:evenodd;clip-rule:evenodd;fill:#28A2F3;}
	.st1{filter:url(#Adobe_OpacityMaskFilter);}
	.st2{fill-rule:evenodd;clip-rule:evenodd;fill:#FFFFFF;}
	.st3{mask:url(#mask-2_1_);fill-rule:evenodd;clip-rule:evenodd;fill:#178FDE;}
</style>
<desc>Created with Sketch.</desc>
<g id="Icons">
	<g id="Artboard" transform="translate(-380.000000, -508.000000)">
		<g id="update-host-labels" transform="translate(380.000000, 508.000000)">
			<g id="Oval-2">
				<path id="path-1_1_" class="st0" d="M130,260c71.8,0,130-58.2,130-130S201.8,0,130,0S0,58.2,0,130S58.2,260,130,260z M175.8,200
					H84.2c-2.3,0-4.2,2.2-4.2,5v10c0,2.8,1.9,5,4.2,5h91.7c2.3,0,4.2-2.2,4.2-5v-10C180,202.2,178.1,200,175.8,200z M188,125.4
					l-8.9-9.5c-2.5-2.6-6.7-2.9-9.5-0.6l-26.5,21.9V46.4c0-3.5-3-6.4-6.7-6.4h-13.5c-3.7,0-6.7,2.9-6.7,6.4v90.8l-26.5-21.9
					c-2.8-2.3-7-2-9.5,0.6l-8.9,9.5c-2.5,2.6-2.2,6.7,0.6,9l53.3,44.1c2.5,2.1,6.3,2.1,8.9,0l53.3-44.1
					C190.1,132.1,190.4,128,188,125.4z"/>
			</g>
			<defs>
				<filter id="Adobe_OpacityMaskFilter" filterUnits="userSpaceOnUse" x="120" y="0" width="160" height="260">
					<feColorMatrix  type="matrix" values="1 0 0 0 0  0 1 0 0 0  0 0 1 0 0  0 0 0 1 0"/>
				</filter>
			</defs>
			<mask maskUnits="userSpaceOnUse" x="120" y="0" width="160" height="260" id="mask-2_1_">
				<g class="st1">
					<path id="path-1_2_" class="st2" d="M130,260c71.8,0,130-58.2,130-130S201.8,0,130,0S0,58.2,0,130S58.2,260,130,260z
						 M175.8,200H84.2c-2.3,0-4.2,2.2-4.2,5v10c0,2.8,1.9,5,4.2,5h91.7c2.3,0,4.2-2.2,4.2-5v-10C180,202.2,178.1,200,175.8,200z
						 M188,125.4l-8.9-9.5c-2.5-2.6-6.7-2.9-9.5-0.6l-26.5,21.9V46.4c0-3.5-3-6.4-6.7-6.4h-13.5c-3.7,0-6.7,2.9-6.7,6.4v90.8
						l-26.5-21.9c-2.8-2.3-7-2-9.5,0.6l-8.9,9.5c-2.5,2.6-2.2,6.7,0.6,9l53.3,44.1c2.5,2.1,6.3,2.1,8.9,0l53.3-44.1
						C190.1,132.1,190.4,128,188,125.4z"/>
				</g>
			</mask>
			<rect id="Rectangle" x="120" class="st3" width="160" height="260"/>
		</g>
	</g>
</g>
</svg>
