<?xml version="1.0" encoding="UTF-8"?>
<svg width="19px" height="17px" viewBox="0 0 19 17" version="1.1" xmlns="http://www.w3.org/2000/svg" xmlns:xlink="http://www.w3.org/1999/xlink">
    <title>Shape</title>
    <g id="design" stroke="none" stroke-width="1" fill="none" fill-rule="evenodd">
        <g id="bar_left_actions" transform="translate(-203.000000, -21.000000)" fill="#505862" fill-rule="nonzero">
            <g id="Sidebar" transform="translate(63.000000, 0.000000)">
                <g id="Links" transform="translate(27.000000, 20.000000)">
                    <path d="M131.286848,6.730696 C131.142452,6.530248 130.91054,6.411988 130.664012,6.411988 L129.896024,6.411988 L129.896024,4.107988 C129.896024,3.683296 129.551972,3.34 129.128036,3.34 L122.533952,3.34 L120.454988,1.261 C120.311384,1.116604 120.115544,1.035964 119.912,1.035964 L113.767988,1.035964 C113.344052,1.035964 113,1.37926 113,1.803952 L113,16.39594 C113,16.40746 113.005364,16.417432 113.006156,16.428952 C113.009216,16.500376 113.020736,16.570252 113.043776,16.63786 C113.047628,16.64938 113.04914,16.661656 113.052992,16.673176 C113.076788,16.73308 113.10674,16.791436 113.145152,16.84522 C113.15282,16.855984 113.163584,16.863652 113.171252,16.873624 C113.183528,16.888996 113.197352,16.902028 113.21042,16.916644 C113.255744,16.965028 113.306432,17.007256 113.361728,17.041816 C113.374796,17.050276 113.386316,17.060248 113.40014,17.067916 C113.470016,17.105536 113.545292,17.131672 113.623628,17.147008 C113.631296,17.147764 113.637452,17.153164 113.64512,17.15392 C113.685836,17.160832 113.726516,17.163892 113.767232,17.163892 L113.767988,17.163892 L127.591988,17.163892 C127.923008,17.163892 128.216372,16.95268 128.320808,16.63858 L131.392796,7.42258 C131.470412,7.189192 131.431244,6.931144 131.286848,6.730696 Z M128.360012,6.411952 L116.840012,6.411952 C116.508992,6.411952 116.216384,6.623164 116.111192,6.937264 L114.536012,11.662768 L114.536012,2.571976 L119.594048,2.571976 L121.673012,4.65094 C121.817408,4.795336 122.012456,4.875976 122.216,4.875976 L128.360012,4.875976 L128.360012,6.411952 Z" id="Shape"></path>
                </g>
            </g>
        </g>
    </g>
</svg>