<?xml version="1.0" encoding="utf-8"?>
<!-- Generator: Adobe Illustrator 25.0.0, SVG Export Plug-In . SVG Version: 6.00 Build 0)  -->
<svg version="1.1" id="Ebene_1" xmlns="http://www.w3.org/2000/svg" xmlns:xlink="http://www.w3.org/1999/xlink" x="0px" y="0px"
	 viewBox="0 0 151 169" style="enable-background:new 0 0 151 169;" xml:space="preserve">
<style type="text/css">
	.st0{enable-background:new    ;}
	.st1{fill:#EB6D00;}
</style>
<desc>Created with Sketch.</desc>
<g id="Icons">
	<g id="Artboard" transform="translate(-333.000000, -961.000000)">
		<g class="st0">
			<path class="st1" d="M335.1,1130V965.8h24.2c5.1,0,8.5,2.4,10.1,7.2l2.7,13c3.3-3.4,6.8-6.5,10.5-9.3c3.7-2.8,7.6-5.2,11.7-7.2
				c4.1-2,8.5-3.6,13.2-4.6c4.7-1.1,9.8-1.6,15.4-1.6c9,0,16.9,1.5,23.8,4.6c6.9,3,12.7,7.3,17.4,12.8c4.6,5.5,8.2,12.1,10.6,19.7
				c2.4,7.6,3.6,16,3.6,25.2V1130h-39.5v-104.5c0-10-2.3-17.8-7-23.3c-4.6-5.5-11.6-8.2-20.9-8.2c-6.8,0-13.2,1.5-19.2,4.6
				c-6,3.1-11.6,7.3-17,12.6V1130H335.1z"/>
		</g>
	</g>
</g>
</svg>
