<?xml version="1.0" encoding="utf-8"?>
<!-- Generator: Adobe Illustrator 25.0.0, SVG Export Plug-In . SVG Version: 6.00 Build 0)  -->
<svg version="1.1" id="Ebene_1" xmlns="http://www.w3.org/2000/svg" xmlns:xlink="http://www.w3.org/1999/xlink" x="0px" y="0px"
	 viewBox="0 0 240 240" style="enable-background:new 0 0 240 240;" xml:space="preserve">
<style type="text/css">
	.st0{fill:#28A2F3;}
</style>
<desc>Created with Sketch.</desc>
<g id="Icons">
	<g id="Artboard" transform="translate(-287.000000, -886.000000)">
		<path id="undecided" class="st0" d="M502.4,886H311.6c-13.6,0-24.6,11.1-24.6,24.6v190.7c0,13.6,11.1,24.6,24.6,24.6h190.7
			c13.6,0,24.6-11.1,24.6-24.6V910.6C527,897.1,515.9,886,502.4,886z M355.8,970.2c0-6.2,2-12.5,6-18.8s9.8-11.6,17.4-15.8
			s16.5-6.2,26.7-6.2c9.4,0,17.8,1.7,25,5.2s12.8,8.2,16.7,14.2s5.9,12.5,5.9,19.5c0,5.5-1.1,10.4-3.4,14.6s-4.9,7.8-8,10.8
			s-8.6,8.1-16.7,15.3c-2.2,2-4,3.8-5.3,5.3s-2.3,2.9-3,4.2s-1.2,2.5-1.5,3.8s-0.9,3.5-1.6,6.7c-1.2,6.8-5.1,10.2-11.6,10.2
			c-3.4,0-6.2-1.1-8.5-3.3s-3.5-5.5-3.5-9.9c0-5.5,0.8-10.2,2.5-14.2s3.9-7.5,6.7-10.5s6.6-6.6,11.3-10.8c4.2-3.6,7.2-6.4,9-8.3
			s3.4-3.9,4.7-6.2s1.9-4.8,1.9-7.4c0-5.2-1.9-9.6-5.8-13.2s-8.9-5.4-15-5.4c-7.2,0-12.4,1.8-15.8,5.4s-6.2,8.9-8.6,16
			c-2.2,7.4-6.4,11-12.6,11c-3.6,0-6.7-1.3-9.2-3.9S355.8,973.2,355.8,970.2z M403.4,1077.2c-4,0-7.4-1.3-10.4-3.9
			s-4.4-6.2-4.4-10.8c0-4.1,1.4-7.6,4.3-10.4s6.4-4.2,10.5-4.2s7.6,1.4,10.4,4.2s4.2,6.2,4.2,10.4c0,4.6-1.5,8.1-4.4,10.7
			S407.3,1077.2,403.4,1077.2z"/>
	</g>
</g>
</svg>
