<?xml version="1.0" encoding="utf-8"?>
<!-- Generator: Adobe Illustrator 25.0.0, SVG Export Plug-In . SVG Version: 6.00 Build 0)  -->
<svg version="1.1" id="Ebene_1" xmlns="http://www.w3.org/2000/svg" xmlns:xlink="http://www.w3.org/1999/xlink" x="0px" y="0px"
	 viewBox="0 0 195 209" style="enable-background:new 0 0 195 209;" xml:space="preserve">
<style type="text/css">
	.st0{fill:#FE9923;}
	.st1{fill:#FEDB41;}
	.st2{fill:#FE8821;}
	.st3{fill:#FCBF29;}
</style>
<desc>Created with Sketch.</desc>
<g id="Icons">
	<g id="Artboard" transform="translate(-413.000000, -534.000000)">
		<g id="bake" transform="translate(413.000000, 534.000000)">
			<path id="Path" class="st0" d="M179.9,72.5l-16.6-25c-1.5-2.2-4.3-3.3-6.9-2.4c-2.6,0.7-4.4,3.2-4.4,5.9c0,12-1.8,24-5.3,35.6
				c-2.9-8.4-8.6-15.9-16.3-20.9c-13.6-9.1-17.3-26.8-8.2-40.4l10.6-15.9c1.2-1.8,1.3-4.3,0.2-6.2c-1-2-3.1-3.2-5.4-3.2
				C117,0,106.9,2.1,97.4,5.9C68.7,17.4,47.9,44,45.9,76.5c-2-5.3-3.1-10.9-3.1-16.6v-24c0-2.7-1.8-5.1-4.4-5.9
				c-2.6-0.9-5.4,0.2-6.9,2.4l-8.2,12.4C8.2,67.5,0.2,94,0.2,121.3c0,48.3,39.3,87.6,87.6,87.6H107c48.3,0,87.8-39.3,87.8-87.6
				C194.8,103.9,189.6,87,179.9,72.5z"/>
			<path id="Path_1_" class="st1" d="M102.7,108.7c-1.1-2.1-3.2-3.1-5.3-3.1c-2.1,0-4,1-5.3,3.1C66.8,152.6,61,158.2,61,172.4
				c0,20.1,16.4,36.5,36.5,36.5s36.5-16.4,36.5-36.5C133.9,156.9,123.5,144.8,102.7,108.7z"/>
			<path id="Path_2_" class="st2" d="M194.8,121.3c0,48.3-39.5,87.6-87.8,87.6h-9.5V5.9C106.9,2.1,117,0,127.8,0
				c2.3,0,4.4,1.2,5.4,3.2c1.1,2,1,4.4-0.2,6.2l-10.6,15.9c-9.1,13.6-5.4,31.3,8.2,40.4c7.7,5,13.3,12.5,16.3,20.9
				C150.2,75,152,63,152,51c0-2.7,1.8-5.1,4.4-5.9c2.6-0.9,5.4,0.2,6.9,2.4l16.6,25C189.6,87,194.8,103.9,194.8,121.3z"/>
			<path id="Path_3_" class="st3" d="M133.9,172.4c0,20.1-16.4,36.5-36.5,36.5V105.6c2.1,0,4.2,1,5.3,3.1
				C123.5,144.8,133.9,156.9,133.9,172.4z"/>
		</g>
	</g>
</g>
</svg>
