<?xml version="1.0" encoding="utf-8"?>
<!-- Generator: Adobe Illustrator 25.0.0, SVG Export Plug-In . SVG Version: 6.00 Build 0)  -->
<svg version="1.1" id="Ebene_1" xmlns="http://www.w3.org/2000/svg" xmlns:xlink="http://www.w3.org/1999/xlink" x="0px" y="0px"
	 viewBox="0 0 253 167" style="enable-background:new 0 0 253 167;" xml:space="preserve">
<style type="text/css">
	.st0{fill-rule:evenodd;clip-rule:evenodd;fill:#B894EE;}
</style>
<desc>Created with Sketch.</desc>
<g id="Icons">
	<g id="Artboard" transform="translate(-280.000000, -922.000000)">
		<g id="gauge-chart" transform="translate(280.000000, 922.000000)">
			<path id="Fill-1" class="st0" d="M126.1,0C56.6,0,0,56.5,0,126.1c0,14.3,2.4,28,6.8,40.8h30.1c-5.6-12.2-8.8-25.7-8.9-40h31.6
				V119H28.3C30,95,40.3,73.5,56.2,57.3l22.5,22.5l5.6-5.6L62,51.9c16.9-14.7,38.9-23.6,63-23.9v32.7h7.9V28.3
				c24.1,1.6,45.8,12,62,27.9l-23.7,23.7l5.6,5.6L200.2,62c13.5,15.5,22.1,35.4,23.7,57.1h-33.6v7.9h33.8
				c-0.1,14.2-3.3,27.7-8.9,39.9h30.1c4.4-12.8,6.8-26.5,6.8-40.8C252.1,56.5,195.6,0,126.1,0"/>
			<path id="Fill-4" class="st0" d="M128.9,103c-11,0-20,9-20,20s9,20,20,20s20-9,20-20S139.9,103,128.9,103"/>
		</g>
	</g>
</g>
</svg>
