<?xml version="1.0" encoding="utf-8"?>
<!-- Generator: Adobe Illustrator 25.0.0, SVG Export Plug-In . SVG Version: 6.00 Build 0)  -->
<svg version="1.1" id="Ebene_1" xmlns="http://www.w3.org/2000/svg" xmlns:xlink="http://www.w3.org/1999/xlink" x="0px" y="0px"
	 viewBox="0 0 13 16" style="enable-background:new 0 0 13 16;" xml:space="preserve">
<style type="text/css">
	.st0{fill:#333333;}
</style>
<desc>Created with Sketch.</desc>
<g id="Dashboard">
	<g id="Hexagon-Variant-01" transform="translate(-1182.000000, -572.000000)">
		<g id="dead_light" transform="translate(1182.000000, 572.000000)">
			<path id="XMLID_802_" class="st0" d="M6.4,0.5c3.5,0,6.3,2.3,6.4,5.7l0,0.2v4.5l0,0c0,0.5-0.4,1.1-0.9,1.3l-0.1,0L9.6,13v1.3
				c0,0.5-0.4,1-1,1.1l-0.1,0H4.3c-0.5,0-1-0.4-1.1-1l0-0.1V13L1,12.3c-0.5-0.2-0.9-0.7-1-1.2l0-0.1V6.4C0,2.9,2.9,0.5,6.4,0.5z
				 M6.5,10.5c-0.5,0-0.9,0.4-1,0.9l0,0.1v1h2v-1C7.5,10.9,7.1,10.5,6.5,10.5z M3.8,6.5c-1.3,0-1.9,1.2-1.9,1.2
				C1.7,8.1,1.5,9,1.5,9.5c0,0.5,0.3,0.9,0.6,1l0.1,0h2.7c0.3,0,0.6-0.2,0.7-0.4l0-0.1V8.5C5.5,8,5.2,7.3,4.9,7l0,0
				C4.8,6.8,4.4,6.5,3.8,6.5z M9.2,6.5c-0.6,0-1,0.3-1.1,0.4l0,0c-0.3,0.3-0.6,1-0.6,1.5l0,0V10c0,0.3,0.3,0.5,0.7,0.5l0,0h2.7
				c0.4,0,0.7-0.5,0.7-1c0-0.6-0.2-1.4-0.4-1.8C11.1,7.7,10.5,6.5,9.2,6.5z"/>
		</g>
	</g>
</g>
</svg>
