<?xml version="1.0" encoding="utf-8"?>
<!-- Generator: Adobe Illustrator 25.0.0, SVG Export Plug-In . SVG Version: 6.00 Build 0)  -->
<svg version="1.1" id="Ebene_1" xmlns="http://www.w3.org/2000/svg" xmlns:xlink="http://www.w3.org/1999/xlink" x="0px" y="0px"
	 viewBox="0 0 19 17" style="enable-background:new 0 0 19 17;" xml:space="preserve">
<style type="text/css">
	.st0{fill:#505862;}
</style>
<desc>Created with Sketch.</desc>
<g id="Master">
	<g id="Text-Sidebar-Right" transform="translate(-1279.000000, -15.000000)">
		<g id="Sidebar" transform="translate(1139.000000, 0.000000)">
			<g id="Links" transform="translate(140.000000, 14.000000)">
				<path id="Shape" class="st0" d="M18.3,6.7c-0.1-0.2-0.4-0.3-0.6-0.3h-0.8V4.1c0-0.4-0.3-0.8-0.8-0.8H9.5l-2-2
					C7.3,1.1,7.1,1,6.9,1H0.8C0.3,1,0,1.4,0,1.8v14.6l0,0c0,0.1,0,0.1,0,0.2l0,0c0,0.1,0.1,0.1,0.1,0.2l0,0l0,0c0,0,0.1,0.1,0.2,0.1
					l0,0c0.1,0,0.1,0.1,0.2,0.1l0,0h0.1l0,0h13.8c0.3,0,0.6-0.2,0.7-0.5l3.1-9.2C18.5,7.2,18.4,6.9,18.3,6.7z M15.4,6.4H3.8
					c-0.3,0-0.6,0.2-0.7,0.5l-1.6,4.7v-9h5.1l2.1,2.1C8.8,4.8,9,4.9,9.2,4.9h6.1v1.5H15.4z"/>
			</g>
		</g>
	</g>
</g>
</svg>
