<?xml version="1.0" encoding="UTF-8"?>
<svg width="240px" height="230px" viewBox="0 0 240 230" version="1.1" xmlns="http://www.w3.org/2000/svg" xmlns:xlink="http://www.w3.org/1999/xlink">
    <!-- Generator: Sketch 58 (84663) - https://sketch.com -->
    <title>snmp settings</title>
    <desc>Created with Sketch.</desc>
    <g id="Page-1" stroke="none" stroke-width="1" fill="none" fill-rule="evenodd">
        <g id="EXPORT" transform="translate(-124.000000, -110.000000)">
            <g id="snmp-settings" transform="translate(124.000000, 110.000000)">
                <polygon id="Path-3" stroke="#979797" stroke-width="20" points="60 160 180 160 120 60"></polygon>
                <g id="01" transform="translate(65.000000, 0.000000)" fill-rule="nonzero">
                    <polygon id="Path" fill="#43A047" points="55 2.22044605e-16 110 25 55 50 0 25"></polygon>
                    <polygon id="Path" fill="#43A047" points="55 110 110 85 110 25 55 50"></polygon>
                    <polygon id="Path" fill="#348D38" points="55 2.22044605e-16 0 25 55 50"></polygon>
                    <polygon id="Path" fill="#58A94C" points="0 25 0 85 55 110 55 50"></polygon>
                </g>
                <g id="02" transform="translate(0.000000, 120.000000)" fill-rule="nonzero">
                    <polygon id="Path" fill="#43A047" points="55 0 110 25 55 50 4.4408921e-16 25"></polygon>
                    <polygon id="Path" fill="#43A047" points="55 110 110 85 110 25 55 50"></polygon>
                    <polygon id="Path" fill="#348D38" points="55 0 2.22044605e-16 25 55 50"></polygon>
                    <polygon id="Path" fill="#58A94C" points="2.22044605e-16 25 2.22044605e-16 85 55 110 55 50"></polygon>
                </g>
                <g id="03" transform="translate(130.000000, 120.000000)" fill-rule="nonzero">
                    <polygon id="Path" fill="#43A047" points="55 0 110 25 55 50 0 25"></polygon>
                    <polygon id="Path" fill="#43A047" points="55 110 110 85 110 25 55 50"></polygon>
                    <polygon id="Path" fill="#348D38" points="55 0 2.22044605e-16 25 55 50"></polygon>
                    <polygon id="Path" fill="#58A94C" points="2.22044605e-16 25 2.22044605e-16 85 55 110 55 50"></polygon>
                </g>
            </g>
        </g>
    </g>
</svg>