<svg width="33" height="32" viewBox="0 0 33 32" fill="none" xmlns="http://www.w3.org/2000/svg">
<g clip-path="url(#clip0_1232_101)">
<path fill-rule="evenodd" clip-rule="evenodd" d="M19.0264 1.72315C18.0691 1.72315 17.3 2.43303 17.3 3.31667V7.43651H15.5316V3.31667C15.5316 1.53149 17.0924 0.0907593 19.0264 0.0907593H19.1106C21.0445 0.0907593 22.6053 1.53149 22.6053 3.31667H20.8369C20.8369 2.43303 20.0678 1.72315 19.1106 1.72315H19.0264Z" fill="#7D48CD"/>
<path d="M26.7456 14.7693H28.6824C30.7035 14.7693 32.3316 16.2851 32.3316 18.1377V22.8146C32.3316 24.6802 30.6895 26.1831 28.6824 26.1831H26.7456V14.7693Z" fill="#7D48CD"/>
<path d="M6.08584 14.7693H4.149C2.12795 14.7693 0.499878 16.2851 0.499878 18.1377V22.8146C0.499878 24.6802 2.14198 26.1831 4.149 26.1831H6.08584V14.7693Z" fill="#7D48CD"/>
<path d="M17.6228 5.80411H15.2087C12.9491 5.80411 11.1105 7.50127 11.1105 9.5871C11.1105 10.209 11.6578 10.7013 12.3175 10.7013H20.514C21.1877 10.7013 21.721 10.196 21.721 9.5871C21.721 7.50127 19.8824 5.80411 17.6228 5.80411Z" fill="#7D48CD"/>
<path d="M24.3596 8.25269H8.47189C5.53855 8.25269 3.15259 10.4422 3.15259 13.1499V27.0381C3.15259 29.7328 5.53855 31.9353 8.47189 31.9353H24.3596C27.2929 31.9353 29.6789 29.7458 29.6789 27.0381V13.1499C29.6789 10.4422 27.2929 8.25269 24.3596 8.25269Z" fill="#B894EE"/>
<path d="M21.7211 5.80411C22.6977 5.80411 23.4895 5.07327 23.4895 4.17173C23.4895 3.27018 22.6977 2.53934 21.7211 2.53934C20.7444 2.53934 19.9526 3.27018 19.9526 4.17173C19.9526 5.07327 20.7444 5.80411 21.7211 5.80411Z" fill="#B894EE"/>
<path fill-rule="evenodd" clip-rule="evenodd" d="M22.6052 15.5985C21.6285 15.5985 20.8368 16.3293 20.8368 17.2308C20.8368 18.1324 21.6285 18.8632 22.6052 18.8632C23.5819 18.8632 24.3736 18.1324 24.3736 17.2308C24.3736 16.3293 23.5819 15.5985 22.6052 15.5985ZM19.0684 17.2308C19.0684 15.4278 20.6519 13.9661 22.6052 13.9661C24.5585 13.9661 26.142 15.4278 26.142 17.2308C26.142 19.0339 24.5585 20.4956 22.6052 20.4956C20.6519 20.4956 19.0684 19.0339 19.0684 17.2308Z" fill="#7D48CD"/>
<path fill-rule="evenodd" clip-rule="evenodd" d="M10.8158 15.5985C9.8391 15.5985 9.04735 16.3293 9.04735 17.2308C9.04735 18.1324 9.8391 18.8632 10.8158 18.8632C11.7924 18.8632 12.5842 18.1324 12.5842 17.2308C12.5842 16.3293 11.7924 15.5985 10.8158 15.5985ZM7.27893 17.2308C7.27893 15.4278 8.86243 13.9661 10.8158 13.9661C12.7691 13.9661 14.3526 15.4278 14.3526 17.2308C14.3526 19.0339 12.7691 20.4956 10.8158 20.4956C8.86243 20.4956 7.27893 19.0339 7.27893 17.2308Z" fill="#7D48CD"/>
</g>
<defs>
<clipPath id="clip0_1232_101">
<rect width="32" height="32" fill="white" transform="translate(0.5 6.10352e-05)"/>
</clipPath>
</defs>
</svg>
