<svg width="14" height="14" viewBox="0 0 14 14" fill="none" xmlns="http://www.w3.org/2000/svg">
<g clip-path="url(#clip0_267_98)">
<path d="M12.229 4.97267C11.9449 3.95841 11.3746 3.06536 10.6091 2.38268L8.91505 4.07668C9.53289 4.57957 9.94958 5.31973 10.0255 6.15752V6.7131C10.0351 6.7131 10.0439 6.71015 10.0535 6.71015C10.9089 6.71015 11.6053 7.40647 11.6053 8.26194C11.6053 9.11741 10.9089 9.8141 10.0535 9.8141C10.0439 9.8141 10.0351 9.81152 10.0255 9.81115V9.8141H7.56958H7V12.2088H10.0255V12.2074C10.0351 12.2074 10.0439 12.2088 10.0535 12.2088C12.2297 12.2088 14 10.4382 14 8.26231C14 6.88994 13.2948 5.68004 12.229 4.97267Z" fill="#1976D2"/>
<path opacity="0.5" d="M5.36421 7.63674L7.10316 5.8978C7.10169 5.89595 7.10021 5.89448 7.09911 5.89301L5.36127 7.63085C5.362 7.63269 5.36311 7.63453 5.36421 7.63674Z" fill="#FFE082"/>
<path opacity="0.5" d="M5.36421 7.63674L7.10316 5.8978C7.10169 5.89595 7.10021 5.89448 7.09911 5.89301L5.36127 7.63085C5.362 7.63269 5.36311 7.63453 5.36421 7.63674Z" fill="#90CAF9"/>
<path d="M7.00001 1C4.00364 1 1.5658 3.43784 1.5658 6.43421C1.5658 6.52005 1.57464 6.60368 1.57869 6.68842H3.97343C3.96643 6.60442 3.96053 6.52005 3.96053 6.43421C3.96053 4.75826 5.32406 3.39474 7.00001 3.39474C7.72543 3.39474 8.3919 3.65116 8.91506 4.07668L10.6091 2.38268C9.64822 1.52574 8.38564 1 7.00001 1Z" fill="#FF3D00"/>
<path opacity="0.5" d="M3.94652 9.81409H3.94579C3.72068 9.81409 3.5081 9.76361 3.31505 9.67667L1.57979 11.4119C2.24037 11.9097 3.05826 12.2088 3.94579 12.2088H3.94652H7V9.81409H3.94652Z" fill="#90CAF9"/>
<path d="M3.94652 9.81409H3.94579C3.72068 9.81409 3.5081 9.76361 3.31505 9.67667L1.57979 11.4119C2.24037 11.9097 3.05826 12.2088 3.94579 12.2088H3.94652H7V9.81409H3.94652Z" fill="#4CAF50"/>
<path d="M2.39474 8.26305C2.39474 7.40831 3.09105 6.712 3.94579 6.712C4.57321 6.712 5.11663 7.08889 5.36089 7.63084L7.09874 5.893C6.37626 4.93437 5.23268 4.31726 3.94542 4.31726C1.77211 4.31726 0 6.08568 0 8.26305C0 9.54921 0.623 10.6909 1.57979 11.4119L3.31505 9.67668C2.77421 9.43426 2.39474 8.89268 2.39474 8.26305Z" fill="#FFC107"/>
</g>
<defs>
<clipPath id="clip0_267_98">
<rect width="14" height="14" fill="white"/>
</clipPath>
</defs>
</svg>
