<?xml version="1.0" encoding="utf-8"?>
<!-- Generator: Adobe Illustrator 25.0.0, SVG Export Plug-In . SVG Version: 6.00 Build 0)  -->
<svg version="1.1" id="Ebene_1" xmlns="http://www.w3.org/2000/svg" xmlns:xlink="http://www.w3.org/1999/xlink" x="0px" y="0px"
	 viewBox="0 0 56 57" style="enable-background:new 0 0 56 57;" xml:space="preserve">
<style type="text/css">
	.st0{fill:url(#Path_17_);}
	.st1{fill:url(#Path_18_);}
	.st2{fill:url(#Path_19_);}
	.st3{fill:url(#Path_20_);}
	.st4{fill:url(#Path_21_);}
	.st5{fill:url(#Path_22_);}
	.st6{fill:url(#Path_23_);}
	.st7{fill:url(#Path_24_);}
	.st8{fill:url(#Path_25_);}
	.st9{fill:url(#Path_26_);}
	.st10{fill:url(#Path_27_);}
	.st11{fill:url(#Path_28_);}
	.st12{fill:url(#Path_29_);}
	.st13{fill:url(#Path_30_);}
	.st14{fill:url(#Path_31_);}
	.st15{fill:url(#Path_32_);}
	.st16{fill:url(#Path_33_);}
</style>
<desc>Created with Sketch.</desc>
<g id="Welcome">
	<g id="Release-Content-_x7C_-USP-small" transform="translate(-576.000000, -314.000000)">
		<g id="USP" transform="translate(155.000000, 311.000000)">
			<g id="icon_scale" transform="translate(421.000000, 3.000000)">
				
					<linearGradient id="Path_17_" gradientUnits="userSpaceOnUse" x1="-535.9332" y1="347.8933" x2="-534.9382" y2="348.8628" gradientTransform="matrix(5.544 0 0 -5.544 3021.8276 1973.8184)">
					<stop  offset="0" style="stop-color:#B5D6F0"/>
					<stop  offset="1" style="stop-color:#F0F7FC"/>
				</linearGradient>
				<polygon id="Path" class="st0" points="52.2,41.3 50.1,41.3 50.1,44.7 55.6,44.7 55.6,39.1 52.2,39.1 				"/>
				
					<linearGradient id="Path_18_" gradientUnits="userSpaceOnUse" x1="-554.6758" y1="308.8924" x2="-554.2445" y2="309.3127" gradientTransform="matrix(6.5963 0 0 -3.4368 3690.2263 1105.6595)">
					<stop  offset="0" style="stop-color:#B5D6F0"/>
					<stop  offset="1" style="stop-color:#F0F7FC"/>
				</linearGradient>
				<polygon id="Path_1_" class="st1" points="30.3,41.3 36.9,41.3 36.9,44.7 30.3,44.7 				"/>
				
					<linearGradient id="Path_19_" gradientUnits="userSpaceOnUse" x1="-554.6758" y1="308.8924" x2="-554.2445" y2="309.3127" gradientTransform="matrix(6.5963 0 0 -3.4368 3700.094 1105.6595)">
					<stop  offset="0" style="stop-color:#B5D6F0"/>
					<stop  offset="1" style="stop-color:#F0F7FC"/>
				</linearGradient>
				<polygon id="Path_2_" class="st2" points="40.1,41.3 46.7,41.3 46.7,44.7 40.1,44.7 				"/>
				
					<linearGradient id="Path_20_" gradientUnits="userSpaceOnUse" x1="-463.5095" y1="358.3878" x2="-463.0909" y2="358.7957" gradientTransform="matrix(3.4368 0 0 -6.5963 1605.1982 2378.751)">
					<stop  offset="0" style="stop-color:#B5D6F0"/>
					<stop  offset="1" style="stop-color:#F0F7FC"/>
				</linearGradient>
				<polygon id="Path_3_" class="st3" points="11.5,9.5 15,9.5 15,16.1 11.5,16.1 				"/>
				
					<linearGradient id="Path_21_" gradientUnits="userSpaceOnUse" x1="-463.5095" y1="358.3878" x2="-463.0909" y2="358.7957" gradientTransform="matrix(3.4368 0 0 -6.5963 1605.1982 2388.6201)">
					<stop  offset="0" style="stop-color:#B5D6F0"/>
					<stop  offset="1" style="stop-color:#F0F7FC"/>
				</linearGradient>
				<polygon id="Path_4_" class="st4" points="11.5,19.4 15,19.4 15,26 11.5,26 				"/>
				
					<linearGradient id="Path_22_" gradientUnits="userSpaceOnUse" x1="-536.1183" y1="348.0833" x2="-535.1232" y2="349.0528" gradientTransform="matrix(5.544 0 0 -5.544 2983.2949 1935.2887)">
					<stop  offset="0" style="stop-color:#B5D6F0"/>
					<stop  offset="1" style="stop-color:#F0F7FC"/>
				</linearGradient>
				<polygon id="Path_5_" class="st5" points="15,4.1 17.1,4.1 17.1,0.6 11.5,0.6 11.5,6.2 15,6.2 				"/>
				
					<linearGradient id="Path_23_" gradientUnits="userSpaceOnUse" x1="-554.6758" y1="308.893" x2="-554.2445" y2="309.3132" gradientTransform="matrix(6.5963 0 0 -3.4368 3700.094 1065.0289)">
					<stop  offset="0" style="stop-color:#B5D6F0"/>
					<stop  offset="1" style="stop-color:#F0F7FC"/>
				</linearGradient>
				<polygon id="Path_6_" class="st6" points="40.1,0.6 46.7,0.6 46.7,4.1 40.1,4.1 				"/>
				
					<linearGradient id="Path_24_" gradientUnits="userSpaceOnUse" x1="-554.6758" y1="308.893" x2="-554.2445" y2="309.3132" gradientTransform="matrix(6.5963 0 0 -3.4368 3690.2263 1065.0289)">
					<stop  offset="0" style="stop-color:#B5D6F0"/>
					<stop  offset="1" style="stop-color:#F0F7FC"/>
				</linearGradient>
				<polygon id="Path_7_" class="st7" points="30.3,0.6 36.9,0.6 36.9,4.1 30.3,4.1 				"/>
				
					<linearGradient id="Path_25_" gradientUnits="userSpaceOnUse" x1="-554.6747" y1="308.893" x2="-554.2433" y2="309.3132" gradientTransform="matrix(6.5962 0 0 -3.4368 3680.3076 1065.0289)">
					<stop  offset="0" style="stop-color:#B5D6F0"/>
					<stop  offset="1" style="stop-color:#F0F7FC"/>
				</linearGradient>
				<polygon id="Path_8_" class="st8" points="20.4,0.6 27,0.6 27,4.1 20.4,4.1 				"/>
				
					<linearGradient id="Path_26_" gradientUnits="userSpaceOnUse" x1="-536.0258" y1="347.9883" x2="-535.0308" y2="348.9578" gradientTransform="matrix(5.544 0 0 -5.544 3021.8276 1935.2887)">
					<stop  offset="0" style="stop-color:#B5D6F0"/>
					<stop  offset="1" style="stop-color:#F0F7FC"/>
				</linearGradient>
				<polygon id="Path_9_" class="st9" points="50,0.6 50,4.1 52.2,4.1 52.2,6.2 55.6,6.2 55.6,0.6 				"/>
				
					<linearGradient id="Path_27_" gradientUnits="userSpaceOnUse" x1="-463.5095" y1="358.3878" x2="-463.0908" y2="358.7957" gradientTransform="matrix(3.4368 0 0 -6.5963 1645.8357 2388.6201)">
					<stop  offset="0" style="stop-color:#B5D6F0"/>
					<stop  offset="1" style="stop-color:#F0F7FC"/>
				</linearGradient>
				<polygon id="Path_10_" class="st10" points="52.2,19.4 55.6,19.4 55.6,26 52.2,26 				"/>
				
					<linearGradient id="Path_28_" gradientUnits="userSpaceOnUse" x1="-463.5095" y1="358.3878" x2="-463.0908" y2="358.7957" gradientTransform="matrix(3.4368 0 0 -6.5963 1645.8357 2398.489)">
					<stop  offset="0" style="stop-color:#B5D6F0"/>
					<stop  offset="1" style="stop-color:#F0F7FC"/>
				</linearGradient>
				<polygon id="Path_11_" class="st11" points="52.2,29.2 55.6,29.2 55.6,35.8 52.2,35.8 				"/>
				
					<linearGradient id="Path_29_" gradientUnits="userSpaceOnUse" x1="-463.5095" y1="358.3878" x2="-463.0908" y2="358.7957" gradientTransform="matrix(3.4368 0 0 -6.5963 1645.8357 2378.751)">
					<stop  offset="0" style="stop-color:#B5D6F0"/>
					<stop  offset="1" style="stop-color:#F0F7FC"/>
				</linearGradient>
				<polygon id="Path_12_" class="st12" points="52.2,9.5 55.6,9.5 55.6,16.1 52.2,16.1 				"/>
				
					<linearGradient id="Path_30_" gradientUnits="userSpaceOnUse" x1="-618.3795" y1="393.1542" x2="-617.3505" y2="393.1602" gradientTransform="matrix(18.3514 0 0 -18.3517 11376.9141 7233.0249)">
					<stop  offset="0" style="stop-color:#303F47"/>
					<stop  offset="1" style="stop-color:#596E7A"/>
				</linearGradient>
				<polygon id="Path_13_" class="st13" points="35.8,12.2 41.6,12.2 29.1,24.7 31.5,27.1 44,14.6 44,20.4 47.4,20.4 47.4,8.8 
					35.8,8.8 				"/>
				
					<linearGradient id="Path_31_" gradientUnits="userSpaceOnUse" x1="-635.0358" y1="392.6985" x2="-635.0358" y2="391.9548" gradientTransform="matrix(35.42 0 0 -17.71 22510.6797 6997.8916)">
					<stop  offset="0" style="stop-color:#1DE196"/>
					<stop  offset="1" style="stop-color:#06B073"/>
				</linearGradient>
				<path id="Path_14_" class="st14" d="M0,38.7v11.2c0,0.7,0.3,1.4,0.7,1.9c2.2,2.7,8.9,4.7,17,4.7s14.8-2,17-4.7
					c0.5-0.5,0.7-1.2,0.7-1.9V38.7H0z"/>
				
					<linearGradient id="Path_32_" gradientUnits="userSpaceOnUse" x1="-635.0358" y1="393.7008" x2="-635.0358" y2="392.9571" gradientTransform="matrix(35.42 0 0 -18.6421 22510.6797 7369.7944)">
					<stop  offset="0" style="stop-color:#1DE196"/>
					<stop  offset="1" style="stop-color:#06B073"/>
				</linearGradient>
				<path id="Path_15_" class="st15" d="M35.2,25.6h-35L0,26.5v12.1h0.2c1.2,3.2,8.6,5.6,17.5,5.6s16.3-2.4,17.5-5.6h0.2V26.5
					C35.4,26.2,35.4,25.9,35.2,25.6z"/>
				
					<linearGradient id="Path_33_" gradientUnits="userSpaceOnUse" x1="-635.0358" y1="385.5415" x2="-635.0358" y2="384.7978" gradientTransform="matrix(35.42 0 0 -13.0504 22510.6797 5054.8369)">
					<stop  offset="0" style="stop-color:#2CF8AF"/>
					<stop  offset="1" style="stop-color:#1DE196"/>
				</linearGradient>
				<path id="Path_16_" class="st16" d="M35.4,26.5c0,2.4-3.4,4.4-8.6,5.6c-3,0.6-6.1,1-9.1,0.9c-3.1,0-6.1-0.3-9.1-0.9
					C3.4,31,0,28.9,0,26.5l0.2-0.9C1.4,22.5,8.8,20,17.7,20s16.3,2.4,17.5,5.6C35.4,25.9,35.4,26.2,35.4,26.5z"/>
			</g>
		</g>
	</g>
</g>
</svg>
