<?xml version="1.0" encoding="UTF-8"?>
<svg width="48px" height="48px" viewBox="0 0 48 48" version="1.1" xmlns="http://www.w3.org/2000/svg" xmlns:xlink="http://www.w3.org/1999/xlink">
    <title>tribe29_icon_48</title>
    <g id="Page-1" stroke="none" stroke-width="1" fill="none" fill-rule="evenodd">
        <g id="tribe29_icon_48">
            <rect id="Rectangle" fill-opacity="0" fill="#D8D8D8" x="0" y="0" width="48" height="48"></rect>
            <g id="icon" transform="translate(12.000000, 0.000000)" fill="#13D389" fill-rule="nonzero">
                <path d="M12,0 L24,7 L24,20.9 L12,27.9 L0,20.9 L0,7 L12,0 Z M4.1,10.1 L4.1,14.7 L9.8,11 L9.8,20.5 L12,21.8 L14.2,20.5 L14.2,11 L19.9,14.7 L19.9,10.1 L12,5.1 L4.1,10.1 Z" id="Fill-3"></path>
            </g>
            <g id="font" transform="translate(1.000000, 35.000000)" fill="#333333" fill-rule="nonzero">
                <path d="M2.4,8.5 C0.9,8.5 0,7.6 0,6 L0,4.8 C0,3.2 0.8,2.3 2.4,2.3 C3.8,2.3 4.6,3 4.7,4.3 L4.1,4.3 C4,3.4 3.4,2.9 2.4,2.9 C1.2,2.9 0.6,3.5 0.6,4.9 L0.6,6 C0.6,7.3 1.2,8 2.4,8 C3.4,8 4,7.5 4,6.5 L4.6,6.5 C4.6,7.7 3.8,8.5 2.4,8.5 L2.4,8.5 Z M6.2,8.4 L6.2,0 L6.8,0 L6.8,3.5 C7.3,2.7 8,2.3 8.8,2.3 C10,2.3 10.6,3 10.6,4.4 L10.6,8.3 L10,8.3 L10,4.5 C10,3.4 9.6,2.9 8.7,2.9 C7.9,2.9 7.2,3.4 6.8,4.4 L6.8,8.3 L6.2,8.4 Z M14.9,8.5 C13.3,8.5 12.4,7.6 12.4,6 L12.4,4.8 C12.4,3.2 13.3,2.3 14.8,2.3 C16.3,2.3 17.2,3.2 17.2,4.8 L17.2,5.5 L13,5.5 L13,6 C13,7.3 13.6,8 14.8,8 C15.9,8 16.4,7.5 16.5,6.7 L17.1,6.7 C17.1,7.8 16.2,8.5 14.9,8.5 L14.9,8.5 Z M13,5 L16.6,5 L16.6,4.9 C16.6,3.6 16,2.9 14.8,2.9 C13.6,2.9 13,3.6 13,5 L13,5 Z M21,8.5 C19.5,8.5 18.6,7.6 18.6,6 L18.6,4.8 C18.6,3.2 19.4,2.3 21,2.3 C22.4,2.3 23.2,3 23.3,4.3 L22.7,4.3 C22.6,3.3 22.1,2.8 21.1,2.8 C19.9,2.8 19.3,3.4 19.3,4.8 L19.3,6 C19.3,7.3 19.9,8 21.1,8 C22.1,8 22.7,7.5 22.7,6.5 L23.3,6.5 C23.2,7.7 22.4,8.5 21,8.5 L21,8.5 Z M24.8,8.4 L24.8,0 L25.4,0 L25.4,5.8 L28.7,2.5 L29.5,2.5 L27.1,4.9 L29.6,8.4 L28.8,8.4 L26.7,5.4 L25.5,6.6 L25.5,8.4 L24.8,8.4 Z M30.7,8.4 L30.7,2.5 L31.6,2.5 L31.6,3.4 C32.1,2.7 32.7,2.3 33.5,2.3 C34.3,2.3 34.9,2.7 35.1,3.3 C35.6,2.6 36.2,2.3 37,2.3 C38.2,2.3 38.8,3 38.8,4.3 L38.8,8.3 L37.8,8.3 L37.8,4.3 C37.8,3.5 37.5,3.1 36.8,3.1 C36.1,3.1 35.7,3.5 35.2,4.3 L35.2,8.2 L34.2,8.2 L34.2,4.2 C34.2,3.4 33.9,3 33.2,3 C32.6,3 32.1,3.4 31.6,4.3 L31.6,8.1 L30.7,8.1 L30.7,8.4 L30.7,8.4 Z M40.6,8.4 L40.6,0 L41.6,0 L41.6,5.4 L44.3,2.5 L45.6,2.5 L43.3,4.9 L45.6,8.4 L44.4,8.4 L42.6,5.6 L41.6,6.7 L41.6,8.4 L40.6,8.4 L40.6,8.4 Z" id="Fill-1_1_"></path>
            </g>
        </g>
    </g>
</svg>
