<?xml version="1.0" encoding="utf-8"?>
<svg version="1.1" id="Ebene_1" xmlns="http://www.w3.org/2000/svg" xmlns:xlink="http://www.w3.org/1999/xlink" x="0px" y="0px"
	 viewBox="0 0 48 48" style="enable-background:new 0 0 48 48;" xml:space="preserve">
<style type="text/css">
	.st0{fill-rule:evenodd;clip-rule:evenodd;}
	.st1{fill-rule:evenodd;clip-rule:evenodd;fill:#FFFFFF;}
</style>
<g id="Menu-Icons-EXPORT">
	<g id="EXPORT" transform="translate(-1266.000000, -5734.000000)">
		<g id="embleme" transform="translate(356.000000, 5734.000000)">
			<g id="time" transform="translate(910.000000, 0.000000)">
				<path id="Fill-1" class="st0" d="M23.6,47.2C10.6,47.2,0,36.6,0,23.6S10.6,0,23.6,0s23.6,10.6,23.6,23.6S36.6,47.2,23.6,47.2"/>
				<path id="Fill-12" class="st1" d="M11.4,28l10.2-5.9c0.8-0.4,1.6-0.5,1.8-0.1l2,3.4c0.2,0.4-0.2,1-1,1.5l-10.2,5.9
					c-0.8,0.4-1.6,0.5-1.8,0.1l-2-3.4C10.2,29.1,10.6,28.4,11.4,28"/>
				<path id="Fill-12_1_" class="st1" d="M27.3,8.1v15.8c0,1.2-0.4,2.1-0.8,2.1h-3.9c-0.4,0-0.8-1-0.8-2.1V8.1C21.8,7,22.2,6,22.6,6
					h3.9C26.9,6,27.3,7,27.3,8.1"/>
			</g>
		</g>
	</g>
</g>
</svg>
