<svg xmlns="http://www.w3.org/2000/svg" width="12" height="13" viewBox="0 0 12 13" fill="none">
<path d="M6.51562 2.89062C6.51562 2.60585 6.28477 2.375 6 2.375C5.71523 2.375 5.48438 2.60585 5.48438 2.89062V5.98438H2.39062C2.10585 5.98438 1.875 6.21523 1.875 6.5C1.875 6.78477 2.10585 7.01562 2.39062 7.01562H5.48438V10.1094C5.48438 10.3941 5.71523 10.625 6 10.625C6.28477 10.625 6.51562 10.3941 6.51562 10.1094V7.01562H9.60938C9.89415 7.01562 10.125 6.78477 10.125 6.5C10.125 6.21523 9.89415 5.98438 9.60938 5.98438H6.51562V2.89062Z" fill="white"/>
</svg>
