<svg width="32" height="32" viewBox="0 0 32 32" fill="none" xmlns="http://www.w3.org/2000/svg">
<path d="M8 26.6663V13.333H29.3333V26.6663C29.3333 28.133 28.1333 29.333 26.6667 29.333H10.6667C9.2 29.333 8 28.133 8 26.6663Z" fill="#CFD8DC"/>
<path d="M29.3333 10.6667V14.6667H8V10.6667C8 9.2 9.2 8 10.6667 8H26.6667C28.1333 8 29.3333 9.2 29.3333 10.6667Z" fill="#78909C"/>
<path d="M24.667 8.66699C24.1366 8.66699 23.6279 8.87771 23.2528 9.25278C22.8777 9.62785 22.667 10.1366 22.667 10.667C22.667 11.1974 22.8777 11.7061 23.2528 12.0812C23.6279 12.4563 24.1366 12.667 24.667 12.667C25.1974 12.667 25.7061 12.4563 26.0812 12.0812C26.4563 11.7061 26.667 11.1974 26.667 10.667C26.667 10.1366 26.4563 9.62785 26.0812 9.25278C25.7061 8.87771 25.1974 8.66699 24.667 8.66699Z" fill="#37474F"/>
<path d="M24.6663 6.66699C23.933 6.66699 23.333 7.26699 23.333 8.00033V10.667C23.333 11.4003 23.933 12.0003 24.6663 12.0003C25.3997 12.0003 25.9997 11.4003 25.9997 10.667V8.00033C25.9997 7.26699 25.3997 6.66699 24.6663 6.66699Z" fill="#B0BEC5"/>
<path d="M21.333 22.667H23.9997V25.3337H21.333V22.667ZM17.333 22.667H19.9997V25.3337H17.333V22.667ZM13.333 22.667H15.9997V25.3337H13.333V22.667ZM21.333 18.667H23.9997V21.3337H21.333V18.667ZM17.333 18.667H19.9997V21.3337H17.333V18.667ZM13.333 18.667H15.9997V21.3337H13.333V18.667Z" fill="#90A4AE"/>
<path d="M10.667 2C8.54526 2 6.51043 2.84285 5.01014 4.34315C3.50985 5.84344 2.66699 7.87827 2.66699 10C2.66699 12.1217 3.50985 14.1566 5.01014 15.6569C6.51043 17.1571 8.54526 18 10.667 18C12.7887 18 14.8236 17.1571 16.3238 15.6569C17.8241 14.1566 18.667 12.1217 18.667 10C18.667 7.87827 17.8241 5.84344 16.3238 4.34315C14.8236 2.84285 12.7887 2 10.667 2Z" fill="#F44336"/>
<path d="M10.667 4C9.07569 4 7.54957 4.63214 6.42435 5.75736C5.29913 6.88258 4.66699 8.4087 4.66699 10C4.66699 11.5913 5.29913 13.1174 6.42435 14.2426C7.54957 15.3679 9.07569 16 10.667 16C12.2583 16 13.7844 15.3679 14.9096 14.2426C16.0349 13.1174 16.667 11.5913 16.667 10C16.667 8.4087 16.0349 6.88258 14.9096 5.75736C13.7844 4.63214 12.2583 4 10.667 4Z" fill="#EEEEEE"/>
<path fill-rule="evenodd" clip-rule="evenodd" d="M10.0003 5.33301H11.3337V9.25432C11.3475 9.26666 11.3609 9.27941 11.3741 9.29257C11.5616 9.4801 11.667 9.73446 11.667 9.99967C11.667 10.0181 11.6665 10.0365 11.6655 10.0549L13.6781 12.0674L12.7824 12.9631L10.8088 10.9896C10.7621 10.9963 10.7147 10.9997 10.667 10.9997C10.4018 10.9997 10.1474 10.8943 9.95989 10.7068C9.77235 10.5192 9.66699 10.2649 9.66699 9.99967C9.66699 9.73446 9.77235 9.4801 9.95989 9.29257C9.97304 9.27941 9.98653 9.26666 10.0003 9.25432V5.33301Z" fill="black"/>
</svg>
