<svg xmlns="http://www.w3.org/2000/svg" width="16" height="16" fill="none"><path fill="#B894EE" d="M14 12.057H0V7.39l3.89-5.834 5.443 2.723L14 0v12.057Z"/><path fill="#B894EE" d="M14 14H0v-3.887l3.89-3.111 5.443.776L14 4.278V14Z"/><path fill="#fff" fill-rule="evenodd" d="M11 16a5.01 5.01 0 0 1-5-5c0-2.754 2.246-5 5-5s5 2.246 5 5-2.246 5-5 5Z" clip-rule="evenodd"/><g fill="#8F5ED8" clip-path="url(#a)"><path d="M11 6c-2.75 0-5 2.25-5 5s2.25 5 5 5 5-2.25 5-5-2.25-5-5-5Zm0 8.938c-2.125 0-3.938-1.75-3.938-3.938 0-2.125 1.75-3.938 3.938-3.938A3.921 3.921 0 0 1 14.938 11c0 2.125-1.813 3.938-3.938 3.938Z"/><path d="M11.438 11V8.937A.427.427 0 0 0 11 8.5a.427.427 0 0 0-.438.438v2.25c0 .124.063.25.126.312l1.562 1.563c.188.187.438.187.625 0 .188-.188.188-.438 0-.626L11.437 11Z"/></g><defs><clipPath id="a"><path fill="#fff" d="M6 6h10v10H6z"/></clipPath></defs></svg>