<?xml version="1.0" encoding="utf-8"?>
<svg version="1.1" id="Ebene_1" xmlns="http://www.w3.org/2000/svg" xmlns:xlink="http://www.w3.org/1999/xlink" x="0px" y="0px"
	 viewBox="0 0 384 238" style="enable-background:new 0 0 384 238;" xml:space="preserve">
<style type="text/css">
	.st0{fill:#D8ECFE;}
	.st1{fill:#C4E2FF;}
	.st2{fill:#00ABE9;}
	.st3{fill:#465A61;}
	.st4{fill:#0172FB;}
</style>
<g id="Menu-Icons-EXPORT">
	<g id="EXPORT" transform="translate(-514.000000, -613.000000)">
		<g id="analyze" transform="translate(514.000000, 613.000000)">
			<path id="Path" class="st0" d="M192,0.1C56.2,3,0,118.8,0,118.8s56.2,115.8,192,118.7c135.8-2.9,192-118.7,192-118.7
				S327.8,3,192,0.1z"/>
			<path id="Path_1_" class="st1" d="M359.9,83.3c1.8,3.1,2.6,4.9,2.6,4.9S306,204,169.3,206.9C82.7,205.1,28.3,158,0,123.7
				c12.6,22,70.9,111.3,190.7,113.8C327.4,234.6,384,118.8,384,118.8S376.4,103.2,359.9,83.3z"/>
			<circle id="Oval" class="st2" cx="192" cy="118.8" r="118.7"/>
			<path id="Path_2_" class="st3" d="M192,185.1c-36.6,0-66.3-29.8-66.3-66.3c0-36.6,29.8-66.3,66.3-66.3
				c36.6,0,66.3,29.8,66.3,66.3C258.3,155.4,228.6,185.1,192,185.1z"/>
			<path id="Path_3_" class="st0" d="M231.6,111.3c-17.7,0-32.1-14.4-32.1-32.1c0-17.7,14.4-32.1,32.1-32.1s32.1,14.4,32.1,32.1
				C263.7,96.9,249.3,111.3,231.6,111.3z"/>
			<path id="Path_4_" class="st4" d="M259.2,21c13.2,19.1,20.9,42.3,20.9,67.2c0,65.6-53.2,118.7-118.7,118.7
				c-25,0-48.1-7.7-67.2-20.9c21.4,31.1,57.2,51.5,97.8,51.5c65.6,0,118.7-53.2,118.7-118.7C310.7,78.2,290.3,42.4,259.2,21z"/>
		</g>
	</g>
</g>
</svg>
