<?xml version="1.0" encoding="utf-8"?>
<!-- Generator: Adobe Illustrator 24.2.1, SVG Export Plug-In . SVG Version: 6.00 Build 0)  -->
<svg version="1.1" id="Ebene_1" xmlns="http://www.w3.org/2000/svg" xmlns:xlink="http://www.w3.org/1999/xlink" x="0px" y="0px"
	 viewBox="0 0 18 15" style="enable-background:new 0 0 18 15;" xml:space="preserve">
<style type="text/css">
	.st0{fill-rule:evenodd;clip-rule:evenodd;fill:#13D389;}
</style>
<desc>Created with Sketch.</desc>
<g id="monitoring_active">
	<g id="monitoring">
		<path id="Fill-1" class="st0" d="M4.6,13.8c0,0.5-0.3,0.9-0.8,0.9H0.8c-0.4,0-0.8-0.4-0.8-0.9v-8c0-0.5,0.3-0.9,0.8-0.9h3.1
			c0.4,0,0.8,0.4,0.8,0.9V13.8z"/>
		<path id="Fill-4" class="st0" d="M11,13.8c0,0.5-0.3,0.9-0.8,0.9H7.1c-0.4,0-0.8-0.4-0.8-0.9V3.5c0-0.5,0.3-0.9,0.8-0.9h3.1
			C10.6,2.6,11,3,11,3.5V13.8z"/>
		<path id="Fill-7" class="st0" d="M17.3,13.8c0,0.5-0.3,0.9-0.8,0.9h-3.1c-0.4,0-0.8-0.4-0.8-0.9V1c0-0.5,0.3-0.9,0.8-0.9h3.1
			c0.4,0,0.8,0.4,0.8,0.9V13.8z"/>
	</g>
</g>
</svg>
