<svg width="74" height="20" viewBox="0 0 74 20" fill="none" xmlns="http://www.w3.org/2000/svg">
<rect width="74" height="20" rx="4" fill="#11181D"/>
<path d="M12.0601 8.09707V10.4218L14.8839 8.57993V13.3732L15.9973 14.0215L17.1107 13.3732V8.58264L19.9346 10.4245V8.09979L15.9973 5.60957L12.0601 8.09707ZM16 3L22 6.49932V13.5007L16 17L10 13.5034V6.50203L16 3Z" fill="#13D389"/>
<path d="M30.8926 5.89062H31.8301V10.7002C31.8301 11.234 31.7113 11.6784 31.4736 12.0332C31.236 12.388 30.9202 12.6549 30.5264 12.834C30.1357 13.0098 29.7109 13.0977 29.252 13.0977C28.7702 13.0977 28.334 13.0098 27.9434 12.834C27.556 12.6549 27.2484 12.388 27.0205 12.0332C26.7959 11.6784 26.6836 11.234 26.6836 10.7002V5.89062H27.6162V10.7002C27.6162 11.0713 27.6846 11.3773 27.8213 11.6182C27.958 11.859 28.1484 12.0381 28.3926 12.1553C28.64 12.2725 28.9264 12.3311 29.252 12.3311C29.5807 12.3311 29.8672 12.2725 30.1113 12.1553C30.3587 12.0381 30.5508 11.859 30.6875 11.6182C30.8242 11.3773 30.8926 11.0713 30.8926 10.7002V5.89062ZM34.0762 8.73242V15.0312H33.168V7.7168H33.998L34.0762 8.73242ZM37.6357 10.3145V10.417C37.6357 10.8011 37.5902 11.1576 37.499 11.4863C37.4079 11.8118 37.2744 12.0951 37.0986 12.3359C36.9261 12.5768 36.7129 12.764 36.459 12.8975C36.2051 13.0309 35.9137 13.0977 35.585 13.0977C35.2497 13.0977 34.9535 13.0423 34.6963 12.9316C34.4391 12.821 34.221 12.6598 34.042 12.4482C33.863 12.2367 33.7197 11.9827 33.6123 11.6865C33.5081 11.3903 33.4365 11.0566 33.3975 10.6855V10.1387C33.4365 9.74805 33.5098 9.39811 33.6172 9.08887C33.7246 8.77962 33.8662 8.51595 34.042 8.29785C34.221 8.0765 34.4375 7.90885 34.6914 7.79492C34.9453 7.67773 35.2383 7.61914 35.5703 7.61914C35.9023 7.61914 36.1969 7.68424 36.4541 7.81445C36.7113 7.94141 36.9277 8.1237 37.1035 8.36133C37.2793 8.59896 37.4111 8.88379 37.499 9.21582C37.5902 9.5446 37.6357 9.91081 37.6357 10.3145ZM36.7275 10.417V10.3145C36.7275 10.0508 36.6999 9.80339 36.6445 9.57227C36.5892 9.33789 36.5029 9.13281 36.3857 8.95703C36.2718 8.77799 36.1253 8.63802 35.9463 8.53711C35.7673 8.43294 35.554 8.38086 35.3066 8.38086C35.0788 8.38086 34.8802 8.41992 34.7109 8.49805C34.5449 8.57617 34.4033 8.68197 34.2861 8.81543C34.1689 8.94564 34.0729 9.09538 33.998 9.26465C33.9264 9.43066 33.8727 9.60319 33.8369 9.78223V11.0469C33.902 11.2747 33.9932 11.4896 34.1104 11.6914C34.2275 11.89 34.3838 12.0511 34.5791 12.1748C34.7744 12.2952 35.0202 12.3555 35.3164 12.3555C35.5605 12.3555 35.7705 12.305 35.9463 12.2041C36.1253 12.0999 36.2718 11.9583 36.3857 11.7793C36.5029 11.6003 36.5892 11.3952 36.6445 11.1641C36.6999 10.9297 36.7275 10.6807 36.7275 10.417ZM42.2109 7.7168H43.0312V12.8877C43.0312 13.3532 42.9368 13.7503 42.748 14.0791C42.5592 14.4079 42.2956 14.6569 41.957 14.8262C41.6217 14.9987 41.2344 15.085 40.7949 15.085C40.6126 15.085 40.3978 15.0557 40.1504 14.9971C39.9062 14.9417 39.6654 14.8457 39.4277 14.709C39.1934 14.5755 38.9964 14.3949 38.8369 14.167L39.3105 13.6299C39.5319 13.8968 39.763 14.0824 40.0039 14.1865C40.248 14.2907 40.4889 14.3428 40.7266 14.3428C41.013 14.3428 41.2604 14.2891 41.4688 14.1816C41.6771 14.0742 41.8382 13.9147 41.9521 13.7031C42.0693 13.4948 42.1279 13.2376 42.1279 12.9316V8.87891L42.2109 7.7168ZM38.5732 10.417V10.3145C38.5732 9.91081 38.6204 9.5446 38.7148 9.21582C38.8125 8.88379 38.9508 8.59896 39.1299 8.36133C39.3122 8.1237 39.5319 7.94141 39.7891 7.81445C40.0462 7.68424 40.3359 7.61914 40.6582 7.61914C40.9902 7.61914 41.2799 7.67773 41.5273 7.79492C41.778 7.90885 41.9896 8.0765 42.1621 8.29785C42.3379 8.51595 42.4762 8.77962 42.5771 9.08887C42.6781 9.39811 42.748 9.74805 42.7871 10.1387V10.5879C42.7513 10.9753 42.6813 11.3236 42.5771 11.6328C42.4762 11.9421 42.3379 12.2057 42.1621 12.4238C41.9896 12.6419 41.778 12.8096 41.5273 12.9268C41.2767 13.0407 40.9837 13.0977 40.6484 13.0977C40.3327 13.0977 40.0462 13.0309 39.7891 12.8975C39.5352 12.764 39.3171 12.5768 39.1348 12.3359C38.9525 12.0951 38.8125 11.8118 38.7148 11.4863C38.6204 11.1576 38.5732 10.8011 38.5732 10.417ZM39.4766 10.3145V10.417C39.4766 10.6807 39.5026 10.9281 39.5547 11.1592C39.61 11.3903 39.693 11.5938 39.8037 11.7695C39.9176 11.9453 40.0625 12.0837 40.2383 12.1846C40.4141 12.2822 40.624 12.3311 40.8682 12.3311C41.1676 12.3311 41.415 12.2676 41.6104 12.1406C41.8057 12.0137 41.9603 11.846 42.0742 11.6377C42.1914 11.4294 42.2826 11.2031 42.3477 10.959V9.78223C42.3118 9.60319 42.2565 9.43066 42.1816 9.26465C42.11 9.09538 42.0156 8.94564 41.8984 8.81543C41.7845 8.68197 41.6429 8.57617 41.4736 8.49805C41.3044 8.41992 41.1058 8.38086 40.8779 8.38086C40.6305 8.38086 40.4173 8.43294 40.2383 8.53711C40.0625 8.63802 39.9176 8.77799 39.8037 8.95703C39.693 9.13281 39.61 9.33789 39.5547 9.57227C39.5026 9.80339 39.4766 10.0508 39.4766 10.3145ZM45.3066 8.54688V13H44.4033V7.7168H45.2822L45.3066 8.54688ZM46.957 7.6875L46.9521 8.52734C46.8773 8.51107 46.8057 8.5013 46.7373 8.49805C46.6722 8.49154 46.5973 8.48828 46.5127 8.48828C46.3044 8.48828 46.1204 8.52083 45.9609 8.58594C45.8014 8.65104 45.6663 8.74219 45.5557 8.85938C45.445 8.97656 45.3571 9.11654 45.292 9.2793C45.2301 9.4388 45.1895 9.61458 45.1699 9.80664L44.916 9.95312C44.916 9.63411 44.9469 9.33464 45.0088 9.05469C45.0739 8.77474 45.1732 8.52734 45.3066 8.3125C45.4401 8.0944 45.6094 7.92513 45.8145 7.80469C46.0228 7.68099 46.2702 7.61914 46.5566 7.61914C46.6217 7.61914 46.6966 7.62728 46.7812 7.64355C46.8659 7.65658 46.9245 7.67122 46.957 7.6875ZM50.7119 12.0967V9.37695C50.7119 9.16862 50.6696 8.98796 50.585 8.83496C50.5036 8.67871 50.3799 8.55827 50.2139 8.47363C50.0479 8.389 49.8428 8.34668 49.5986 8.34668C49.3708 8.34668 49.1706 8.38574 48.998 8.46387C48.8288 8.54199 48.6953 8.64453 48.5977 8.77148C48.5033 8.89844 48.4561 9.03516 48.4561 9.18164H47.5527C47.5527 8.99284 47.6016 8.80566 47.6992 8.62012C47.7969 8.43457 47.9368 8.26693 48.1191 8.11719C48.3047 7.96419 48.526 7.84375 48.7832 7.75586C49.0436 7.66471 49.3333 7.61914 49.6523 7.61914C50.0365 7.61914 50.375 7.68424 50.668 7.81445C50.9642 7.94466 51.1953 8.1416 51.3613 8.40527C51.5306 8.66569 51.6152 8.99284 51.6152 9.38672V11.8477C51.6152 12.0234 51.6299 12.2106 51.6592 12.4092C51.6917 12.6077 51.7389 12.7786 51.8008 12.9219V13H50.8584C50.8128 12.8958 50.777 12.7575 50.751 12.585C50.7249 12.4092 50.7119 12.2464 50.7119 12.0967ZM50.8682 9.79688L50.8779 10.4316H49.9648C49.7077 10.4316 49.4782 10.4528 49.2764 10.4951C49.0745 10.5342 48.9053 10.5944 48.7686 10.6758C48.6318 10.7572 48.5277 10.8597 48.4561 10.9834C48.3844 11.1038 48.3486 11.2454 48.3486 11.4082C48.3486 11.5742 48.3861 11.7256 48.4609 11.8623C48.5358 11.999 48.6481 12.1081 48.7979 12.1895C48.9508 12.2676 49.138 12.3066 49.3594 12.3066C49.6361 12.3066 49.8802 12.248 50.0918 12.1309C50.3034 12.0137 50.471 11.8704 50.5947 11.7012C50.7217 11.5319 50.79 11.3675 50.7998 11.208L51.1855 11.6426C51.1628 11.7793 51.1009 11.9307 51 12.0967C50.8991 12.2627 50.764 12.4222 50.5947 12.5752C50.4287 12.7249 50.2301 12.8503 49.999 12.9512C49.7712 13.0488 49.514 13.0977 49.2275 13.0977C48.8695 13.0977 48.5553 13.0277 48.2852 12.8877C48.0182 12.7477 47.8099 12.5605 47.6602 12.3262C47.5137 12.0885 47.4404 11.8232 47.4404 11.5303C47.4404 11.2471 47.4958 10.998 47.6064 10.7832C47.7171 10.5651 47.8766 10.3844 48.085 10.2412C48.2933 10.0947 48.5439 9.98405 48.8369 9.90918C49.1299 9.83431 49.457 9.79688 49.8184 9.79688H50.8682ZM56.3662 11.9746V5.5H57.2744V13H56.4443L56.3662 11.9746ZM52.8115 10.417V10.3145C52.8115 9.91081 52.8604 9.5446 52.958 9.21582C53.0589 8.88379 53.2005 8.59896 53.3828 8.36133C53.5684 8.1237 53.7881 7.94141 54.042 7.81445C54.2992 7.68424 54.5856 7.61914 54.9014 7.61914C55.2334 7.61914 55.5231 7.67773 55.7705 7.79492C56.0212 7.90885 56.2327 8.0765 56.4053 8.29785C56.5811 8.51595 56.7194 8.77962 56.8203 9.08887C56.9212 9.39811 56.9912 9.74805 57.0303 10.1387V10.5879C56.9945 10.9753 56.9245 11.3236 56.8203 11.6328C56.7194 11.9421 56.5811 12.2057 56.4053 12.4238C56.2327 12.6419 56.0212 12.8096 55.7705 12.9268C55.5199 13.0407 55.2269 13.0977 54.8916 13.0977C54.5824 13.0977 54.2992 13.0309 54.042 12.8975C53.7881 12.764 53.5684 12.5768 53.3828 12.3359C53.2005 12.0951 53.0589 11.8118 52.958 11.4863C52.8604 11.1576 52.8115 10.8011 52.8115 10.417ZM53.7197 10.3145V10.417C53.7197 10.6807 53.7458 10.9281 53.7979 11.1592C53.8532 11.3903 53.9378 11.5938 54.0518 11.7695C54.1657 11.9453 54.3105 12.0837 54.4863 12.1846C54.6621 12.2822 54.8721 12.3311 55.1162 12.3311C55.4157 12.3311 55.6615 12.2676 55.8535 12.1406C56.0488 12.0137 56.2051 11.846 56.3223 11.6377C56.4395 11.4294 56.5306 11.2031 56.5957 10.959V9.78223C56.5566 9.60319 56.4997 9.43066 56.4248 9.26465C56.3532 9.09538 56.2588 8.94564 56.1416 8.81543C56.0277 8.68197 55.8861 8.57617 55.7168 8.49805C55.5508 8.41992 55.3538 8.38086 55.126 8.38086C54.8786 8.38086 54.6654 8.43294 54.4863 8.53711C54.3105 8.63802 54.1657 8.77799 54.0518 8.95703C53.9378 9.13281 53.8532 9.33789 53.7979 9.57227C53.7458 9.80339 53.7197 10.0508 53.7197 10.3145ZM60.873 13.0977C60.5052 13.0977 60.1715 13.0358 59.8721 12.9121C59.5758 12.7852 59.3203 12.6077 59.1055 12.3799C58.8939 12.152 58.7311 11.8818 58.6172 11.5693C58.5033 11.2568 58.4463 10.915 58.4463 10.5439V10.3389C58.4463 9.90918 58.5098 9.52669 58.6367 9.19141C58.7637 8.85286 58.9362 8.56641 59.1543 8.33203C59.3724 8.09766 59.6198 7.92025 59.8965 7.7998C60.1732 7.67936 60.4596 7.61914 60.7559 7.61914C61.1335 7.61914 61.459 7.68424 61.7324 7.81445C62.0091 7.94466 62.2354 8.12695 62.4111 8.36133C62.5869 8.59245 62.7171 8.86589 62.8018 9.18164C62.8864 9.49414 62.9287 9.83594 62.9287 10.207V10.6123H58.9834V9.875H62.0254V9.80664C62.0124 9.57227 61.9635 9.3444 61.8789 9.12305C61.7975 8.90169 61.6673 8.7194 61.4883 8.57617C61.3092 8.43294 61.0651 8.36133 60.7559 8.36133C60.5508 8.36133 60.362 8.40527 60.1895 8.49316C60.0169 8.5778 59.8688 8.70475 59.7451 8.87402C59.6214 9.04329 59.5254 9.25 59.457 9.49414C59.3887 9.73828 59.3545 10.0199 59.3545 10.3389V10.5439C59.3545 10.7946 59.3887 11.0306 59.457 11.252C59.5286 11.4701 59.6312 11.6621 59.7646 11.8281C59.9014 11.9941 60.0658 12.1243 60.2578 12.2188C60.4531 12.3132 60.6745 12.3604 60.9219 12.3604C61.2409 12.3604 61.5111 12.2952 61.7324 12.165C61.9538 12.0348 62.1475 11.8607 62.3135 11.6426L62.8604 12.0771C62.7464 12.2497 62.6016 12.4141 62.4258 12.5703C62.25 12.7266 62.0335 12.8535 61.7764 12.9512C61.5225 13.0488 61.2214 13.0977 60.873 13.0977Z" fill="white"/>
</svg>
