<?xml version="1.0" encoding="utf-8"?>
<!-- Generator: Adobe Illustrator 25.0.0, SVG Export Plug-In . SVG Version: 6.00 Build 0)  -->
<svg version="1.1" id="Ebene_1" xmlns="http://www.w3.org/2000/svg" xmlns:xlink="http://www.w3.org/1999/xlink" x="0px" y="0px"
	 viewBox="0 0 240 241" style="enable-background:new 0 0 240 241;" xml:space="preserve">
<style type="text/css">
	.st0{fill:#B3E3FA;}
</style>
<desc>Created with Sketch.</desc>
<g id="Icons">
	<g id="Artboard" transform="translate(-390.000000, -518.000000)">
		<g id="shrink" transform="translate(390.000000, 518.000000)">
			
				<g id="expand" transform="translate(180.800000, 59.000000) rotate(-180.000000) translate(-180.800000, -59.000000) translate(121.800000, 0.000000)">
				<path id="Path" class="st0" d="M101.3,115.1L73.1,87l-27.5,27.5c-3.8,3.8-10,3.8-13.8,0L4.2,86.7c-3.8-3.8-3.8-10,0-13.8
					l27.5-27.4L3.5,17.3c-6.1-6.1-1.8-16.7,6.9-16.7h97.8c5.4,0,9.8,4.4,9.8,9.8v97.8C118,116.9,107.5,121.3,101.3,115.1z"/>
			</g>
			
				<g id="expand_1_" transform="translate(59.000000, 181.800000) rotate(-360.000000) translate(-59.000000, -181.800000) translate(0.000000, 122.800000)">
				<path id="Path_1_" class="st0" d="M101.3,114.5L73.1,86.4l-27.5,27.5c-3.8,3.8-10,3.8-13.8,0L4.2,86.1c-3.8-3.8-3.8-10,0-13.8
					l27.5-27.4L3.5,16.7C-2.7,10.6,1.7,0,10.4,0h97.8c5.4,0,9.8,4.4,9.8,9.8v97.8C118,116.3,107.5,120.7,101.3,114.5z"/>
			</g>
		</g>
	</g>
</g>
</svg>
