<svg width="32" height="32" viewBox="0 0 32 32" fill="none" xmlns="http://www.w3.org/2000/svg">
<path d="M19.3333 6.66667C20.0693 6.66667 20.6667 6.06933 20.6667 5.33333C20.6667 4.59733 20.0693 4 19.3333 4H12.6667C11.9307 4 11.3333 4.59733 11.3333 5.33333C11.3333 6.06933 11.9307 6.66667 12.6667 6.66667V14L4.804 23.4287C4.78621 23.4465 4.7698 23.4654 4.75348 23.4843C4.73985 23.5001 4.72626 23.5158 4.712 23.5307L4.552 23.71H4.56533C4.216 24.16 4 24.7187 4 25.3333C4 26.806 5.194 28 6.66667 28H25.3333C26.806 28 28 26.806 28 25.3333C28 24.7393 27.7993 24.1967 27.4713 23.754H27.4813L27.3607 23.62L27.3273 23.5805C27.2774 23.5214 27.2276 23.4622 27.172 23.4093L19.3333 14V6.66667Z" fill="#90CAF9"/>
<path d="M26.4007 24.548L26.3914 24.5353L26.3687 24.51L26.3554 24.496L26.3427 24.482L26.3107 24.4433C26.29 24.4187 26.27 24.3933 26.2474 24.3707L26.2094 24.334L26.178 24.2987L21.7814 19H10.2154L5.79604 24.3193L5.77204 24.346L5.76337 24.3547C5.73804 24.384 5.71804 24.4073 5.69737 24.4287L5.67071 24.4587L5.61871 24.5267C5.48871 24.6947 5.33337 24.9713 5.33337 25.3333C5.33337 26.0687 5.93137 26.6667 6.66671 26.6667H25.3334C26.0687 26.6667 26.6667 26.0687 26.6667 25.3333C26.6667 24.9813 26.5214 24.712 26.4007 24.548Z" fill="#F50057"/>
<path d="M19.3334 21.3333C18.8029 21.3333 18.2942 21.5441 17.9192 21.9191C17.5441 22.2942 17.3334 22.8029 17.3334 23.3333C17.3334 23.8638 17.5441 24.3725 17.9192 24.7476C18.2942 25.1226 18.8029 25.3333 19.3334 25.3333C19.8638 25.3333 20.3725 25.1226 20.7476 24.7476C21.1227 24.3725 21.3334 23.8638 21.3334 23.3333C21.3334 22.8029 21.1227 22.2942 20.7476 21.9191C20.3725 21.5441 19.8638 21.3333 19.3334 21.3333Z" fill="#F48FB1"/>
<path d="M14.6667 20C14.3131 20 13.9739 20.1405 13.7239 20.3905C13.4739 20.6406 13.3334 20.9797 13.3334 21.3333C13.3334 21.687 13.4739 22.0261 13.7239 22.2761C13.9739 22.5262 14.3131 22.6667 14.6667 22.6667C15.0203 22.6667 15.3595 22.5262 15.6095 22.2761C15.8596 22.0261 16 21.687 16 21.3333C16 20.9797 15.8596 20.6406 15.6095 20.3905C15.3595 20.1405 15.0203 20 14.6667 20Z" fill="#F8BBD0"/>
<path d="M16.6666 14C16.313 14 15.9739 14.1405 15.7238 14.3905C15.4738 14.6406 15.3333 14.9797 15.3333 15.3333C15.3333 15.687 15.4738 16.0261 15.7238 16.2761C15.9739 16.5262 16.313 16.6667 16.6666 16.6667C17.0202 16.6667 17.3594 16.5262 17.6094 16.2761C17.8595 16.0261 18 15.687 18 15.3333C18 14.9797 17.8595 14.6406 17.6094 14.3905C17.3594 14.1405 17.0202 14 16.6666 14ZM15.6666 10C15.4014 10 15.1471 10.1054 14.9595 10.2929C14.772 10.4804 14.6666 10.7348 14.6666 11C14.6666 11.2652 14.772 11.5196 14.9595 11.7071C15.1471 11.8946 15.4014 12 15.6666 12C15.9318 12 16.1862 11.8946 16.3737 11.7071C16.5613 11.5196 16.6666 11.2652 16.6666 11C16.6666 10.7348 16.5613 10.4804 16.3737 10.2929C16.1862 10.1054 15.9318 10 15.6666 10Z" fill="#E3F2FD"/>
</svg>
