<?xml version="1.0" encoding="utf-8"?>
<svg version="1.1" id="Ebene_1" xmlns="http://www.w3.org/2000/svg" xmlns:xlink="http://www.w3.org/1999/xlink" x="0px" y="0px"
	 viewBox="0 0 282 370" style="enable-background:new 0 0 282 370;" xml:space="preserve">
<style type="text/css">
	.st0{fill:#8F5ED8;}
	.st1{fill:#7C44D0;}
</style>
<g id="Menu-Icons-EXPORT">
	<g id="EXPORT" transform="translate(-350.000000, -465.000000)">
		<g id="bookmarks" transform="translate(350.000000, 465.000000)">
			<path id="Path" class="st0" d="M269.3,0H12.3c-6.6,0-12,5.4-12,12v345.6c0,4.9,2.9,9.2,7.4,11.1c1.5,0.6,3,0.9,4.6,0.9
				c3.1,0,6.2-1.2,8.5-3.5l120.1-86.7l120,86.7c3.4,3.4,8.6,4.5,13.1,2.6c4.5-1.9,7.4-6.2,7.4-11.1V12C281.3,5.4,276,0,269.3,0z"/>
			<path id="Path_1_" class="st1" d="M269.3,0H140.8v279.4l120,86.7c3.4,3.4,8.6,4.5,13.1,2.6c4.5-1.9,7.4-6.2,7.4-11.1V12
				C281.3,5.4,276,0,269.3,0z"/>
		</g>
	</g>
</g>
</svg>
