<svg width="16" height="16" viewBox="0 0 16 16" fill="none" xmlns="http://www.w3.org/2000/svg">
<path d="M5.2 1C2.88453 1 1 2.88453 1 5.2C1 7.51547 2.88453 9.4 5.2 9.4C5.59047 9.4 5.96672 9.34203 6.32547 9.2425L6.40203 9.31797L7.88406 10.8H9.12V12.2H10.52V13.6H11.92V15H13.9959L15 13.9959V13.822L14.4094 11.7723L9.31797 6.68203L9.17688 6.53984C9.31906 6.11875 9.4 5.66922 9.4 5.2C9.4 2.88453 7.51547 1 5.2 1ZM5.2 1.56C7.2125 1.56 8.84 3.1875 8.84 5.2C8.84 7.2125 7.2125 8.84 5.2 8.84C3.1875 8.84 1.56 7.2125 1.56 5.2C1.56 3.1875 3.1875 1.56 5.2 1.56ZM4.5 2.96C3.80766 2.96 3.24 3.52766 3.24 4.22C3.23891 4.91234 3.80766 5.48 4.5 5.48C5.19234 5.48 5.76 4.91234 5.76 4.22C5.76 3.52766 5.19234 2.95891 4.5 2.96ZM4.5 3.52C4.89047 3.51891 5.2 3.82953 5.2 4.22C5.2 4.61047 4.89047 4.92 4.5 4.92C4.10953 4.92 3.79891 4.61047 3.8 4.22C3.8 3.82953 4.10953 3.52 4.5 3.52ZM8.94172 7.09766L13.9106 12.0677L14.2705 13.3156L9.87797 8.92203L9.68 8.72406L9.28406 9.12L14.1841 14.02L13.7641 14.44H12.48V13.04H11.08V11.64H9.68V10.24H8.11594L6.90844 9.0325C7.78781 8.63875 8.50641 7.95297 8.94172 7.09766Z" fill="#13D389" stroke="#13D389" stroke-width="0.3"/>
</svg>
