<svg width="14" height="14" viewBox="0 0 14 14" fill="none" xmlns="http://www.w3.org/2000/svg">
<g clip-path="url(#clip0_267_91)">
<path d="M10.1377 0.840515H3.8623C3.60324 0.840515 3.36411 0.97856 3.23476 1.20284L0.0970425 6.63768C-0.0323068 6.86196 -0.0323068 7.13805 0.0970425 7.36233L3.23476 12.7972C3.36411 13.0215 3.60361 13.1595 3.8623 13.1595H10.1377C10.3968 13.1595 10.6359 13.0215 10.7653 12.7972L13.903 7.36233C14.0324 7.13805 14.0324 6.86196 13.903 6.63768L10.7653 1.20284C10.6359 0.97856 10.3968 0.840515 10.1377 0.840515Z" fill="#2979FF"/>
<path d="M9.8986 10.9856H4.10143C3.90143 10.9856 3.73911 10.8232 3.73911 10.6232V3.37677C3.73911 3.17677 3.90143 3.01445 4.10143 3.01445H8.81163L10.2609 4.46374V10.6232C10.2609 10.8232 10.0986 10.9856 9.8986 10.9856Z" fill="white"/>
<path d="M8.81165 3.01445V4.10142C8.81165 4.30142 8.97397 4.46374 9.17397 4.46374H10.2609L8.81165 3.01445Z" fill="#B1CFFF"/>
<path d="M6.37141 6.93877H5.88771V5.39854L5.41234 5.53731V5.171L6.32684 4.85469H6.37105L6.37141 6.93877ZM8.70368 6.08695C8.70368 6.23768 8.68593 6.36811 8.65078 6.47862C8.61564 6.5884 8.566 6.68007 8.50187 6.75254C8.4381 6.825 8.36165 6.87899 8.27288 6.91413C8.18411 6.94928 8.08628 6.96703 7.9794 6.96703C7.87142 6.96703 7.77287 6.94928 7.68374 6.91413C7.59461 6.87899 7.51816 6.825 7.45439 6.75254C7.39062 6.68007 7.34026 6.5884 7.30475 6.47862C7.26888 6.36811 7.25149 6.23768 7.25149 6.08695V5.70615C7.25149 5.55651 7.26924 5.42607 7.30439 5.31556C7.33953 5.20505 7.38917 5.11339 7.4533 5.04092C7.51707 4.96846 7.59352 4.91447 7.68229 4.87933C7.77034 4.84382 7.86853 4.82607 7.9765 4.82607C8.08338 4.82607 8.18121 4.84382 8.27034 4.87896C8.35947 4.91411 8.43629 4.9681 8.50042 5.04056C8.56419 5.11302 8.61382 5.20469 8.64969 5.3152C8.68556 5.42571 8.70368 5.55615 8.70368 5.70579V6.08695ZM8.22107 5.64492C8.22107 5.56194 8.21527 5.49238 8.20404 5.43513C8.19244 5.37897 8.1765 5.33259 8.15549 5.29708C8.13447 5.26194 8.10875 5.23658 8.07867 5.22136C8.0486 5.20614 8.0149 5.19853 7.9765 5.19853C7.93845 5.19853 7.90403 5.20614 7.87396 5.22136C7.84389 5.23658 7.81853 5.26194 7.79824 5.29708C7.77758 5.33223 7.762 5.37861 7.75113 5.43513C7.74026 5.49238 7.73483 5.56194 7.73483 5.64492V6.14601C7.73483 6.23079 7.7399 6.30217 7.75113 6.35942C7.762 6.41666 7.77831 6.46304 7.79932 6.49746C7.82034 6.53261 7.84606 6.55761 7.8765 6.57282C7.90693 6.58804 7.94135 6.59565 7.9794 6.59565C8.01672 6.59565 8.05005 6.58804 8.08012 6.57282C8.1102 6.55761 8.13592 6.53261 8.15694 6.49746C8.17795 6.46304 8.19353 6.41666 8.20476 6.35942C8.21563 6.30217 8.22143 6.23115 8.22143 6.14601L8.22107 5.64492ZM6.74931 9.01851C6.74931 9.16923 6.73156 9.29967 6.69641 9.41018C6.66127 9.51996 6.61163 9.61163 6.5475 9.68409C6.48373 9.75656 6.40728 9.81054 6.31851 9.84569C6.22974 9.88083 6.13191 9.89859 6.02503 9.89859C5.91705 9.89859 5.8185 9.88083 5.72937 9.84569C5.64024 9.81054 5.56379 9.75656 5.50002 9.68409C5.43625 9.61163 5.38589 9.51996 5.35038 9.41018C5.31451 9.29967 5.29712 9.16923 5.29712 9.01851V8.6377C5.29712 8.48806 5.31487 8.35763 5.35002 8.24712C5.38516 8.13661 5.4348 8.04494 5.49893 7.97248C5.5627 7.90001 5.63915 7.84603 5.72792 7.81088C5.81669 7.77574 5.91488 7.75798 6.02285 7.75798C6.12974 7.75798 6.22757 7.77574 6.3167 7.81088C6.40583 7.84603 6.48264 7.90001 6.54677 7.97248C6.61054 8.04494 6.66018 8.13661 6.69605 8.24712C6.73192 8.35763 6.75003 8.48806 6.75003 8.6377V9.01851H6.74931ZM6.26706 8.57611C6.26706 8.49314 6.26126 8.42357 6.25003 8.36632C6.23843 8.31016 6.22249 8.26379 6.20148 8.22828C6.18046 8.19313 6.15474 8.16777 6.12467 8.15255C6.09459 8.13734 6.0609 8.12973 6.02249 8.12973C5.98408 8.12973 5.95003 8.13734 5.91995 8.15255C5.88988 8.16777 5.86452 8.19313 5.84423 8.22828C5.82357 8.26342 5.808 8.3098 5.79713 8.36632C5.78626 8.42357 5.78082 8.49314 5.78082 8.57611V9.0772C5.78082 9.16199 5.78589 9.23336 5.79713 9.29061C5.808 9.34786 5.8243 9.39423 5.84531 9.42866C5.86633 9.4638 5.89205 9.4888 5.92249 9.50402C5.95292 9.51924 5.98734 9.52685 6.02539 9.52685C6.06271 9.52685 6.09604 9.51924 6.12611 9.50402C6.15619 9.4888 6.18191 9.4638 6.20293 9.42866C6.22394 9.39423 6.23952 9.34786 6.25075 9.29061C6.26162 9.23336 6.26742 9.16235 6.26742 9.0772V8.57611H6.26706ZM8.32578 9.86996H7.84208V8.32973L7.36671 8.4685V8.10219L8.28121 7.78588H8.32542L8.32578 9.86996Z" fill="#03A9F4"/>
</g>
<defs>
<clipPath id="clip0_267_91">
<rect width="14" height="14" fill="white"/>
</clipPath>
</defs>
</svg>
