<svg width="18" height="18" viewBox="0 0 18 18" fill="none" xmlns="http://www.w3.org/2000/svg">
<path d="M2.14165 16.4382H11.0373C11.6687 16.4382 12.1849 15.9221 12.1849 15.2906V13.809C11.942 13.809 7.14504 13.809 6.95681 13.809C5.74239 13.809 4.75872 12.8253 4.75872 11.6109C4.75872 11.3862 4.75872 6.52248 4.75872 6.46176H2.14772C1.51622 6.46176 1.00009 6.97789 1.00009 7.60939L1.00009 15.2906C0.99402 15.9221 1.51015 16.4382 2.14165 16.4382Z" fill="#2E2E2E"/>
<path d="M6.95677 12.7585L15.8524 12.7585C16.4839 12.7585 17 12.2424 17 11.6109V2.71528C17 2.07771 16.4839 1.56159 15.8524 1.56159L6.95677 1.56159C6.32527 1.56159 5.80915 2.07771 5.80915 2.70921L5.80915 11.6048C5.80915 12.2424 6.32527 12.7585 6.95677 12.7585Z" fill="#2E2E2E"/>
</svg>
