<?xml version="1.0" encoding="utf-8"?>
<svg version="1.1" id="Ebene_1" xmlns="http://www.w3.org/2000/svg" xmlns:xlink="http://www.w3.org/1999/xlink" x="0px" y="0px"
	 viewBox="0 0 404 404" style="enable-background:new 0 0 404 404;" xml:space="preserve">
<style type="text/css">
	.st0{fill:#52DD91;}
	.st1{fill:#42D389;}
</style>
<g id="Menu-Icons-EXPORT">
	<g id="EXPORT" transform="translate(-506.000000, -529.000000)">
		<g id="license" transform="translate(506.000000, 529.000000)">
			<path class="st0" d="M375.5,201.6l27.7-54l-51-32.9L349.1,54l-60.6-3l-33-51l-54,27.7L147.5,0l-32.9,51L54,54.1l-3,60.6l-51,33
				l27.7,54L0,255.7l51,32.9l3.1,60.6l60.6,3l33,51l54-27.7l54,27.7l32.9-51l60.6-3.1l3-60.6l51-33L375.5,201.6z M166.6,288.9
				l-78.5-78.5l27.2-27.2l51.3,51.3l122.2-122.2l27.2,27.2L166.6,288.9z"/>
			<polygon class="st1" points="375.5,201.6 403.2,147.5 352.2,114.6 349.1,54 288.5,51 255.6,0 201.6,27.7 201.6,199.6 
				288.8,112.4 316,139.6 201.6,253.9 201.6,375.5 255.7,403.2 288.6,352.2 349.2,349.1 352.2,288.5 403.2,255.6 			"/>
		</g>
	</g>
</g>
</svg>
