<svg width="18" height="18" viewBox="0 0 18 19" fill="none" xmlns="http://www.w3.org/2000/svg">
<path d="M9 0.5C13.9705 0.5 18 4.52955 18 9.5C18 14.4705 13.9705 18.5 9 18.5C4.02955 18.5 0 14.4705 0 9.5C0 4.52955 4.02955 0.5 9 0.5ZM8.18059 10.3431C8.19614 10.8856 8.47145 11.1568 9.00614 11.1568C9.52486 11.1568 9.78832 10.8856 9.79609 10.3431L9.9495 5.50809C9.95727 5.24873 9.86891 5.03068 9.684 4.85355C9.49909 4.67682 9.26918 4.58805 8.99427 4.58805C8.71118 4.58805 8.48127 4.67436 8.30455 4.84741C8.12782 5.02045 8.04314 5.23645 8.05091 5.49582L8.18059 10.3431ZM7.97441 13.219C7.97441 13.6695 8.35855 14.2 9 14.2C9.64145 14.2 10.0256 13.6981 10.0256 13.219C10.0256 12.74 9.62755 12.238 9 12.238C8.37245 12.238 7.97441 12.7686 7.97441 13.219Z" fill="#C83232"/>
</svg>
