<?xml version="1.0" encoding="utf-8"?>
<!-- Generator: Adobe Illustrator 25.0.0, SVG Export Plug-In . SVG Version: 6.00 Build 0)  -->
<svg version="1.1" id="Ebene_1" xmlns="http://www.w3.org/2000/svg" xmlns:xlink="http://www.w3.org/1999/xlink" x="0px" y="0px"
	 viewBox="0 0 279 279" style="enable-background:new 0 0 279 279;" xml:space="preserve">
<style type="text/css">
	.st0{fill:#13D389;}
</style>
<desc>Created with Sketch.</desc>
<g id="Icons">
	<g id="Artboard" transform="translate(-368.000000, -121.000000)">
		<g id="operating-system" transform="translate(368.000000, 121.000000)">
			<path id="Shape" class="st0" d="M101.9,120.1H19.2c-10.3,0-18.7-8.3-18.7-18.7V18.7C0.5,8.3,8.8,0,19.2,0h82.7
				c10.3,0,18.7,8.3,18.7,18.7v82.7C120.8,111.7,112.3,120.1,101.9,120.1z M20.7,99.9h80V20.2h-80V99.9z"/>
			<path id="Shape_1_" class="st0" d="M259.8,120.1h-82.7c-10.3,0-18.7-8.3-18.7-18.7V18.7c0-10.3,8.3-18.7,18.7-18.7h82.7
				c10.3,0,18.7,8.3,18.7,18.7v82.7C278.5,111.7,270.2,120.1,259.8,120.1z M178.6,99.9h80V20.2h-80V99.9z"/>
			<path id="Shape_2_" class="st0" d="M101.9,278.2H19.2c-10.3,0-18.7-8.3-18.7-18.7v-83c0-10.3,8.3-18.7,18.7-18.7h82.7
				c10.3,0,18.7,8.3,18.7,18.7v82.7C120.8,269.7,112.3,278.2,101.9,278.2z M20.7,258.1h80v-80h-80V258.1z"/>
			<path id="Shape_3_" class="st0" d="M259.8,278.2h-82.7c-10.3,0-18.7-8.3-18.7-18.7v-83c0-10.3,8.3-18.7,18.7-18.7h82.7
				c10.3,0,18.7,8.3,18.7,18.7v82.7C278.5,269.7,270.2,278.2,259.8,278.2z M178.6,258.1h80v-80h-80V258.1z"/>
		</g>
	</g>
</g>
</svg>
