<svg width="16" height="16" viewBox="0 0 16 16" fill="none" xmlns="http://www.w3.org/2000/svg">
<path d="M13 14.3333H10.7366L9.43997 15.95L7.30664 11H11.4633L13 14.3333Z" fill="#3885CD"/>
<path d="M9.06065 11L6.89398 15.95L5.59732 14.3333H3.33398L4.87065 11H9.06065Z" fill="#3885CD"/>
<path d="M13.4423 7.53198C13.2599 7.20098 13.2599 6.79931 13.4423 6.46831L13.5296 6.30965C13.8146 5.79131 13.6406 5.13998 13.1339 4.83365L12.9789 4.73965C12.6556 4.54365 12.4549 4.19631 12.4469 3.81865L12.4429 3.63731C12.4309 3.04565 11.9543 2.56898 11.3626 2.55698L11.1813 2.55298C10.8033 2.54531 10.4556 2.34431 10.2603 2.02098L10.1663 1.86598C9.85994 1.35965 9.20861 1.18531 8.69027 1.47031L8.53161 1.55765C8.20061 1.73998 7.79894 1.73998 7.46794 1.55765L7.30961 1.47065C6.79128 1.18565 6.14028 1.35998 5.83394 1.86631L5.73994 2.02131C5.54394 2.34465 5.19661 2.54531 4.81894 2.55331L4.63761 2.55731C4.04594 2.56931 3.56927 3.04598 3.55727 3.63765L3.55327 3.81898C3.54561 4.19698 3.34461 4.54465 3.02127 4.73998L2.86627 4.83398C2.36027 5.14031 2.18561 5.79165 2.47061 6.30998L2.55794 6.46865C2.74027 6.79965 2.74027 7.20131 2.55794 7.53231L2.47094 7.69065C2.18594 8.20898 2.35994 8.86031 2.86661 9.16665L3.02161 9.26065C3.34494 9.45665 3.54561 9.80398 3.55361 10.1816L3.55761 10.363C3.56961 10.9546 4.04627 11.4313 4.63794 11.4433L4.81927 11.4473C5.19727 11.455 5.54494 11.656 5.74027 11.9793L5.83427 12.1343C6.14061 12.6403 6.79194 12.815 7.31028 12.53L7.46894 12.4426C7.79994 12.2603 8.20161 12.2603 8.53261 12.4426L8.69127 12.53C9.20961 12.815 9.86094 12.641 10.1673 12.1343L10.2613 11.9793C10.4573 11.656 10.8046 11.4553 11.1823 11.4473L11.3636 11.4433C11.9553 11.4313 12.4319 10.9546 12.4439 10.363L12.4479 10.1816C12.4556 9.80365 12.6566 9.45598 12.9799 9.26065L13.1349 9.16665C13.6409 8.86031 13.8156 8.20898 13.5306 7.69065L13.4423 7.53198Z" fill="#FF9D33"/>
<path d="M8 3C6.93913 3 5.92172 3.42143 5.17157 4.17157C4.42143 4.92172 4 5.93913 4 7C4 8.06087 4.42143 9.07828 5.17157 9.82843C5.92172 10.5786 6.93913 11 8 11C9.06087 11 10.0783 10.5786 10.8284 9.82843C11.5786 9.07828 12 8.06087 12 7C12 5.93913 11.5786 4.92172 10.8284 4.17157C10.0783 3.42143 9.06087 3 8 3Z" fill="#E8B603"/>
<path d="M7.99935 11.3336C5.61002 11.3336 3.66602 9.38963 3.66602 7.00029C3.66602 4.61096 5.60968 2.66663 7.99935 2.66663C10.389 2.66663 12.3327 4.61063 12.3327 6.99996C12.3327 9.38929 10.3887 11.3336 7.99935 11.3336ZM7.99935 3.33329C5.97735 3.33329 4.33268 4.97829 4.33268 6.99996C4.33268 9.02163 5.97768 10.6666 7.99935 10.6666C10.021 10.6666 11.666 9.02163 11.666 6.99996C11.666 4.97829 10.021 3.33329 7.99935 3.33329Z" fill="#FFD703"/>
</svg>
