<svg width="16" height="16" viewBox="0 0 16 16" fill="none" xmlns="http://www.w3.org/2000/svg">
<path d="M6 2H2.66667C2.29833 2 2 2.29833 2 2.66667V13.3333C2 13.7017 2.29833 14 2.66667 14H6C6.36833 14 6.66667 13.7017 6.66667 13.3333V2.66667C6.66667 2.29833 6.36833 2 6 2Z" fill="#3885CD"/>
<path d="M13.334 2H10.0007C9.63232 2 9.33398 2.29833 9.33398 2.66667V13.3333C9.33398 13.7017 9.63232 14 10.0007 14H13.334C13.7023 14 14.0007 13.7017 14.0007 13.3333V2.66667C14.0007 2.29833 13.7023 2 13.334 2Z" fill="#B2D0EC"/>
<path d="M4.33333 6.66669C3.97971 6.66669 3.64057 6.80716 3.39052 7.05721C3.14048 7.30726 3 7.6464 3 8.00002C3 8.35364 3.14048 8.69278 3.39052 8.94283C3.64057 9.19288 3.97971 9.33335 4.33333 9.33335C4.68696 9.33335 5.02609 9.19288 5.27614 8.94283C5.52619 8.69278 5.66667 8.35364 5.66667 8.00002C5.66667 7.6464 5.52619 7.30726 5.27614 7.05721C5.02609 6.80716 4.68696 6.66669 4.33333 6.66669Z" fill="#044989"/>
<path d="M4.33398 7.33331H11.0007V8.66665H4.33398V7.33331Z" fill="#044989"/>
<path d="M10.666 10.3334V5.66669L12.9993 8.00002L10.666 10.3334Z" fill="#044989"/>
</svg>
