<?xml version="1.0" encoding="utf-8"?>
<!-- Generator: Adobe Illustrator 25.0.0, SVG Export Plug-In . SVG Version: 6.00 Build 0)  -->
<svg version="1.1" id="Ebene_1" xmlns="http://www.w3.org/2000/svg" xmlns:xlink="http://www.w3.org/1999/xlink" x="0px" y="0px"
	 viewBox="0 0 184 243" style="enable-background:new 0 0 184 243;" xml:space="preserve">
<style type="text/css">
	.st0{fill:#E5E1F5;}
	.st1{fill:#5E5E5E;}
	.st2{fill-rule:evenodd;clip-rule:evenodd;fill:#696969;}
	.st3{fill:none;stroke:#696969;stroke-width:20.8;}
</style>
<desc>Created with Sketch.</desc>
<g id="Icons">
	<g id="Artboard" transform="translate(-418.000000, -517.000000)">
		<g id="audit-log" transform="translate(418.000000, 517.000000)">
			<polygon id="Path" class="st0" points="183.3,242.7 0,242.7 0,0.7 124.7,0.7 183.3,59.3 			"/>
			<polygon id="Path_1_" class="st1" points="172.3,66.7 117.3,66.7 117.3,11.7 			"/>
			<g id="settings" transform="translate(40.000000, 94.000000)">
				<path id="Fill-6" class="st2" d="M41.6,30.1V3.7c0-2,1.6-3.6,3.6-3.6h17.7c2,0,3.6,1.6,3.6,3.6v26.4c0,2-1.6,3.6-3.6,3.6H45.2
					C43.2,33.7,41.6,32.1,41.6,30.1"/>
				<path id="Fill-8" class="st2" d="M70.2,32.3l22.9-13.2c1.7-1,3.9-0.4,4.9,1.3l8.9,15.3c1,1.7,0.4,3.9-1.3,4.9L82.6,53.8
					c-1.7,1-3.9,0.4-4.9-1.3l-8.8-15.3C67.9,35.5,68.5,33.3,70.2,32.3"/>
				<path id="Fill-10" class="st2" d="M82.6,58.2l22.9,13.2c1.7,1,2.3,3.1,1.3,4.9L98,91.6c-1,1.7-3.2,2.3-4.9,1.3L70.2,79.7
					c-1.7-1-2.3-3.2-1.3-4.9l8.9-15.3C78.7,57.8,80.9,57.2,82.6,58.2"/>
				<path id="Fill-12" class="st2" d="M66.4,81.9v26.4c0,2-1.6,3.6-3.6,3.6H45.2c-2,0-3.6-1.6-3.6-3.6V81.9c0-2,1.6-3.6,3.6-3.6
					h17.7C64.8,78.3,66.4,79.9,66.4,81.9"/>
				<path id="Fill-14" class="st2" d="M37.8,79.7L14.9,92.9c-1.7,1-3.9,0.4-4.9-1.3L1.2,76.3c-1-1.7-0.4-3.9,1.3-4.9l22.9-13.2
					c1.7-1,3.9-0.4,4.9,1.3l8.8,15.3C40.1,76.5,39.5,78.7,37.8,79.7"/>
				<path id="Fill-16" class="st2" d="M25.4,53.8L2.5,40.6c-1.7-1-2.3-3.1-1.3-4.9L10,20.4c1-1.7,3.2-2.3,4.9-1.3l22.9,13.2
					c1.7,1,2.3,3.2,1.3,4.9l-8.9,15.3C29.3,54.2,27.1,54.8,25.4,53.8"/>
				<path id="Stroke-18" class="st3" d="M81.5,56c0,15.2-12.3,27.5-27.5,27.5c-15.2,0-27.5-12.3-27.5-27.5S38.8,28.5,54,28.5
					C69.2,28.5,81.5,40.8,81.5,56z"/>
			</g>
		</g>
	</g>
</g>
</svg>
