<?xml version="1.0" encoding="utf-8"?>
<svg version="1.1" id="Ebene_1" xmlns="http://www.w3.org/2000/svg" xmlns:xlink="http://www.w3.org/1999/xlink" x="0px" y="0px"
	 viewBox="0 0 382 337" style="enable-background:new 0 0 382 337;" xml:space="preserve">
<style type="text/css">
	.st0{fill:#FFC107;}
	.st1{fill:#FFCA28;}
	.st2{fill:#DEA806;}
	.st3{fill:#FFD90A;}
</style>
<g id="Menu-Icons-EXPORT">
	<g id="EXPORT" transform="translate(-514.000000, -561.000000)">
		<g id="service-groups" transform="translate(514.000000, 561.000000)">
			<g id="_x30_1" transform="translate(93.600000, 0.733333)">
				<polygon id="Path" class="st0" points="95.3,0 190.7,43.3 95.3,86.7 0,43.3 				"/>
				<polygon id="Path_1_" class="st1" points="95.3,190.7 190.7,147.3 190.7,43.3 95.3,86.7 				"/>
				<polygon id="Path_2_" class="st2" points="95.3,0 0,43.3 95.3,86.7 				"/>
				<polygon id="Path_3_" class="st3" points="0,43.3 0,147.3 95.3,190.7 95.3,86.7 				"/>
			</g>
			<g id="_x30_2" transform="translate(0.000000, 146.333333)">
				<polygon id="Path_4_" class="st0" points="95.3,0 190.7,43.3 95.3,86.7 0,43.3 				"/>
				<polygon id="Path_5_" class="st1" points="95.3,190.7 190.7,147.3 190.7,43.3 95.3,86.7 				"/>
				<polygon id="Path_6_" class="st2" points="95.3,0 0,43.3 95.3,86.7 				"/>
				<polygon id="Path_7_" class="st3" points="0,43.3 0,147.3 95.3,190.7 95.3,86.7 				"/>
			</g>
			<g id="_x30_3" transform="translate(190.666667, 146.333333)">
				<polygon id="Path_8_" class="st0" points="95.3,0 190.7,43.3 95.3,86.7 0,43.3 				"/>
				<polygon id="Path_9_" class="st1" points="95.3,190.7 190.7,147.3 190.7,43.3 95.3,86.7 				"/>
				<polygon id="Path_10_" class="st2" points="95.3,0 0,43.3 95.3,86.7 				"/>
				<polygon id="Path_11_" class="st3" points="0,43.3 0,147.3 95.3,190.7 95.3,86.7 				"/>
			</g>
		</g>
	</g>
</g>
</svg>
