<svg width="18" height="18" viewBox="0 0 18 18" fill="none" xmlns="http://www.w3.org/2000/svg">
<path fill-rule="evenodd" clip-rule="evenodd" d="M16.155 0H1.845C0.825 0 0 0.832498 0 1.845V16.1475C0 17.1675 0.8325 17.9925 1.845 17.9925H16.1475C17.1675 17.9925 17.9925 17.16 17.9925 16.1475V1.845C18 0.832498 17.1675 0 16.155 0ZM14.795 3.96167L15.6652 4.83194C15.8607 5.02744 15.8607 5.34906 15.6652 5.54455L7.17064 14.0391C7.07262 14.1372 6.94287 14.1861 6.81322 14.1858C6.68326 14.1863 6.55313 14.1374 6.45487 14.0392L2.33055 9.91483C2.13505 9.71933 2.13505 9.39771 2.33055 9.20221L3.20082 8.33194C3.39631 8.13645 3.71793 8.13645 3.91343 8.33194L6.81276 11.2313L14.0824 3.96167C14.2779 3.76618 14.5963 3.76618 14.795 3.96167Z" fill="#13D389"/>
</svg>

