<svg width="36" height="36" viewBox="0 0 36 36" fill="none" xmlns="http://www.w3.org/2000/svg">
<g clip-path="url(#clip0_4711_7525)">
<path d="M32.2717 4H11.1631C10.2046 4 9.42957 4.78235 9.42957 5.75V30.25C9.42957 31.2176 10.2046 32 11.1631 32H32.2717C33.2302 32 34.0052 31.2176 34.0052 30.25V5.81176C34.0664 4.78235 33.2302 4 32.2717 4Z" fill="#B894EE"/>
<path d="M21.748 29.3235C22.7054 29.3235 23.4815 28.54 23.4815 27.5735C23.4815 26.607 22.7054 25.8235 21.748 25.8235C20.7905 25.8235 20.0144 26.607 20.0144 27.5735C20.0144 28.54 20.7905 29.3235 21.748 29.3235Z" fill="#5A24AB"/>
<path d="M30.0895 11.5353H13.4066C13.1414 11.5353 12.9579 11.4118 12.9579 11.1441V7.58235C12.9579 7.39706 13.1414 7.19118 13.4066 7.19118H30.0895C30.3546 7.19118 30.5381 7.31471 30.5381 7.58235V11.2059C30.5381 11.35 30.3342 11.5353 30.0895 11.5353Z" fill="#5A24AB"/>
<path d="M27.9073 10.2382C28.4029 10.2382 28.8046 9.83266 28.8046 9.33235C28.8046 8.83205 28.4029 8.42647 27.9073 8.42647C27.4117 8.42647 27.0099 8.83205 27.0099 9.33235C27.0099 9.83266 27.4117 10.2382 27.9073 10.2382Z" fill="#B894EE"/>
<path d="M30.0895 17.1147H13.4066C13.1414 17.1147 12.9579 16.9912 12.9579 16.7235V13.1C12.9579 12.9147 13.1414 12.7088 13.4066 12.7088H30.0895C30.3546 12.7088 30.5381 12.8323 30.5381 13.1V16.7441C30.5381 16.9294 30.3342 17.1147 30.0895 17.1147Z" fill="#5A24AB"/>
<path d="M27.9073 15.8176C28.4029 15.8176 28.8046 15.4121 28.8046 14.9118C28.8046 14.4115 28.4029 14.0059 27.9073 14.0059C27.4117 14.0059 27.0099 14.4115 27.0099 14.9118C27.0099 15.4121 27.4117 15.8176 27.9073 15.8176Z" fill="#B894EE"/>
<path d="M30.0895 22.6529H13.4066C13.1414 22.6529 12.9579 22.5294 12.9579 22.2618V18.6176C12.9579 18.4324 13.1414 18.2265 13.4066 18.2265H30.0895C30.3546 18.2265 30.5381 18.35 30.5381 18.6176V22.2618C30.5381 22.5088 30.3342 22.6529 30.0895 22.6529Z" fill="#5A24AB"/>
<path d="M27.9073 21.3971C28.4029 21.3971 28.8046 20.9915 28.8046 20.4912C28.8046 19.9909 28.4029 19.5853 27.9073 19.5853C27.4117 19.5853 27.0099 19.9909 27.0099 20.4912C27.0099 20.9915 27.4117 21.3971 27.9073 21.3971Z" fill="#B894EE"/>
<path fill-rule="evenodd" clip-rule="evenodd" d="M6.05921 5.73756H8.07829C9.77105 5.73756 11.1375 7.11698 11.1375 8.8258V23.2787C11.1375 24.9876 9.77105 26.367 8.07829 26.367H6.05921C4.36645 26.367 3 24.9876 3 23.2787V8.8258C3 7.11698 4.36645 5.73756 6.05921 5.73756Z" fill="#303946"/>
<path fill-rule="evenodd" clip-rule="evenodd" d="M7.0789 7.79639C8.20061 7.79639 9.11838 8.72286 9.11838 9.85521V9.8758C9.11838 11.0082 8.20061 11.9346 7.0789 11.9346C5.95719 11.9346 5.03943 11.0082 5.03943 9.8758V9.85521C5.03943 8.72286 5.95719 7.79639 7.0789 7.79639Z" fill="#ED3B3B"/>
<path fill-rule="evenodd" clip-rule="evenodd" d="M7.0789 13.9934C8.20061 13.9934 9.11838 14.9199 9.11838 16.0523V16.0729C9.11838 17.2052 8.20061 18.1317 7.0789 18.1317C5.95719 18.1317 5.03943 17.2052 5.03943 16.0729V16.0523C5.03943 14.8993 5.95719 13.9934 7.0789 13.9934Z" fill="#FAD90D"/>
<path fill-rule="evenodd" clip-rule="evenodd" d="M7.0789 20.1699C8.20061 20.1699 9.11838 21.0964 9.11838 22.2287V22.2493C9.11838 23.3817 8.20061 24.3082 7.0789 24.3082C5.95719 24.3082 5.03943 23.3817 5.03943 22.2493V22.2287C5.03943 21.0964 5.95719 20.1699 7.0789 20.1699Z" fill="#52D300"/>
</g>
<path fill-rule="evenodd" clip-rule="evenodd" d="M28 36C23.5932 36 20 32.4068 20 28C20 23.5932 23.5932 20 28 20C32.4068 20 36 23.5932 36 28C36 32.4068 32.4068 36 28 36Z" fill="white"/>
<path fill-rule="evenodd" clip-rule="evenodd" d="M26.7794 31.3559V23.8644C26.7794 23.5932 26.9489 23.3559 27.1523 23.3559H28.9828C29.1862 23.3559 29.3557 23.5932 29.3557 23.8644V31.3559C29.3557 31.6271 29.1862 31.8644 28.9828 31.8644H27.1523C26.9489 31.8644 26.7794 31.6271 26.7794 31.3559Z" fill="#1E262E"/>
<path fill-rule="evenodd" clip-rule="evenodd" d="M30.5762 31.4576V25.4576C30.5762 25.2542 30.7457 25.0508 30.9491 25.0508H32.7796C32.983 25.0508 33.1524 25.2203 33.1524 25.4576V31.4576C33.1524 31.661 32.983 31.8644 32.7796 31.8644H30.9491C30.7118 31.8644 30.5762 31.6949 30.5762 31.4576Z" fill="#1E262E"/>
<path fill-rule="evenodd" clip-rule="evenodd" d="M23.3896 31.5593V27.0508C23.3896 26.8813 23.5591 26.7457 23.7625 26.7457H25.593C25.7964 26.7457 25.9659 26.8813 25.9659 27.0508V31.5593C25.9659 31.7288 25.7964 31.8644 25.593 31.8644H23.7625C23.5591 31.8644 23.3896 31.7288 23.3896 31.5593Z" fill="#1E262E"/>
<defs>
<clipPath id="clip0_4711_7525">
<rect width="31" height="28" fill="white" transform="translate(3 4)"/>
</clipPath>
</defs>
</svg>
