<?xml version="1.0" encoding="utf-8"?>
<!-- Generator: Adobe Illustrator 25.0.0, SVG Export Plug-In . SVG Version: 6.00 Build 0)  -->
<svg version="1.1" id="Layer_1" xmlns="http://www.w3.org/2000/svg" xmlns:xlink="http://www.w3.org/1999/xlink" x="0px" y="0px"
	 viewBox="0 0 51 51" style="enable-background:new 0 0 51 51;" xml:space="preserve">
<style type="text/css">
	.st0{fill:#891212;}
	.st1{fill:#90CAF9;}
	.st2{fill:#CFE8F9;}
	.st3{fill:#1E88E5;}
	.st4{fill:#F44336;}
	.st5{fill:#C62828;}
	.st6{fill:#C55860;}
</style>
<g>
	<polyline class="st0" points="10.5,29.2 8.5,17.7 1.8,20.3 	"/>
	<polyline class="st0" points="39.2,28.5 42.5,17.7 49.2,20.3 	"/>
	<g>
		<path class="st1" d="M27.4,14.4l7.5-10.8c-2.7-1.7-5.9-2.7-9.3-2.7c-9.8,0-17.7,7.9-17.7,17.7s7.9,17.7,17.7,17.7
			s17.7-7.9,17.7-17.7c0-2.8-0.7-5.5-1.9-7.9L29,17.6L27.4,14.4z"/>
		<path class="st2" d="M34.9,3.6l-7.5,10.8l1.6,3.2l12.4-6.9C39.9,7.8,37.6,5.3,34.9,3.6z"/>
		<path class="st2" d="M18.6,33.8l5.5-11.9L22,19l-11,8.8C12.9,30.5,15.6,32.6,18.6,33.8z"/>
		<circle class="st3" cx="25.6" cy="18.6" r="4.6"/>
		<circle class="st0" cx="25.6" cy="18.6" r="1.8"/>
	</g>
	<polygon class="st4" points="1.8,20.3 1.8,41.1 25.2,50.1 25.2,34.6 	"/>
	<polygon class="st5" points="49.2,20.3 49.2,41.1 25.8,50.1 25.8,34.6 	"/>
	<rect x="25.2" y="34.6" class="st6" width="0.6" height="15.5"/>
</g>
</svg>
