<svg xmlns="http://www.w3.org/2000/svg" width="12" height="13" viewBox="0 0 12 13" fill="none">
<path d="M6 2.5C3.79075 2.5 2 4.29075 2 6.5C2 7.32053 2.2487 8.08194 2.67317 8.71629L3.676 7.75L4.25 10.75L1 10.3285L1.93806 9.42463C1.32475 8.58595 1 7.56421 1 6.50125C1 3.738 3.23675 1.50125 6 1.50125C6.3155 1.50125 6.63125 1.528 6.92125 1.60625L6.748 2.5725C6.50525 2.5265 6.256 2.5 6 2.5Z" fill="white"/>
<path d="M10.0651 3.57266L11 2.672L7.75 2.2505L8.324 5.25L9.32895 4.28186C9.75282 4.91658 10 5.67941 10 6.5C10 8.70925 8.20925 10.5 6 10.5C5.74275 10.5 5.49175 10.4735 5.248 10.427L5.079 11.3698C5.3945 11.4223 5.71025 11.449 6 11.449C8.76325 11.449 11 9.21225 11 6.449C11 5.44662 10.6753 4.42245 10.0651 3.57266Z" fill="white"/>
</svg>
