<?xml version="1.0" encoding="utf-8"?>
<!-- Generator: Adobe Illustrator 25.0.0, SVG Export Plug-In . SVG Version: 6.00 Build 0)  -->
<svg version="1.1" id="Ebene_1" xmlns="http://www.w3.org/2000/svg" xmlns:xlink="http://www.w3.org/1999/xlink" x="0px" y="0px"
	 viewBox="0 0 216 246" style="enable-background:new 0 0 216 246;" xml:space="preserve">
<style type="text/css">
	.st0{fill:#FFD90A;}
	.st1{fill:#FFC107;}
</style>
<desc>Created with Sketch.</desc>
<g id="Icons">
	<g id="Artboard" transform="translate(-402.000000, -515.000000)">
		<g id="refresh-3" transform="translate(402.000000, 515.000000)">
			<path id="Path" class="st0" d="M199.6,80.1c-2.3-3.6-7.1-4.3-10.5-1.9l-23.3,17.6c-2.9,2.2-3.7,6.2-1.9,9.4
				c5.9,10.1,8.9,20.9,8.9,32.1c0,35.7-29.1,64.8-64.8,64.8S43.2,173,43.2,137.3c0-33.3,25.2-60.8,57.6-64.4v21.2
				c0,4.3,3.5,7.1,7.2,7.2c1.4,0,3-0.4,4.3-1.4l57.6-43.2c3.9-2.9,3.9-8.6,0-11.5L112.3,1.4C111,0.4,109.4,0,108,0
				c-3.7,0-7.2,3-7.2,7.2v22.4C44.6,33.2,0,80.1,0,137.3c0,59.6,48.4,108.5,108,108.5s108-48.9,108-108.5
				C216,117.1,210.2,97.4,199.6,80.1z"/>
			<g id="Group" transform="translate(108.000000, 0.000000)">
				<path id="Path_1_" class="st1" d="M4.3,99.8c-1.3,1-2.9,1.4-4.3,1.4V0c1.4,0,3,0.4,4.3,1.4l57.6,43.7c3.9,2.9,3.9,8.6,0,11.5
					L4.3,99.8z"/>
				<path id="Path_2_" class="st1" d="M108,137.3c0,59.6-48.4,108.5-108,108.5v-43.7c35.7,0,64.8-29.1,64.8-64.8
					c0-11.2-3-22-8.9-32.1c-1.9-3.2-1-7.2,1.9-9.4l23.3-17.6c3.5-2.4,8.2-1.7,10.5,1.9C102.2,97.4,108,117.1,108,137.3z"/>
			</g>
		</g>
	</g>
</g>
</svg>
