<?xml version="1.0" encoding="utf-8"?>
<!-- Generator: Adobe Illustrator 25.0.0, SVG Export Plug-In . SVG Version: 6.00 Build 0)  -->
<svg version="1.1" id="Ebene_1" xmlns="http://www.w3.org/2000/svg" xmlns:xlink="http://www.w3.org/1999/xlink" x="0px" y="0px"
	 viewBox="0 0 259 287" style="enable-background:new 0 0 259 287;" xml:space="preserve">
<style type="text/css">
	.st0{fill:#B894EE;}
</style>
<desc>Created with Sketch.</desc>
<g id="Icons">
	<g id="Artboard" transform="translate(-277.000000, -862.000000)">
		<g id="scatterplot" transform="translate(277.000000, 862.000000)">
			<path id="Path" class="st0" d="M115.1,101.4c-23.2,0-42,18.8-42,42s18.8,42,42,42s42-18.8,42-42S138.2,101.4,115.1,101.4z"/>
			<path id="Path_1_" class="st0" d="M196.3,0c-18.5,0-33.6,15.1-33.6,33.6s15.1,33.6,33.6,33.6s33.6-15.1,33.6-33.6
				S214.8,0,196.3,0z"/>
			<path id="Path_2_" class="st0" d="M45.1,0C20.4,0,0.3,20.1,0.3,44.8s20.1,44.8,44.8,44.8s44.8-20.1,44.8-44.8S69.8,0,45.1,0z"/>
			<path id="Path_3_" class="st0" d="M213.6,168.6c-24.7,0-44.8,20.1-44.8,44.8s20.1,44.8,44.8,44.8s44.8-20.1,44.8-44.8
				S238.3,168.6,213.6,168.6z"/>
			<path id="Path_4_" class="st0" d="M33.9,219.5c-18.5,0-33.6,15.1-33.6,33.6s15.1,33.6,33.6,33.6s33.6-15.1,33.6-33.6
				S52.4,219.5,33.9,219.5z"/>
		</g>
	</g>
</g>
</svg>
