<svg width="100" height="100" viewBox="0 0 100 100" fill="none" xmlns="http://www.w3.org/2000/svg">
<circle cx="50" cy="50" r="50" fill="#D0D5D9"/>
<path d="M49.9997 24.24C35.7948 24.24 24.2397 35.7962 24.2397 50C24.2397 64.2038 35.7948 75.76 49.9997 75.76C64.2047 75.76 75.7597 64.2038 75.7597 50C75.7597 35.7962 64.2047 24.24 49.9997 24.24ZM29.8397 50C29.8397 45.4506 31.3753 41.264 33.9277 37.8872L62.1125 66.072C58.7357 68.6245 54.5492 70.16 49.9997 70.16C38.8837 70.16 29.8397 61.116 29.8397 50ZM66.0717 62.1128L37.8869 33.928C41.2637 31.3755 45.4503 29.84 49.9997 29.84C61.1157 29.84 70.1597 38.884 70.1597 50C70.1597 54.5494 68.6242 58.736 66.0717 62.1128Z" fill="#536279"/>
</svg>
