<svg width="36" height="36" viewBox="0 0 36 36" fill="none" xmlns="http://www.w3.org/2000/svg">
<g clip-path="url(#clip0_4711_3689)">
<path d="M32 28.1131H4V18.7798L11.7817 7.11113L22.6667 12.5575L32 4.00002V28.1131Z" fill="#B894EE"/>
<path d="M32 32H4V24.2262L11.7817 18.004L22.6667 19.5556L32 12.5575V32Z" fill="#8F5ED8"/>
<path fill-rule="evenodd" clip-rule="evenodd" d="M28 36C23.5932 36 20 32.4068 20 28C20 23.5932 23.5932 20 28 20C32.4068 20 36 23.5932 36 28C36 32.4068 32.4068 36 28 36Z" fill="white"/>
<path fill-rule="evenodd" clip-rule="evenodd" d="M26.7794 31.3559V23.8644C26.7794 23.5932 26.9489 23.3559 27.1523 23.3559H28.9828C29.1862 23.3559 29.3557 23.5932 29.3557 23.8644V31.3559C29.3557 31.6271 29.1862 31.8644 28.9828 31.8644H27.1523C26.9489 31.8644 26.7794 31.6271 26.7794 31.3559Z" fill="#1E262E"/>
<path fill-rule="evenodd" clip-rule="evenodd" d="M30.5762 31.4576V25.4576C30.5762 25.2542 30.7457 25.0508 30.9491 25.0508H32.7796C32.983 25.0508 33.1524 25.2203 33.1524 25.4576V31.4576C33.1524 31.661 32.983 31.8644 32.7796 31.8644H30.9491C30.7118 31.8644 30.5762 31.6949 30.5762 31.4576Z" fill="#1E262E"/>
<path fill-rule="evenodd" clip-rule="evenodd" d="M23.3896 31.5593V27.0508C23.3896 26.8813 23.5591 26.7457 23.7625 26.7457H25.593C25.7964 26.7457 25.9659 26.8813 25.9659 27.0508V31.5593C25.9659 31.7288 25.7964 31.8644 25.593 31.8644H23.7625C23.5591 31.8644 23.3896 31.7288 23.3896 31.5593Z" fill="#1E262E"/>
</g>
<defs>
<clipPath id="clip0_4711_3689">
<rect width="36" height="36" fill="white"/>
</clipPath>
</defs>
</svg>
