<svg width="14" height="14" viewBox="0 0 14 14" fill="none" xmlns="http://www.w3.org/2000/svg">
<path d="M5.49035 4.05059L5.52809 4.91854L4.9243 6.05064L3.98087 7.89975L3.79219 9.44696L4.47145 11.6357L6.01866 12.5036H8.35835L10.5471 10.8432L11.5282 8.23938L9.26403 5.48459L8.62251 3.93738L5.49035 4.05059Z" fill="#ECEFF1"/>
<path d="M10.849 6.20158C10.2452 5.33363 9.75463 4.80532 9.49047 3.71095C9.22632 2.61658 9.56595 2.91848 9.33953 1.97505C9.22632 1.48448 9.03763 1.14484 8.84895 0.880686C8.62253 0.616528 8.35837 0.465581 8.20742 0.427844C7.86779 0.23916 7.07532 -0.0627352 6.09416 0.465581C5.07526 0.993897 5.18847 2.126 5.37716 4.42795C5.37716 4.5789 5.33942 4.76758 5.26395 4.91853C5.113 5.25816 4.84884 5.56005 4.62242 5.82421C4.35826 6.20158 4.09411 6.57895 3.90542 6.99406C3.45258 7.862 3.03747 8.95637 3.15068 9.37148C3.33937 9.33374 5.71679 12.9565 5.71679 13.032C5.86774 12.9942 6.50926 12.9942 7.07532 12.9942C7.86779 12.9565 8.32063 12.9187 8.96216 13.0697C8.96216 12.9565 8.92442 12.8433 8.92442 12.7301C8.92442 12.5036 8.96216 12.315 8.99989 12.0508C9.03763 11.8621 9.07537 11.6734 9.11311 11.447C8.73574 11.7866 8.05647 12.164 7.41495 12.2772C6.8489 12.3904 5.90547 12.2017 5.45263 11.6357C5.49037 11.6357 5.56584 11.6357 5.60358 11.598C5.71679 11.5602 5.83 11.5225 5.86774 11.447C5.98095 11.2583 5.90547 11.0696 5.83 10.9564C5.75453 10.8432 5.18847 10.4281 4.92432 10.2017C4.66016 9.97527 4.50921 9.86206 4.35826 9.71111C4.35826 9.71111 4.13184 9.48469 4.05637 9.40921C3.98089 9.33374 3.94316 9.25827 3.90542 9.22053C3.82995 9.03185 3.79221 8.80542 3.82995 8.50353C3.86768 8.08842 4.01863 7.74879 4.20732 7.37142C4.28279 7.22048 4.47147 6.91858 4.47147 6.91858C4.47147 6.91858 3.82995 8.50353 4.16958 8.99411C4.16958 8.99411 4.20732 8.50353 4.35826 8.01295C4.47147 7.67332 4.66016 7.18274 4.88658 6.91858C5.113 6.65442 5.67905 5.67327 5.71679 5.06948C5.71679 4.80532 5.75453 4.54116 5.75453 4.35248C5.60358 4.20153 8.24516 3.82416 8.39611 4.23927C8.43384 4.39021 8.96216 5.74874 9.26405 6.46574C9.415 6.80537 9.60368 7.10727 9.71689 7.48463C9.83011 7.89974 9.90558 8.46579 9.90558 9.03185C9.90558 9.14506 9.90558 9.33374 9.86784 9.52242C9.94332 9.52242 11.4151 7.93748 9.67916 6.61669C9.67916 6.61669 10.7358 7.10727 10.7735 8.08842C10.8113 8.8809 10.4716 9.52242 10.3962 9.63564C10.4339 9.63564 11.1886 9.97527 11.2264 9.97527C11.3773 9.97527 11.6792 9.86206 11.6792 9.86206C11.7169 9.74885 11.8302 9.44695 11.8302 9.33374C12.0943 8.46579 11.4528 7.06953 10.849 6.20158Z" fill="#263238"/>
<path d="M6.05642 2.20148C5.92631 2.20148 5.80153 2.281 5.70953 2.42254C5.61753 2.56408 5.56584 2.75605 5.56584 2.95622C5.56584 3.15639 5.61753 3.34836 5.70953 3.4899C5.80153 3.63144 5.92631 3.71096 6.05642 3.71096C6.18653 3.71096 6.31131 3.63144 6.40331 3.4899C6.49531 3.34836 6.547 3.15639 6.547 2.95622C6.547 2.75605 6.49531 2.56408 6.40331 2.42254C6.31131 2.281 6.18653 2.20148 6.05642 2.20148ZM7.75458 2.05054C7.58444 2.05054 7.42126 2.14198 7.30095 2.30475C7.18064 2.46752 7.11305 2.68829 7.11305 2.91848C7.11305 3.14868 7.18064 3.36944 7.30095 3.53222C7.42126 3.69499 7.58444 3.78643 7.75458 3.78643C7.92472 3.78643 8.0879 3.69499 8.20821 3.53222C8.32852 3.36944 8.39611 3.14868 8.39611 2.91848C8.39611 2.68829 8.32852 2.46752 8.20821 2.30475C8.0879 2.14198 7.92472 2.05054 7.75458 2.05054Z" fill="#ECEFF1"/>
<path d="M5.80659 3.07403C5.81404 3.13303 5.82821 3.1906 5.84827 3.24344C5.86833 3.29628 5.89389 3.34337 5.9235 3.38201C5.95311 3.42065 5.98618 3.45009 6.02083 3.46865C6.05548 3.48721 6.09103 3.49452 6.12545 3.49017C6.15986 3.48582 6.19247 3.4699 6.22141 3.4433C6.25036 3.4167 6.27506 3.37996 6.29413 3.33516C6.31319 3.29037 6.32623 3.2384 6.33251 3.18223C6.33879 3.12606 6.33819 3.06678 6.33073 3.00778C6.32327 2.94878 6.30911 2.89122 6.28905 2.83838C6.26899 2.78553 6.24343 2.73845 6.21382 2.6998C6.18421 2.66116 6.15113 2.63172 6.11648 2.61316C6.08183 2.5946 6.04629 2.58729 6.01187 2.59164C5.97745 2.59599 5.94484 2.61192 5.9159 2.63851C5.88696 2.66511 5.86225 2.70186 5.84319 2.74665C5.82413 2.79144 5.81108 2.84341 5.8048 2.89958C5.79852 2.95576 5.79913 3.01503 5.80659 3.07403Z" fill="#212121"/>
<path d="M7.71683 2.57884C7.61675 2.57884 7.52076 2.63053 7.44999 2.72253C7.37922 2.81453 7.33946 2.93931 7.33946 3.06942C7.33946 3.19953 7.37922 3.32431 7.44999 3.41631C7.52076 3.50831 7.61675 3.56 7.71683 3.56C7.81692 3.56 7.9129 3.50831 7.98367 3.41631C8.05444 3.32431 8.0942 3.19953 8.0942 3.06942C8.0942 2.93931 8.05444 2.81453 7.98367 2.72253C7.9129 2.63053 7.81692 2.57884 7.71683 2.57884Z" fill="#212121"/>
<path d="M12.7358 11.3715C12.5849 11.2961 12.3207 11.1828 12.0943 10.8432C11.9811 10.6545 12.0188 10.1262 11.8302 9.89979C11.7169 9.74884 11.566 9.82432 11.5283 9.82432C11.1886 9.89979 10.3962 10.4281 9.86784 9.82432C9.79236 9.74884 9.67915 9.63563 9.49047 9.63563C9.30178 9.63563 9.22631 9.7111 9.15083 9.86205C9.07536 10.013 9.07536 10.1262 9.07536 10.5036C9.07536 10.8055 9.07536 11.1451 9.03762 11.4093C8.96215 12.0508 8.84894 12.4282 8.84894 12.8055C8.84894 13.2206 8.96215 13.4848 9.1131 13.598C9.22631 13.7112 9.41499 13.7867 9.8301 13.7867C10.2452 13.7867 10.5094 13.6357 10.7735 13.3716C10.9622 13.1829 11.1132 13.1074 11.6415 12.7301C12.0566 12.4659 12.6981 12.1263 12.8113 12.0131C12.8868 11.9376 13 11.8998 13 11.6734C13 11.4847 12.849 11.4093 12.7358 11.3715ZM5.15073 11.4847C4.77336 10.8809 4.73562 10.7677 4.47147 10.3904C4.24504 10.013 3.75447 9.296 3.45257 9.296C3.22615 9.296 3.11294 9.40921 2.96199 9.56016C2.81104 9.7111 2.6601 10.0507 2.39594 10.2394C2.16952 10.4281 1.52799 10.3904 1.37704 10.6168C1.2261 10.8432 1.52799 11.1828 1.52799 11.7489C1.52799 11.9753 1.33931 12.1263 1.30157 12.2772C1.26383 12.4659 1.2261 12.5791 1.30157 12.7301C1.45252 12.9565 1.6412 13.0319 2.92425 13.2961C3.60352 13.4471 4.24504 13.8244 4.66015 13.8622C5.07525 13.8999 5.79226 13.8622 5.79226 12.8433C5.82999 12.2395 5.49036 12.0885 5.15073 11.4847ZM5.86773 4.65437C5.64131 4.50342 5.45262 4.35247 5.45262 4.12605C5.45262 3.89963 5.60357 3.82416 5.82999 3.63547C5.86773 3.59774 6.28283 3.22037 6.69794 3.22037C7.11304 3.22037 7.60362 3.48453 7.79231 3.56C8.13194 3.63547 8.47157 3.71095 8.43383 3.9751C8.3961 4.35247 8.35836 4.42795 7.98099 4.61663C7.71684 4.6921 7.22626 5.10721 6.88662 5.10721C6.73568 5.10721 6.50926 5.10721 6.35831 5.06947C6.2451 5.03174 6.05641 4.84305 5.86773 4.65437Z" fill="#FFC107"/>
<path d="M5.79224 4.35247C5.86771 4.42795 5.98092 4.50342 6.09413 4.54116C6.16961 4.5789 6.28282 4.61663 6.28282 4.61663C6.43377 4.61663 6.54698 4.61663 6.62245 4.61663C6.81113 4.61663 7.07529 4.54116 7.33945 4.39021C7.60361 4.277 7.64134 4.20153 7.83003 4.12605C8.01871 4.01284 8.2074 3.89963 8.13192 3.8619C8.05645 3.82416 7.98098 3.8619 7.71682 4.01284C7.4904 4.16379 7.30171 4.23926 7.07529 4.35247C6.96208 4.39021 6.81113 4.46569 6.69792 4.46569C6.58471 4.46569 6.4715 4.46569 6.35829 4.46569C6.24508 4.46569 6.16961 4.42795 6.0564 4.39021C5.98092 4.35247 5.94319 4.31474 5.90545 4.31474C5.82998 4.277 5.67903 4.12605 5.60356 4.08832C5.60356 4.08832 5.52808 4.08832 5.56582 4.12605C5.67903 4.23926 5.71677 4.277 5.79224 4.35247ZM6.92434 3.52226C6.96208 3.59774 7.03756 3.59774 7.07529 3.63547C7.11303 3.67321 7.15077 3.67321 7.15077 3.67321C7.1885 3.63547 7.15077 3.56 7.11303 3.56C7.11303 3.48453 6.92434 3.48453 6.92434 3.52226ZM6.32056 3.59774C6.32056 3.63547 6.39603 3.67321 6.39603 3.63547C6.43377 3.59774 6.4715 3.56 6.50924 3.56C6.58471 3.52226 6.54698 3.48453 6.43377 3.48453C6.35829 3.52226 6.35829 3.56 6.32056 3.59774Z" fill="#634703"/>
<path d="M9.98106 10.2772C9.98106 10.3149 9.98106 10.3526 9.98106 10.3904C10.0565 10.5413 10.2452 10.5791 10.3962 10.5791C10.6226 10.5791 10.849 10.4281 10.9622 10.2772C10.9622 10.2394 11 10.2017 11.0377 10.164C11.1132 10.0507 11.1509 9.97527 11.1886 9.93753C11.1886 9.93753 11.1509 9.8998 11.1509 9.86206C11.1132 9.78659 11 9.71111 10.849 9.67337C10.7358 9.63564 10.5471 9.5979 10.4716 9.5979C10.132 9.56017 9.94332 9.67338 9.83011 9.78659C9.83011 9.78659 9.86785 9.78659 9.86785 9.82432C9.94332 9.8998 9.98106 9.97527 9.98106 10.0885C10.0188 10.164 9.98106 10.2017 9.98106 10.2772Z" fill="#455A64"/>
</svg>
