<svg width="14" height="14" viewBox="0 0 14 14" fill="none" xmlns="http://www.w3.org/2000/svg">
<path d="M13 7C13 10.3137 10.3137 13 7 13C3.68629 13 1 10.3137 1 7C1 3.68629 3.68629 1 7 1C10.3137 1 13 3.68629 13 7Z" fill="white"/>
<path d="M11.9778 2.0222C10.6556 0.699981 8.86667 0 7 0C5.13333 0 3.34444 0.699981 2.02222 2.0222C0.7 3.34443 0 5.13333 0 7C0 8.86667 0.7 10.6556 2.02222 11.9778C3.34444 13.3 5.13333 14 7 14C8.86667 14 10.6556 13.3 11.9778 11.9778C13.3 10.6556 14 8.86667 14 7C14 5.13333 13.3 3.34443 11.9778 2.0222ZM7 1.94444C7.85556 1.94444 8.47778 2.64446 8.47778 3.42224C8.47778 4.20002 7.77778 4.89999 7 4.89999C6.22222 4.89999 5.52222 4.20002 5.52222 3.42224C5.52222 2.64446 6.14444 1.94444 7 1.94444ZM8.94444 11.5111H5.13333V10.6556H5.98889V6.53335H5.13333V5.67777H8.16667V10.5778H9.02222V11.5111H8.94444Z" fill="#0667C1"/>
</svg>
