<svg width="33" height="32" viewBox="0 0 33 32" fill="none" xmlns="http://www.w3.org/2000/svg">
<g clip-path="url(#clip0_1232_62)">
<path fill-rule="evenodd" clip-rule="evenodd" d="M17.2579 3.18711C17.2579 2.282 18.0458 1.55472 19.0263 1.55472H19.1105C19.9617 1.55472 20.6677 2.10278 20.8392 2.83946C20.3404 3.12809 20.0088 3.64007 20.0088 4.22354C20.0088 5.12509 20.8005 5.85593 21.7772 5.85593C22.7539 5.85593 23.5456 5.12509 23.5456 4.22354C23.5456 3.57072 23.1305 3.00741 22.5306 2.74627C22.2989 1.19215 20.8591 6.10352e-05 19.1105 6.10352e-05H19.0263C17.1156 6.10352e-05 15.5737 1.42339 15.5737 3.18711V5.83002H15.2324C13.2591 5.83002 11.6096 6.87367 11.2427 8.25269H8.47192C5.53858 8.25269 3.15262 10.4422 3.15262 13.1499V14.7714C3.11026 14.7732 3.06815 14.7762 3.02632 14.7803C1.60852 14.9202 0.5 16.3751 0.5 18.1339V22.8055C0.5 24.576 1.61733 26.0194 3.02632 26.159C3.06817 26.1632 3.11027 26.1662 3.15262 26.168V27.0381C3.15262 29.7328 5.53858 31.9353 8.47192 31.9353H24.3596C27.293 31.9353 29.6789 29.7458 29.6789 27.0381V26.1647C29.6836 26.1644 29.6883 26.1641 29.693 26.1638C31.1753 26.0564 32.3596 24.5987 32.3596 22.8055V18.1339C32.3596 16.3527 31.1848 14.8832 29.693 14.7756C29.6883 14.7753 29.6836 14.7749 29.6789 14.7746V13.1499C29.6789 10.4422 27.293 8.25269 24.3596 8.25269H21.6169C21.2501 6.87367 19.6005 5.83002 17.6273 5.83002H17.2579V3.18711ZM29.693 16.3502C29.8394 16.393 30.0169 16.4956 30.1993 16.7121C30.4655 17.028 30.6754 17.5267 30.6754 18.1339V22.8055C30.6754 23.4177 30.4638 23.9152 30.1979 24.229C30.0158 24.444 29.8385 24.5461 29.693 24.5889V16.3502ZM3.02632 24.5601C2.91828 24.5097 2.78869 24.4164 2.65107 24.2486C2.39355 23.9344 2.18421 23.43 2.18421 22.8055V18.1339C2.18421 17.5145 2.3918 17.0088 2.64969 16.6925C2.78782 16.5231 2.91778 16.4293 3.02632 16.3788V24.5601ZM15.2324 7.38468H17.6273C18.6813 7.38468 19.3497 7.76054 19.7017 8.162H13.158C13.51 7.76054 14.1783 7.38468 15.2324 7.38468ZM24.3596 9.80734H8.47192C6.46295 9.80734 4.83683 11.3061 4.83683 13.1499V27.0381C4.83683 28.8716 6.46585 30.3806 8.47192 30.3806H24.3596C26.3686 30.3806 27.9947 28.8818 27.9947 27.0381V13.1499C27.9947 11.3061 26.3686 9.80734 24.3596 9.80734Z" fill="#15D1A0"/>
<path fill-rule="evenodd" clip-rule="evenodd" d="M22.6052 15.5596C21.6053 15.5596 20.7947 16.3078 20.7947 17.2309C20.7947 18.1539 21.6053 18.9021 22.6052 18.9021C23.6051 18.9021 24.4157 18.1539 24.4157 17.2309C24.4157 16.3078 23.6051 15.5596 22.6052 15.5596ZM19.1105 17.2309C19.1105 15.4492 20.6751 14.0049 22.6052 14.0049C24.5353 14.0049 26.0999 15.4492 26.0999 17.2309C26.0999 19.0125 24.5353 20.4568 22.6052 20.4568C20.6751 20.4568 19.1105 19.0125 19.1105 17.2309Z" fill="#15D1A0"/>
<path fill-rule="evenodd" clip-rule="evenodd" d="M10.8158 15.5596C9.81586 15.5596 9.00526 16.3078 9.00526 17.2309C9.00526 18.1539 9.81586 18.9021 10.8158 18.9021C11.8157 18.9021 12.6263 18.1539 12.6263 17.2309C12.6263 16.3078 11.8157 15.5596 10.8158 15.5596ZM7.32104 17.2309C7.32104 15.4492 8.88569 14.0049 10.8158 14.0049C12.7459 14.0049 14.3105 15.4492 14.3105 17.2309C14.3105 19.0125 12.7459 20.4568 10.8158 20.4568C8.88569 20.4568 7.32104 19.0125 7.32104 17.2309Z" fill="#15D1A0"/>
</g>
<defs>
<clipPath id="clip0_1232_62">
<rect width="32" height="32" fill="white" transform="translate(0.5 6.10352e-05)"/>
</clipPath>
</defs>
</svg>
