<svg version="1.1" viewBox="0 0 762 742" xmlns="http://www.w3.org/2000/svg">
 <path d="m379 30.1a46.7 46.3 0 0 0-17.9 4.53l-244 117a46.7 46.3 0 0 0-25.3 31.4l-60.3 262a46.7 46.3 0 0 0 6.34 35.5 46.7 46.3 0 0 0 2.66 3.69l169 210a46.7 46.3 0 0 0 36.5 17.4l271-0.0625a46.7 46.3 0 0 0 36.5-17.4l169-210a46.7 46.3 0 0 0 9.03-39.2l-60.4-262a46.7 46.3 0 0 0-25.3-31.4l-244-117a46.7 46.3 0 0 0-22.7-4.53z" fill="#326ce5" stroke="#fff" stroke-width="40" style="paint-order:stroke fill markers"/>
 <path d="m382 119c-8.08 8.2e-4 -14.6 7.28-14.6 16.2 1e-5 0.138 0.0282 0.269 0.0312 0.406-0.0119 1.22-0.0708 2.69-0.0312 3.75 0.193 5.18 1.32 9.14 2 13.9 1.23 10.2 2.26 18.7 1.62 26.5-0.619 2.97-2.8 5.68-4.75 7.56l-0.344 6.19c-8.78 0.727-17.6 2.06-26.4 4.06-38 8.62-70.7 28.2-95.6 54.6-1.62-1.1-4.44-3.13-5.28-3.75-2.61 0.353-5.25 1.16-8.69-0.844-6.54-4.41-12.5-10.5-19.7-17.8-3.3-3.5-5.7-6.84-9.62-10.2-0.892-0.767-2.25-1.8-3.25-2.59-3.07-2.45-6.69-3.72-10.2-3.84-4.5-0.154-8.82 1.6-11.7 5.16-5.04 6.32-3.42 16 3.59 21.6 0.0712 0.0567 0.147 0.101 0.219 0.156 0.964 0.782 2.14 1.78 3.03 2.44 4.17 3.08 7.97 4.65 12.1 7.09 8.75 5.4 16 9.88 21.8 15.3 2.25 2.39 2.64 6.61 2.94 8.44l4.69 4.19c-25.1 37.8-36.7 84.4-29.8 132l-6.12 1.78c-1.61 2.08-3.9 5.36-6.28 6.34-7.53 2.37-16 3.24-26.2 4.31-4.8 0.399-8.94 0.161-14 1.12-1.12 0.212-2.68 0.619-3.91 0.906-0.0426 9e-3 -0.0824 0.0216-0.125 0.0312-0.0668 0.0155-0.155 0.0479-0.219 0.0625-8.62 2.08-14.2 10-12.4 17.8 1.78 7.81 10.2 12.6 18.9 10.7 0.0626-0.0143 0.154-0.0167 0.219-0.0312 0.0979-0.0224 0.184-0.0699 0.281-0.0937 1.21-0.265 2.72-0.561 3.78-0.844 5-1.34 8.63-3.31 13.1-5.03 9.68-3.47 17.7-6.37 25.5-7.5 3.26-0.255 6.7 2.01 8.41 2.97l6.38-1.09c14.7 45.5 45.4 82.2 84.3 105l-2.66 6.38c0.957 2.48 2.01 5.82 1.3 8.27-2.84 7.36-7.7 15.1-13.2 23.8-2.68 4-5.42 7.11-7.84 11.7-0.579 1.1-1.32 2.78-1.88 3.94-3.76 8.04-1 17.3 6.22 20.8 7.27 3.5 16.3-0.191 20.2-8.25 6e-3 -0.0114 0.0257-0.0198 0.0312-0.0312 4e-3 -9e-3 -4e-3 -0.0225 0-0.0312 0.556-1.14 1.34-2.64 1.81-3.72 2.07-4.75 2.76-8.82 4.22-13.4 3.87-9.72 6-19.9 11.3-26.3 1.46-1.74 3.84-2.41 6.3-3.07l3.31-6c33.9 13 71.9 16.5 110 7.91 8.66-1.97 17-4.51 25.1-7.56 0.931 1.65 2.66 4.83 3.12 5.62 2.51 0.815 5.24 1.24 7.47 4.53 3.99 6.81 6.71 14.9 10 24.6 1.46 4.59 2.18 8.66 4.25 13.4 0.472 1.08 1.26 2.6 1.81 3.75 3.89 8.08 12.9 11.8 20.2 8.28 7.22-3.48 9.98-12.7 6.22-20.8-0.559-1.16-1.33-2.84-1.91-3.94-2.42-4.58-5.16-7.65-7.84-11.7-5.54-8.66-10.1-15.9-13-23.2-1.19-3.8 0.2-6.16 1.12-8.62-0.554-0.635-1.74-4.22-2.44-5.91 40.5-23.9 70.3-62 84.3-106 1.89 0.297 5.18 0.879 6.25 1.09 2.2-1.45 4.22-3.34 8.19-3.03 7.81 1.13 15.8 4.03 25.5 7.5 4.5 1.72 8.12 3.72 13.1 5.06 1.06 0.283 2.57 0.547 3.78 0.812 0.0972 0.0238 0.183 0.0714 0.281 0.0937 0.0653 0.0146 0.156 0.0169 0.219 0.0312 8.67 1.87 17.1-2.88 18.9-10.7 1.78-7.81-3.75-15.7-12.4-17.8-1.25-0.285-3.03-0.769-4.25-1-5.09-0.964-9.23-0.726-14-1.12-10.2-1.07-18.7-1.94-26.2-4.31-3.07-1.19-5.25-4.84-6.31-6.34l-5.91-1.72c3.06-22.2 2.24-45.2-3.06-68.3-5.35-23.3-14.8-44.6-27.4-63.3 1.52-1.38 4.38-3.91 5.19-4.66 0.237-2.62 0.0334-5.38 2.75-8.28 5.75-5.4 13-9.88 21.8-15.3 4.15-2.44 7.99-4.02 12.2-7.09 0.942-0.696 2.23-1.8 3.22-2.59 7.02-5.6 8.63-15.2 3.59-21.6s-14.8-6.91-21.8-1.31c-0.999 0.791-2.35 1.82-3.25 2.59-3.93 3.38-6.35 6.71-9.66 10.2-7.21 7.33-13.2 13.4-19.7 17.8-2.84 1.65-6.99 1.08-8.88 0.969l-5.56 3.97c-31.7-33.3-74.9-54.5-121-58.7-0.13-1.95-0.3-5.47-0.344-6.53-1.9-1.82-4.2-3.38-4.78-7.31-0.636-7.86 0.426-16.3 1.66-26.5 0.679-4.77 1.81-8.73 2-13.9 0.0438-1.18-0.0265-2.88-0.0312-4.16-9.6e-4 -8.97-6.55-16.3-14.6-16.2zm-18.3 113-4.34 76.7-0.312 0.156c-0.291 6.86-5.94 12.3-12.9 12.3-2.84 0-5.46-0.912-7.59-2.47l-0.125 0.0625-62.9-44.6c19.3-19 44.1-33.1 72.6-39.5 5.21-1.18 10.4-2.06 15.6-2.69zm36.7 0c33.3 4.09 64 19.2 87.6 42.2l-62.5 44.3-0.219-0.0937c-5.55 4.05-13.4 3.05-17.7-2.38-1.77-2.22-2.7-4.83-2.81-7.47l-0.0625-0.0312zm-148 70.9 57.4 51.4-0.0625 0.312c5.18 4.51 5.95 12.3 1.62 17.8-1.77 2.22-4.14 3.71-6.69 4.41l-0.0625 0.25-73.6 21.2c-3.75-34.3 4.33-67.6 21.4-95.3zm258 0.0312c8.53 13.8 15 29.3 18.8 46 3.8 16.5 4.75 33.1 3.19 49l-74-21.3-0.0625-0.312c-6.63-1.81-10.7-8.55-9.16-15.3 0.632-2.77 2.1-5.11 4.09-6.84l-0.0312-0.156 57.1-51.1zm-141 55.3h23.5l14.6 18.3-5.25 22.8-21.1 10.2-21.2-10.2-5.25-22.8zm75.4 62.6c1-0.0505 2 0.0396 2.97 0.219l0.125-0.156 76.2 12.9c-11.1 31.3-32.5 58.4-61 76.6l-29.6-71.4 0.0937-0.125c-2.72-6.31 2e-3 -13.7 6.25-16.7 1.6-0.77 3.27-1.2 4.94-1.28zm-128 0.312c5.81 0.0815 11 4.12 12.4 10 0.632 2.77 0.324 5.51-0.719 7.94l0.219 0.281-29.2 70.7c-27.3-17.5-49.1-43.8-60.8-76.1l75.5-12.8 0.125 0.156c0.845-0.155 1.7-0.23 2.53-0.219zm63.8 31c2.02-0.0744 4.08 0.341 6.03 1.28 2.56 1.23 4.54 3.17 5.78 5.5h0.281l37.2 67.2c-4.83 1.62-9.8 3-14.9 4.16-28.5 6.46-56.8 4.5-82.5-4.25l37.1-67.1h0.0625c2.23-4.16 6.45-6.65 10.9-6.81z" fill="#fff"/>
</svg>
