<svg width="24" height="24" viewBox="0 0 24 24" fill="none" xmlns="http://www.w3.org/2000/svg">
<g clip-path="url(#clip0_2203_25)">
<path d="M11.9998 3.14783C9.64955 3.14783 7.39558 4.08634 5.73372 5.75689C4.07186 7.42743 3.13824 9.69318 3.13824 12.0557C3.13824 13.8829 3.68876 15.5788 4.62919 16.9918L6.85122 14.8394L8.12285 21.5203L0.922852 20.5816L3.00088 18.5685C1.64285 16.7011 0.922852 14.4274 0.922852 12.0579C0.922852 5.90482 5.87756 0.923096 11.9998 0.923096C12.6987 0.923096 13.3977 0.983224 14.0401 1.15693L13.6569 3.30929C13.1108 3.20342 12.556 3.14937 11.9998 3.14783ZM21.0053 5.53625L23.0767 3.53087L15.8767 2.59221L17.1483 9.27199L19.3748 7.11629C20.2641 8.45792 20.7745 10.017 20.8517 11.6273C20.9288 13.2377 20.5697 14.8388 19.8127 16.2601C19.0557 17.6815 17.9292 18.8696 16.5533 19.6979C15.1773 20.5262 13.6036 20.9637 11.9998 20.9636C11.4406 20.9622 10.8828 20.9078 10.3338 20.801L9.95941 22.901C10.6584 23.0179 11.3584 23.0769 11.9998 23.0769C18.1209 23.0769 23.0767 18.0952 23.0767 11.9421C23.0767 9.70959 22.3567 7.42917 21.0053 5.53625Z" fill="#13D389"/>
<path fill-rule="evenodd" clip-rule="evenodd" d="M11.9998 10.0891C13.0835 10.0891 13.9392 10.9448 13.9392 12.0285C13.9392 13.1123 13.0835 13.9679 11.9998 13.9679C10.916 13.9679 10.0604 13.1123 10.0604 12.0285C10.0604 10.9448 10.916 10.0891 11.9998 10.0891ZM6.92312 13.8539L7.89282 15.508C8.0069 15.6792 8.23506 15.7932 8.46323 15.7362L9.88925 15.2228C10.0033 15.2799 10.1174 15.394 10.2885 15.451L10.5737 16.9341C10.6308 17.1622 10.8019 17.3334 11.0301 17.3334H12.9695C13.1976 17.3334 13.3688 17.1622 13.4258 16.9341L13.711 15.451C13.8251 15.394 13.9962 15.3369 14.1103 15.2228L15.5363 15.6792C15.7645 15.7362 15.9926 15.6792 16.1067 15.451L17.0764 13.7968C17.1905 13.6257 17.1335 13.3405 16.9623 13.1694L15.8215 12.1997C15.8215 12.1426 15.8215 12.0285 15.8215 11.9715C15.8215 11.9145 15.8215 11.8004 15.8215 11.7433L16.9623 10.7736C17.1335 10.6596 17.1905 10.4314 17.0764 10.2032L16.1067 8.54904C15.9926 8.37792 15.7645 8.26383 15.5363 8.32088L14.1103 8.7772C13.9962 8.72016 13.8821 8.60608 13.711 8.54904L13.4258 7.06597C13.3688 6.83781 13.1976 6.66669 12.9695 6.66669H11.0301C10.8019 6.66669 10.6308 6.83781 10.5737 7.06597L10.2885 8.54904C10.1174 8.66312 10.0033 8.72016 9.88925 8.7772L8.46323 8.32088C8.23506 8.26383 8.0069 8.32088 7.89282 8.54904L6.92312 10.2032C6.80904 10.4314 6.86608 10.6596 7.0372 10.8307L8.17802 11.8004C8.17802 11.8574 8.17802 11.9715 8.17802 12.0285C8.17802 12.0856 8.17802 12.1997 8.17802 12.2567L7.0372 13.2264C6.86608 13.3975 6.80904 13.6257 6.92312 13.8539Z" fill="#13D389"/>
</g>
<defs>
<clipPath id="clip0_2203_25">
<rect width="24" height="24" fill="white"/>
</clipPath>
</defs>
</svg>
