<svg width="24" height="24" viewBox="0 0 24 24" fill="none" xmlns="http://www.w3.org/2000/svg">
<g clip-path="url(#clip0_326_5)">
<path d="M12 3.14783C9.64978 3.14783 7.39581 4.08634 5.73395 5.75689C4.07209 7.42743 3.13847 9.69318 3.13847 12.0557C3.13847 13.8829 3.68899 15.5788 4.62942 16.9918L6.85145 14.8394L8.12308 21.5203L0.92308 20.5816L3.00111 18.5685C1.64308 16.7011 0.92308 14.4274 0.92308 12.0579C0.92308 5.90482 5.87779 0.923096 12 0.923096C12.699 0.923096 13.3979 0.983224 14.0404 1.15693L13.6571 3.30929C13.111 3.20342 12.5562 3.14937 12 3.14783ZM21.0055 5.53625L23.0769 3.53087L15.8769 2.59221L17.1486 9.27199L19.375 7.11629C20.2643 8.45792 20.7748 10.017 20.8519 11.6273C20.929 13.2377 20.5699 14.8388 19.8129 16.2601C19.056 17.6815 17.9294 18.8696 16.5535 19.6979C15.1776 20.5262 13.6038 20.9637 12 20.9636C11.4408 20.9622 10.883 20.9078 10.334 20.801L9.95963 22.901C10.6586 23.0179 11.3586 23.0769 12 23.0769C18.1211 23.0769 23.0769 18.0952 23.0769 11.9421C23.0769 9.70959 22.3569 7.42917 21.0055 5.53625Z" fill="#505862"/>
<path fill-rule="evenodd" clip-rule="evenodd" d="M12 10.0891C13.0838 10.0891 13.9394 10.9447 13.9394 12.0285C13.9394 13.1123 13.0838 13.9679 12 13.9679C10.9162 13.9679 10.0606 13.1123 10.0606 12.0285C10.0606 10.9447 10.9162 10.0891 12 10.0891ZM6.92335 13.8538L7.89305 15.508C8.00713 15.6791 8.23529 15.7932 8.46346 15.7361L9.88948 15.2228C10.0036 15.2798 10.1176 15.3939 10.2888 15.4509L10.574 16.934C10.631 17.1622 10.8021 17.3333 11.0303 17.3333H12.9697C13.1979 17.3333 13.369 17.1622 13.426 16.934L13.7112 15.4509C13.8253 15.3939 13.9964 15.3369 14.1105 15.2228L15.5365 15.6791C15.7647 15.7361 15.9929 15.6791 16.107 15.4509L17.0766 13.7968C17.1907 13.6256 17.1337 13.3404 16.9626 13.1693L15.8217 12.1996C15.8217 12.1426 15.8217 12.0285 15.8217 11.9714C15.8217 11.9144 15.8217 11.8003 15.8217 11.7433L16.9626 10.7736C17.1337 10.6595 17.1907 10.4313 17.0766 10.2032L16.107 8.54898C15.9929 8.37786 15.7647 8.26377 15.5365 8.32081L14.1105 8.77714C13.9964 8.7201 13.8824 8.60602 13.7112 8.54898L13.426 7.06591C13.369 6.83775 13.1979 6.66663 12.9697 6.66663H11.0303C10.8021 6.66663 10.631 6.83775 10.574 7.06591L10.2888 8.54898C10.1176 8.66306 10.0036 8.7201 9.88948 8.77714L8.46346 8.32081C8.23529 8.26377 8.00713 8.32081 7.89305 8.54898L6.92335 10.2032C6.80927 10.4313 6.86631 10.6595 7.03743 10.8306L8.17825 11.8003C8.17825 11.8574 8.17825 11.9714 8.17825 12.0285C8.17825 12.0855 8.17825 12.1996 8.17825 12.2566L7.03743 13.2263C6.86631 13.3975 6.80927 13.6256 6.92335 13.8538Z" fill="#505862"/>
</g>
<defs>
<clipPath id="clip0_326_5">
<rect width="24" height="24" fill="white"/>
</clipPath>
</defs>
</svg>
