<svg width="20" height="20" viewBox="0 0 20 20" fill="none" xmlns="http://www.w3.org/2000/svg">
<g clip-path="url(#clip0_3_2)">
<path fill-rule="evenodd" clip-rule="evenodd" d="M1.81818 0C0.814036 0 0 0.814036 0 1.81818V18.1818C0 19.186 0.814036 20 1.81818 20H18.1818C19.186 20 20 19.186 20 18.1818V11.8182C20 11.3161 19.5929 10.9091 19.0909 10.9091C18.5889 10.9091 18.1818 11.3161 18.1818 11.8182V18.1818H1.81818V1.81818H8.18182C8.68389 1.81818 9.09091 1.41116 9.09091 0.909091C9.09091 0.407018 8.68389 0 8.18182 0H1.81818ZM19.7338 0.266273C19.8209 0.353436 19.8867 0.453891 19.9311 0.561109C19.9747 0.666709 19.9993 0.782364 20 0.903636V0.909091V6.36364C20 6.86571 19.5929 7.27273 19.0909 7.27273C18.5889 7.27273 18.1818 6.86571 18.1818 6.36364V3.10384L8.82464 12.461C8.46962 12.816 7.89402 12.816 7.539 12.461C7.18396 12.106 7.18396 11.5304 7.539 11.1754L16.8962 1.81818H13.6364C13.1343 1.81818 12.7273 1.41116 12.7273 0.909091C12.7273 0.407018 13.1343 0 13.6364 0H19.0907C19.214 0 19.3316 0.0245273 19.4389 0.0689818C19.5462 0.113345 19.6465 0.179109 19.7338 0.266273Z" fill="white"/>
</g>
<defs>
<clipPath id="clip0_3_2">
<rect width="20" height="20" fill="white"/>
</clipPath>
</defs>
</svg>
