<svg width="140" height="140" viewBox="0 0 140 140" fill="none" xmlns="http://www.w3.org/2000/svg">
<circle cx="70" cy="70" r="70" fill="#48525C"/>
<path d="M83.2384 98.8889C82.1856 105.2 76.6528 110 70 110C63.3472 110 57.8144 105.2 56.7616 98.8889H83.2384ZM92.4 87.7778H47.6V94.4445H92.4V87.7778ZM91.28 83.3333C93.52 81.1111 96.88 75.5556 98 72.2222C94.64 73.3333 83.44 75.5556 83.44 75.5556C85.68 72.2222 87.92 67.7778 87.92 62.2222C87.92 54.4444 78.96 46.6667 81.2 36.6667C75.6 42.2222 75.6 53.3333 75.6 57.7778C74.48 54.4444 74.48 51.1111 74.48 48.8889C74.48 42.2222 67.76 36.6667 70 30C70 30 64.4 32.2222 64.4 38.8889C64.4 46.6667 63.28 51.1111 61.04 53.3333C61.04 46.6667 58.8 42.2222 55.44 41.1111C56.56 43.3333 56.56 44.4444 56.56 45.5556C56.56 48.8889 50.96 58.8889 50.96 65.5556C50.96 70 53.2 73.3333 56.56 75.5556C56.56 75.5556 47.6 73.3333 42 72.2222C43.12 75.5556 46.48 81.1111 48.72 83.3333C48.72 83.3333 86.8 83.3333 91.28 83.3333Z" fill="#20272E"/>
</svg>
