<?xml version="1.0" encoding="utf-8"?>
<!-- Generator: Adobe Illustrator 25.0.0, SVG Export Plug-In . SVG Version: 6.00 Build 0)  -->
<svg version="1.1" id="Ebene_1" xmlns="http://www.w3.org/2000/svg" xmlns:xlink="http://www.w3.org/1999/xlink" x="0px" y="0px"
	 viewBox="0 0 260 260" style="enable-background:new 0 0 260 260;" xml:space="preserve">
<style type="text/css">
	.st0{fill:#40454D;}
	.st1{fill-rule:evenodd;clip-rule:evenodd;fill:#505862;}
</style>
<desc>Created with Sketch.</desc>
<path id="path-1_1_" class="st0" d="M221.9,38.1C197.4,13.5,164.7,0,130,0S62.6,13.5,38.1,38.1C13.5,62.6,0,95.3,0,130
	s13.5,67.4,38.1,91.9C62.6,246.5,95.3,260,130,260s67.4-13.5,91.9-38.1c24.6-24.6,38.1-57.2,38.1-91.9S246.5,62.6,221.9,38.1z
	 M130,35.5c15.4,0,27.9,12.5,27.9,27.9s-12.5,28-27.9,28s-27.9-12.5-27.9-27.9S114.6,35.5,130,35.5z M165.5,213.3h-71V198h15.2
	v-76.2H94.5v-15.2h55.9V198h15.2L165.5,213.3L165.5,213.3z"/>
<path class="st1" d="M140,0.4v37c10.5,4,17.9,14.2,17.9,26c0,11.9-7.4,22.1-17.9,26.1v17.1h10.4V198h15.2v15.3h-0.1H140v46.3
	c30.9-2.3,59.8-15.5,81.9-37.7c24.6-24.6,38.1-57.2,38.1-91.9s-13.5-67.4-38.1-91.9C199.8,15.9,170.9,2.7,140,0.4z"/>
</svg>
