<svg width="36" height="36" viewBox="0 0 36 36" fill="none" xmlns="http://www.w3.org/2000/svg">
<path d="M28.4851 28.6512H17.9933L16.4464 19.2472L17.9933 9.52313H20.7507C21.7461 9.52313 22.7146 9.86994 23.4947 10.4835C24.2749 11.0971 24.813 11.9775 25.0282 12.9379L28.4851 28.6512Z" fill="#EB3030"/>
<path d="M17.9931 9.52313V28.6512H7.50134L10.6489 13.0179C11.0524 10.9904 12.8683 9.52313 14.9398 9.52313H17.9931Z" fill="#F05353"/>
<path d="M17.0382 2H19.1904V7.3089H17.0382V2Z" fill="#F33232"/>
<path d="M28.0411 13.8717L33.6233 12.7645L33.9999 14.6053L28.4178 15.7124L28.0411 13.8717Z" fill="#F33232"/>
<path d="M24.9071 8.24259L28.929 4.24091L30.2741 5.5748L26.2522 9.56314L24.9071 8.24259Z" fill="#F33232"/>
<path d="M2 14.5996L2.36318 12.7455L7.94535 13.8526L7.58218 15.7067L2 14.5996Z" fill="#F33232"/>
<path d="M5.6991 5.56915L7.0442 4.2486L11.0661 8.23694L9.72095 9.57083L5.6991 5.56915Z" fill="#F33232"/>
<path d="M30.3278 29.9928V33.9811H17.9932L16.7826 30.7131L17.9932 26.7648H27.0861C28.8616 26.7781 30.3278 28.2187 30.3278 29.9928Z" fill="#4D606B"/>
<path d="M17.9932 26.7704V33.9868H5.65857V29.9984C5.65857 28.2243 7.11128 26.7837 8.90027 26.7837H17.9932V26.7704Z" fill="#697C86"/>
</svg>
