<?xml version="1.0" encoding="utf-8"?>
<!-- Generator: Adobe Illustrator 26.0.1, SVG Export Plug-In . SVG Version: 6.00 Build 0)  -->
<svg version="1.1" id="Ebene_1" xmlns="http://www.w3.org/2000/svg" xmlns:xlink="http://www.w3.org/1999/xlink" x="0px" y="0px"
	 viewBox="0 0 234 239" style="enable-background:new 0 0 234 239;" xml:space="preserve">
<style type="text/css">
	.st0{fill:#42D389;}
	.st1{fill:#1C9F5C;}
</style>
<g id="Icons">
	<g id="EXIT" transform="translate(-623.000000, -437.000000)">
		<g id="global-settings" transform="translate(623.000000, 437.000000)">
			<path id="Shape" class="st0" d="M205.8,132.1c0.6-4,1.1-8,1.1-12.6s-0.6-8.6-1.1-12.6l25.7-18.3c2.3-1.7,3.4-5.1,1.7-8
				l-25.1-42.3c-1.7-2.9-4.6-4-7.4-2.3l-28.5,13.2c-6.9-5.1-13.7-9.1-21.7-12.6l-2.9-31.4C147,2.3,144.7,0,141.8,0H92.7
				C89.9,0,87,2.3,87,5.1l-2.9,31.4c-8,3.4-15.4,7.4-21.7,12.6L33.9,36c-2.9-1.1-6.3,0-7.4,2.3L2,80.6c-1.7,2.9-0.6,6.3,1.7,8
				l25.7,18.3c-0.6,4-1.1,8-1.1,12.6s0.6,8.6,1.1,12.6L2.5,150.4c-2.3,1.7-3.4,5.1-1.7,8l24.5,42.3c1.7,2.9,4.6,4,7.4,2.3l28.5-13.2
				C68.2,195,75,199,83,202.4l2.9,31.4c0.6,2.9,2.9,5.1,5.7,5.1h49.1c2.9,0,5.7-2.3,5.7-5.1l2.9-31.4c8-3.4,15.4-7.4,21.7-12.6
				l28.5,13.2c2.9,1.1,6.3,0,7.4-2.3l24.5-42.3c1.7-2.9,0.6-6.3-1.7-8L205.8,132.1z M116.7,176.7c-31.4,0-57.1-25.7-57.1-57.2
				s25.7-57.2,57.1-57.2s57.1,25.7,57.1,57.2S148.1,176.7,116.7,176.7z"/>
			<path id="Shape_00000032640974028208153900000003770394715243607982_" class="st1" d="M116.7,50.9c-37.7,0-68.5,30.9-68.5,68.6
				s30.8,68.6,68.5,68.6s68.5-30.9,68.5-68.6S154.4,50.9,116.7,50.9z M116.7,148.1c-16,0-28.5-12.6-28.5-28.6s12.6-28.6,28.5-28.6
				s28.5,12.6,28.5,28.6S132.7,148.1,116.7,148.1z"/>
		</g>
	</g>
</g>
</svg>
