<?xml version="1.0" encoding="utf-8"?>
<!-- Generator: Adobe Illustrator 27.3.0, SVG Export Plug-In . SVG Version: 6.00 Build 0)  -->
<svg version="1.1" id="Ebene_1" xmlns="http://www.w3.org/2000/svg" xmlns:xlink="http://www.w3.org/1999/xlink" x="0px" y="0px"
	 viewBox="0 0 3000 3000" style="enable-background:new 0 0 3000 3000;" xml:space="preserve">
<style type="text/css">
	.st0{fill:#15D1A0;}
</style>
<g id="Ebene_2-2">
	<g>
		<g id="Gruppe_1280">
			<g id="Gruppe_1276">
				<path id="Pfad_1" class="st0" d="M157.3,2888.2c-101,0-157.4-57.1-157.4-163.4V2648c0-106.2,55.8-163.4,156.6-163.4
					c93.4,0,146.9,49,150.6,133.3h-40.7c-4.5-64.7-41.5-96.3-108.6-96.3c-77.5,0-115.9,42.2-115.9,128.7v72.3
					c0,86.7,38.4,128.7,115.9,128.7c67.1,0,103.9-31.6,108.6-96.3h40.7C303.4,2837.8,251.3,2888.3,157.3,2888.2 M407.3,2879.3
					v-549.9h42.2v232c26.9-48.7,78.5-78.1,134.1-76.8c79.9,0,120.6,48.3,120.6,139.4v255.3H662v-250.8c0-70.8-27.1-105.4-85.1-105.4
					c-54.3,0-96.3,30.1-127.4,100.2v256.1L407.3,2879.3L407.3,2879.3z M976.8,2888.2c-105.5,0-163.4-57.2-163.4-163.4V2648
					c0-106.2,56.6-163.4,159.7-163.4S1132,2541.8,1132,2648v47.5H855.6v26.4c0,87.4,39.2,129.5,119.8,129.5
					c69.4,0,108.6-31.6,113-85.1h40.7c-5.2,79.1-61.1,122.1-152.2,122.1 M855.6,2659.5h235.7v-8.3c0-87.4-38.4-129.5-118.2-129.5
					s-117.5,42.2-117.5,129.5V2659.5L855.6,2659.5z M1382,2888.4c-101,0-157.4-57.2-157.4-163.4v-76.8
					c0-106.2,55.8-163.4,156.6-163.4c93.4,0,146.9,49,150.6,133.3h-40.7c-4.4-64.7-41.5-96.3-108.6-96.3
					c-77.5,0-115.9,42.2-115.9,128.7v72.3c0,86.7,38.4,128.7,115.9,128.7c67.1,0,103.9-31.6,108.6-96.3h40.7
					C1528.1,2838,1476,2888.5,1382,2888.4 M1632.1,2879.5v-550.1h42.2v378.9l215.3-214.8h54.3l-158.2,157.4L1947,2879h-51.1
					l-140.1-198.1l-81.4,79.8v118.2h-42.1L1632.1,2879.5L1632.1,2879.5L1632.1,2879.5z M2019.3,2879.5v-389h56.4l2.3,61.1
					c24.4-44.4,71.5-71.5,122.1-70c54.3,0,91.1,23.2,107,67.8c25.4-43,72.1-69,122.1-67.8c77.5,0,120.6,46.7,120.6,132.6v265.2
					h-66.3v-259.9c0-51.9-22.7-76.8-63.2-76.8s-73.9,25.6-102.5,82.2v254.7h-66.3v-259.9c0-51.9-22.7-76.8-63.4-76.8
					c-40.7,0-73.9,25.6-102.5,85.9v250.8h-66.5L2019.3,2879.5L2019.3,2879.5L2019.3,2879.5z M2668.8,2879.5v-550.1h66.3V2682
					l179.3-191.3h82.8L2848,2648.9l152.1,230.5H2921l-119-182.2l-67.1,70v112.2h-66.3L2668.8,2879.5L2668.8,2879.5L2668.8,2879.5z"
					/>
			</g>
		</g>
		<path id="Pfad_2630" class="st0" d="M1500.1,111.5L2316.6,584v944.9l-816.6,472.7l-816.7-472.7V584L1500.1,111.5z M963.9,799.5
			V1113l384.7-248.4v647l151.7,87.5l151.4-87.5v-647l384.4,248.4V799.5l-536.2-336.1L963.9,799.5L963.9,799.5L963.9,799.5z"/>
	</g>
</g>
</svg>
