<svg width="24" height="24" viewBox="0 0 24 24" fill="none" xmlns="http://www.w3.org/2000/svg">
<path d="M8.00001 3L1.45001 8.5L8.00001 14V10.5H15.5C17.15 10.5 18.5 11.85 18.5 13.5C18.5 15.15 17.15 16.5 15.5 16.5H14.5V20.5H15.5C19.35 20.5 22.5 17.35 22.5 13.5C22.5 9.65 19.35 6.5 15.5 6.5H8.00001V3Z" fill="#2196F3"/>
<path d="M7.50001 16.5H5.50001V20.5H7.50001V16.5Z" fill="#2196F3"/>
<path d="M4.50001 16.5H2.50001V20.5H4.50001V16.5Z" fill="#2196F3"/>
<path d="M10.5 16.5H8.50001V20.5H10.5V16.5Z" fill="#2196F3"/>
<path d="M13.5 16.5H11.5V20.5H13.5V16.5Z" fill="#2196F3"/>
</svg>
