<svg width="36" height="36" viewBox="0 0 36 36" fill="none" xmlns="http://www.w3.org/2000/svg">
<g clip-path="url(#clip0_2112_1017)">
<path d="M19.0258 19.6304C17.5504 21.107 17.5504 23.4999 19.0258 24.9764C20.5024 26.4519 22.8953 26.4519 24.3707 24.9764C25.8473 23.4999 25.8473 21.107 24.3707 19.6304C22.8953 18.155 20.5024 18.155 19.0258 19.6304ZM23.0216 23.6295C22.8479 23.8035 22.6416 23.9415 22.4145 24.0356C22.1875 24.1298 21.9441 24.1782 21.6983 24.1782C21.4525 24.1782 21.2091 24.1298 20.982 24.0356C20.755 23.9415 20.5487 23.8035 20.375 23.6295C20.2012 23.4558 20.0634 23.2496 19.9693 23.0226C19.8753 22.7956 19.8269 22.5524 19.8269 22.3067C19.8269 22.061 19.8753 21.8177 19.9693 21.5907C20.0634 21.3637 20.2012 21.1575 20.375 20.9838C20.5487 20.8099 20.755 20.6719 20.982 20.5777C21.2091 20.4836 21.4525 20.4351 21.6983 20.4351C21.9441 20.4351 22.1875 20.4836 22.4145 20.5777C22.6416 20.6719 22.8479 20.8099 23.0216 20.9838C23.7523 21.7111 23.7523 22.8988 23.0216 23.6295ZM24.3083 1.03277L21.9922 3.34859C21.7742 3.56827 21.6518 3.86524 21.6518 4.17476C21.6518 4.48428 21.7742 4.78124 21.9922 5.00093L31.0341 14.0428C31.2538 14.2609 31.5508 14.3832 31.8603 14.3832C32.1698 14.3832 32.4668 14.2609 32.6864 14.0428L35.0023 11.7267C35.4551 11.2739 35.4551 10.5283 35.0023 10.0758L25.9564 1.03249C25.7373 0.81499 25.4411 0.692932 25.1323 0.692932C24.8236 0.692932 24.5274 0.815271 24.3083 1.03277ZM8.08241 30.6267C8.27988 30.4284 8.39075 30.1599 8.39075 29.88C8.39075 29.6001 8.27988 29.3316 8.08241 29.1333L6.90594 27.9557C6.70738 27.7583 6.43878 27.6475 6.1588 27.6475C5.87882 27.6475 5.61022 27.7583 5.41166 27.9557L2.98053 30.3882L2.97603 30.3916L2.30919 29.7236C1.93991 29.3544 1.33888 29.3544 0.97325 29.7236C0.603969 30.0926 0.603969 30.6937 0.97325 31.0596L4.97994 35.0651C5.06753 35.1529 5.17156 35.2225 5.28608 35.27C5.4006 35.3175 5.52337 35.3419 5.64734 35.3419C5.77132 35.3419 5.89409 35.3175 6.00861 35.27C6.12313 35.2225 6.22716 35.1529 6.31475 35.0651C6.68038 34.6959 6.68403 34.0948 6.31475 33.7303L5.64678 33.0624L5.65128 33.059L8.08241 30.6267Z" fill="#F5A800"/>
<path d="M20.3338 7.68179L15.1889 12.8264C14.7318 13.2834 14.7318 14.0361 15.1889 14.4931L18.3659 17.6693C20.6114 16.0532 23.7602 16.2532 25.7805 18.2748L28.3533 15.7016C28.8095 15.2446 28.8095 14.4931 28.3533 14.0361L21.9996 7.68179C21.8903 7.57234 21.7605 7.48552 21.6176 7.42628C21.4747 7.36704 21.3215 7.33655 21.1668 7.33655C21.0121 7.33655 20.859 7.36704 20.7161 7.42628C20.5732 7.48552 20.4431 7.57234 20.3338 7.68179ZM17.0299 19.0083L15.1534 17.1318C14.7138 16.6925 13.9933 16.6925 13.5548 17.1318L6.93698 23.7524C6.72589 23.965 6.60742 24.2525 6.60742 24.5521C6.60742 24.8518 6.72589 25.1392 6.93698 25.3519L10.6863 29.1015C10.899 29.3127 11.1865 29.4312 11.4862 29.4312C11.7859 29.4312 12.0734 29.3127 12.2861 29.1015L16.542 24.8386C15.6422 22.9798 15.8037 20.7343 17.0299 19.0083Z" fill="#425CC7"/>
</g>
<defs>
<clipPath id="clip0_2112_1017">
<rect width="36" height="36" fill="white"/>
</clipPath>
</defs>
</svg>
