<?xml version="1.0" encoding="utf-8"?>
<!-- Generator: Adobe Illustrator 24.2.1, SVG Export Plug-In . SVG Version: 6.00 Build 0)  -->
<svg version="1.1" id="Ebene_1" xmlns="http://www.w3.org/2000/svg" xmlns:xlink="http://www.w3.org/1999/xlink" x="0px" y="0px"
	 viewBox="0 0 11 11" style="enable-background:new 0 0 11 11;" xml:space="preserve">
<style type="text/css">
	.st0{fill-rule:evenodd;clip-rule:evenodd;fill:#13D389;}
</style>
<desc>Created with Sketch.</desc>
<g>
	<path class="st0" d="M9,0.5H2C1.1,0.5,0.5,1.1,0.5,2v7c0,0.9,0.6,1.5,1.5,1.5h7c0.9,0,1.5-0.6,1.5-1.5V2C10.5,1.1,9.9,0.5,9,0.5z
		 M9.5,9c0,0.3-0.2,0.5-0.5,0.5H2C1.7,9.5,1.5,9.3,1.5,9V2c0-0.3,0.2-0.5,0.5-0.5h7c0.3,0,0.5,0.2,0.5,0.5V9z"/>
	<rect x="7" y="2" class="st0" width="2" height="7"/>
</g>
</svg>
