<svg width="18" height="18" viewBox="0 0 18 18" fill="none" xmlns="http://www.w3.org/2000/svg">
<path d="M9.39906 7.63412C8.82506 8.20811 8.82506 9.1388 9.39906 9.7128C9.97305 10.2868 10.9037 10.2868 11.4777 9.7128C12.0517 9.1388 12.0517 8.20811 11.4777 7.63412C10.9037 7.06012 9.97305 7.06012 9.39906 7.63412ZM10.9529 9.18937C10.6687 9.47363 10.2081 9.47363 9.92385 9.18937C9.63959 8.9051 9.63959 8.44454 9.92385 8.16028C10.2081 7.87601 10.6687 7.87601 10.9529 8.16028C11.2372 8.44318 11.2372 8.9051 10.9529 9.18937ZM11.4531 0.401785L10.5525 1.30241C10.3762 1.47871 10.3762 1.76844 10.5525 1.94474L14.0689 5.46114C14.2452 5.63744 14.5349 5.63744 14.7112 5.46114L15.6119 4.56051C15.7882 4.38421 15.7882 4.09448 15.6119 3.91819L12.0941 0.401785C11.9178 0.225487 11.6294 0.225487 11.4531 0.401785ZM5.1433 11.9104C5.3032 11.7505 5.3032 11.4894 5.1433 11.3295L4.68547 10.8717C4.52557 10.7118 4.26454 10.7118 4.10464 10.8717L3.15892 11.8174L3.15755 11.8188L2.89789 11.5591C2.75439 11.4156 2.52069 11.4156 2.37856 11.5591C2.23506 11.7026 2.23506 11.9363 2.37856 12.0785L3.93654 13.6365C4.08004 13.78 4.31374 13.78 4.45587 13.6365C4.598 13.493 4.59937 13.2593 4.45587 13.1171L4.19621 12.8575L4.19757 12.8561L5.1433 11.9104Z" fill="#F5A800"/>
<path d="M9.90745 2.98751L7.90667 4.9883C7.729 5.16596 7.729 5.45842 7.90667 5.63609L9.14212 6.87154C10.0154 6.24288 11.2399 6.32078 12.0258 7.10661L13.0262 6.10622C13.2038 5.92855 13.2038 5.63609 13.0262 5.45842L10.5552 2.98751C10.3776 2.80848 10.0851 2.80848 9.90745 2.98751ZM8.62279 7.39224L7.893 6.66245C7.72217 6.49161 7.44201 6.49161 7.27117 6.66245L4.69776 9.23722C4.52693 9.40805 4.52693 9.68822 4.69776 9.85905L6.15598 11.3173C6.32682 11.4881 6.60698 11.4881 6.77781 11.3173L8.43283 9.65952C8.08297 8.93656 8.14583 8.06327 8.62279 7.39224Z" fill="#425CC7"/>
</svg>
