<?xml version="1.0" encoding="utf-8"?>
<!-- Generator: Adobe Illustrator 25.0.0, SVG Export Plug-In . SVG Version: 6.00 Build 0)  -->
<svg version="1.1" id="Ebene_1" xmlns="http://www.w3.org/2000/svg" xmlns:xlink="http://www.w3.org/1999/xlink" x="0px" y="0px"
	 viewBox="0 0 16 16" style="enable-background:new 0 0 16 16;" xml:space="preserve">
<style type="text/css">
	.st0{fill:#333333;}
	.st1{enable-background:new    ;}
</style>
<desc>Created with Sketch.</desc>
<g id="Dashboard">
	<g id="Hexagon-Variant-01" transform="translate(-1353.000000, -573.000000)">
		<g id="missing_light" transform="translate(1353.000000, 573.000000)">
			<path id="Shape" class="st0" d="M8,0C3.6,0,0,3.6,0,8c0,4.4,3.6,8,8,8c4.4,0,8-3.6,8-8S12.4,0,8,0z M8,14.3
				c-3.4,0-6.3-2.8-6.3-6.3c0-3.4,2.8-6.3,6.3-6.3s6.3,2.8,6.3,6.3C14.3,11.4,11.4,14.3,8,14.3z"/>
			<g class="st1">
				<path class="st0" d="M6,4.9c0.1-0.1,0.3-0.2,0.4-0.3s0.3-0.2,0.5-0.2C7,4.3,7.2,4.2,7.4,4.2c0.2,0,0.4-0.1,0.6-0.1
					c0.3,0,0.6,0,0.8,0.1c0.3,0.1,0.5,0.2,0.6,0.4C9.7,4.8,9.8,5,9.9,5.2c0.1,0.2,0.1,0.5,0.1,0.7c0,0.3,0,0.5-0.1,0.7
					C9.9,6.7,9.8,6.9,9.7,7S9.5,7.3,9.3,7.4C9.2,7.5,9.1,7.6,9,7.7C8.8,7.8,8.7,7.8,8.7,7.9C8.6,8,8.5,8.1,8.5,8.2L8.4,8.9H7.3
					L7.2,8.1c0,0,0,0,0-0.1c0,0,0,0,0-0.1c0-0.1,0-0.3,0.1-0.4c0.1-0.1,0.2-0.2,0.3-0.3C7.7,7.2,7.8,7.1,7.9,7s0.2-0.2,0.3-0.3
					c0.1-0.1,0.2-0.2,0.3-0.3C8.6,6.3,8.6,6.2,8.6,6c0-0.2-0.1-0.4-0.2-0.5C8.3,5.4,8.1,5.3,7.9,5.3c-0.2,0-0.3,0-0.4,0.1
					c-0.1,0-0.2,0.1-0.3,0.1S7,5.6,6.9,5.6c-0.1,0-0.1,0.1-0.2,0.1c-0.1,0-0.2-0.1-0.3-0.2L6,4.9z M6.9,10.7c0-0.1,0-0.2,0.1-0.3
					c0-0.1,0.1-0.2,0.2-0.3C7.2,10,7.3,10,7.4,9.9c0.1,0,0.2-0.1,0.4-0.1c0.1,0,0.2,0,0.3,0.1s0.2,0.1,0.3,0.2
					c0.1,0.1,0.1,0.2,0.2,0.3c0,0.1,0.1,0.2,0.1,0.3s0,0.2-0.1,0.3c0,0.1-0.1,0.2-0.2,0.3c-0.1,0.1-0.2,0.1-0.3,0.2
					s-0.2,0.1-0.3,0.1c-0.1,0-0.2,0-0.4-0.1c-0.1,0-0.2-0.1-0.3-0.2C7.1,11.2,7,11.2,7,11.1C6.9,10.9,6.9,10.8,6.9,10.7z"/>
			</g>
		</g>
	</g>
</g>
</svg>
