<svg width="140" height="140" viewBox="0 0 140 140" fill="none" xmlns="http://www.w3.org/2000/svg">
    <circle cx="70" cy="70" r="70" fill="#48525C" />
    <g clip-path="url(#clip0_3113_10135)">
        <path
            d="M95.6666 68.3333L94.3333 61.6667L73.3333 66V43.3333H66.6666V63.8333L43.5 48.8333L39.8333 54.5L65.1666 70.8333L45.6666 96.3333L51 100.333L69.8333 75.6667L83.8333 96.8333L89.5 93.1667L75.5 72.3333L95.6666 68.3333Z"
            fill="#20272E" />
        <path
            d="M70 58.3333C68.4679 58.3333 66.9508 58.6351 65.5353 59.2214C64.1199 59.8077 62.8338 60.6671 61.7504 61.7504C60.6671 62.8338 59.8077 64.1199 59.2214 65.5354C58.6351 66.9508 58.3333 68.4679 58.3333 70C58.3333 71.5321 58.6351 73.0492 59.2214 74.4646C59.8077 75.8801 60.6671 77.1662 61.7504 78.2496C62.8338 79.3329 64.1199 80.1923 65.5353 80.7786C66.9508 81.3649 68.4679 81.6667 70 81.6667C71.5321 81.6667 73.0492 81.3649 74.4646 80.7786C75.8801 80.1923 77.1662 79.3329 78.2496 78.2496C79.3329 77.1662 80.1923 75.8801 80.7786 74.4646C81.3649 73.0492 81.6666 71.5321 81.6666 70C81.6666 68.4679 81.3649 66.9508 80.7786 65.5354C80.1923 64.1199 79.3329 62.8338 78.2496 61.7504C77.1662 60.6671 75.8801 59.8077 74.4646 59.2214C73.0492 58.6351 71.5321 58.3333 70 58.3333Z"
            fill="#20272E" />
        <path
            d="M71.9048 30C69.3789 30 66.9565 30.9801 65.1704 32.7246C63.3843 34.4691 62.381 36.8352 62.381 39.3023C62.381 41.7695 63.3843 44.1355 65.1704 45.8801C66.9565 47.6246 69.3789 48.6047 71.9048 48.6047C74.4306 48.6047 76.8531 47.6246 78.6391 45.8801C80.4252 44.1355 81.4286 41.7695 81.4286 39.3023C81.4286 36.8352 80.4252 34.4691 78.6391 32.7246C76.8531 30.9801 74.4306 30 71.9048 30ZM100.476 54.186C97.9503 54.186 95.5279 55.1661 93.7418 56.9106C91.9558 58.6552 90.9524 61.0212 90.9524 63.4884C90.9524 65.9555 91.9558 68.3216 93.7418 70.0661C95.5279 71.8106 97.9503 72.7907 100.476 72.7907C103.002 72.7907 105.424 71.8106 107.211 70.0661C108.997 68.3216 110 65.9555 110 63.4884C110 61.0212 108.997 58.6552 107.211 56.9106C105.424 55.1661 103.002 54.186 100.476 54.186ZM39.5238 39.3023C36.9979 39.3023 34.5755 40.2824 32.7895 42.0269C31.0034 43.7714 30 46.1375 30 48.6047C30 51.0718 31.0034 53.4379 32.7895 55.1824C34.5755 56.9269 36.9979 57.907 39.5238 57.907C42.0497 57.907 44.4721 56.9269 46.2582 55.1824C48.0442 53.4379 49.0476 51.0718 49.0476 48.6047C49.0476 46.1375 48.0442 43.7714 46.2582 42.0269C44.4721 40.2824 42.0497 39.3023 39.5238 39.3023ZM47.1429 91.3954C44.617 91.3954 42.1946 92.3754 40.4085 94.1199C38.6224 95.8645 37.619 98.2305 37.619 100.698C37.619 103.165 38.6224 105.531 40.4085 107.275C42.1946 109.02 44.617 110 47.1429 110C49.6687 110 52.0911 109.02 53.8772 107.275C55.6633 105.531 56.6667 103.165 56.6667 100.698C56.6667 98.2305 55.6633 95.8645 53.8772 94.1199C52.0911 92.3754 49.6687 91.3954 47.1429 91.3954ZM90.9524 87.6744C88.4265 87.6744 86.0041 88.6545 84.218 90.399C82.432 92.1435 81.4286 94.5096 81.4286 96.9767C81.4286 99.4439 82.432 101.81 84.218 103.554C86.0041 105.299 88.4265 106.279 90.9524 106.279C93.4783 106.279 95.9007 105.299 97.6867 103.554C99.4728 101.81 100.476 99.4439 100.476 96.9767C100.476 94.5096 99.4728 92.1435 97.6867 90.399C95.9007 88.6545 93.4783 87.6744 90.9524 87.6744Z"
            fill="#20272E" />
    </g>
    <defs>
        <clipPath id="clip0_3113_10135">
            <rect width="80" height="80" fill="white" transform="translate(30 30)" />
        </clipPath>
    </defs>
</svg>
