<svg width="36" height="36" viewBox="0 0 36 36" fill="none" xmlns="http://www.w3.org/2000/svg">
<g clip-path="url(#clip0_4711_9972)">
<path d="M23.1745 23.3198H13.9941L12.6406 15.0913L13.9941 6.58276H16.4069C17.2779 6.58276 18.1253 6.88622 18.8079 7.42312C19.4906 7.96001 19.9613 8.73033 20.1497 9.57069L23.1745 23.3198Z" fill="#EB3030"/>
<path d="M13.994 6.58276V23.3198H4.81372L7.56782 9.64071C7.92091 7.86664 9.50981 6.58276 11.3223 6.58276H13.994Z" fill="#F05353"/>
<path d="M13.1584 0H15.0416V4.64528H13.1584V0Z" fill="#F33232"/>
<path d="M22.786 10.3877L27.6704 9.41898L28 11.0297L23.1156 11.9984L22.786 10.3877Z" fill="#F33232"/>
<path d="M20.0437 5.46229L23.5628 1.96082L24.7398 3.12797L21.2207 6.61777L20.0437 5.46229Z" fill="#F33232"/>
<path d="M0 11.0246L0.317781 9.40228L5.20219 10.371L4.88441 11.9934L0 11.0246Z" fill="#F33232"/>
<path d="M3.23669 3.12298L4.41366 1.9675L7.93279 5.4573L6.75582 6.62445L3.23669 3.12298Z" fill="#F33232"/>
<path d="M24.7869 24.4936V27.9834H13.9941L12.9348 25.1239L13.9941 21.6691H21.9504C23.504 21.6808 24.7869 22.9413 24.7869 24.4936Z" fill="#4D606B"/>
<path d="M13.9941 21.6741V27.9884H3.20129V24.4986C3.20129 22.9463 4.47242 21.6858 6.03778 21.6858H13.9941V21.6741Z" fill="#697C86"/>
<path fill-rule="evenodd" clip-rule="evenodd" d="M28 36C23.5932 36 20 32.4068 20 28C20 23.5932 23.5932 20 28 20C32.4068 20 36 23.5932 36 28C36 32.4068 32.4068 36 28 36Z" fill="white"/>
<path fill-rule="evenodd" clip-rule="evenodd" d="M26.7794 31.3559V23.8644C26.7794 23.5932 26.9489 23.3559 27.1523 23.3559H28.9828C29.1862 23.3559 29.3557 23.5932 29.3557 23.8644V31.3559C29.3557 31.6271 29.1862 31.8644 28.9828 31.8644H27.1523C26.9489 31.8644 26.7794 31.6271 26.7794 31.3559Z" fill="#1E262E"/>
<path fill-rule="evenodd" clip-rule="evenodd" d="M30.5762 31.4576V25.4576C30.5762 25.2542 30.7457 25.0508 30.9491 25.0508H32.7796C32.983 25.0508 33.1524 25.2203 33.1524 25.4576V31.4576C33.1524 31.661 32.983 31.8644 32.7796 31.8644H30.9491C30.7118 31.8644 30.5762 31.6949 30.5762 31.4576Z" fill="#1E262E"/>
<path fill-rule="evenodd" clip-rule="evenodd" d="M23.3896 31.5593V27.0508C23.3896 26.8813 23.5591 26.7457 23.7625 26.7457H25.593C25.7964 26.7457 25.9659 26.8813 25.9659 27.0508V31.5593C25.9659 31.7288 25.7964 31.8644 25.593 31.8644H23.7625C23.5591 31.8644 23.3896 31.7288 23.3896 31.5593Z" fill="#1E262E"/>
</g>
<defs>
<clipPath id="clip0_4711_9972">
<rect width="36" height="36" fill="white"/>
</clipPath>
</defs>
</svg>
