<svg width="21" height="21" viewBox="0 0 21 21" fill="none" xmlns="http://www.w3.org/2000/svg">
<circle cx="10" cy="10" r="9.5" fill="#13D389"/>
<path fill-rule="evenodd" clip-rule="evenodd" d="M14.7803 5.21967C15.0732 5.51256 15.0732 5.98744 14.7803 6.28033L8.78034 12.2803C8.50323 12.5574 8.05947 12.5745 7.76192 12.3194L4.26192 9.31944C3.94743 9.04988 3.911 8.5764 4.18057 8.26191C4.45014 7.94741 4.92361 7.91099 5.23811 8.18056L8.21079 10.7286L13.7197 5.21967C14.0126 4.92678 14.4875 4.92678 14.7803 5.21967Z" fill="#20272E"/>
<rect x="11" y="11" width="10" height="10" rx="5" fill="white"/>
<path d="M16.75 13.6C16.75 13.2686 16.4814 13 16.15 13H15.85C15.5186 13 15.25 13.2686 15.25 13.6V15.25H13.6C13.2686 15.25 13 15.5186 13 15.85V16.15C13 16.4814 13.2686 16.75 13.6 16.75H15.25V18.4C15.25 18.7314 15.5186 19 15.85 19H16.15C16.4814 19 16.75 18.7314 16.75 18.4V16.75H18.4C18.7314 16.75 19 16.4814 19 16.15V15.85C19 15.5186 18.7314 15.25 18.4 15.25H16.75V13.6Z" fill="#20272E"/>
</svg>
