<svg width="32" height="32" viewBox="0 0 32 32" fill="none" xmlns="http://www.w3.org/2000/svg">
<path d="M4.8667 28.4444V3.55556C4.8667 2.7 5.5567 2 6.40003 2H26.3334C27.1767 2 27.8667 2.7 27.8667 3.55556V28.4444C27.8667 29.3 27.1767 30 26.3334 30H6.40003C5.5567 30 4.8667 29.3 4.8667 28.4444Z" fill="#90CAF9"/>
<path d="M10 5.88892H24.9333V7.44447H10V5.88892ZM10 10.5556H24.9333V12.1111H10V10.5556ZM10 15.2222H24.9333V16.7778H10V15.2222ZM10 19.8889H24.9333V21.4445H10V19.8889ZM10 24.5556H24.9333V26.1111H10V24.5556Z" fill="#1976D2"/>
<path d="M6.88893 23.7778C6.47637 23.7778 6.08071 23.9416 5.78899 24.2334C5.49726 24.5251 5.33337 24.9207 5.33337 25.3333C5.33337 25.7459 5.49726 26.1415 5.78899 26.4333C6.08071 26.725 6.47637 26.8889 6.88893 26.8889C7.30149 26.8889 7.69715 26.725 7.98887 26.4333C8.2806 26.1415 8.44448 25.7459 8.44448 25.3333C8.44448 24.9207 8.2806 24.5251 7.98887 24.2334C7.69715 23.9416 7.30149 23.7778 6.88893 23.7778ZM6.88893 17.5555C6.47637 17.5555 6.08071 17.7194 5.78899 18.0111C5.49726 18.3029 5.33337 18.6985 5.33337 19.1111C5.33337 19.5236 5.49726 19.9193 5.78899 20.211C6.08071 20.5028 6.47637 20.6666 6.88893 20.6666C7.30149 20.6666 7.69715 20.5028 7.98887 20.211C8.2806 19.9193 8.44448 19.5236 8.44448 19.1111C8.44448 18.6985 8.2806 18.3029 7.98887 18.0111C7.69715 17.7194 7.30149 17.5555 6.88893 17.5555ZM6.88893 11.3333C6.47637 11.3333 6.08071 11.4972 5.78899 11.7889C5.49726 12.0806 5.33337 12.4763 5.33337 12.8889C5.33337 13.3014 5.49726 13.6971 5.78899 13.9888C6.08071 14.2805 6.47637 14.4444 6.88893 14.4444C7.30149 14.4444 7.69715 14.2805 7.98887 13.9888C8.2806 13.6971 8.44448 13.3014 8.44448 12.8889C8.44448 12.4763 8.2806 12.0806 7.98887 11.7889C7.69715 11.4972 7.30149 11.3333 6.88893 11.3333ZM6.88893 5.11108C6.47637 5.11108 6.08071 5.27497 5.78899 5.5667C5.49726 5.85842 5.33337 6.25408 5.33337 6.66664C5.33337 7.0792 5.49726 7.47486 5.78899 7.76658C6.08071 8.05831 6.47637 8.2222 6.88893 8.2222C7.30149 8.2222 7.69715 8.05831 7.98887 7.76658C8.2806 7.47486 8.44448 7.0792 8.44448 6.66664C8.44448 6.25408 8.2806 5.85842 7.98887 5.5667C7.69715 5.27497 7.30149 5.11108 6.88893 5.11108Z" fill="#455A64"/>
<path d="M6.88889 26.1111H3.77778C3.31111 26.1111 3 25.8 3 25.3334C3 24.8667 3.31111 24.5556 3.77778 24.5556H6.88889C7.35555 24.5556 7.66667 24.8667 7.66667 25.3334C7.66667 25.8 7.35555 26.1111 6.88889 26.1111ZM6.88889 19.8889H3.77778C3.31111 19.8889 3 19.5778 3 19.1111C3 18.6445 3.31111 18.3334 3.77778 18.3334H6.88889C7.35555 18.3334 7.66667 18.6445 7.66667 19.1111C7.66667 19.5778 7.35555 19.8889 6.88889 19.8889ZM6.88889 13.6667H3.77778C3.31111 13.6667 3 13.3556 3 12.8889C3 12.4222 3.31111 12.1111 3.77778 12.1111H6.88889C7.35555 12.1111 7.66667 12.4222 7.66667 12.8889C7.66667 13.3556 7.35555 13.6667 6.88889 13.6667ZM6.88889 7.44447H3.77778C3.31111 7.44447 3 7.13336 3 6.66669C3 6.20003 3.31111 5.88892 3.77778 5.88892H6.88889C7.35555 5.88892 7.66667 6.20003 7.66667 6.66669C7.66667 7.13336 7.35555 7.44447 6.88889 7.44447Z" fill="#FFCA28"/>
</svg>
