<svg width="18" height="18" viewBox="0 0 18 18" fill="none" xmlns="http://www.w3.org/2000/svg">
<g clip-path="url(#clip0_3217_2174)">
<path d="M14.775 8.625L14.475 7.125L9.75002 8.1V3H8.25002V7.6125L3.03752 4.2375L2.21252 5.5125L7.91252 9.1875L3.52502 14.925L4.72502 15.825L8.96252 10.275L12.1125 15.0375L13.3875 14.2125L10.2375 9.525L14.775 8.625Z" fill="#D0D5D9"/>
<path d="M9 6.375C8.65528 6.375 8.31394 6.4429 7.99546 6.57482C7.67698 6.70673 7.3876 6.90009 7.14384 7.14384C6.90009 7.3876 6.70673 7.67698 6.57482 7.99546C6.4429 8.31394 6.375 8.65528 6.375 9C6.375 9.34472 6.4429 9.68606 6.57482 10.0045C6.70673 10.323 6.90009 10.6124 7.14384 10.8562C7.3876 11.0999 7.67698 11.2933 7.99546 11.4252C8.31394 11.5571 8.65528 11.625 9 11.625C9.34472 11.625 9.68606 11.5571 10.0045 11.4252C10.323 11.2933 10.6124 11.0999 10.8562 10.8562C11.0999 10.6124 11.2933 10.323 11.4252 10.0045C11.5571 9.68606 11.625 9.34472 11.625 9C11.625 8.65528 11.5571 8.31394 11.4252 7.99546C11.2933 7.67698 11.0999 7.3876 10.8562 7.14384C10.6124 6.90009 10.323 6.70673 10.0045 6.57482C9.68606 6.4429 9.34472 6.375 9 6.375Z" fill="#6966E5"/>
<path d="M9.42857 0C8.86025 0 8.31521 0.220514 7.91334 0.613032C7.51148 1.00555 7.28571 1.53792 7.28571 2.09302C7.28571 2.64813 7.51148 3.1805 7.91334 3.57301C8.31521 3.96553 8.86025 4.18605 9.42857 4.18605C9.99689 4.18605 10.5419 3.96553 10.9438 3.57301C11.3457 3.1805 11.5714 2.64813 11.5714 2.09302C11.5714 1.53792 11.3457 1.00555 10.9438 0.613032C10.5419 0.220514 9.99689 0 9.42857 0ZM15.8571 5.44186C15.2888 5.44186 14.7438 5.66237 14.3419 6.05489C13.9401 6.44741 13.7143 6.97978 13.7143 7.53488C13.7143 8.08999 13.9401 8.62236 14.3419 9.01487C14.7438 9.40739 15.2888 9.62791 15.8571 9.62791C16.4255 9.62791 16.9705 9.40739 17.3724 9.01487C17.7742 8.62236 18 8.08999 18 7.53488C18 6.97978 17.7742 6.44741 17.3724 6.05489C16.9705 5.66237 16.4255 5.44186 15.8571 5.44186ZM2.14286 2.09302C1.57454 2.09302 1.02949 2.31354 0.627628 2.70606C0.225765 3.09857 0 3.63094 0 4.18605C0 4.74115 0.225765 5.27352 0.627628 5.66604C1.02949 6.05856 1.57454 6.27907 2.14286 6.27907C2.71118 6.27907 3.25622 6.05856 3.65809 5.66604C4.05995 5.27352 4.28571 4.74115 4.28571 4.18605C4.28571 3.63094 4.05995 3.09857 3.65809 2.70606C3.25622 2.31354 2.71118 2.09302 2.14286 2.09302ZM3.85714 13.814C3.28882 13.814 2.74378 14.0345 2.34191 14.427C1.94005 14.8195 1.71429 15.3519 1.71429 15.907C1.71429 16.4621 1.94005 16.9944 2.34191 17.387C2.74378 17.7795 3.28882 18 3.85714 18C4.42546 18 4.97051 17.7795 5.37237 17.387C5.77424 16.9944 6 16.4621 6 15.907C6 15.3519 5.77424 14.8195 5.37237 14.427C4.97051 14.0345 4.42546 13.814 3.85714 13.814ZM13.7143 12.9767C13.146 12.9767 12.6009 13.1973 12.1991 13.5898C11.7972 13.9823 11.5714 14.5147 11.5714 15.0698C11.5714 15.6249 11.7972 16.1572 12.1991 16.5498C12.6009 16.9423 13.146 17.1628 13.7143 17.1628C14.2826 17.1628 14.8277 16.9423 15.2295 16.5498C15.6314 16.1572 15.8571 15.6249 15.8571 15.0698C15.8571 14.5147 15.6314 13.9823 15.2295 13.5898C14.8277 13.1973 14.2826 12.9767 13.7143 12.9767Z" fill="#28A2F3"/>
</g>
<defs>
<clipPath id="clip0_3217_2174">
<rect width="18" height="18" fill="white"/>
</clipPath>
</defs>
</svg>
