<svg width="18" height="18" viewBox="0 0 18 18" fill="none" xmlns="http://www.w3.org/2000/svg">
<circle cx="9" cy="8" r="8" fill="#1C2228"/>
<path fill-rule="evenodd" clip-rule="evenodd" d="M18.0001 8.63283C17.8055 3.83219 13.8522 0 9.00379 0C4.03113 0 0 4.03112 0 9.00376C0 13.8521 3.83218 17.8055 8.63281 18H9.37476C14.0524 17.8104 17.8105 14.0523 18.0001 9.37468V8.63283ZM9.00379 3.75157C6.10293 3.75157 3.75158 6.10291 3.75158 9.00376C3.75158 10.0812 4.07814 11.0809 4.63549 11.9139L5.95225 10.6451L6.70594 14.5842L2.43853 14.0308L3.67024 12.8439C2.86493 11.7427 2.43853 10.4011 2.43853 9.0054C2.43853 5.37712 5.37549 2.44016 9.00379 2.44016C9.41805 2.44016 9.83265 2.47528 10.2134 2.57803L9.98595 3.84676C9.6672 3.78636 9.33993 3.75157 9.00379 3.75157ZM14.3415 5.16002L15.569 3.97741L11.3016 3.42396L12.0553 7.36245L13.3749 6.09123C13.9314 6.92464 14.256 7.92628 14.256 9.00376C14.256 11.9046 11.9046 14.2559 9.00379 14.2559C8.666 14.2559 8.33643 14.2212 8.01637 14.1601L7.79447 15.398C8.20873 15.4669 8.62333 15.502 9.00379 15.502C12.6321 15.502 15.569 12.5651 15.569 8.93679C15.569 7.62062 15.1427 6.27583 14.3415 5.16002Z" fill="#15D1A0"/>
</svg>
