<?xml version="1.0" encoding="utf-8"?>
<!-- Generator: Adobe Illustrator 25.0.0, SVG Export Plug-In . SVG Version: 6.00 Build 0)  -->
<svg version="1.1" id="Ebene_1" xmlns="http://www.w3.org/2000/svg" xmlns:xlink="http://www.w3.org/1999/xlink" x="0px" y="0px"
	 viewBox="0 0 203 133" style="enable-background:new 0 0 203 133;" xml:space="preserve">
<style type="text/css">
	.st0{enable-background:new    ;}
	.st1{fill:#8F5ED8;}
</style>
<desc>Created with Sketch.</desc>
<g id="Icons">
	<g id="Artboard" transform="translate(-302.000000, -943.000000)">
		<g class="st0">
			<path class="st1" d="M386.8,1027h16.4v12.9c0,1.2-0.4,2.2-1.2,3.1c-0.8,0.9-1.9,1.3-3.4,1.3h-11.8v31.8h-19.4v-31.8h-54.9
				c-1.5,0-2.8-0.5-4-1.4c-1.1-0.9-1.9-2.1-2.2-3.5l-2.2-11.2l61.7-82.4h21.1V1027z M367.3,984.4c0-1.9,0.1-4,0.2-6.2
				c0.1-2.2,0.3-4.5,0.6-6.9l-40.4,55.7h39.6V984.4z"/>
			<path class="st1" d="M460.6,944.4c6,0,11.5,0.9,16.5,2.7c5,1.8,9.2,4.3,12.8,7.5c3.5,3.2,6.3,7.1,8.3,11.7c2,4.6,3,9.6,3,15.2
				c0,4.8-0.7,9.2-2.1,13.3c-1.4,4.1-3.3,8-5.7,11.7c-2.4,3.7-5.1,7.3-8.3,10.8c-3.2,3.5-6.5,7-10,10.6l-29.3,30
				c2.9-0.8,5.7-1.5,8.5-1.9c2.8-0.4,5.4-0.7,7.9-0.7h33.4c2.4,0,4.3,0.7,5.7,2c1.4,1.3,2.1,3.1,2.1,5.4v13.3H414v-7.4
				c0-1.5,0.3-3.1,0.9-4.7c0.6-1.6,1.6-3.1,3-4.5l39.5-39.6c3.3-3.4,6.3-6.6,8.9-9.6c2.6-3.1,4.8-6.1,6.6-9.1c1.8-3,3.1-6,4-9.1
				c0.9-3.1,1.4-6.3,1.4-9.8c0-3.1-0.5-5.9-1.4-8.2c-0.9-2.4-2.2-4.4-3.9-6c-1.7-1.6-3.7-2.8-6-3.6c-2.3-0.8-4.9-1.2-7.8-1.2
				c-5.3,0-9.7,1.4-13.2,4.1c-3.5,2.7-5.9,6.3-7.2,10.9c-0.7,2.3-1.7,3.9-3,4.9c-1.3,1-3,1.5-5,1.5c-0.9,0-1.9-0.1-3-0.3l-11.7-2.1
				c0.9-6.2,2.6-11.7,5.2-16.4c2.6-4.7,5.8-8.6,9.7-11.8s8.3-5.5,13.3-7.1C449.4,945.2,454.8,944.4,460.6,944.4z"/>
		</g>
	</g>
</g>
</svg>
