<svg width="140" height="140" viewBox="0 0 140 140" fill="none" xmlns="http://www.w3.org/2000/svg">
<circle cx="70" cy="70" r="70" fill="#48525C"/>
<path d="M74.2804 73.6236C71.0004 76.9035 71.0004 82.2218 74.2804 85.5017C77.5603 88.7817 82.8786 88.7817 86.1585 85.5017C89.4385 82.2218 89.4385 76.9035 86.1585 73.6236C82.8786 70.3436 77.5603 70.3436 74.2804 73.6236ZM83.1597 82.5107C81.5353 84.1351 78.9035 84.1351 77.2792 82.5107C75.6548 80.8864 75.6548 78.2546 77.2792 76.6302C78.9035 75.0058 81.5353 75.0058 83.1597 76.6302C84.7841 78.2468 84.7841 80.8864 83.1597 82.5107ZM86.018 32.296L80.8715 37.4424C79.8641 38.4498 79.8641 40.1054 80.8715 41.1128L100.965 61.2065C101.973 62.214 103.628 62.214 104.636 61.2065L109.782 56.0601C110.79 55.0527 110.79 53.3971 109.782 52.3897L89.6806 32.296C88.6732 31.2886 87.0254 31.2886 86.018 32.296ZM49.9617 98.0593C50.8754 97.1456 50.8754 95.654 49.9617 94.7403L47.3456 92.1242C46.4319 91.2104 44.9403 91.2104 44.0265 92.1242L38.6224 97.5283L38.6146 97.5361L37.1308 96.0523C36.3108 95.2323 34.9754 95.2323 34.1632 96.0523C33.3432 96.8723 33.3432 98.2077 34.1632 99.0199L43.066 107.923C43.886 108.743 45.2214 108.743 46.0336 107.923C46.8458 107.103 46.8536 105.767 46.0336 104.955L44.5498 103.471L44.5576 103.463L49.9617 98.0593ZM77.1855 47.0714L65.7524 58.5045C64.7372 59.5197 64.7372 61.1909 65.7524 62.2062L72.8122 69.2659C77.8024 65.6736 84.7997 66.1187 89.2901 70.6091L95.0066 64.8926C96.0219 63.8774 96.0219 62.2062 95.0066 61.1909L80.8871 47.0714C79.8719 46.0484 78.2007 46.0484 77.1855 47.0714ZM69.8446 72.2413L65.6743 68.0711C64.6982 67.0949 63.0972 67.0949 62.121 68.0711L47.4158 82.7841C46.4397 83.7602 46.4397 85.3612 47.4158 86.3374L55.7485 94.67C56.7247 95.6462 58.3256 95.6462 59.3018 94.67L68.7591 85.1972C66.7599 81.066 67.1191 76.0757 69.8446 72.2413Z" fill="#20272E"/>
</svg>
