<?xml version="1.0" encoding="utf-8"?>
<svg version="1.1" id="Ebene_1" xmlns="http://www.w3.org/2000/svg" xmlns:xlink="http://www.w3.org/1999/xlink" x="0px" y="0px"
	 viewBox="0 0 383 419" style="enable-background:new 0 0 383 419;" xml:space="preserve">
<style type="text/css">
	.st0{fill:#E1DCF3;}
	.st1{fill:#ED3B3B;}
	.st2{fill:#333333;}
	.st3{fill:#402810;}
</style>
<g id="Menu-Icons-EXPORT">
	<g id="EXPORT" transform="translate(-54.000000, -521.000000)">
		<g id="event" transform="translate(54.000000, 521.000000)">
			<path id="Path" class="st0" d="M322.3,36.4H60.8c-32.9,0-60.1,27.2-60.1,60.1v262c0,32.9,27.2,60.1,60.1,60.1h261.6
				c32.9,0,60.1-27.2,60.1-60.1V97C382.5,63.6,355.7,36.4,322.3,36.4z"/>
			<g id="Group" transform="translate(0.000000, 36.205714)">
				<path id="Path_1_" class="st1" d="M322.3,0.2H60.8C27.9,0.2,0.7,27.4,0.7,60.3v47h382.2V60.8C382.5,27.4,355.7,0.2,322.3,0.2z"
					/>
				<path id="Shape" class="st2" d="M241.6,195.1c8.3,0,14.5,3.9,18.9,12.3c4.4,8.3,6.6,19.3,6.6,32.5c0,12.7-2.2,22.8-7,30.3
					s-11,11-19.3,11c-7.5,0-13.6-3.5-18-10.5c-4.4-7-6.6-16.7-6.6-28.5C216.1,210.9,224.5,195.1,241.6,195.1z M180.2,243.3
					c0,22.4,5.7,39.9,17.6,52.2c11.8,12.3,26.3,18.9,43.9,18.9s31.6-6.6,43.4-19.7c11.4-13.2,17.1-31.6,17.1-55.7s-5.3-43-16.2-56.6
					s-25.9-20.6-44.8-20.6c-19.3,0-34.7,7.5-45.2,21.9C185.9,198.6,180.2,218.3,180.2,243.3z M105.5,217.9c4.4-2.6,8.3-5.3,11.8-8.3
					c0,2.6,0,7.5,0,13.6s0,11,0,14c0,9.7,0,21.1-0.4,34.7c-0.4,13.6-0.4,22.4-0.4,25.9c0,5.3,1.8,9.2,5.3,12.3
					c3.5,3.1,7.5,4.4,12.7,4.4c4.8,0,9.2-1.3,12.7-3.9s5.3-6.1,5.3-10.5c0-9.2,0-23.3,0-41.7s0-32.5,0-41.7v-39.5
					c0-5.3-2.6-9.7-7.9-12.7c-2.6-1.8-6.1-2.6-10.5-2.6c-3.1,0-7.5,1.3-13.2,4.4c-5.7,3.1-15.8,10.1-30.7,20.2
					c-3.5,2.6-5.7,4.8-7.5,7s-2.2,5.3-2.2,8.8c0,3.9,1.8,7.9,4.8,11.8c3.1,3.9,6.6,5.7,10.5,5.7C99.4,220.1,102.9,219.2,105.5,217.9
					z"/>
			</g>
			<g id="Group_1_" transform="translate(88.868571, 0.000000)">
				<path id="Path_2_" class="st3" d="M18,64.5V8.8C18,3.9,14,0,9.2,0S0.4,3.9,0.4,8.8v55.7c0,4.8,3.9,8.8,8.8,8.8S18,69.3,18,64.5z
					"/>
				<path id="Path_3_" class="st3" d="M196.2,73.3c4.8,0,8.8-3.9,8.8-8.8V8.8c0-4.8-3.9-8.8-8.8-8.8s-8.8,3.9-8.8,8.8v55.7
					C187.4,69.3,191.3,73.3,196.2,73.3z"/>
			</g>
		</g>
	</g>
</g>
</svg>
