<?xml version="1.0" encoding="utf-8"?>
<!-- Generator: Adobe Illustrator 27.0.1, SVG Export Plug-In . SVG Version: 6.00 Build 0)  -->
<svg version="1.1" id="Ebene_1" xmlns="http://www.w3.org/2000/svg" xmlns:xlink="http://www.w3.org/1999/xlink" x="0px" y="0px"
	 viewBox="0 0 22 12" style="enable-background:new 0 0 22 12;" xml:space="preserve">
<style type="text/css">
	.st0{fill-rule:evenodd;clip-rule:evenodd;fill:#13D389;}
	.st1{fill-rule:evenodd;clip-rule:evenodd;fill:#FFFEFE;}
</style>
<g id="Master">
	<g id="Form" transform="translate(-297.000000, -336.000000)">
		<g id="small_toggle_on" transform="translate(297.000000, 336.000000)">
			<path id="Rectangle" class="st0" d="M6,0h10c3.3,0,6,2.7,6,6l0,0c0,3.3-2.7,6-6,6H6c-3.3,0-6-2.7-6-6l0,0C0,2.7,2.7,0,6,0z"/>
			<path id="Rectangle_00000083070192536452465520000013278898488231899023_" class="st1" d="M16,1L16,1c2.8,0,5,2.2,5,5l0,0
				c0,2.8-2.2,5-5,5l0,0c-2.8,0-5-2.2-5-5l0,0C11,3.2,13.2,1,16,1z"/>
		</g>
	</g>
</g>
</svg>
