<?xml version="1.0" encoding="utf-8"?>
<svg version="1.1" id="Ebene_1" xmlns="http://www.w3.org/2000/svg" xmlns:xlink="http://www.w3.org/1999/xlink" x="0px" y="0px"
	 viewBox="0 0 288 346" style="enable-background:new 0 0 288 346;" xml:space="preserve">
<style type="text/css">
	.st0{fill:#858A8C;}
	.st1{fill:#28A2F3;}
	.st2{fill:#FFD90A;}
</style>
<g id="Menu-Icons-EXPORT">
	<g id="EXPORT" transform="translate(-347.000000, -476.000000)">
		
			<g id="business-intelligence-copy-3" transform="translate(491.000000, 649.500000) rotate(-270.000000) translate(-491.000000, -649.500000) translate(318.000000, 505.000000)">
			
				<rect id="Rectangle" x="157.6" y="32.7" transform="matrix(2.535182e-06 1 -1 2.535182e-06 321.4038 -31.9505)" class="st0" width="38.1" height="224.1"/>
			
				<rect id="Rectangle_1_" x="202.2" y="201.5" transform="matrix(2.535182e-06 1 -1 2.535182e-06 490.1807 47.7694)" class="st0" width="38.1" height="135"/>
			
				<rect id="Rectangle_2_" x="202.2" y="-47.8" transform="matrix(2.535182e-06 1 -1 2.535182e-06 240.9653 -201.4453)" class="st0" width="38.1" height="135"/>
			
				<rect id="Rectangle_3_" x="29.4" y="125" transform="matrix(2.535182e-06 1 -1 2.535182e-06 316.7356 -28.7186)" class="st0" width="286.6" height="38.1"/>
			
				<rect id="Rectangle_4_" x="-19.4" y="96.2" transform="matrix(2.535182e-06 1 -1 2.535182e-06 191.7691 96.2482)" class="st1" width="134.3" height="95.5"/>
			<g id="Group" transform="translate(249.187989, 96.000000)">
				
					<rect id="Rectangle_5_" x="0" y="1" transform="matrix(2.535182e-06 1 -1 2.535182e-06 96.5147 0.9393)" class="st2" width="95.5" height="95.5"/>
			</g>
		</g>
	</g>
</g>
</svg>
