<svg width="33" height="32" viewBox="0 0 33 32" fill="none" xmlns="http://www.w3.org/2000/svg">
    <g clip-path="url(#clip0_1265_260)">
        <path d="M27.6384 5.10775H25.6938V1.15698C25.6692 0.529292 25.1646 0.0123687 24.5246 6.10352e-05H7.92149C5.8538 6.10352e-05 4.19226 1.6616 4.19226 3.71698V28.2831C4.19226 30.3385 5.8538 32.0001 7.92149 32.0001H27.6507C28.2907 32.0001 28.82 31.4831 28.82 30.8431V6.27698C28.8076 5.63698 28.2907 5.10775 27.6384 5.10775ZM17.6938 17.477L14.9 15.1878C14.5184 14.9539 14.0384 14.9539 13.6569 15.1878L10.863 17.477V7.43391H17.6938V17.477ZM23.38 5.10775H7.92149C7.14611 5.10775 6.53072 4.48006 6.53072 3.71698C6.53072 2.95391 7.14611 2.32621 7.92149 2.32621H23.38V5.10775Z" fill="#42D389"/>
        <path fill-rule="evenodd" clip-rule="evenodd" d="M27.6385 32.0001C28.2785 32.0001 28.8077 31.4831 28.8077 30.8431V6.27698C28.8077 5.63698 28.2908 5.12006 27.6385 5.12006H25.6939L18.6785 32.0124H27.6385V32.0001Z" fill="#22814C"/>
    </g>
    <defs>
        <clipPath id="clip0_1265_260">
            <rect width="32" height="32" fill="white" transform="translate(0.5 6.10352e-05)"/>
        </clipPath>
    </defs>
</svg>
