<svg width="20" height="20" viewBox="0 0 20 20" fill="none" xmlns="http://www.w3.org/2000/svg">
<g clip-path="url(#clip0_257_54)">
<path d="M16.1689 15.8086H3.89339C2.5931 15.8086 1.32271 15.0364 0.575414 13.7909C-0.191805 12.5105 -0.191805 11.2152 0.575414 9.93983C1.21808 8.86871 2.25433 8.14633 3.35534 7.962C3.48985 6.04395 4.9944 4.62908 6.96226 4.62908C7.76435 4.62908 8.40702 4.93298 8.96998 5.28171C9.83186 4.01132 11.2368 3.33875 12.6965 3.53305C13.8872 3.54301 15.0031 4.00634 15.8401 4.8433C16.687 5.69023 17.1503 6.82113 17.1503 8.02676V8.1812C17.9175 8.30575 18.6001 8.70431 19.1082 9.32207C19.6812 10.0245 20 10.9661 20 11.9725C20 12.9539 19.5815 13.9304 18.8542 14.6627C18.1268 15.3951 17.1503 15.8086 16.1689 15.8086ZM3.89339 9.01319C2.97671 9.01319 2.06501 9.58113 1.51202 10.5028C0.964006 11.4195 0.964006 12.3112 1.51202 13.2279C2.06501 14.1446 2.97671 14.7175 3.89339 14.7175H16.1689C17.6286 14.7175 18.909 13.4371 18.909 11.9774C18.909 10.6174 18.1168 9.23737 16.6073 9.23737H16.0593V8.02676C16.0593 7.11507 15.7056 6.25817 15.0679 5.62048C14.4302 4.9828 13.5733 4.62908 12.6616 4.62908H12.6217L12.5819 4.6241C11.3713 4.44973 10.2454 5.0924 9.64255 6.29803L9.36356 6.85102L8.84543 6.50727C8.21273 6.0838 7.6697 5.72012 6.95728 5.72012C6.25483 5.72012 5.61216 5.9742 5.15382 6.43752C4.69548 6.90084 4.4414 7.54351 4.4414 8.24597V9.01319H3.89339Z" fill="#13D389"/>
</g>
<defs>
<clipPath id="clip0_257_54">
<rect width="20" height="20" fill="white"/>
</clipPath>
</defs>
</svg>
