<?xml version="1.0" encoding="utf-8"?>
<!-- Generator: Adobe Illustrator 25.0.0, SVG Export Plug-In . SVG Version: 6.00 Build 0)  -->
<svg version="1.1" id="Layer_1" xmlns="http://www.w3.org/2000/svg" xmlns:xlink="http://www.w3.org/1999/xlink" x="0px" y="0px"
	 viewBox="0 0 58 50" style="enable-background:new 0 0 58 50;" xml:space="preserve">
<style type="text/css">
	.st0{fill:#388E3C;}
	.st1{fill:none;stroke:#B0BEC5;stroke-width:2;stroke-miterlimit:10;}
	.st2{fill:#FFFFFF;}
	.st3{fill:#1B5E20;}
	.st4{enable-background:new    ;}
	.st5{fill:#FDD835;}
	.st6{fill:#37474F;}
	.st7{fill:#B0BEC5;}
</style>
<g>
	<polygon class="st0" points="57,12.8 9.8,12.8 9.8,43.1 14.6,43.1 14.6,38 29,38 29,43.1 57,43.1 	"/>
	<path class="st1" d="M1,1.7h6.9c0.7,0,1.2,0.5,1.2,1.2v45.3"/>
	<rect x="38.3" y="17.9" class="st2" width="2.7" height="16"/>
	<rect x="25" y="19.3" class="st3" width="2.7" height="5.3"/>
	<rect x="42.3" y="18" class="st2" width="2.7" height="16"/>
	<rect x="46.3" y="18" class="st2" width="2.7" height="16"/>
	<g class="st4">
		<rect x="31.7" y="38" class="st5" width="2.7" height="5.1"/>
		<rect x="35.7" y="38" class="st5" width="2.7" height="5.1"/>
		<rect x="39.7" y="38" class="st5" width="2.7" height="5.1"/>
		<rect x="43.7" y="38" class="st5" width="2.7" height="5.1"/>
		<rect x="51.7" y="38" class="st5" width="2.7" height="5.1"/>
	</g>
	<rect x="16.7" y="28.6" class="st3" width="20.3" height="2.7"/>
	<rect x="23.8" y="20.5" class="st3" width="11.9" height="2.7"/>
	<rect x="35.8" y="28.5" class="st2" width="16" height="2.7"/>
	<rect x="35.7" y="24.6" class="st2" width="16" height="2.7"/>
	<rect x="35.7" y="20.6" class="st2" width="16" height="2.7"/>
	<rect x="37" y="19.3" class="st6" width="13.3" height="13.3"/>
	<rect x="8.6" y="23.2" class="st7" width="11.1" height="9.4"/>
</g>
</svg>
