<?xml version="1.0" encoding="utf-8"?>
<svg width="33" height="32" viewBox="0 0 33 32" fill="none" xmlns="http://www.w3.org/2000/svg">
	<path
		d="M3 5.11111C3 3.393 4.393 2 6.11111 2H27.8889C29.607 2 31 3.393 31 5.11111V26.8889C31 28.607 29.607 30 27.8889 30H6.11111C4.393 30 3 28.607 3 26.8889V5.11111Z"
		fill="#28A2F3" />
	<path d="M3 15.0667H31V16.9333H3V15.0667Z" fill="#1284CF" />
	<path d="M16.0667 2H17.9333V30H16.0667V2Z" fill="#1284CF" />
	<path
		d="M31 7.96243V16.1992L30.9539 16.2056C30.046 13.4901 29.1661 11.1041 28.1235 9.40049C27.0678 7.67549 25.9976 6.89159 24.7963 6.89159C23.6109 6.89159 22.5383 7.69635 21.4682 9.48561C20.4158 11.2454 19.5218 13.7021 18.5904 16.4804L18.3965 17.0608C17.4994 19.743 16.5938 22.4502 15.395 24.4844C14.192 26.5254 12.5459 28.1333 10.0771 28.1333C7.61436 28.1333 5.97694 26.5321 4.78403 24.4998C4.11225 23.3553 3.53481 21.9969 3 20.55H3.03194V10.9618L3.05862 10.9572C3.70285 12.497 4.24567 14.1215 4.74021 15.6104L4.92585 16.1693C5.70392 18.5165 6.47049 20.8217 7.37777 22.5433C7.83087 23.4031 8.29339 24.0658 8.76785 24.5049C9.23333 24.9357 9.66045 25.1084 10.0771 25.1084C10.4975 25.1084 10.929 24.9338 11.3996 24.4993C11.8789 24.0566 12.3464 23.389 12.8049 22.5237C13.7229 20.7909 14.501 18.4715 15.291 16.1104L15.4823 15.5395C16.3495 12.9518 17.3087 10.0895 18.6714 7.87553C20.0415 5.64927 21.9547 3.86667 24.7971 3.86667C26.8103 3.86667 28.3832 4.78008 29.6116 6.10296C30.1233 6.654 30.583 7.28352 31 7.96243Z"
		fill="#1B5AB7" />
</svg>
