<?xml version="1.0" encoding="utf-8"?>
<!-- Generator: Adobe Illustrator 25.0.0, SVG Export Plug-In . SVG Version: 6.00 Build 0)  -->
<svg version="1.1" id="Ebene_1" xmlns="http://www.w3.org/2000/svg" xmlns:xlink="http://www.w3.org/1999/xlink" x="0px" y="0px"
	 viewBox="0 0 238 261" style="enable-background:new 0 0 238 261;" xml:space="preserve">
<style type="text/css">
	.st0{fill:#F0C838;}
	.st1{fill:#E79C25;}
	.st2{fill:#6F6F6F;}
	.st3{fill:#444444;}
</style>
<desc>Created with Sketch.</desc>
<g id="Icons">
	<g id="Artboard" transform="translate(-296.000000, -885.000000)">
		
			<g id="command" transform="translate(407.000000, 1005.500000) rotate(-11.000000) translate(-407.000000, -1005.500000) translate(277.000000, 880.000000)">
			<g id="Group" transform="translate(0.000000, 78.936000)">
				<polygon id="Path" class="st0" points="166.1,38 128.5,0 0.1,133.6 37.9,171.3 				"/>
			</g>
			<polygon id="Path_1_" class="st1" points="166.1,116.9 148.7,99.4 20.4,232.8 37.9,250.3 			"/>
			<path id="Path_2_" class="st2" d="M259.3,121.2l-29.7-29.7l-8.7,4.3l-14.6-14.6l4.3-8.7c0,0-32.4-32.4-53.1-53.2
				C133.5-4.6,97.1-0.8,78.1,3.4C72.6,7.2,70.5,18,70.5,18s28.2,27.9,53.8,65.1l37.6,37.9l8.7-4.3l14.6,14.6l-4.3,8.7l29.7,29.7
				L259.3,121.2z"/>
			<path id="Path_3_" class="st3" d="M259.3,121.2l-29.7-29.7l-8.7,4.3l-14.6-14.6l4.3-8.7c0,0-7.4-7.4-17.5-17.5l-48.5,48.5
				l17.4,17.5l8.7-4.3l14.6,14.6l-4.3,8.7l29.7,29.7L259.3,121.2z"/>
		</g>
	</g>
</g>
</svg>
