<svg width="14" height="14" viewBox="0 0 14 14" fill="none" xmlns="http://www.w3.org/2000/svg">
<circle cx="7" cy="7" r="6" fill="#D35B5B"/>
<path d="M7.80416 10.3625C7.80416 10.8067 7.44416 11.1667 7 11.1667C6.55583 11.1667 6.19583 10.8067 6.19583 10.3625C6.19583 9.91834 6.55583 9.55834 7 9.55834C7.44416 9.55834 7.80416 9.91875 7.80416 10.3625ZM7 8.78834C7.3225 8.78834 7.59833 8.51084 7.61666 8.025L7.77458 3.63667C7.79041 3.19792 7.43916 2.83334 7 2.83334C6.56083 2.83334 6.20958 3.19792 6.22583 3.63667L6.38333 8.025C6.40166 8.51084 6.6775 8.78834 7 8.78834Z" fill="#FAEBEB"/>
</svg>
