<?xml version="1.0" encoding="utf-8"?>
<!-- Generator: Adobe Illustrator 25.4.1, SVG Export Plug-In . SVG Version: 6.00 Build 0)  -->
<svg version="1.1" id="Ebene_1" xmlns="http://www.w3.org/2000/svg" xmlns:xlink="http://www.w3.org/1999/xlink" x="0px" y="0px"
	 viewBox="0 0 14 14" style="enable-background:new 0 0 14 14;" xml:space="preserve">
<style type="text/css">
	.st0{fill:none;stroke:#13D389;}
	.st1{fill:#13D389;}
</style>
<g id="Master">
	<g id="Menu-User" transform="translate(-57.000000, -631.000000)">
		<g id="user-interface" transform="translate(58.000000, 632.000000)">
			<path id="Path" class="st0" d="M12,4.3H0V1c0-0.6,0.4-1,1-1h10c0.6,0,1,0.4,1,1V4.3z"/>
			<path id="Path_00000075860713700102876420000014414458238830413991_" class="st0" d="M0,4.3h12V11c0,0.6-0.4,1-1,1H1
				c-0.6,0-1-0.4-1-1V4.3z"/>
			<path id="Path_00000124153421604612386040000016903946198802948515_" class="st1" d="M1.7,1.5C1.3,1.5,1,1.8,1,2.2
				s0.3,0.7,0.7,0.7s0.7-0.3,0.7-0.7S2,1.5,1.7,1.5z"/>
			<path id="Path_00000106114729337959244960000001619519748335606178_" class="st1" d="M3.7,1.5C3.3,1.5,3,1.8,3,2.2
				s0.3,0.7,0.7,0.7s0.7-0.3,0.7-0.7S4,1.5,3.7,1.5z"/>
			<path id="Path_00000000929017768939090840000008473440929575925945_" class="st1" d="M11,2.5c0,0.2-0.1,0.3-0.3,0.3h-5
				c-0.2,0-0.3-0.1-0.3-0.3V1.8c0-0.2,0.1-0.3,0.3-0.3h5c0.2,0,0.3,0.1,0.3,0.3V2.5z"/>
		</g>
	</g>
</g>
</svg>
