<?xml version="1.0" encoding="UTF-8"?>
<svg width="238px" height="246px" viewBox="0 0 238 246" version="1.1" xmlns="http://www.w3.org/2000/svg" xmlns:xlink="http://www.w3.org/1999/xlink">
    <!-- Generator: Sketch 58 (84663) - https://sketch.com -->
    <title>custom icon</title>
    <desc>Created with Sketch.</desc>
    <g id="Page-1" stroke="none" stroke-width="1" fill="none" fill-rule="evenodd">
        <g id="EXPORT" transform="translate(-144.000000, -110.000000)" fill-rule="nonzero">
            <g id="custom-icon" transform="translate(144.000000, 110.000000)">
                <path d="M190.05375,131.855625 C183.665625,138.238125 183.0375,148.185 188.6475,154.02 C189.57375,154.989375 192.433125,157.7925 196.310625,161.540625 L196.588125,161.8125 C205.99875,171.2625 211.07625,183.598125 210.88875,196.554375 C210.706875,209.3625 205.370625,221.65125 195.864375,231.163125 C186.45,240.5775 173.90625,245.76 160.550625,245.76 L160.464375,245.76 C147.091875,245.74125 134.52375,240.525 125.075625,231.076875 C122.728125,228.729375 120.62625,225.99 118.726875,223.044375 C113.683125,215.21625 110.08875,205.906875 107.2575,198.57 L107.094375,198.1575 C103.021875,187.629375 96.4031251,184.20375 91.5618749,183.181875 C83.7637498,181.535625 74.9212502,184.73625 67.9143749,191.743125 C67.185,192.4725 66.48,193.239375 65.8181251,194.026875 C64.575,195.495 61.9687498,198.316875 60.405,199.93875 L60.0112502,200.33625 C53.475,206.8725 44.7037498,210.384375 35.3268749,210.24 C26.0268749,210.091875 17.2518749,206.349375 10.6106251,199.708125 C3.93937488,193.03875 0.255,184.17 0.239928316,174.73125 C0.22125024,165.27375 3.88125024,156.395625 10.5525,149.72625 C17.6643749,142.614375 26.7525,141.050625 34.77,139.66875 C35.7825,139.494375 36.7818749,139.321875 37.77,139.14 C42.5737498,138.256875 46.0612502,136.515 49.0893749,133.486875 C52.5056251,130.070625 54.4162502,125.233125 54.3337498,120.21 C54.2475,114.883125 52.0462502,109.93125 48.135,106.265625 C45.9131251,104.176875 43.9837498,103.24125 41.3156251,101.941875 C40.9856251,101.7825 40.6537498,101.625 40.3181251,101.461875 C38.0625,100.39125 35.2556251,99.0581251 32.1018749,96.5568749 C28.1587498,93.4293749 25.5581251,88.53 25.1493749,83.4431251 C24.6412502,77.175 26.9193749,70.8562502 31.2393749,66.5381251 C40.1587498,57.6112502 52.53,62.2368749 56.595,63.7593749 C61.5093749,65.5968749 65.265,65.4 67.4681251,63.1968749 C68.9025,61.7625 69.5606251,59.4731251 69.1425,57.3581251 C66.1631251,42.3525 71.4131251,26.3643749 83.1843749,14.5931251 C92.5987498,5.1825 105.136875,-1.08357767e-13 118.49625,-1.08357767e-13 L118.569375,-1.08357767e-13 C118.621875,-1.08357767e-13 118.674375,-1.08357767e-13 118.726875,0.005625024 C132.04875,0.06187488 144.556875,5.26874976 153.9675,14.6831251 C157.3275,18.0431251 162.039375,23.5425 165.39375,30.6675 C169.12125,38.595 170.176875,46.6368749 168.435,53.9212502 C166.745625,61.0387498 169.040625,63.3318749 169.798125,64.0893749 C172.231875,66.5231251 176.458125,66.5325 180.0825,64.1137498 C196.1325,53.3793749 214.498125,54.4312502 226.858125,66.7968749 C240.64875,80.5875 240.67875,103.010625 226.910625,116.773125 C220.730625,122.95875 211.50375,126.721875 202.85625,126.624375 C197.731875,126.571875 193.66125,128.2425 190.05375,131.855625 L190.05375,131.855625 Z" id="Path" fill="#98E2E8"></path>
                <path d="M190.05375,131.855625 C183.665625,138.238125 183.0375,148.185 188.6475,154.02 C189.57375,154.989375 192.433125,157.7925 196.310625,161.540625 L196.588125,161.8125 C205.99875,171.2625 211.07625,183.598125 210.88875,196.554375 C210.706875,209.3625 205.370625,221.65125 195.864375,231.163125 C186.45,240.5775 173.90625,245.76 160.550625,245.76 L160.464375,245.76 C147.091875,245.74125 134.52375,240.525 125.075625,231.076875 C122.728125,228.729375 120.62625,225.99 118.726875,223.044375 L118.726875,0.005625024 C132.04875,0.06187488 144.556875,5.26874976 153.9675,14.6831251 C157.3275,18.0431251 162.039375,23.5425 165.39375,30.6675 C169.12125,38.595 170.176875,46.6368749 168.435,53.9212502 C166.745625,61.0387498 169.040625,63.3318749 169.798125,64.0893749 C172.231875,66.5231251 176.458125,66.5325 180.0825,64.1137498 C196.1325,53.3793749 214.498125,54.4312502 226.858125,66.7968749 C240.64875,80.5875 240.67875,103.010625 226.910625,116.773125 C220.730625,122.95875 211.50375,126.721875 202.85625,126.624375 C197.731875,126.571875 193.66125,128.2425 190.05375,131.855625 L190.05375,131.855625 Z" id="Path" fill="#70C9D2"></path>
            </g>
        </g>
    </g>
</svg>