<?xml version="1.0" encoding="utf-8"?>
<!-- Generator: Adobe Illustrator 26.0.1, SVG Export Plug-In . SVG Version: 6.00 Build 0)  -->
<svg version="1.1" id="Ebene_1" xmlns="http://www.w3.org/2000/svg" xmlns:xlink="http://www.w3.org/1999/xlink" x="0px" y="0px"
	 viewBox="0 0 240 240" style="enable-background:new 0 0 240 240;" xml:space="preserve">
<style type="text/css">
	.st0{fill:#697C86;}
	.st1{fill:#DDEBF0;}
	.st2{fill:#20272E;}
</style>
<g id="Icons">
	<g id="EXIT" transform="translate(-116.000000, -2007.000000)">
		<g id="api" transform="translate(116.000000, 2007.000000)">
			<path id="Path" class="st0" d="M139.3,240h-38.5c-3.9,0-7-3.1-7-7v-15.7c-8.4-2.3-16.4-5.6-23.9-9.9l-11.1,11.1
				c-2.7,2.7-7.2,2.7-9.9,0l-27.2-27.2c-2.7-2.7-2.7-7.2,0-9.9l11.1-11.1c-4.3-7.5-7.7-15.5-9.9-23.9H7c-3.9,0-7-3.1-7-7v-38.5
				c0-3.9,3.1-7,7-7h15.7c2.3-8.4,5.6-16.4,9.9-23.9L21.5,58.7c-2.7-2.7-2.7-7.2,0-9.9l27.2-27.2c2.7-2.7,7.2-2.7,9.9,0l11.1,11.1
				c7.5-4.3,15.5-7.7,23.9-9.9V7c0-3.9,3.1-7,7-7h38.5c3.9,0,7,3.1,7,7v15.7c8.4,2.3,16.4,5.6,23.9,9.9l11.1-11.1
				c2.7-2.7,7.2-2.7,9.9,0l27.2,27.2c2.7,2.7,2.7,7.2,0,9.9l-11.1,11.1c4.3,7.5,7.7,15.5,9.9,23.9H233c3.9,0,7,3.1,7,7v38.5
				c0,3.9-3.1,7-7,7h-15.7c-2.3,8.4-5.6,16.4-9.9,23.9l11.1,11.1c2.7,2.7,2.7,7.2,0,9.9l-27.2,27.2c-2.7,2.7-7.2,2.7-9.9,0
				l-11.1-11.1c-7.5,4.3-15.5,7.7-23.9,9.9V233C146.3,236.9,143.1,240,139.3,240z"/>
			<g id="Group-4" transform="translate(36.000000, 36.000000)">
				<path id="Path_00000054968695186382394560000011124609318763782796_" class="st1" d="M84,168c-46.3,0-84-37.7-84-84S37.7,0,84,0
					s84,37.7,84,84S130.3,168,84,168z"/>
				<path id="Path_00000020368818494718780440000010184476234789462416_" class="st2" d="M50.4,68h48.4l-2.6,2.7
					c-3.1,3.3-2.8,8.3,0.6,11.3c1.6,1.4,3.6,2.1,5.6,2.1c2.3,0,4.6-0.9,6.2-2.6l15.3-16c2.9-3,2.9-7.7,0-10.7l-15.3-16
					c-3.1-3.3-8.4-3.5-11.8-0.5c-3.4,3-3.7,8-0.6,11.3l2.6,2.7H50.4c-4.6,0-8.4,3.6-8.4,8S45.7,68,50.4,68L50.4,68z"/>
				<path id="Path_00000085234606397119328310000002710559425833051823_" class="st2" d="M117.6,100H69.3l2.6-2.7
					c3.1-3.3,2.8-8.3-0.6-11.3c-3.4-3-8.7-2.7-11.8,0.5l-15.3,16c-2.9,3-2.9,7.7,0,10.7l15.3,16c1.7,1.7,3.9,2.6,6.2,2.6
					c2,0,4-0.7,5.6-2.1c3.4-3,3.7-8,0.6-11.3l-2.6-2.7h48.4c4.6,0,8.4-3.6,8.4-8C126,103.6,122.3,100,117.6,100z"/>
			</g>
		</g>
	</g>
</g>
</svg>
