<?xml version="1.0" encoding="utf-8"?>
<svg version="1.1" id="Ebene_1" xmlns="http://www.w3.org/2000/svg" xmlns:xlink="http://www.w3.org/1999/xlink" x="0px" y="0px"
	 viewBox="0 0 384 416" style="enable-background:new 0 0 384 416;" xml:space="preserve">
<style type="text/css">
	.st0{fill:#858A8C;}
	.st1{fill:#FFD90A;}
</style>
<g id="Menu-Icons-EXPORT">
	<g id="EXPORT" transform="translate(-514.000000, -525.000000)">
		<g id="discovery-settings" transform="translate(514.000000, 525.000000)">
			<path id="Shape" class="st0" d="M33.9,43.3h214.6v67.8H33.9V43.3z M22.6,416h338.8v-22.6c0-12.4-10.2-22.6-22.6-22.6H45.2
				c-12.4,0-22.6,10.2-22.6,22.6V416z"/>
			<path id="Shape_1_" class="st0" d="M314,128.8l-56.5-38.4L314,52l47.4,29.4L384,45.2L312.8,0l-131,90.4l131,90.4l71.2-45.2
				l-22.6-36.1L314,128.8z M101.6,67.8H22.6L124.2,384h79.1L101.6,67.8z"/>
			<path id="Shape_2_" class="st1" d="M176.2,292.5c-4.5-6.8-11.3-10.2-19.2-10.2h-21.5c-7.9,0-14.7,3.4-19.2,10.2L56.5,384h180.7
				L176.2,292.5z M146.8,350.1c-12.4,0-22.6-10.2-22.6-22.6s10.2-22.6,22.6-22.6c12.4,0,22.6,10.2,22.6,22.6
				S159.2,350.1,146.8,350.1z M67.8,22.6C30.5,22.6,0,53.1,0,90.4s30.5,67.8,67.8,67.8s67.8-30.5,67.8-67.8S105,22.6,67.8,22.6z
				 M67.8,112.9c-12.4,0-22.6-10.2-22.6-22.6s10.2-22.6,22.6-22.6s22.6,10.2,22.6,22.6S80.2,112.9,67.8,112.9z M259.8,146.8h-33.9
				c-12.4,0-22.6-10.2-22.6-22.6V56.5c0-12.4,10.2-22.6,22.6-22.6h33.9V146.8z"/>
		</g>
	</g>
</g>
</svg>
