<?xml version="1.0" encoding="utf-8"?>
<!-- Generator: Adobe Illustrator 25.0.0, SVG Export Plug-In . SVG Version: 6.00 Build 0)  -->
<svg version="1.1" id="Ebene_1" xmlns="http://www.w3.org/2000/svg" xmlns:xlink="http://www.w3.org/1999/xlink" x="0px" y="0px"
	 viewBox="0 0 240 240" style="enable-background:new 0 0 240 240;" xml:space="preserve">
<style type="text/css">
	.st0{fill:#ED3B3B;}
</style>
<desc>Created with Sketch.</desc>
<g id="Icons">
	<g id="Artboard" transform="translate(-287.000000, -886.000000)">
		<path id="Path-2" class="st0" d="M502.4,886H311.6c-13.6,0-24.6,11.1-24.6,24.6v190.7c0,13.6,11.1,24.6,24.6,24.6h190.7
			c13.6,0,24.6-11.1,24.6-24.6V910.6C527,897.1,515.9,886,502.4,886z M459.8,1059.6c-5.2,5.2-13.4,5.2-18.6,0l-31-31l-31,31
			c-5.2,5.2-13.4,5.2-18.6,0s-5.2-13.4,0-18.6l31-31l-31-31c-5.2-5.2-5.2-13.4,0-18.6c5.2-5.2,13.4-5.2,18.6,0l31,31l31-31
			c5.2-5.2,13.4-5.2,18.6,0s5.2,13.4,0,18.6l-31,31l31,31C464.9,1046.1,464.9,1054.4,459.8,1059.6z"/>
	</g>
</g>
</svg>
