<svg width="32" height="32" viewBox="0 0 32 32" fill="none" xmlns="http://www.w3.org/2000/svg">
<path fill-rule="evenodd" clip-rule="evenodd" d="M22.8667 2.80006C24 3.13339 25 4.00006 25.3333 5.20006C25.6667 6.33339 26 7.93339 26 9.73339C26 11.4667 25.6667 13.0667 25.3333 14.2001C25 15.3334 24.0667 16.2667 22.8667 16.5334C22.0934 16.6945 21.1178 16.8867 20 17.0424V19.3334L18.6667 20.6667L20 22.0001V23.3334L18.6667 24.6667L20 26.0001V27.3334L17.3333 30.0001H14.6667L12 27.3334V17.0332C10.8822 16.8689 9.90655 16.66 9.13333 16.4667C7.93333 16.2001 7 15.3334 6.66667 14.1334C6.33333 13.0001 6 11.4001 6 9.66673C6 7.93339 6.33333 6.33339 6.66667 5.20006C7 4.00006 8 3.13339 9.13333 2.80006C10.7333 2.46673 13.2 2.00006 16 2.00006C18.8 2.00006 21.2667 2.46673 22.8667 2.80006ZM11.3333 7.33339C11.3333 8.06673 11.9333 8.66673 12.6667 8.66673H19.3333C20.0667 8.66673 20.6667 8.06673 20.6667 7.33339V6.00006C20.6667 5.60006 18.6 5.33339 16 5.33339C13.4 5.33339 11.3333 5.60006 11.3333 6.00006V7.33339Z" fill="#00ABE9"/>
<path d="M15.3334 17.3334H16.6667V30H15.3334V17.3334Z" fill="#045873"/>
</svg>
