<?xml version="1.0" encoding="utf-8"?>
<svg version="1.1" id="Ebene_1" xmlns="http://www.w3.org/2000/svg" xmlns:xlink="http://www.w3.org/1999/xlink" x="0px" y="0px"
	 viewBox="0 0 360 360" style="enable-background:new 0 0 360 360;" xml:space="preserve">
<style type="text/css">
	.st0{fill:#43A047;}
	.st1{fill:#275129;}
</style>
<g id="Menu-Icons-EXPORT">
	<g id="EXPORT" transform="translate(-311.000000, -470.000000)">
		<g id="cloud" transform="translate(311.000000, 470.000000)">
			<path id="Path" class="st0" d="M0,40C0,18,18,0,40,0h280c22,0,40,18,40,40v280c0,22-18,40-40,40H40c-22,0-40-18-40-40V40z"/>
			<path id="Path_1_" class="st1" d="M213.2,90c-30.4,0-55.1,24.7-55.1,55.1s24.7,55.1,55.1,55.1s55.1-24.7,55.1-55.1
				S243.7,90,213.2,90z"/>
			<path id="Shape" class="st1" d="M261.8,154.1c-25.1,0-45.4,20.3-45.4,45.4s20.3,45.4,45.4,45.4s45.4-20.3,45.4-45.4
				S286.9,154.1,261.8,154.1z M93.4,154.8c-16.2,0-31.2,8.6-39.3,22.7c-8.1,14-8.1,31.3,0,45.4c8.1,14,23.1,22.7,39.3,22.7
				s31.2-8.6,39.3-22.7c8.1-14,8.1-31.3,0-45.4C124.5,163.4,109.6,154.8,93.4,154.8L93.4,154.8z"/>
			<path id="Path_2_" class="st1" d="M135.5,109.4c-23.3,0-42.1,18.9-42.1,42.1s18.9,42.1,42.1,42.1c15,0,29-8,36.5-21.1
				c7.5-13,7.5-29.1,0-42.1C164.4,117.5,150.5,109.4,135.5,109.4L135.5,109.4z"/>
			<path id="Path_3_" class="st1" d="M184.1,141.1c-25.1,0-45.4,20.3-45.4,45.4s20.3,45.4,45.4,45.4s45.4-20.3,45.4-45.4
				S209.1,141.1,184.1,141.1z"/>
			<path id="Path_4_" class="st1" d="M67.4,219.6c0,14.3,11.6,25.9,25.9,25.9h162c14.3,0,25.9-11.6,25.9-25.9v-6.5
				c0-14.3-11.6-25.9-25.9-25.9h-162c-14.3,0-25.9,11.6-25.9,25.9V219.6z"/>
		</g>
	</g>
</g>
</svg>
