<svg width="36" height="36" viewBox="0 0 36 36" fill="none" xmlns="http://www.w3.org/2000/svg">
<path fill-rule="evenodd" clip-rule="evenodd" d="M22.5433 28.9457C22.5433 31.4508 20.5085 33.483 18 33.483C15.4915 33.483 13.4567 31.4508 13.4567 28.9457L18.0074 26.6105L22.5433 28.9457Z" fill="#EDBA3B"/>
<path fill-rule="evenodd" clip-rule="evenodd" d="M22.3214 30.3424C21.8478 31.7908 20.6861 32.9066 19.2135 33.3131C18.3034 33.0618 17.4894 32.5298 16.8975 31.7982C16.6829 31.5248 16.6385 31.1626 16.7939 30.8523C16.9419 30.5419 17.2601 30.3424 17.6078 30.3424H22.3214Z" fill="#F7D360"/>
<path fill-rule="evenodd" clip-rule="evenodd" d="M29.7284 24.4083L19.9683 26.5144L6.27173 24.4083C7.21147 24.4453 8.06243 23.8245 8.29921 22.9156C9.97152 18.4152 5.52437 5.31302 18.0001 5.31302C30.4757 5.31302 26.036 18.4152 27.7009 22.9082C27.9451 23.8245 28.7886 24.4453 29.7284 24.4083Z" fill="#F7D360"/>
<path fill-rule="evenodd" clip-rule="evenodd" d="M32 26.6739C32 27.9301 30.9789 28.9425 29.7283 28.9425H6.27167C5.01374 28.9425 4 27.9301 4 26.6739C4 25.4176 5.01374 24.4052 6.27167 24.4052H29.7283C30.9863 24.4052 32 25.425 32 26.6739Z" fill="#EDBA3B"/>
<path fill-rule="evenodd" clip-rule="evenodd" d="M27.7009 22.9156H15.5064C14.8774 22.9156 14.2707 22.6569 13.8341 22.2062C13.3975 21.7554 13.1607 21.142 13.1829 20.5139C13.3531 14.9641 12.4652 5.42387 17.9113 5.31302C2.97892 5.38692 12.5244 24.4009 6.27173 24.4009H29.7284C28.7886 24.4453 27.9451 23.8245 27.7009 22.9156Z" fill="#EDBA3B"/>
<path fill-rule="evenodd" clip-rule="evenodd" d="M31.999 26.6739C31.999 27.9301 30.9852 28.9425 29.7273 28.9425H12.834C11.5761 28.9425 10.5624 27.9301 10.5624 26.6739C10.5624 25.4176 11.5835 24.4052 12.834 24.4052H29.7273C30.9852 24.4052 31.999 25.425 31.999 26.6739Z" fill="#F7D360"/>
<path fill-rule="evenodd" clip-rule="evenodd" d="M20.3097 5.49037C20.3171 5.43125 20.3171 5.37213 20.3171 5.31302C20.3171 4.03458 19.2811 3 18.001 3C16.7209 3 15.6849 4.04197 15.6849 5.31302C15.6849 5.37213 15.6849 5.43125 15.6923 5.49037" fill="#EDBA3B"/>
<path fill-rule="evenodd" clip-rule="evenodd" d="M28 36C23.5932 36 20 32.4068 20 28C20 23.5932 23.5932 20 28 20C32.4068 20 36 23.5932 36 28C36 32.4068 32.4068 36 28 36Z" fill="white"/>
<path fill-rule="evenodd" clip-rule="evenodd" d="M26.7794 31.3559V23.8644C26.7794 23.5932 26.9489 23.3559 27.1523 23.3559H28.9828C29.1862 23.3559 29.3557 23.5932 29.3557 23.8644V31.3559C29.3557 31.6271 29.1862 31.8644 28.9828 31.8644H27.1523C26.9489 31.8644 26.7794 31.6271 26.7794 31.3559Z" fill="#1E262E"/>
<path fill-rule="evenodd" clip-rule="evenodd" d="M30.5762 31.4576V25.4576C30.5762 25.2542 30.7457 25.0508 30.9491 25.0508H32.7796C32.983 25.0508 33.1524 25.2203 33.1524 25.4576V31.4576C33.1524 31.661 32.983 31.8644 32.7796 31.8644H30.9491C30.7118 31.8644 30.5762 31.6949 30.5762 31.4576Z" fill="#1E262E"/>
<path fill-rule="evenodd" clip-rule="evenodd" d="M23.3896 31.5593V27.0508C23.3896 26.8813 23.5591 26.7457 23.7625 26.7457H25.593C25.7964 26.7457 25.9659 26.8813 25.9659 27.0508V31.5593C25.9659 31.7288 25.7964 31.8644 25.593 31.8644H23.7625C23.5591 31.8644 23.3896 31.7288 23.3896 31.5593Z" fill="#1E262E"/>
</svg>
