<svg width="20" height="20" viewBox="0 0 20 20" fill="none" xmlns="http://www.w3.org/2000/svg">
<path d="M9.96241 0.387488C9.94522 0.390613 9.92804 0.3953 9.91241 0.399988C9.72647 0.442176 9.59522 0.609363 9.59991 0.799988V2.39999C9.59835 2.54374 9.67335 2.67811 9.79835 2.75155C9.92335 2.82343 10.0765 2.82343 10.2015 2.75155C10.3265 2.67811 10.4015 2.54374 10.3999 2.39999V0.799988C10.4046 0.684363 10.3577 0.573426 10.2749 0.4953C10.1905 0.415613 10.0765 0.37655 9.96241 0.387488ZM4.01241 2.84999C3.99991 2.85311 3.98741 2.8578 3.97491 2.86249C3.83116 2.89218 3.71554 2.99999 3.67335 3.14061C3.63116 3.28124 3.67022 3.43436 3.77491 3.53749L4.91241 4.67499C5.00929 4.79374 5.16397 4.84843 5.31397 4.81405C5.46241 4.77968 5.5796 4.66249 5.61397 4.51405C5.64835 4.36405 5.59366 4.20936 5.47491 4.11249L4.33741 2.97499C4.26241 2.8953 4.15929 2.85155 4.04991 2.84999C4.03741 2.84999 4.02491 2.84999 4.01241 2.84999ZM15.8999 2.84999C15.8827 2.85311 15.8655 2.8578 15.8499 2.86249C15.778 2.88124 15.714 2.9203 15.6624 2.97499L14.5249 4.11249C14.4062 4.20936 14.3515 4.36405 14.3858 4.51405C14.4202 4.66249 14.5374 4.77968 14.6858 4.81405C14.8358 4.84843 14.9905 4.79374 15.0874 4.67499L16.2249 3.53749C16.3499 3.41874 16.3858 3.2328 16.3124 3.07655C16.2374 2.91874 16.0718 2.82811 15.8999 2.84999ZM9.99991 3.59999C6.91241 3.59999 4.39991 6.11249 4.39991 9.19999C4.39991 11.1562 5.27647 12.4703 6.09991 13.4375C6.51241 13.9203 6.91085 14.3297 7.18741 14.6875C7.46397 15.0453 7.59991 15.3312 7.59991 15.6V17.0125C7.54679 17.1234 7.54679 17.2516 7.59991 17.3625V17.6C7.59991 18.2578 8.1421 18.8 8.79991 18.8H9.11241C9.33272 19.0437 9.64679 19.2 9.99991 19.2C10.353 19.2 10.6671 19.0437 10.8874 18.8H11.1999C11.8577 18.8 12.3999 18.2578 12.3999 17.6V17.275C12.4108 17.2219 12.4108 17.1656 12.3999 17.1125V15.6C12.3999 15.3312 12.5358 15.0422 12.8124 14.6875C13.089 14.3328 13.4874 13.9312 13.8999 13.45C14.7234 12.4875 15.5999 11.1734 15.5999 9.19999C15.5999 6.11249 13.0874 3.59999 9.99991 3.59999ZM9.99991 4.39999C12.6562 4.39999 14.7999 6.54374 14.7999 9.19999C14.7999 10.9437 14.0765 12.0312 13.2999 12.9375C12.9124 13.3906 12.5108 13.7859 12.1874 14.2C11.9499 14.5047 11.7796 14.8375 11.6874 15.2H8.31241C8.22022 14.8375 8.04991 14.5062 7.81241 14.2C7.48897 13.7828 7.08741 13.3812 6.69991 12.925C5.92335 12.0141 5.19991 10.925 5.19991 9.19999C5.19991 6.54374 7.34366 4.39999 9.99991 4.39999ZM1.48741 8.79999C1.2671 8.83124 1.11241 9.03593 1.14366 9.25624C1.17491 9.47655 1.3796 9.63124 1.59991 9.59999H3.19991C3.34366 9.60155 3.47804 9.52655 3.55147 9.40155C3.62335 9.27655 3.62335 9.12343 3.55147 8.99843C3.47804 8.87343 3.34366 8.79843 3.19991 8.79999H1.59991C1.58741 8.79999 1.57491 8.79999 1.56241 8.79999C1.54991 8.79999 1.53741 8.79999 1.52491 8.79999C1.51241 8.79999 1.49991 8.79999 1.48741 8.79999ZM16.6874 8.79999C16.4671 8.83124 16.3124 9.03593 16.3437 9.25624C16.3749 9.47655 16.5796 9.63124 16.7999 9.59999H18.3999C18.5437 9.60155 18.678 9.52655 18.7515 9.40155C18.8233 9.27655 18.8233 9.12343 18.7515 8.99843C18.678 8.87343 18.5437 8.79843 18.3999 8.79999H16.7999C16.7874 8.79999 16.7749 8.79999 16.7624 8.79999C16.7499 8.79999 16.7374 8.79999 16.7249 8.79999C16.7124 8.79999 16.6999 8.79999 16.6874 8.79999ZM5.14991 13.6C5.05929 13.6125 4.97491 13.6578 4.91241 13.725L3.77491 14.8625C3.65616 14.9594 3.60147 15.1141 3.63585 15.2641C3.67022 15.4125 3.78741 15.5297 3.93585 15.5641C4.08585 15.5984 4.24054 15.5437 4.33741 15.425L5.47491 14.2875C5.59366 14.1734 5.6296 13.9969 5.56554 13.8453C5.50304 13.6937 5.35147 13.5969 5.18741 13.6C5.17491 13.6 5.16241 13.6 5.14991 13.6ZM14.7249 13.6C14.5749 13.6266 14.4546 13.7359 14.4124 13.8812C14.3702 14.0281 14.414 14.1844 14.5249 14.2875L15.6624 15.425C15.7593 15.5437 15.914 15.5984 16.064 15.5641C16.2124 15.5297 16.3296 15.4125 16.364 15.2641C16.3983 15.1141 16.3437 14.9594 16.2249 14.8625L15.0874 13.725C15.0124 13.6453 14.9093 13.6016 14.7999 13.6C14.7874 13.6 14.7749 13.6 14.7624 13.6C14.7499 13.6 14.7374 13.6 14.7249 13.6ZM8.39991 16H11.5999V16.8H9.59991C9.58741 16.8 9.57491 16.8 9.56241 16.8C9.54991 16.8 9.53741 16.8 9.52491 16.8C9.3046 16.8203 9.1421 17.0172 9.16241 17.2375C9.18272 17.4578 9.3796 17.6203 9.59991 17.6H11.5999C11.5999 17.8265 11.4265 18 11.1999 18H8.79991C8.57335 18 8.39991 17.8265 8.39991 17.6C8.54366 17.6016 8.67804 17.5266 8.75147 17.4016C8.82335 17.2766 8.82335 17.1234 8.75147 16.9984C8.67804 16.8734 8.54366 16.7984 8.39991 16.8V16Z" fill="#13D389"/>
</svg>
