<?xml version="1.0" encoding="utf-8"?>
<!-- Generator: Adobe Illustrator 26.0.1, SVG Export Plug-In . SVG Version: 6.00 Build 0)  -->
<svg version="1.1" id="Ebene_1" xmlns="http://www.w3.org/2000/svg" xmlns:xlink="http://www.w3.org/1999/xlink" x="0px" y="0px"
	 viewBox="0 0 62.6 62.6" style="enable-background:new 0 0 62.6 62.6;" xml:space="preserve">
<style type="text/css">
	.st0{fill:#13D389;}
</style>
<path class="st0" d="M51.7,14.5l-16-9.2c-2.7-1.6-6-1.6-8.7,0l-16,9.2c-2.7,1.6-4.3,4.5-4.3,7.6v18.4c0,3.1,1.7,6,4.4,7.6l16,9.2
	c2.7,1.6,6,1.6,8.7,0l16-9.2c2.7-1.6,4.3-4.5,4.3-7.6V22.1C56,19,54.3,16.1,51.7,14.5z M51.8,40.5c0,1.6-0.9,3.1-2.2,3.9l-16,9.2
	c-1.4,0.8-3.1,0.8-4.5,0l-16-9.2c-1.4-0.8-2.3-2.3-2.3-3.9V22.1c0-1.6,0.9-3.1,2.3-3.9l16-9.2c1.4-0.8,3.1-0.8,4.5,0l16,9.2
	c1.4,0.8,2.2,2.3,2.2,3.9L51.8,40.5z"/>
<path class="st0" d="M29.3,29.7L21.4,23c-0.9-0.8-2.2-0.6-3,0.2s-0.6,2.2,0.2,3l6,5l-6,5.1c-0.9,0.8-1,2.1-0.3,3
	c0.8,0.9,2.1,1,3,0.2l7.9-6.7c0.9-0.8,1-2.1,0.2-3C29.4,29.8,29.4,29.7,29.3,29.7z"/>
<path class="st0" d="M42.6,35.9H33c-1.2,0-2.1,0.9-2.1,2.1c0,1.2,0.9,2.1,2.1,2.1c0,0,0,0,0,0h9.5c1.2,0,2.1-0.9,2.1-2.1
	C44.7,36.8,43.7,35.9,42.6,35.9C42.6,35.9,42.6,35.9,42.6,35.9L42.6,35.9z"/>
</svg>
