<svg width="20" height="20" viewBox="0 0 20 20" fill="none" xmlns="http://www.w3.org/2000/svg">
<path d="M15.4166 7.49513C15.4166 4.28679 12.6666 1.74513 9.37489 2.12013C6.87489 2.41179 4.87489 4.41179 4.62489 6.91179C4.41655 8.82846 5.20822 10.5368 6.54155 11.6201C7.12489 12.1201 7.49989 12.8285 7.49989 13.6201V13.7451H12.4999V13.7035C12.4999 12.9535 12.8332 12.2035 13.4166 11.7035C14.6249 10.7035 15.4166 9.20346 15.4166 7.49513Z" fill="#FBC02D"/>
<path d="M12.75 6.74511L11.5 5.91177C11.375 5.82844 11.1667 5.82844 11.0417 5.91177L10 6.57844L9 5.91177C8.875 5.82844 8.66667 5.82844 8.54167 5.91177L7.29167 6.74511C7.20833 6.82844 7.125 6.91177 7.125 7.03677C7.125 7.16177 7.125 7.28677 7.20833 7.37011L8.79167 9.32844V13.7451H9.625V9.16177C9.625 9.07844 9.58333 8.99511 9.54167 8.91177L8.16667 7.20344L8.79167 6.78677L9.79167 7.45344C9.91667 7.53677 10.125 7.53677 10.25 7.45344L11.25 6.78677L11.875 7.20344L10.5 8.91177C10.4583 8.99511 10.4167 9.07844 10.4167 9.16177V13.7451H11.25V9.32844L12.8333 7.37011C12.9167 7.28677 12.9583 7.16177 12.9167 7.03677C12.875 6.91177 12.8333 6.78677 12.75 6.74511Z" fill="#FFF59D"/>
<path d="M10 15.4118C9.66848 15.4118 9.35054 15.5435 9.11612 15.7779C8.8817 16.0123 8.75 16.3303 8.75 16.6618C8.75 16.9933 8.8817 17.3112 9.11612 17.5457C9.35054 17.7801 9.66848 17.9118 10 17.9118C10.3315 17.9118 10.6495 17.7801 10.8839 17.5457C11.1183 17.3112 11.25 16.9933 11.25 16.6618C11.25 16.3303 11.1183 16.0123 10.8839 15.7779C10.6495 15.5435 10.3315 15.4118 10 15.4118Z" fill="#5C6BC0"/>
<path d="M10.8333 17.0785H9.16667C8.25 17.0785 7.5 16.3285 7.5 15.4118V13.3285H12.5V15.4118C12.5 16.3285 11.75 17.0785 10.8333 17.0785Z" fill="#9FA8DA"/>
<path d="M12.5 15.4118L7.66667 16.0784C7.79167 16.3701 8.04167 16.6618 8.33333 16.8285L12.25 16.2868C12.4167 16.0368 12.5 15.7451 12.5 15.4118ZM7.5 14.4535V15.2868L12.5 14.5785V13.7451L7.5 14.4535Z" fill="#5C6BC0"/>
</svg>
