<svg width="16" height="16" viewBox="0 0 16 16" fill="none" xmlns="http://www.w3.org/2000/svg">
<path fill-rule="evenodd" clip-rule="evenodd" d="M6.52386 7.15072H2.27771C1.89617 7.15072 1.57617 6.83072 1.57617 6.44918V2.21533C1.57617 1.83379 1.89617 1.51379 2.27771 1.51379H6.52386C6.9054 1.51379 7.2254 1.83379 7.2254 2.21533V6.46149C7.2131 6.84302 6.9054 7.15072 6.52386 7.15072Z" stroke="#0F9472" stroke-width="0.861538" stroke-miterlimit="10"/>
<path fill-rule="evenodd" clip-rule="evenodd" d="M13.7719 14.4123H9.52576C9.14422 14.4123 8.82422 14.0923 8.82422 13.7108V9.4646C8.82422 9.08306 9.14422 8.76306 9.52576 8.76306H13.7719C14.1535 8.76306 14.4734 9.08306 14.4734 9.4646V13.7108C14.4734 14.0923 14.1535 14.4123 13.7719 14.4123Z" stroke="#0F9472" stroke-width="0.861538" stroke-miterlimit="10"/>
<path d="M7.32227 4.27075H11.7161V8.56614" stroke="#0F9472" stroke-width="0.861538" stroke-miterlimit="10" stroke-linejoin="round"/>
<path d="M4.23438 7.2738V11.7538H8.7513" stroke="#0F9472" stroke-width="0.861538" stroke-miterlimit="10" stroke-linejoin="round"/>
</svg>
