<svg width="16" height="16" viewBox="0 0 16 16" fill="none" xmlns="http://www.w3.org/2000/svg">
<path d="M14.6667 7.99999C14.6667 11.6813 11.6813 14.6667 8.00001 14.6667C4.31868 14.6667 1.33334 11.6813 1.33334 7.99999C1.33334 4.31866 4.31868 1.33333 8.00001 1.33333C11.6813 1.33333 14.6667 4.31866 14.6667 7.99999Z" fill="#00ACC1"/>
<path d="M13.3333 8.00001C13.3333 10.946 10.946 13.3333 7.99999 13.3333C5.05399 13.3333 2.66666 10.946 2.66666 8.00001C2.66666 5.05401 5.05432 2.66667 7.99999 2.66667C10.9457 2.66667 13.3333 5.05434 13.3333 8.00001Z" fill="#EEEEEE"/>
<path d="M7.66666 13.3167C7.77732 13.3233 7.88732 13.3333 7.99999 13.3333C8.11266 13.3333 8.22266 13.3233 8.33332 13.3167V12H7.66666V13.3167ZM12 8.33334H13.3167C13.3233 8.22267 13.3333 8.11267 13.3333 8.00001C13.3333 7.88734 13.3233 7.77734 13.3167 7.66667H12V8.33334ZM2.68332 8.33334H3.99999V7.66667H2.68332C2.67666 7.77734 2.66666 7.88734 2.66666 8.00001C2.66666 8.11267 2.67666 8.22267 2.68332 8.33334Z" fill="#78909C"/>
<path d="M8.33333 7.05795C8.72145 7.19541 9 7.56498 9 8.00001C9 8.15587 8.96278 8.30271 8.89909 8.43425L10.5547 10.0898L9.97786 10.6667L8.27246 8.96127C8.18575 8.98582 8.09455 9.00001 8 9.00001C7.448 9.00001 7 8.55201 7 8.00001C7 7.56498 7.27855 7.19541 7.66667 7.05795V3.66667H8.33333V7.05795Z" fill="black"/>
</svg>
