<svg width="20" height="20" viewBox="0 0 20 20" fill="none" xmlns="http://www.w3.org/2000/svg">
<circle cx="10" cy="10" r="9.5" fill="#13D389"/>
<path fill-rule="evenodd" clip-rule="evenodd" d="M14.0303 5.46967C14.3232 5.76256 14.3232 6.23744 14.0303 6.53033L8.03034 12.5303C7.75323 12.8074 7.30947 12.8245 7.01192 12.5694L3.51192 9.56944C3.19743 9.29988 3.161 8.8264 3.43057 8.51191C3.70014 8.19741 4.17361 8.16099 4.48811 8.43056L7.46079 10.9786L12.9697 5.46967C13.2626 5.17678 13.7375 5.17678 14.0303 5.46967Z" fill="#20272E"/>
<path fill-rule="evenodd" clip-rule="evenodd" d="M14.125 9.75C14.125 9.40482 13.8452 9.125 13.5 9.125C13.1548 9.125 12.875 9.40482 12.875 9.75V12H10.625C10.2798 12 10 12.2798 10 12.625C10 12.9702 10.2798 13.25 10.625 13.25H12.875V15.5C12.875 15.8452 13.1548 16.125 13.5 16.125C13.8452 16.125 14.125 15.8452 14.125 15.5V13.25H16.375C16.7202 13.25 17 12.9702 17 12.625C17 12.2798 16.7202 12 16.375 12H14.125V9.75Z" fill="#20272E"/>
</svg>
