<svg width="140" height="140" viewBox="0 0 140 140" fill="none" xmlns="http://www.w3.org/2000/svg">
<circle cx="70" cy="70" r="70" fill="#3E4C57"/>
<path d="M104.258 65.5156C104.273 65.1328 104.289 64.7578 104.289 64.3906C104.289 49.8906 92.4844 38.0938 77.9844 38.0938C67.9688 38.0938 58.8203 43.8828 54.4297 52.7578C52.1562 51.2578 49.5 50.4453 46.7109 50.4453C39.3047 50.4453 33.2188 56.2188 32.7266 63.5078C25.1641 66.2578 20 73.5156 20 81.6641C20 92.3203 28.6797 101 39.3438 101H102.195C112.016 101 120 93.0156 120 83.1953C120 74.0781 113.109 66.5391 104.258 65.5156Z" fill="#1B242B"/>
<path d="M88.5832 83.3334L76.766 62.6869L72.1555 71.9717L80.2723 81.3784L65.2082 83.089L88.5832 83.3334ZM65.2733 67.879L57.4165 81.1347L64.1046 80.4625L75.8565 59.022L65.2733 67.879Z" fill="#93999C"/>
</svg>
