<svg width="24" height="20" viewBox="0 0 24 20" fill="none" xmlns="http://www.w3.org/2000/svg">
<path d="M6 8H3" stroke="#11BC7A" stroke-width="1.5" stroke-linecap="round"/>
<path d="M6 14H3" stroke="#11BC7A" stroke-width="1.5" stroke-linecap="round"/>
<path d="M6 11L1 11" stroke="#11BC7A" stroke-width="1.5" stroke-linecap="round"/>
<path d="M14.837 6.093C14.9593 5.96701 15.1266 5.8947 15.3021 5.89196C15.3908 5.89057 15.4789 5.907 15.5611 5.94027C15.6433 5.97354 15.718 6.02297 15.7807 6.08563C15.8434 6.1483 15.893 6.22292 15.9263 6.30508C15.9596 6.38702 15.9762 6.47478 15.975 6.56321M14.837 6.093L15.875 10.4H15.975M14.837 6.093C14.7149 6.21883 14.6477 6.38791 14.65 6.56321M14.837 6.093L18.3125 11.625M15.975 6.56321C15.975 6.56345 15.975 6.56369 15.975 6.56393L15.875 6.5625H15.975V6.56321ZM15.975 6.56321V10.4M15.975 10.4V10.5H18.3125M15.975 10.4H18.3118M18.3118 10.4C18.3116 10.4 18.3113 10.4 18.3111 10.4L18.3125 10.5M18.3118 10.4H18.3125V10.5M18.3118 10.4C18.3994 10.3989 18.4863 10.4151 18.5675 10.4477C18.649 10.4805 18.7231 10.5291 18.7856 10.5907C18.8481 10.6523 18.8978 10.7258 18.9317 10.8068C18.9656 10.8878 18.983 10.9747 18.983 11.0625C18.983 11.1503 18.9656 11.2372 18.9317 11.3182C18.8978 11.3992 18.8481 11.4727 18.7856 11.5343C18.7231 11.5959 18.649 11.6445 18.5675 11.6773C18.4863 11.7099 18.3994 11.7261 18.3119 11.725M18.3125 10.5C18.387 10.4989 18.461 10.5127 18.5302 10.5405C18.5994 10.5683 18.6623 10.6096 18.7154 10.6619C18.7685 10.7142 18.8107 10.7766 18.8394 10.8454C18.8682 10.9142 18.883 10.988 18.883 11.0625C18.883 11.137 18.8682 11.2108 18.8394 11.2796C18.8107 11.3484 18.7685 11.4108 18.7154 11.4631C18.6623 11.5154 18.5994 11.5567 18.5302 11.5845C18.461 11.6123 18.387 11.6261 18.3125 11.625M18.3125 11.625L18.3111 11.725C18.3113 11.725 18.3116 11.725 18.3119 11.725M18.3125 11.625H15.3125C15.1633 11.625 15.0203 11.5657 14.9148 11.4602C14.8093 11.3547 14.75 11.2117 14.75 11.0625V6.5625M18.3125 11.625L14.75 6.5625M18.3125 11.625V11.725H18.3119M18.3119 11.725H15.3125C15.1368 11.725 14.9683 11.6552 14.8441 11.5309C14.7198 11.4067 14.65 11.2382 14.65 11.0625V6.56321M14.75 6.5625L14.65 6.56393C14.65 6.56369 14.65 6.56345 14.65 6.56321M14.75 6.5625H14.65V6.56321M15.5 2.9C11.3093 2.9 7.9 6.3093 7.9 10.5C7.9 14.6907 11.3093 18.1 15.5 18.1C19.6907 18.1 23.1 14.6907 23.1 10.5C23.1 6.3093 19.6907 2.9 15.5 2.9ZM15.5 4.225C18.9723 4.225 21.775 7.02775 21.775 10.5C21.775 13.9722 18.9723 16.775 15.5 16.775C12.0277 16.775 9.225 13.9722 9.225 10.5C9.225 7.02775 12.0277 4.225 15.5 4.225Z" fill="#11BC7A" stroke="#11BC7A" stroke-width="0.2"/>
</svg>
