<svg width="128" height="128" viewBox="0 0 128 128" fill="none" xmlns="http://www.w3.org/2000/svg">
<path fill-rule="evenodd" clip-rule="evenodd" d="M22 69H10C6.68629 69 4 66.3137 4 63V17C4 13.6863 6.68629 11 10 11H82C85.3137 11 88 13.6863 88 17V29H100C103.314 29 106 31.6863 106 35V47H118C121.314 47 124 49.6863 124 53V99C124 102.314 121.314 105 118 105H86.5V114H98C100.209 114 102 115.791 102 118C102 120.209 100.209 122 98 122H66C63.7909 122 62 120.209 62 118C62 115.791 63.7909 114 66 114H77.5V105H46C42.6863 105 40 102.314 40 99V87H28C24.6863 87 22 84.3137 22 81V69ZM12 61V19H80V29H28C24.6863 29 22 31.6863 22 35V61H12ZM48 97H116V55H48V97ZM40 79H30V37H98V47H46C42.6863 47 40 49.6863 40 53V79Z" fill="#13D389"/>
</svg>
