<?xml version="1.0" encoding="utf-8"?>
<!-- Generator: Adobe Illustrator 26.0.1, SVG Export Plug-In . SVG Version: 6.00 Build 0)  -->
<svg version="1.1" id="Ebene_1" xmlns="http://www.w3.org/2000/svg" xmlns:xlink="http://www.w3.org/1999/xlink" x="0px" y="0px"
	 viewBox="0 0 240 240" style="enable-background:new 0 0 240 240;" xml:space="preserve">
<style type="text/css">
	.st0{fill:#22814C;}
	.st1{fill:#42D389;}
	.st2{fill:#34AA6D;}
</style>
<g id="Icons">
	<g id="EXIT" transform="translate(-81.000000, -788.000000)">
		<g id="guide" transform="translate(81.000000, 788.000000)">
			<path id="Path" class="st0" d="M240,70.3v155.6h-71.5c-12.7,0-24.6,6.2-31,14.1h-34.9c-1.1-0.7-11.3-14.1-31-14.1H0V56.2h35.2
				l169.7,14.1H240z"/>
			<path id="Path_00000180366450627523406550000017480702209585724851_" class="st0" d="M240,70.3v155.6h-71.5
				c-12.7,0-24.6,6.2-31,14.1H120V63.3l84.8,7H240z"/>
			<path id="Path_00000055670262373996007300000004457128761388124073_" class="st1" d="M166.2,49.2c-16.6,0-32.5,4.9-46.2,14.1
				L63.3,35.2H28.1v162.7h43.5c25.4,0,40.6,13.4,41.8,14.1h13.3c1.2-0.6,16.4-14.1,41.8-14.1h43.5V49.2H166.2z"/>
			<path id="Path_00000146475495992611233890000013711266341808325005_" class="st1" d="M166.2,49.2c-16.6,0-32.5,4.9-46.2,14.1
				v148.6h6.7c1.2-0.6,16.4-14.1,41.8-14.1h43.5V49.2H166.2z"/>
			<path id="Path_00000041981293855279293880000008616960712105788291_" class="st2" d="M56.2,0h-7v162.7h21.1
				c27.4,0,49.7,22.1,49.7,49.2V63.3C120,28.4,91.4,0,56.2,0z"/>
		</g>
	</g>
</g>
</svg>
