<svg xmlns="http://www.w3.org/2000/svg" width="32" height="32" fill="none" viewBox="0 0 32 32"><path fill="#15d1a0" d="M0 4a4 4 0 0 1 4-4h24a4 4 0 0 1 4 4v24a4 4 0 0 1-4 4H4a4 4 0 0 1-4-4z"/><g fill="#1e262e"><path d="M9.164 23.424h8.878c.63 0 1.146-.515 1.146-1.145V20.8H13.97a2.193 2.193 0 0 1-2.194-2.194v-5.14H9.17c-.63 0-1.146.516-1.146 1.146v7.667a1.14 1.14 0 0 0 1.14 1.145"/><path d="M13.97 19.752h8.879c.63 0 1.145-.516 1.145-1.146V9.727a1.15 1.15 0 0 0-1.145-1.151h-8.88c-.63 0-1.145.515-1.145 1.145V18.6a1.15 1.15 0 0 0 1.146 1.151"/></g></svg>
