<svg width="16" height="16" viewBox="0 0 16 16" fill="none" xmlns="http://www.w3.org/2000/svg">
<path d="M0.246094 7.99995C0.246094 3.7187 3.71784 0.246948 7.99909 0.246948C12.2803 0.246948 15.7523 3.7187 15.7523 7.99995C15.7523 12.2812 12.2803 15.7532 7.99909 15.7532C3.71784 15.7532 0.246094 12.2812 0.246094 7.99995Z" fill="#18AFFF"/>
<path d="M13.9831 9.25599L12.8258 4.20099C12.7648 3.92699 12.5061 3.65299 12.2321 3.57674L6.91856 1.94774C6.84231 1.93249 6.76631 1.91724 6.69006 1.91724C6.46156 1.91724 6.21806 2.00849 6.08106 2.14574L2.27456 5.67799C2.07656 5.86074 1.95481 6.22599 2.01581 6.50024L3.24906 11.9052C3.31006 12.1792 3.56881 12.4532 3.84281 12.5295L8.80631 14.052C8.88256 14.0672 8.95856 14.0825 9.03481 14.0825C9.26331 14.0825 9.50681 13.9912 9.64381 13.854L13.7091 10.078C13.9376 9.89549 14.0441 9.53024 13.9831 9.25599ZM7.46656 3.13549L11.1056 4.24699C11.2426 4.29274 11.2426 4.35349 11.1056 4.38399L9.18706 4.82549C9.03481 4.85599 8.83681 4.79499 8.74556 4.68849L7.40581 3.24199C7.29906 3.15074 7.32956 3.10499 7.46656 3.13549ZM9.73531 9.66724C9.76581 9.81949 9.67431 9.89574 9.53731 9.84999L5.60906 8.64724C5.47206 8.60149 5.44156 8.47974 5.54806 8.38849L8.56281 5.58699C8.66931 5.48049 8.79131 5.52599 8.82156 5.66324L9.73531 9.66724ZM3.26431 6.10449L6.46181 3.13549C6.56831 3.02899 6.73581 3.04424 6.84256 3.15074L8.44131 4.87124C8.54781 4.97774 8.53256 5.14524 8.42606 5.25199L5.22856 8.22099C5.12206 8.32749 4.95456 8.31224 4.84781 8.20574L3.24906 6.48524C3.15781 6.37849 3.15781 6.21099 3.26431 6.10449ZM4.04081 10.8242L3.18806 7.12449C3.15756 6.97224 3.20331 6.95699 3.30981 7.06349L4.64956 8.50999C4.75606 8.61649 4.80181 8.82974 4.75606 8.96674L4.17756 10.8395C4.14731 10.9615 4.07131 10.9615 4.04081 10.8242ZM8.71506 12.9712L4.55856 11.6922C4.42156 11.6465 4.33006 11.4942 4.37581 11.3572L5.06106 9.10374C5.10681 8.96674 5.25906 8.87524 5.39606 8.92099L9.55256 10.2C9.68956 10.2457 9.78106 10.398 9.73531 10.535L9.05006 12.7885C9.00431 12.9407 8.85206 13.0167 8.71506 12.9712ZM12.4148 9.94124L9.62856 12.5295C9.52206 12.636 9.46106 12.5905 9.50681 12.4532L10.0853 10.5805C10.1311 10.4435 10.2833 10.2912 10.4356 10.2607L12.3541 9.81924C12.4911 9.78899 12.5216 9.84999 12.4148 9.94124ZM12.7196 9.39324L10.4206 9.91099C10.2683 9.94149 10.1313 9.84999 10.1008 9.71299L9.12631 5.46499C9.09581 5.31274 9.18731 5.17574 9.32431 5.14524L11.6233 4.62749C11.7756 4.59699 11.9126 4.68849 11.9431 4.82549L12.9176 9.07349C12.9478 9.21049 12.8566 9.36274 12.7196 9.39324Z" fill="white"/>
</svg>
