<?xml version="1.0" encoding="utf-8"?>
<!-- Generator: Adobe Illustrator 25.0.0, SVG Export Plug-In . SVG Version: 6.00 Build 0)  -->
<svg version="1.1" id="Ebene_1" xmlns="http://www.w3.org/2000/svg" xmlns:xlink="http://www.w3.org/1999/xlink" x="0px" y="0px"
	 viewBox="0 0 228 293" style="enable-background:new 0 0 228 293;" xml:space="preserve">
<style type="text/css">
	.st0{fill:#24B7EA;}
	.st1{fill:#0A7FA8;}
	.st2{fill:#81D4FA;}
</style>
<desc>Created with Sketch.</desc>
<g id="Icons">
	<g id="Artboard" transform="translate(-396.000000, -492.000000)">
		<g id="delete" transform="translate(396.000000, 492.000000)">
			<path id="Path" class="st0" d="M175.8,292.6H51.9c-19.5,0-35.4-15.9-35.4-35.4V73.5c0-0.6,0.6-0.6,0.6-0.6h193.5v184.4
				C210.6,276.8,194.7,292.6,175.8,292.6z"/>
			<rect id="Rectangle" x="56.2" y="80.2" class="st1" width="17.7" height="179.5"/>
			<rect id="Rectangle_1_" x="105" y="80.2" class="st1" width="17.7" height="179.5"/>
			<rect id="Rectangle_2_" x="153.8" y="80.2" class="st1" width="17.7" height="179.5"/>
			<path id="Path_1_" class="st2" d="M227.1,88.1H0.6l0,0c0-31.7,25.6-56.8,56.8-56.8h112.3C201.5,31.4,227.1,56.4,227.1,88.1
				L227.1,88.1z"/>
			<path id="Shape" class="st2" d="M142.2,0.2H84.9c-11,0-19.5,8.5-19.5,19.5v27.5c0,11,8.5,19.5,19.5,19.5h57.4
				c11,0,19.5-8.5,19.5-19.5V19.8C161.8,8.8,152.6,0.2,142.2,0.2z M146.5,31.4H81.8V15.5h64.7V31.4z"/>
		</g>
	</g>
</g>
</svg>
