<?xml version="1.0" encoding="utf-8"?>
<!-- Generator: Adobe Illustrator 26.0.1, SVG Export Plug-In . SVG Version: 6.00 Build 0)  -->
<svg version="1.1" id="Ebene_1" xmlns="http://www.w3.org/2000/svg" xmlns:xlink="http://www.w3.org/1999/xlink" x="0px" y="0px"
	 viewBox="0 0 245.2 240" style="enable-background:new 0 0 245.2 240;" xml:space="preserve">
<style type="text/css">
	.st0{fill:#22814C;}
	.st1{fill:#42D389;}
</style>
<g id="Icons">
	<g id="EXIT" transform="translate(-41.000000, -828.000000)">
		<g id="beginner" transform="translate(41.000000, 828.000000)">
			<g id="Group" transform="translate(8.869236, 8.679467)">
				<ellipse id="Oval" class="st0" cx="113.7" cy="111.3" rx="113.7" ry="111.3"/>
			</g>
			<g id="Group_00000093898599482155692410000003259177689117740680_">
				<path id="Shape" class="st1" d="M122.6,0C55,0,0,53.8,0,120s55,120,122.6,120s122.6-53.8,122.6-120S190.2,0,122.6,0z
					 M122.6,222.6c-57.8,0-104.9-46-104.9-102.6s47-102.6,104.9-102.6s104.9,46,104.9,102.6S180.4,222.6,122.6,222.6z"/>
				<path id="Path" class="st1" d="M123.4,50.2c21.2,0.4,38.7,17,39.7,37.7c0.6,11-3.4,21.5-11.1,29.5c-5.6,5.7-12.8,9.7-20.6,11.4
					v24.8c0,4.8-4,8.7-8.9,8.7s-8.9-3.9-8.9-8.7v-32.5c0-4.8,4-8.7,8.9-8.7c6.3,0,12.2-2.5,16.6-7s6.6-10.4,6.3-16.6
					c-0.6-11.7-10.5-21-22.4-21.2c-0.2,0-0.3,0-0.5,0c-11.4,0-21.1,8.2-22.7,19.3c-0.1,1-0.2,2.1-0.2,3.1c0,4.8-4,8.7-8.9,8.7
					s-8.9-3.9-8.9-8.7c0-1.9,0.1-3.7,0.4-5.5C85.2,64.5,102.9,49.8,123.4,50.2z"/>
				<path id="Path_00000087408405528829951170000002146473311454941076_" class="st1" d="M122.7,176L122.7,176c-5,0-8.9,3.9-8.9,8.7
					s4,8.7,8.9,8.7s8.9-3.9,8.9-8.7S127.6,176,122.7,176z"/>
			</g>
		</g>
	</g>
</g>
</svg>
