<?xml version="1.0" encoding="utf-8"?>
<svg version="1.1" id="Ebene_1" xmlns="http://www.w3.org/2000/svg" xmlns:xlink="http://www.w3.org/1999/xlink" x="0px" y="0px"
	 viewBox="0 0 382 309" style="enable-background:new 0 0 382 309;" xml:space="preserve">
<style type="text/css">
	.st0{fill:#00ABE9;}
	.st1{fill:#045873;}
</style>
<g id="Menu-Icons-EXPORT">
	<g id="EXPORT" transform="translate(-514.000000, -577.000000)">
		<g id="roles" transform="translate(514.000000, 577.000000)">
			<path id="Path" class="st0" d="M362.9,36.3H189c-4.8,0-9.4-1.9-12.8-5.3l-23-23c-5.1-5.1-12-8-19.2-8H18.1C8.1,0,0,8.1,0,18.1
				v272.2c0,10,8.1,18.1,18.1,18.1h72.6c0-10,8.1-18.1,18.1-18.1s18.1,8.1,18.1,18.1h127c0-10,8.1-18.1,18.1-18.1
				s18.1,8.1,18.1,18.1h72.6c10,0,18.1-8.1,18.1-18.1V54.4C381,44.4,372.9,36.3,362.9,36.3z"/>
			<path id="Shape" class="st1" d="M167.3,198.9c-12.1-19.4-32.3-30.9-54-30.9H88.3c-21.8,0-41.9,11.5-54,30.9l-0.7,1.2v35H168v-35
				L167.3,198.9z M59.8,110.9c0-23.2,18.8-42,42-42s42,18.8,42,42s-18.8,42-42,42S59.8,134.1,59.8,110.9z"/>
			<path id="Path_1_" class="st1" d="M317.5,199.6H208.7c-5,0-9.1,4.1-9.1,9.1l0,0c0,5,4.1,9.1,9.1,9.1h108.9c5,0,9.1-4.1,9.1-9.1
				l0,0C326.6,203.6,322.5,199.6,317.5,199.6z"/>
			<path id="Path_2_" class="st1" d="M317.5,163.3H208.7c-5,0-9.1,4.1-9.1,9.1l0,0c0,5,4.1,9.1,9.1,9.1h108.9c5,0,9.1-4.1,9.1-9.1
				l0,0C326.6,167.4,322.5,163.3,317.5,163.3z"/>
			<path id="Path_3_" class="st1" d="M317.5,127H208.7c-5,0-9.1,4.1-9.1,9.1l0,0c0,5,4.1,9.1,9.1,9.1h108.9c5,0,9.1-4.1,9.1-9.1l0,0
				C326.6,131.1,322.5,127,317.5,127z"/>
		</g>
	</g>
</g>
</svg>
