<?xml version="1.0" encoding="utf-8"?>
<!-- Generator: Adobe Illustrator 26.0.3, SVG Export Plug-In . SVG Version: 6.00 Build 0)  -->
<svg version="1.1" id="Ebene_1" xmlns="http://www.w3.org/2000/svg" xmlns:xlink="http://www.w3.org/1999/xlink" x="0px" y="0px"
	 viewBox="0 0 62.6 62.6" style="enable-background:new 0 0 62.6 62.6;" xml:space="preserve">
<style type="text/css">
	.st0{fill:#13D389;}
</style>
<g>
	<g>
		<path class="st0" d="M35.9,13.9h8.6l-18,18l3.4,3.4l18-18l0,8.6l4.8,0l0-14.4c0-1.3-1.1-2.4-2.4-2.4L35.9,9L35.9,13.9z"/>
	</g>
</g>
<path class="st0" d="M48.5,31.4l-3.4,3.4V48h-31V17h12.6l3.1-3.1V12H11.6c-1.4,0-2.5,1.1-2.5,2.5v36c0,1.4,1.1,2.5,2.5,2.5h36
	c1.4,0,2.5-1.1,2.5-2.5V31.4H48.5z"/>
</svg>
