<svg width="18" height="18" viewBox="0 0 18 18" fill="none" xmlns="http://www.w3.org/2000/svg">
<path d="M12 2.25H9C9 2.664 8.625 3.375 7.875 3.375C7.125 3.375 6.75 2.664 6.75 2.25H3.75C2.92162 2.25 2.25 2.92162 2.25 3.75V15C2.25 15.8284 2.92162 16.5 3.75 16.5H12C12.8284 16.5 13.5 15.8284 13.5 15V3.75C13.5 2.92162 12.8284 2.25 12 2.25Z" fill="#455A64"/>
<path d="M12 15.375H3.75C3.543 15.375 3.375 15.207 3.375 15V3.75C3.375 3.543 3.543 3.375 3.75 3.375H12C12.207 3.375 12.375 3.543 12.375 3.75V15C12.375 15.207 12.207 15.375 12 15.375Z" fill="white"/>
<path fill-rule="evenodd" clip-rule="evenodd" d="M6.37502 2.24999C6.37503 1.42275 7.04778 0.75 7.87502 0.75C8.70227 0.75 9.37502 1.42275 9.37502 2.25L11.25 2.24999V3.74999C11.25 4.16437 10.9144 4.49999 10.5 4.49999H5.25C4.83562 4.49999 4.5 4.16437 4.5 3.74999V2.24999H6.37502ZM7.92554 2.99832C7.90884 2.99943 7.89198 2.99999 7.875 2.99999C7.86126 2.99999 7.8476 2.99962 7.83404 2.9989C7.43941 2.97758 7.12502 2.65024 7.12502 2.25C7.12502 1.836 7.4614 1.5 7.87502 1.5C8.28865 1.5 8.62502 1.836 8.62502 2.24999C8.62502 2.28316 8.62285 2.31583 8.61868 2.34786C8.57278 2.69927 8.2831 2.97446 7.92554 2.99832Z" fill="#90A4AE"/>
<path d="M6.375 6.375H15.75V17.625H6.375V6.375Z" fill="#90CAF9"/>
<path d="M7.875 13.875H12.375V14.625H7.875V13.875ZM7.875 12.375H14.25V13.125H7.875V12.375ZM7.875 10.875H12.375V11.625H7.875V10.875ZM7.875 9.375H14.25V10.125H7.875V9.375Z" fill="#1976D2"/>
</svg>
