<svg width="33" height="29" viewBox="0 0 33 29" fill="none" xmlns="http://www.w3.org/2000/svg">
<path fill-rule="evenodd" clip-rule="evenodd" d="M18.5386 16.5423C18.5386 17.6786 17.6196 18.5976 16.4833 18.5976C15.347 18.5976 14.4279 17.6786 14.4279 16.5423V7.10104C14.4279 6.56631 14.8624 6.12349 15.4055 6.12349H17.5695C18.1042 6.12349 18.547 6.55796 18.547 7.10104L18.5386 16.5423ZM16.4749 25.2734C15.347 25.2734 14.4279 24.3543 14.4279 23.2264C14.4279 22.0984 15.347 21.1877 16.4749 21.1877C17.6029 21.1877 18.5219 22.1068 18.5219 23.2264C18.5219 24.3543 17.6029 25.2734 16.4749 25.2734ZM32.0321 24.1788L19.1987 1.94595C18.6305 0.968401 17.6112 0.383545 16.4749 0.383545C15.3386 0.383545 14.3277 0.968401 13.7595 1.9543L0.92611 24.1788C0.357963 25.1647 0.357963 26.3345 0.92611 27.3204C1.49426 28.3063 2.50522 28.8911 3.64151 28.8911H29.3084C30.4446 28.8911 31.4556 28.3063 32.0238 27.3204C32.6003 26.3345 32.6003 25.1647 32.0321 24.1788Z" fill="#FF6F6F"/>
</svg>
