<?xml version="1.0" encoding="utf-8"?>
<!-- Generator: Adobe Illustrator 25.0.0, SVG Export Plug-In . SVG Version: 6.00 Build 0)  -->
<svg version="1.1" id="Ebene_1" xmlns="http://www.w3.org/2000/svg" xmlns:xlink="http://www.w3.org/1999/xlink" x="0px" y="0px"
	 viewBox="0 0 236 235" style="enable-background:new 0 0 236 235;" xml:space="preserve">
<style type="text/css">
	.st0{fill-rule:evenodd;clip-rule:evenodd;fill:#8F5ED8;}
	.st1{fill-rule:evenodd;clip-rule:evenodd;fill:#B894EE;}
</style>
<g id="Icons">
	<g id="EXIT" transform="translate(-630.000000, -384.000000)">
		<g id="main_dashboard" transform="translate(630.000000, 384.000000)">
			<path id="Fill-1" class="st0" d="M203.5,36.5l-12.1,8.1l-20.3-4l-12.2-4.1l-16.2,4.1l-12.2-4.1l8.1-16.2h16.2l15.9-7.9
				C183,18.4,194.1,26.5,203.5,36.5"/>
			<path id="Fill-3" class="st0" d="M110.3,20.3l-4.1,12.2l-12.2,4L82,56.7L61.7,68.9l-28.4,4.1v12.1l8.1,8.1v16.2l-12.2-8.1
				l-12.1-8.1L10.1,72C22.3,43.1,45.5,20.2,74.5,8.5L86,16.2L110.3,20.3z"/>
			<polygon id="Fill-5" class="st0" points="118.4,133.7 114.4,153.9 98.2,170.1 98.2,182.3 82,194.4 82,214.7 69.8,210.6 
				61.7,190.4 61.7,149.9 41.5,145.8 33.4,129.6 33.4,117.5 41.5,109.4 53.6,97.2 61.7,113.4 90.1,113.4 102.2,133.7 			"/>
			<path id="Fill-7" class="st0" d="M220.9,60.1c22.1,39.4,19.6,88.1-6.5,125l-10.9-10.9V158l-8.1-16.2l-8.1-16.2v-16.2l-12.2-8.1
				l-16.2,4.1l-28.4-12.2l-4-28.3l12.1-12.2H163l8.1,12.2l24.3,4l24.3-8.1L220.9,60.1z"/>
			<g id="Group-11">
				<path id="Fill-9" class="st1" d="M142.7,40.5l16.2-4.1l12.1,4.1l20.3,4l12.1-8.1c6.8,7.1,12.6,15,17.4,23.6l-1.2,0.7l-24.3,8.1
					l-24.3-4.1L163,52.7h-24.3l-12.1,12.1l4.1,28.4l28.4,12.1l16.2-4.1l12.2,8.1v16.2l8.1,16.2l8.1,16.2v16.2l10.9,10.9
					c-34.6,49-100.4,64.1-152.9,35S-13,127.3,10.1,72l7,21.2l12.1,8.1l12.2,8.1l-8.1,8.1v12.1l8.1,16.2l20.2,4.1v40.5l8.1,20.2
					l12.2,4.1v-20.3l16.2-12.2v-12.2l16.2-16.2l4.1-20.3h-16.2l-12.2-20.3H61.7l-8.1-16.2l-12.2,12.2V93.2l-8.1-8.1V72.9l28.4-4.1
					L82,56.7l12.1-20.3l12.2-4l4-12.2L86,16.2L74.5,8.5c31.1-12.5,66.2-11.2,96.2,3.8l-15.9,7.9h-16.2l-8.1,16.2L142.7,40.5z"/>
			</g>
		</g>
	</g>
</g>
</svg>
