<?xml version="1.0" encoding="utf-8"?>
<!-- Generator: Adobe Illustrator 24.2.1, SVG Export Plug-In . SVG Version: 6.00 Build 0)  -->
<svg version="1.1" id="Ebene_1" xmlns="http://www.w3.org/2000/svg" xmlns:xlink="http://www.w3.org/1999/xlink" x="0px" y="0px"
	 viewBox="0 0 14 14" style="enable-background:new 0 0 14 14;" xml:space="preserve">
<style type="text/css">
	.st0{fill-rule:evenodd;clip-rule:evenodd;fill:#BDBDBD;}
</style>
<desc>Created with Sketch.</desc>
<g id="Symbols">
	<g id="Head" transform="translate(-1033.000000, -57.000000)">
		<path id="activate" class="st0" d="M1042.4,57h-4.9c-0.3,0-0.6,0.1-0.8,0.3l-3.4,3.4c-0.2,0.2-0.3,0.5-0.3,0.8v4.9
			c0,0.3,0.1,0.6,0.3,0.8l3.4,3.4c0.2,0.2,0.5,0.3,0.8,0.3h4.9c0.3,0,0.6-0.1,0.8-0.3l3.4-3.4c0.2-0.2,0.3-0.5,0.3-0.8v-4.9
			c0-0.3-0.1-0.6-0.3-0.8l-3.4-3.4C1043,57.1,1042.7,57,1042.4,57 M1040,65.6c0.7,0,1.3,0.5,1.3,1.2c0,0.6-0.6,1.2-1.3,1.2
			s-1.3-0.5-1.3-1.2C1038.7,66.1,1039.3,65.6,1040,65.6z M1040,60.1c0.5,0,0.9,0.3,0.9,0.8V64c0,0.4-0.4,0.8-0.9,0.8
			c-0.5,0-0.9-0.3-0.9-0.8v-3.1C1039.2,60.5,1039.5,60.1,1040,60.1z"/>
	</g>
</g>
</svg>
