<?xml version="1.0" encoding="utf-8"?>
<!-- Generator: Adobe Illustrator 25.0.0, SVG Export Plug-In . SVG Version: 6.00 Build 0)  -->
<svg version="1.1" id="Ebene_1" xmlns="http://www.w3.org/2000/svg" xmlns:xlink="http://www.w3.org/1999/xlink" x="0px" y="0px"
	 viewBox="0 0 235 240" style="enable-background:new 0 0 235 240;" xml:space="preserve">
<style type="text/css">
	.st0{fill:#505862;}
	.st1{fill:#40454D;}
</style>
<desc>Created with Sketch.</desc>
<g id="global-settings" transform="translate(393.000000, 518.000000)">
	<path id="Shape" class="st0" d="M-186.9-385.4c0.6-4,1.1-8,1.1-12.6c0-4.6-0.6-8.6-1.1-12.6l25.7-18.3c2.3-1.7,3.4-5.1,1.7-8
		l-25.1-42.3c-1.7-2.9-4.6-4-7.4-2.3l-28.6,13.1c-6.9-5.1-13.7-9.1-21.7-12.6l-2.9-31.4c-0.6-2.9-2.9-5.1-5.7-5.1H-300
		c-2.9,0-5.7,2.3-5.7,5.1l-2.9,31.4c-8,3.4-15.4,7.4-21.7,12.6l-28.6-13c-2.9-1.1-6.3,0-7.4,2.3l-24.6,42.2c-1.7,2.9-0.6,6.3,1.7,8
		l25.7,18.3c-0.6,4-1.1,8-1.1,12.6c0,4.6,0.6,8.6,1.1,12.6l-26.8,18.3c-2.3,1.7-3.4,5.1-1.7,8l24.6,42.3c1.7,2.9,4.6,4,7.4,2.3
		l28.6-13.1c6.9,5.1,13.7,9.1,21.7,12.6l2.9,31.4c0.6,2.9,2.9,5.1,5.7,5.1h49.1c2.9,0,5.7-2.3,5.7-5.1l2.9-31.4
		c8-3.4,15.4-7.4,21.7-12.6l28.6,13.1c2.9,1.1,6.3,0,7.4-2.3l24.6-42.3c1.7-2.9,0.6-6.3-1.7-8L-186.9-385.4z M-276-340.9
		c-31.4,0-57.1-25.7-57.1-57.1s25.7-57.1,57.1-57.1s57.1,25.7,57.1,57.1S-244.6-340.9-276-340.9z"/>
	<path id="Shape_1_" class="st1" d="M-276-466.6c-37.7,0-68.6,30.9-68.6,68.6s30.9,68.6,68.6,68.6s68.6-30.9,68.6-68.6
		S-238.3-466.6-276-466.6z M-276-369.4c-16,0-28.6-12.6-28.6-28.6s12.6-28.6,28.6-28.6s28.6,12.6,28.6,28.6S-260-369.4-276-369.4z"
		/>
</g>
</svg>
