<svg width="24" height="24" viewBox="0 0 24 24" fill="none" xmlns="http://www.w3.org/2000/svg">
<path d="M10.08 1.44C5.56876 1.44 1.92001 5.08875 1.92001 9.6C1.92001 14.1113 5.56876 17.76 10.08 17.76C11.6906 17.76 13.1813 17.2875 14.445 16.485L20.34 22.38L22.38 20.34L16.56 14.535C17.6063 13.1625 18.24 11.4619 18.24 9.6C18.24 5.08875 14.5913 1.44 10.08 1.44ZM10.08 3.36C13.5356 3.36 16.32 6.14438 16.32 9.6C16.32 13.0556 13.5356 15.84 10.08 15.84C6.62439 15.84 3.84001 13.0556 3.84001 9.6C3.84001 6.14438 6.62439 3.36 10.08 3.36Z" fill="#0F181D"/>
</svg>
