<svg width="18" height="14" viewBox="0 0 18 14" fill="none" xmlns="http://www.w3.org/2000/svg">
<path d="M9.00002 12.8333C12.2217 12.8333 14.8334 10.2217 14.8334 6.99999C14.8334 3.77833 12.2217 1.16666 9.00002 1.16666C5.77836 1.16666 3.16669 3.77833 3.16669 6.99999C3.16669 10.2217 5.77836 12.8333 9.00002 12.8333Z" fill="#E64A19"/>
<path d="M10.7238 10.7917C10.5867 11.62 9.86627 12.25 9.00002 12.25C8.13377 12.25 7.41335 11.62 7.27627 10.7917H10.7238ZM11.9167 9.33333H6.08335V10.2083H11.9167V9.33333ZM11.7709 8.75C12.0625 8.45833 12.5 7.72917 12.6459 7.29167C12.2084 7.4375 10.75 7.72917 10.75 7.72917C11.0417 7.29167 11.3334 6.70833 11.3334 5.97917C11.3334 4.95833 10.1667 3.9375 10.4584 2.625C9.72919 3.35417 9.72919 4.8125 9.72919 5.39583C9.58335 4.95833 9.58335 4.52083 9.58335 4.22917C9.58335 3.35417 8.70835 2.625 9.00002 1.75C9.00002 1.75 8.27085 2.04167 8.27085 2.91667C8.27085 3.9375 8.12502 4.52083 7.83335 4.8125C7.83335 3.9375 7.54169 3.35417 7.10419 3.20833C7.25002 3.5 7.25002 3.64583 7.25002 3.79167C7.25002 4.22917 6.52085 5.54167 6.52085 6.41667C6.52085 7 6.81252 7.4375 7.25002 7.72917C7.25002 7.72917 6.08335 7.4375 5.35419 7.29167C5.50002 7.72917 5.93752 8.45833 6.22919 8.75C6.22919 8.75 11.1875 8.75 11.7709 8.75Z" fill="white"/>
</svg>
