<svg width="20" height="20" viewBox="0 0 20 20" fill="none" xmlns="http://www.w3.org/2000/svg">
<mask id="mask0_947_96" style="mask-type:luminance" maskUnits="userSpaceOnUse" x="1" y="2" width="16" height="13">
<path d="M17 2H1V15H17V2Z" fill="white"/>
</mask>
<g mask="url(#mask0_947_96)">
<path fill-rule="evenodd" clip-rule="evenodd" d="M1.35333 2.32495H16.6467C16.84 2.32495 17 2.48745 17 2.68381V4.5661C17 4.76245 16.84 4.92495 16.6467 4.92495H1.35333C1.16 4.92495 1 4.76245 1 4.5661V2.68381C1 2.48745 1.16 2.32495 1.35333 2.32495Z" fill="#697C86"/>
<path fill-rule="evenodd" clip-rule="evenodd" d="M1.35333 7.19995H16.6467C16.84 7.19995 17 7.36245 17 7.55881V9.4411C17 9.63745 16.84 9.79995 16.6467 9.79995H1.35333C1.16 9.79995 1 9.63745 1 9.4411V7.55881C1 7.36245 1.16 7.19995 1.35333 7.19995Z" fill="#697C86"/>
<path fill-rule="evenodd" clip-rule="evenodd" d="M1.35333 2.32495H11.8467C12.04 2.32495 12.2 2.48745 12.2 2.68381V4.5661C12.2 4.76245 12.04 4.92495 11.8467 4.92495H1.35333C1.16 4.92495 1 4.76245 1 4.5661V2.68381C1 2.48745 1.16 2.32495 1.35333 2.32495Z" fill="#E1DCF3"/>
<path fill-rule="evenodd" clip-rule="evenodd" d="M1.35333 7.19995H10.2467C10.44 7.19995 10.6 7.36245 10.6 7.55881V9.4411C10.6 9.63745 10.44 9.79995 10.2467 9.79995H1.35333C1.16 9.79995 1 9.63745 1 9.4411V7.55881C1 7.36245 1.16 7.19995 1.35333 7.19995Z" fill="#E1DCF3"/>
<path fill-rule="evenodd" clip-rule="evenodd" d="M1.35333 12.075H16.6467C16.84 12.075 17 12.2375 17 12.4338V14.3161C17 14.5125 16.84 14.675 16.6467 14.675H1.35333C1.16 14.675 1 14.5125 1 14.3161V12.4338C1 12.2375 1.16 12.075 1.35333 12.075Z" fill="#697C86"/>
<path fill-rule="evenodd" clip-rule="evenodd" d="M1.35333 12.075H13.4467C13.64 12.075 13.8 12.2375 13.8 12.4338V14.3161C13.8 14.5125 13.64 14.675 13.4467 14.675H1.35333C1.16 14.675 1 14.5125 1 14.3161V12.4338C1 12.2375 1.16 12.075 1.35333 12.075Z" fill="#E1DCF3"/>
<path d="M12.1996 2H10.5996V5.25H12.1996V2Z" fill="white"/>
<path d="M10.6 6.875H9V10.125H10.6V6.875Z" fill="white"/>
<path d="M14.6 11.75H13V15H14.6V11.75Z" fill="white"/>
</g>
<mask id="mask1_947_96" style="mask-type:luminance" maskUnits="userSpaceOnUse" x="10" y="10" width="9" height="9">
<path d="M19 10H10V19H19V10Z" fill="white"/>
</mask>
<g mask="url(#mask1_947_96)">
<path fill-rule="evenodd" clip-rule="evenodd" d="M14.5 18.5C12.2966 18.5 10.5 16.7034 10.5 14.5C10.5 12.2966 12.2966 10.5 14.5 10.5C16.7034 10.5 18.5 12.2966 18.5 14.5C18.5 16.7034 16.7034 18.5 14.5 18.5Z" fill="black"/>
<path fill-rule="evenodd" clip-rule="evenodd" d="M16.9572 15.0254H12.0419C11.9402 15.0254 11.8555 14.9407 11.8555 14.839V14.0085C11.8555 13.9068 11.9402 13.822 12.0419 13.822H16.9572C17.0589 13.822 17.1436 13.9068 17.1436 14.0085V14.839C17.1436 14.9407 17.0589 15.0254 16.9572 15.0254Z" fill="white"/>
<path fill-rule="evenodd" clip-rule="evenodd" d="M13.9062 16.8728V11.9576C13.9062 11.8728 13.991 11.7881 14.0927 11.7881H14.9062C15.008 11.7881 15.0927 11.8728 15.0927 11.9745V16.8898C15.0927 16.9915 15.008 17.0762 14.9062 17.0762H14.0927C13.991 17.0593 13.9062 16.9745 13.9062 16.8728Z" fill="white"/>
</g>
</svg>
