<svg width="36" height="36" viewBox="0 0 36 36" fill="none" xmlns="http://www.w3.org/2000/svg">
<path d="M29.1828 4H7.74791C6.76941 4 6 4.76941 6 5.74791V30.2521C6 31.2306 6.76941 32 7.74791 32H29.1075C30.086 32 30.8554 31.2306 30.8554 30.2521V5.81481C30.9976 4.83632 30.1613 4 29.1828 4Z" fill="#28A2F3"/>
<path d="M18.503 29.4158C19.4684 29.4158 20.2509 28.6332 20.2509 27.6679C20.2509 26.7025 19.4684 25.92 18.503 25.92C17.5377 25.92 16.7551 26.7025 16.7551 27.6679C16.7551 28.6332 17.5377 29.4158 18.503 29.4158Z" fill="url(#paint0_linear_4711_10318)"/>
<path d="M26.9498 11.6105H10.0561C9.78012 11.6105 9.57104 11.4683 9.57104 11.1923V7.62962C9.57104 7.42054 9.78012 7.21146 10.0561 7.21146H26.9498C27.2258 7.21146 27.4348 7.35363 27.4348 7.62962V11.2592C27.4348 11.4014 27.2258 11.6105 26.9498 11.6105Z" fill="url(#paint1_linear_4711_10318)"/>
<path d="M24.7838 10.2891C25.2872 10.2891 25.6954 9.88099 25.6954 9.37753C25.6954 8.87407 25.2872 8.46594 24.7838 8.46594C24.2803 8.46594 23.8722 8.87407 23.8722 9.37753C23.8722 9.88099 24.2803 10.2891 24.7838 10.2891Z" fill="#50E6FF"/>
<path d="M26.9498 17.1971H10.0561C9.78012 17.1971 9.57104 17.0549 9.57104 16.779V13.1493C9.57104 12.9403 9.78012 12.7312 10.0561 12.7312H26.9498C27.2258 12.7312 27.4348 12.8733 27.4348 13.1493V16.779C27.4348 16.988 27.2258 17.1971 26.9498 17.1971Z" fill="url(#paint2_linear_4711_10318)"/>
<path d="M24.7838 15.8757C25.2872 15.8757 25.6954 15.4676 25.6954 14.9641C25.6954 14.4607 25.2872 14.0526 24.7838 14.0526C24.2803 14.0526 23.8722 14.4607 23.8722 14.9641C23.8722 15.4676 24.2803 15.8757 24.7838 15.8757Z" fill="#50E6FF"/>
<path d="M26.9498 22.7085H10.0561C9.78012 22.7085 9.57104 22.5663 9.57104 22.2903V18.6607C9.57104 18.4516 9.78012 18.2425 10.0561 18.2425H26.9498C27.2258 18.2425 27.4348 18.3847 27.4348 18.6607V22.2903C27.4348 22.5747 27.2258 22.7085 26.9498 22.7085Z" fill="url(#paint3_linear_4711_10318)"/>
<path d="M24.7838 21.4624C25.2872 21.4624 25.6954 21.0542 25.6954 20.5508C25.6954 20.0473 25.2872 19.6392 24.7838 19.6392C24.2803 19.6392 23.8722 20.0473 23.8722 20.5508C23.8722 21.0542 24.2803 21.4624 24.7838 21.4624Z" fill="#50E6FF"/>
<path fill-rule="evenodd" clip-rule="evenodd" d="M28 36C23.5932 36 20 32.4068 20 28C20 23.5932 23.5932 20 28 20C32.4068 20 36 23.5932 36 28C36 32.4068 32.4068 36 28 36Z" fill="white"/>
<path fill-rule="evenodd" clip-rule="evenodd" d="M26.7794 31.3559V23.8644C26.7794 23.5932 26.9489 23.3559 27.1523 23.3559H28.9828C29.1862 23.3559 29.3557 23.5932 29.3557 23.8644V31.3559C29.3557 31.6271 29.1862 31.8644 28.9828 31.8644H27.1523C26.9489 31.8644 26.7794 31.6271 26.7794 31.3559Z" fill="#1E262E"/>
<path fill-rule="evenodd" clip-rule="evenodd" d="M30.5762 31.4576V25.4576C30.5762 25.2542 30.7457 25.0508 30.9491 25.0508H32.7796C32.983 25.0508 33.1524 25.2203 33.1524 25.4576V31.4576C33.1524 31.661 32.983 31.8644 32.7796 31.8644H30.9491C30.7118 31.8644 30.5762 31.6949 30.5762 31.4576Z" fill="#1E262E"/>
<path fill-rule="evenodd" clip-rule="evenodd" d="M23.3896 31.5593V27.0508C23.3896 26.8813 23.5591 26.7457 23.7625 26.7457H25.593C25.7964 26.7457 25.9659 26.8813 25.9659 27.0508V31.5593C25.9659 31.7288 25.7964 31.8644 25.593 31.8644H23.7625C23.5591 31.8644 23.3896 31.7288 23.3896 31.5593Z" fill="#1E262E"/>
<defs>
<linearGradient id="paint0_linear_4711_10318" x1="16.7139" y1="27.6712" x2="20.2783" y2="27.6712" gradientUnits="userSpaceOnUse">
<stop stop-color="#1D59B3"/>
<stop offset="1" stop-color="#195BBC"/>
</linearGradient>
<linearGradient id="paint1_linear_4711_10318" x1="9.59926" y1="9.41287" x2="27.4182" y2="9.41287" gradientUnits="userSpaceOnUse">
<stop stop-color="#1D59B3"/>
<stop offset="1" stop-color="#195BBC"/>
</linearGradient>
<linearGradient id="paint2_linear_4711_10318" x1="9.59926" y1="14.9623" x2="27.4182" y2="14.9623" gradientUnits="userSpaceOnUse">
<stop stop-color="#1D59B3"/>
<stop offset="1" stop-color="#195BBC"/>
</linearGradient>
<linearGradient id="paint3_linear_4711_10318" x1="9.59926" y1="20.4774" x2="27.4182" y2="20.4774" gradientUnits="userSpaceOnUse">
<stop stop-color="#1D59B3"/>
<stop offset="1" stop-color="#195BBC"/>
</linearGradient>
</defs>
</svg>
