<svg width="140" height="140" viewBox="0 0 140 140" fill="none" xmlns="http://www.w3.org/2000/svg">
<circle cx="70" cy="70" r="70" fill="#3E4C57"/>
<path d="M104.258 65.5156C104.273 65.1328 104.289 64.7578 104.289 64.3906C104.289 49.8906 92.4844 38.0938 77.9844 38.0938C67.9688 38.0938 58.8203 43.8828 54.4297 52.7578C52.1562 51.2578 49.5 50.4453 46.7109 50.4453C39.3047 50.4453 33.2188 56.2188 32.7266 63.5078C25.1641 66.2578 20 73.5156 20 81.6641C20 92.3203 28.6797 101 39.3438 101H102.195C112.016 101 120 93.0156 120 83.1953C120 74.0781 113.109 66.5391 104.258 65.5156Z" fill="#1B242B"/>
<path d="M66.4125 61.3999C65.4516 61.3999 64.6242 61.9319 64.1437 62.7124L61.0875 68.1874L63.7125 72.7999L67.5 66.1999H81.7875L79.8562 62.7124C79.3758 61.9319 78.5484 61.3999 77.5875 61.3999H66.4125ZM68.1562 67.3999L64.3875 73.9999L67.4437 79.3437L68.1562 80.5999H75.7875L79.6125 73.9999L75.7875 67.3999H68.1562ZM77.2125 67.3999L81 73.9999L80.8125 74.2999L73.7437 86.5999H77.5875C78.5484 86.5999 79.3758 86.0679 79.8562 85.2874L85.4437 75.3874C85.9242 74.5483 85.9242 73.4679 85.4437 72.6874L82.5 67.3999H77.2125ZM60.3562 69.4437L58.5 72.6874C58.0195 73.5265 58.0195 74.5483 58.5 75.3874L64.0875 85.2874C64.568 86.1265 65.3953 86.5999 66.3562 86.5999H72.3L75.1125 81.7999H67.5L66.4875 79.9999L66.4125 79.8874L63 73.9999L60.3562 69.4437ZM72 70.9999C73.6805 70.9999 75 72.3194 75 73.9999C75 75.6804 73.6805 76.9999 72 76.9999C70.3195 76.9999 69 75.6804 69 73.9999C69 72.3194 70.3195 70.9999 72 70.9999Z" fill="#93999C"/>
</svg>
