<?xml version="1.0" encoding="utf-8"?>
<!-- Generator: Adobe Illustrator 25.0.0, SVG Export Plug-In . SVG Version: 6.00 Build 0)  -->
<svg version="1.1" id="Ebene_1" xmlns="http://www.w3.org/2000/svg" xmlns:xlink="http://www.w3.org/1999/xlink" x="0px" y="0px"
	 viewBox="0 0 312 235" style="enable-background:new 0 0 312 235;" xml:space="preserve">
<style type="text/css">
	.st0{filter:url(#Adobe_OpacityMaskFilter);}
	.st1{fill-rule:evenodd;clip-rule:evenodd;fill:#FFFFFF;}
	.st2{mask:url(#mask-2_1_);fill-rule:evenodd;clip-rule:evenodd;fill:#EC0303;}
	.st3{fill-rule:evenodd;clip-rule:evenodd;fill:#EC0303;}
	.st4{fill-rule:evenodd;clip-rule:evenodd;fill:#060000;}
</style>
<desc>Created with Sketch.</desc>
<g id="Icons">
	<g id="Artboard" transform="translate(-354.000000, -521.000000)">
		<g id="red_head" transform="translate(354.000000, 521.000000)">
			<g id="Group-3" transform="translate(0.000000, 82.642400)">
				<g id="Clip-2">
				</g>
				<defs>
					<filter id="Adobe_OpacityMaskFilter" filterUnits="userSpaceOnUse" x="0" y="0.6" width="311.3" height="151.4">
						<feColorMatrix  type="matrix" values="1 0 0 0 0  0 1 0 0 0  0 0 1 0 0  0 0 0 1 0"/>
					</filter>
				</defs>
				<mask maskUnits="userSpaceOnUse" x="0" y="0.6" width="311.3" height="151.4" id="mask-2_1_">
					<g class="st0">
						<polygon id="path-1_1_" class="st1" points="0,0.6 311.3,0.6 311.3,152 0,152 						"/>
					</g>
				</mask>
				<path id="Fill-1" class="st2" d="M261.6,35c34.1,15,52.5,39,49.4,64.2c-3.4,27.2-23.9,46.6-62.2,50.8
					C162.9,159.6,87,134,21.2,78.3C14.7,72.8,9.4,65,5.4,57.3c-12.2-23.6-3.4-44.2,22-51.9c11.5-3.5,23.3-5.6,35.5-4.5
					c-4.1,14.4,1.3,25.7,11.4,35.5c39.1,37.9,87,50,139.8,48.4C249.1,83.7,262.8,69.4,261.6,35"/>
			</g>
			<path id="Fill-4" class="st3" d="M67.4,74.4c6-17.8,11.8-35.7,18.2-53.4C91.3,5.2,102.1-1.1,118,7c11.8,6,22.3,7.6,32.4-3.3
				c4.9-5.3,11.7-3.8,17.8-1.9c20.5,6.1,40.5,13.7,59.2,24.2c8.5,4.8,15.1,11.1,17.2,21.2c4.7,22.1,9.6,44.1,14.4,66.2
				c-7.6,15.2-21.6,21.8-36.8,22.4C161.8,138.3,107.7,123.3,67.4,74.4"/>
			<path id="Fill-6" class="st4" d="M67.4,74.4c40.3,48.9,94.4,63.8,154.8,61.4c15.2-0.6,29.3-7.2,36.8-22.4
				c0.8,1.4,1.7,2.9,2.5,4.3c1.2,34.4-12.5,48.7-47.5,49.8c-52.8,1.6-100.7-10.5-139.8-48.4c-10.1-9.8-15.5-21.2-11.4-35.5
				C64.4,80.5,65.9,77.5,67.4,74.4"/>
		</g>
	</g>
</g>
</svg>
