<?xml version="1.0" encoding="utf-8"?>
<!-- Generator: Adobe Illustrator 24.2.1, SVG Export Plug-In . SVG Version: 6.00 Build 0)  -->
<svg version="1.1" id="Capa_1" xmlns="http://www.w3.org/2000/svg" xmlns:xlink="http://www.w3.org/1999/xlink" x="0px" y="0px"
	 viewBox="0 0 130 130" style="enable-background:new 0 0 130 130;" xml:space="preserve">
<style type="text/css">
	.st0{fill:#13D389;}
</style>
<path class="st0" d="M111.1,129.4h-92c-2.2,0-4-1.8-4-4V5c0-2.2,1.8-4,4-4H82c1,0,2,0.4,2.8,1.1l29.1,28c0.8,0.8,1.2,1.8,1.2,2.9
	v92.5C115.1,127.7,113.3,129.4,111.1,129.4z M23.1,121.4h84V34.6L80.4,9H23.1V121.4z"/>
<path class="st0" d="M90.8,67H36.6c-2.2,0-4-1.8-4-4s1.8-4,4-4h54.2c2.2,0,4,1.8,4,4S93,67,90.8,67z"/>
<path class="st0" d="M90.8,83.6H36.6c-2.2,0-4-1.8-4-4s1.8-4,4-4h54.2c2.2,0,4,1.8,4,4S93,83.6,90.8,83.6z"/>
<path class="st0" d="M90.8,100.3H36.6c-2.2,0-4-1.8-4-4s1.8-4,4-4h54.2c2.2,0,4,1.8,4,4S93,100.3,90.8,100.3z"/>
</svg>
