<?xml version="1.0" encoding="utf-8"?>
<svg version="1.1" id="Ebene_1" xmlns="http://www.w3.org/2000/svg" xmlns:xlink="http://www.w3.org/1999/xlink" x="0px" y="0px"
	 viewBox="0 0 369 369" style="enable-background:new 0 0 369 369;" xml:space="preserve">
<style type="text/css">
	.st0{fill:#858A8C;}
	.st1{fill:#28A2F3;}
	.st2{fill:#FFD90A;}
</style>
<g id="Menu-Icons-EXPORT">
	<g id="EXPORT" transform="translate(-522.000000, -548.000000)">
		
			<g id="business-intelligence" transform="translate(706.500000, 733.000000) rotate(-270.000000) translate(-706.500000, -733.000000) translate(522.000000, 549.000000)">
			
				<rect id="Rectangle" x="168.2" y="64.7" transform="matrix(2.535182e-06 1 -1 2.535182e-06 372.6974 -4.2139)" class="st0" width="40.6" height="239"/>
			
				<rect id="Rectangle_1_" x="215.7" y="244.8" transform="matrix(2.535182e-06 1 -1 2.535182e-06 552.7261 80.8206)" class="st0" width="40.6" height="144"/>
			
				<rect id="Rectangle_2_" x="215.7" y="-21.1" transform="matrix(2.535182e-06 1 -1 2.535182e-06 286.8964 -185.0085)" class="st0" width="40.6" height="144"/>
			
				<rect id="Rectangle_3_" x="31.4" y="163.2" transform="matrix(2.535182e-06 1 -1 2.535182e-06 367.7179 -0.7666)" class="st0" width="305.7" height="40.6"/>
			
				<rect id="Rectangle_4_" x="-20.7" y="132.5" transform="matrix(2.535182e-06 1 -1 2.535182e-06 234.4203 132.5314)" class="st1" width="143.3" height="101.9"/>
			<g id="Group" transform="translate(265.467189, 0.000000)">
				
					<rect id="Rectangle_5_" x="0.4" y="133.3" transform="matrix(2.535182e-06 1 -1 2.535182e-06 235.549 132.9349)" class="st2" width="101.9" height="101.9"/>
				
					<rect id="Rectangle_6_" x="0.4" y="265.8" transform="matrix(2.535182e-06 1 -1 2.535182e-06 368.0808 265.4664)" class="st2" width="101.9" height="101.9"/>
				
					<rect id="Rectangle_7_" x="0.4" y="0" transform="matrix(2.535182e-06 1 -1 2.535182e-06 102.2511 -0.3627)" class="st2" width="101.9" height="101.9"/>
			</g>
		</g>
	</g>
</g>
</svg>
