<svg width="140" height="140" viewBox="0 0 140 140" fill="none" xmlns="http://www.w3.org/2000/svg">
<circle cx="70" cy="70" r="70" fill="#3E4C57"/>
<path d="M104.258 65.4627C104.273 65.0794 104.289 64.7038 104.289 64.3361C104.289 49.8145 92.4844 38 77.9844 38C67.9688 38 58.8203 43.7977 54.4297 52.6859C52.1562 51.1837 49.5 50.37 46.7109 50.37C39.3047 50.37 33.2188 56.152 32.7266 63.4519C25.1641 66.206 20 73.4747 20 81.6352C20 92.3074 28.6797 101 39.3438 101H102.195C112.016 101 120 93.0037 120 83.1688C120 74.038 113.109 66.4877 104.258 65.4627Z" fill="#1B242B"/>
<path d="M59.407 69.136C57.877 69.136 56.3237 69.7326 56.065 70.0588C55.9975 70.1938 55.8409 71.2849 56.2122 71.2849C56.3359 71.2849 56.3927 71.3064 56.7527 71.1377C58.1027 70.6089 58.9581 70.6213 59.0818 70.6213C60.6006 70.4751 61.4778 71.5106 61.3428 72.8494V73.636C60.0603 73.3322 59.3276 73.3218 58.9676 73.3218C57.1001 73.2093 55.375 74.1939 55.375 76.3584C55.375 78.7321 57.4937 79.2398 58.315 79.2061C59.5412 79.2173 60.7116 78.666 61.4878 77.7097C62.1066 79.0935 62.5005 79.0017 62.5117 79.0017C62.6242 79.0017 62.714 78.9569 62.804 78.9006L63.4456 78.4502C63.5581 78.3827 63.6475 78.271 63.6587 78.136C63.6475 77.8097 63.0622 77.3035 63.1072 76.1672V72.6582C63.1747 71.6907 62.861 70.7439 62.2085 70.0127C61.4323 69.3602 60.4083 69.046 59.407 69.136ZM81.2017 69.136C78.9517 69.136 77.6589 70.5417 77.6927 71.9705C77.6927 73.928 79.6715 74.5485 79.8965 74.616C81.7978 75.2122 82.0572 75.2338 82.586 75.6838C83.036 76.1451 82.9795 77.0457 82.3157 77.4395C82.1244 77.552 81.3023 78.0461 79.4461 77.6636C78.8273 77.5398 78.5021 77.3939 77.9959 77.1802C77.8609 77.1352 77.5454 77.0562 77.5454 77.4724V78.0239C77.5454 78.2827 77.7025 78.5179 77.9387 78.6304C79.12 79.2266 80.5376 79.25 80.8413 79.25C80.8863 79.25 83.4731 79.2514 84.3394 77.5054C84.5183 77.1454 84.9815 75.8311 84.1153 74.7061C83.3953 73.8623 82.7764 73.7722 80.9314 73.2097C80.7739 73.1647 79.4128 72.8146 79.4241 71.8584C79.3566 70.6321 81.0221 70.5659 81.3709 70.5884C82.7771 70.5659 83.4735 71.093 83.856 71.1267C84.0247 71.1267 84.1043 71.0265 84.1043 70.8015V70.283C84.1155 70.1592 84.0707 70.037 84.0032 69.9358C83.5532 69.3508 81.8317 69.136 81.2017 69.136ZM64.1245 69.4172C64.0008 69.4397 63.9109 69.5638 63.9334 69.6875C63.9559 69.8338 63.9782 69.9807 64.0344 70.127L66.5547 78.4392C66.611 78.7092 66.7894 79.0028 67.1831 78.9578H68.106C68.6685 79.014 68.7473 78.4735 68.7586 78.4172L70.4131 71.4871L72.0896 78.4282C72.1009 78.4845 72.18 79.025 72.7312 78.9688H73.6651C74.0701 79.0138 74.2614 78.7202 74.3177 78.4502C77.1527 69.3264 76.9604 69.9467 76.9829 69.8567C77.0279 69.3842 76.7577 69.417 76.7127 69.4282H75.7107C75.2045 69.372 75.1048 69.8343 75.0823 69.9468L73.2146 77.1582L71.5271 69.9468C71.4484 69.3955 70.998 69.417 70.8855 69.4282H70.0198C69.5248 69.3832 69.401 69.778 69.3672 69.9468L67.6907 77.0571L65.8911 69.9468C65.8461 69.7218 65.6993 69.3722 65.2605 69.4172H64.1245ZM59.3389 74.627C60.1489 74.6382 60.8481 74.7605 61.3318 74.873C61.3318 75.4355 61.3523 75.7511 61.2285 76.2573C61.071 76.7973 60.3749 77.7773 58.7324 77.7998C57.7874 77.8448 57.1689 77.1011 57.2251 76.2573C57.1689 74.9073 58.5626 74.5707 59.3389 74.627ZM84.6712 81.5022C83.6211 81.5168 82.3817 81.7521 81.4412 82.4119C81.1509 82.6132 81.2018 82.8928 81.5247 82.8557C82.5822 82.7286 84.936 82.4432 85.3567 82.981C85.7786 83.5187 84.8902 85.7372 84.4976 86.7295C84.3761 87.0254 84.633 87.1479 84.9041 86.9229C86.6636 85.4491 87.1208 82.3597 86.7608 81.9153C86.5802 81.6931 85.7212 81.4876 84.6712 81.5022ZM53.3689 82.6272C53.1236 82.6609 53.0179 82.9719 53.2744 83.2183C57.6811 87.3515 63.5039 89.375 69.9693 89.375C74.5806 89.375 79.934 87.8704 83.6297 85.0354C84.2405 84.564 83.7202 83.8577 83.0935 84.1367C78.9502 85.9648 74.4499 86.8459 70.3538 86.8459C64.2833 86.8459 58.4066 85.5786 53.6524 82.6997C53.5483 82.6367 53.4507 82.6159 53.3689 82.6272Z" fill="#93999C"/>
</svg>
