<?xml version="1.0" encoding="utf-8"?>
<!-- Generator: Adobe Illustrator 25.0.0, SVG Export Plug-In . SVG Version: 6.00 Build 0)  -->
<svg version="1.1" id="Ebene_1" xmlns="http://www.w3.org/2000/svg" xmlns:xlink="http://www.w3.org/1999/xlink" x="0px" y="0px"
	 viewBox="0 0 200 236" style="enable-background:new 0 0 200 236;" xml:space="preserve">
<style type="text/css">
	.st0{fill:#E1DCF3;}
	.st1{enable-background:new    ;}
	.st2{fill:#333333;}
	.st3{fill:#24975C;}
</style>
<desc>Created with Sketch.</desc>
<g id="Icons">
	<g id="Artboard" transform="translate(-410.000000, -520.000000)">
		<g id="event-console" transform="translate(410.000000, 520.000000)">
			<polygon id="Path" class="st0" points="0,0 200,0 200,235.3 0,235.3 			"/>
			<g class="st1">
				<path class="st2" d="M57.9,95.7c0-5.6,1.8-11.2,5.4-16.9c3.6-5.7,8.8-10.4,15.6-14.2c6.9-3.7,14.9-5.6,24-5.6
					c8.5,0,16,1.6,22.5,4.7c6.5,3.1,11.5,7.4,15.1,12.8c3.5,5.4,5.3,11.2,5.3,17.6c0,5-1,9.3-3,13.1c-2,3.8-4.4,7-7.2,9.7
					c-2.8,2.7-7.8,7.3-15,13.8c-2,1.8-3.6,3.4-4.8,4.8c-1.2,1.4-2.1,2.6-2.7,3.8c-0.6,1.1-1,2.3-1.4,3.4c-0.3,1.1-0.8,3.2-1.5,6
					c-1.1,6.1-4.6,9.1-10.5,9.1c-3,0-5.6-1-7.7-3c-2.1-2-3.1-5-3.1-8.9c0-4.9,0.8-9.2,2.3-12.8c1.5-3.6,3.5-6.8,6.1-9.5
					c2.5-2.7,5.9-6,10.2-9.7c3.7-3.3,6.5-5.8,8.1-7.4s3.1-3.5,4.2-5.6c1.1-2.1,1.7-4.3,1.7-6.7c0-4.7-1.7-8.6-5.2-11.9
					c-3.5-3.2-8-4.8-13.5-4.8c-6.4,0-11.2,1.6-14.2,4.9c-3,3.3-5.6,8-7.7,14.4c-2,6.6-5.8,9.9-11.3,9.9c-3.3,0-6.1-1.2-8.3-3.5
					C59,100.9,57.9,98.4,57.9,95.7z M100.8,192c-3.6,0-6.7-1.2-9.4-3.5c-2.7-2.3-4-5.6-4-9.7c0-3.7,1.3-6.8,3.9-9.3
					c2.6-2.5,5.7-3.8,9.5-3.8c3.7,0,6.8,1.3,9.3,3.8c2.5,2.5,3.8,5.6,3.8,9.3c0,4.1-1.3,7.3-4,9.7S104.3,192,100.8,192z"/>
			</g>
			<polygon id="Path_1_" class="st3" points="0,0 200,0 200,40 0,40 			"/>
		</g>
	</g>
</g>
</svg>
