<?xml version="1.0" encoding="utf-8"?>
<!-- Generator: Adobe Illustrator 25.0.0, SVG Export Plug-In . SVG Version: 6.00 Build 0)  -->
<svg version="1.1" id="Ebene_1" xmlns="http://www.w3.org/2000/svg" xmlns:xlink="http://www.w3.org/1999/xlink" x="0px" y="0px"
	 viewBox="0 0 244 244" style="enable-background:new 0 0 244 244;" xml:space="preserve">
<style type="text/css">
	.st0{fill:#24B7EA;}
	.st1{fill:#1697C4;}
	.st2{fill:#F0F7FF;}
	.st3{fill:#DFE7F4;}
	.st4{fill:#29376D;}
	.st5{fill:#47568C;}
</style>
<desc>Created with Sketch.</desc>
<g id="Icons">
	<g id="Artboard" transform="translate(-280.000000, -879.000000)">
		<g id="target" transform="translate(240.000000, 839.000000)">
			<circle id="Oval" class="st0" cx="166.3" cy="166.3" r="117.5"/>
			<path id="Path" class="st1" d="M166.3,48.8v235c64.8,0,117.5-52.7,117.5-117.5S231.1,48.8,166.3,48.8L166.3,48.8z"/>
			
				<ellipse id="Oval_1_" transform="matrix(0.9863 -0.165 0.165 0.9863 -25.175 29.7257)" class="st2" cx="166.3" cy="166.3" rx="78.1" ry="78.1"/>
			<path id="Path_1_" class="st3" d="M166.3,88.3v156.2c43.1,0,78.1-35,78.1-78.1C244.4,123.3,209.4,88.3,166.3,88.3L166.3,88.3z"/>
			
				<ellipse id="Oval_2_" transform="matrix(0.7071 -0.7071 0.7071 0.7071 -68.9284 166.3678)" class="st0" cx="166.4" cy="166.4" rx="38.7" ry="38.7"/>
			<path id="Path_2_" class="st1" d="M166.3,127.7V205c21.3,0,38.7-17.3,38.7-38.7S187.7,127.7,166.3,127.7L166.3,127.7z"/>
			<path id="Path_3_" class="st4" d="M127.5,77.1L93,42.6c-1.7-1.7-4.2-2.4-6.6-1.9c-2.4,0.5-4.3,2.2-5.2,4.5l-7.1,19l2,12.1
				l-12.1-2l-19,7.1c-2.3,0.8-4,2.8-4.5,5.2c-0.5,2.4,0.2,4.8,1.9,6.6l34.5,34.5c1.4,1.4,3.2,2.1,5,2.1c0.4,0,0.8,0,1.3-0.1
				l34.1-6.2c2.9-0.5,5.2-2.8,5.8-5.8l6.2-34.1C129.9,81.1,129.2,78.7,127.5,77.1z"/>
			<path id="Path_4_" class="st5" d="M171.4,161.3L74.2,64.1l-2.7,7.4l-7.4,2.7l97.2,97.2c1.4,1.4,3.2,2.1,5,2.1
				c1.8,0,3.7-0.7,5-2.1C174.2,168.6,174.2,164.1,171.4,161.3z"/>
		</g>
	</g>
</g>
</svg>
