<?xml version="1.0" encoding="utf-8"?>
<!-- Generator: Adobe Illustrator 25.0.0, SVG Export Plug-In . SVG Version: 6.00 Build 0)  -->
<svg version="1.1" id="Ebene_1" xmlns="http://www.w3.org/2000/svg" xmlns:xlink="http://www.w3.org/1999/xlink" x="0px" y="0px"
	 viewBox="0 0 240 240" style="enable-background:new 0 0 240 240;" xml:space="preserve">
<style type="text/css">
	.st0{fill:#ED3B3B;}
</style>
<desc>Created with Sketch.</desc>
<g id="Icons">
	<g id="Artboard" transform="translate(-579.000000, -359.000000)">
		<path id="remove" class="st0" d="M794.4,359H603.6c-13.6,0-24.6,11.1-24.6,24.6v190.7c0,13.6,11.1,24.6,24.6,24.6h190.7
			c13.6,0,24.6-11.1,24.6-24.6V383.6C819,370.1,807.9,359,794.4,359z M645,496.1c-7.3,0-13.2-5.9-13.2-13.2
			c0-7.3,5.9-13.2,13.2-13.2h114.1c7.3,0,13.2,5.9,13.2,13.2s-5.9,13.2-13.2,13.2H645z"/>
	</g>
</g>
</svg>
