<?xml version="1.0" encoding="utf-8"?>
<!-- Generator: Adobe Illustrator 26.0.1, SVG Export Plug-In . SVG Version: 6.00 Build 0)  -->
<svg version="1.1" id="Ebene_1" xmlns="http://www.w3.org/2000/svg" xmlns:xlink="http://www.w3.org/1999/xlink" x="0px" y="0px"
	 viewBox="0 0 240 240" style="enable-background:new 0 0 240 240;" xml:space="preserve">
<style type="text/css">
	.st0{fill:#42D389;}
	.st1{fill:#22814C;}
</style>
<g id="Icons">
	<g id="EXIT" transform="translate(-81.000000, -828.000000)">
		<g id="video_tutorial" transform="translate(81.000000, 828.000000)">
			<path id="Path" class="st0" d="M240,223V45.3H0V223c0,9.4,7.5,17,16.8,17h206.3C232.5,240,240,232.4,240,223L240,223z"/>
			<path id="Path_00000166638004877585397870000004616203084135057816_" class="st1" d="M240,45.3V17c0-9.4-7.5-17-16.8-17H16.8
				C7.5,0,0,7.6,0,17v28.2H240z"/>
			<ellipse id="Oval" class="st0" cx="206" cy="22.6" rx="9.7" ry="9.8"/>
			<ellipse id="Oval_00000078755843020027206190000001563156624187952261_" class="st0" cx="169.1" cy="22.6" rx="9.7" ry="9.8"/>
			<ellipse id="Oval_00000002350765557982496780000010930094339047931527_" class="st0" cx="132.2" cy="22.6" rx="9.7" ry="9.8"/>
			<path id="Path_00000130646934120787886230000008677958375332098717_" class="st1" d="M178.4,142.6c0,32.7-26.2,59.1-58.5,59.1
				c-32.2,0-58.4-26.4-58.4-59.1S87.7,83.5,120,83.5C152.3,83.5,178.4,110,178.4,142.6z"/>
			<path id="Path_00000145769805949038686240000013156333897524380075_" class="st0" d="M142.8,146.5l-33.2,21.7
				c-3.1,2-7.1-0.2-7.1-3.9v-43.5c0-3.7,4-5.9,7.1-3.9l33.2,21.7C145.6,140.6,145.6,144.7,142.8,146.5z"/>
			<path id="Path_00000034802421122000693570000006105834287341924232_" class="st0" d="M103.8,26.8H24.3c-2.3,0-4.1-1.9-4.1-4.1
				s1.8-4.1,4.1-4.1h79.5c2.3,0,4.1,1.9,4.1,4.1S106.1,26.8,103.8,26.8z"/>
		</g>
	</g>
</g>
</svg>
