<?xml version="1.0" encoding="utf-8"?>
<!-- Generator: Adobe Illustrator 25.0.0, SVG Export Plug-In . SVG Version: 6.00 Build 0)  -->
<svg version="1.1" id="Ebene_1" xmlns="http://www.w3.org/2000/svg" xmlns:xlink="http://www.w3.org/1999/xlink" x="0px" y="0px"
	 viewBox="0 0 65 48" style="enable-background:new 0 0 65 48;" xml:space="preserve">
<style type="text/css">
	.st0{fill:url(#Path_2_);}
	.st1{fill:url(#Shape_1_);}
	.st2{fill:url(#Path_3_);}
	.st3{opacity:0.3;fill:url(#Rectangle_11_);enable-background:new    ;}
	.st4{fill:url(#Rectangle_12_);}
	.st5{fill:url(#Rectangle_13_);}
	.st6{fill:url(#Rectangle_14_);}
	.st7{fill:url(#Rectangle_15_);}
	.st8{fill:url(#Rectangle_16_);}
	.st9{fill:url(#Rectangle_17_);}
	.st10{opacity:0.3;fill:url(#Rectangle_18_);enable-background:new    ;}
	.st11{opacity:0.3;fill:url(#Rectangle_19_);enable-background:new    ;}
	.st12{fill:url(#Rectangle_20_);}
	.st13{fill:url(#Rectangle_21_);}
</style>
<desc>Created with Sketch.</desc>
<g id="Welcome">
	<g id="Release-Content-_x7C_-USP-small" transform="translate(-241.000000, -314.000000)">
		<g id="USP" transform="translate(155.000000, 311.000000)">
			<g id="icon_flexible" transform="translate(86.000000, 3.000000)">
				
					<linearGradient id="Path_2_" gradientUnits="userSpaceOnUse" x1="-588.7719" y1="399.2282" x2="-588.7719" y2="398.4845" gradientTransform="matrix(10.7034 0 0 -37.7278 6360.7563 15071.6885)">
					<stop  offset="0" style="stop-color:#2CF8AF"/>
					<stop  offset="1" style="stop-color:#1DE196"/>
				</linearGradient>
				<path id="Path" class="st0" d="M53.7,37.5C53.7,37.5,53.7,37.5,53.7,37.5c0.1-0.2,0.2-0.2,0.3-0.3c0,0,0,0,0.1-0.1
					c0.1-0.1,0.1-0.1,0.2-0.2c0,0,0.1-0.1,0.1-0.1c0.1,0,0.1-0.1,0.2-0.1c0,0,0.1-0.1,0.1-0.1c0.1,0,0.1-0.1,0.2-0.1
					c0,0,0.1-0.1,0.1-0.1c0.1,0,0.1-0.1,0.2-0.1c0,0,0.1-0.1,0.1-0.1c0.1,0,0.1-0.1,0.2-0.1c0,0,0.1,0,0.1-0.1
					c0.1,0,0.2-0.1,0.2-0.1c0,0,0.1,0,0.1,0c0.1-0.1,0.2-0.1,0.3-0.1c0,0,0,0,0,0c0.1,0,0.2-0.1,0.3-0.1l0.1,0
					c0.1,0,0.2-0.1,0.2-0.1c0,0,0.1,0,0.1,0c0.1,0,0.1,0,0.2-0.1c0,0,0.1,0,0.1,0c0.1,0,0.1,0,0.2,0c0,0,0.1,0,0.1,0
					c0.1,0,0.2,0,0.2,0c0,0,0.1,0,0.1,0c0.1,0,0.2,0,0.3,0c0,0,0.1,0,0.1,0c0.1,0,0.3,0,0.4,0c0.1,0,0.3,0,0.4,0c0,0,0.1,0,0.1,0
					c0.1,0,0.2,0,0.3,0c0,0,0.1,0,0.1,0c0.1,0,0.2,0,0.2,0c0,0,0.1,0,0.1,0c0.1,0,0.1,0,0.2,0c0,0,0.1,0,0.1,0c0.1,0,0.1,0,0.2,0.1
					c0,0,0.1,0,0.1,0c0.1,0,0.2,0,0.2,0.1l0.1,0c0.1,0,0.2,0.1,0.3,0.1c0,0,0,0,0,0c0.1,0,0.2,0.1,0.3,0.1c0,0,0.1,0,0.1,0
					c0.1,0,0.2,0.1,0.2,0.1c0,0,0.1,0,0.1,0.1c0.1,0,0.1,0.1,0.2,0.1c0,0,0.1,0,0.1,0.1c0.1,0,0.1,0.1,0.2,0.1c0,0,0.1,0.1,0.1,0.1
					c0.1,0,0.1,0.1,0.2,0.1c0,0,0.1,0.1,0.1,0.1c0.1,0,0.1,0.1,0.2,0.1c0,0,0.1,0.1,0.1,0.1c0.1,0.1,0.1,0.1,0.2,0.2
					c0,0,0,0,0.1,0.1c0.1,0.1,0.2,0.2,0.2,0.3c0,0,0,0,0.1,0.1c0.1,0.1,0.1,0.1,0.2,0.2c0,0,0,0,0,0V5.4c0-2.9-2.4-5.4-5.4-5.4
					s-5.4,2.4-5.4,5.4v32.4c0,0,0,0,0,0C53.6,37.6,53.6,37.6,53.7,37.5L53.7,37.5z"/>
				
					<linearGradient id="Shape_1_" gradientUnits="userSpaceOnUse" x1="-639.8954" y1="400.1119" x2="-638.8664" y2="400.1179" gradientTransform="matrix(64.2175 0 0 -42.8142 41091.375 17156.5898)">
					<stop  offset="0" style="stop-color:#303F47"/>
					<stop  offset="1" style="stop-color:#596E7A"/>
				</linearGradient>
				<path id="Shape" class="st1" d="M5.4,47.4h53.5c2.9,0,5.4-2.4,5.4-5.4s-2.4-5.4-5.4-5.4s-5.4,2.4-5.4,5.4c0,0.4-0.3,0.8-0.8,0.8
					c-0.4,0-0.8-0.3-0.8-0.8V5.4c0-0.3,0-0.5,0-0.8H5.4C2.4,4.6,0,6.8,0,9.5v33C0,45.2,2.4,47.4,5.4,47.4L5.4,47.4z M7.6,14
					c0-2.7,2.2-4.8,5-4.8h34c0.4,0,0.8,0.3,0.8,0.8c0,0.4-0.3,0.8-0.8,0.8h-34c-1.9,0-3.5,1.5-3.5,3.3v24c0,1.8,1.5,3.3,3.5,3.3h34
					c0.4,0,0.8,0.3,0.8,0.8s-0.3,0.8-0.8,0.8h-34c-2.7,0-5-2.2-5-4.8V14z M37.5,17.6v-3.1h3.1v3.1H37.5z M40.5,20.6v3.1h-3.1v-3.1
					H40.5z M31.3,23.7v-3.1h3.1v3.1H31.3z M34.4,26.8v3.1h-3.1v-3.1H34.4z M31.3,17.6v-3.1h3.1v3.1H31.3z M25.2,23.7v-3.1h3.1v3.1
					H25.2z M28.3,26.8v3.1h-3.1v-3.1H28.3z M25.2,17.6v-3.1h3.1v3.1H25.2z M19.1,29.8v-3.1h3.1v3.1H19.1z M22.2,32.9v3.1h-3.1v-3.1
					H22.2z M19.1,23.7v-3.1h3.1v3.1H19.1z M19.1,17.6v-3.1h3.1v3.1H19.1z M13,29.8v-3.1h3.1v3.1H13z M16.1,32.9v3.1H13v-3.1H16.1z
					 M13,23.7v-3.1h3.1v3.1H13z M13,17.6v-3.1h3.1v3.1H13z M3.1,23.7c0-0.4,0.3-0.8,0.8-0.8s0.8,0.3,0.8,0.8v4.6
					c0,0.4-0.3,0.8-0.8,0.8s-0.8-0.3-0.8-0.8V23.7z"/>
				
					<linearGradient id="Path_3_" gradientUnits="userSpaceOnUse" x1="-635.2587" y1="397.675" x2="-634.507" y2="398.4074" gradientTransform="matrix(44.436 0 0 -34.44 28240.959 13735.3613)">
					<stop  offset="0" style="stop-color:#B5D6F0"/>
					<stop  offset="1" style="stop-color:#F0F7FC"/>
				</linearGradient>
				<path id="Path_1_" class="st2" d="M7.6,11.8c0-1.9,1.5-3.4,3.4-3.4H52v34.4H10.9c-1.9,0-3.4-1.5-3.4-3.4V11.8z"/>
				
					<linearGradient id="Rectangle_11_" gradientUnits="userSpaceOnUse" x1="-520.5317" y1="337.5135" x2="-520.5317" y2="336.7698" gradientTransform="matrix(5.04 0 0 -5.04 2637.76 1715.7999)">
					<stop  offset="0" style="stop-color:#06B073"/>
					<stop  offset="1" style="stop-color:#1DE196"/>
				</linearGradient>
				<path id="Rectangle" class="st3" d="M13.4,13.4h1.7c0.9,0,1.7,0.8,1.7,1.7v1.7c0,0.9-0.8,1.7-1.7,1.7h-1.7
					c-0.9,0-1.7-0.8-1.7-1.7v-1.7C11.8,14.2,12.5,13.4,13.4,13.4z"/>
				
					<linearGradient id="Rectangle_12_" gradientUnits="userSpaceOnUse" x1="-520.5317" y1="337.5135" x2="-520.5317" y2="336.7698" gradientTransform="matrix(5.04 0 0 -5.04 2637.76 1722.52)">
					<stop  offset="0" style="stop-color:#06B073"/>
					<stop  offset="1" style="stop-color:#1DE196"/>
				</linearGradient>
				<path id="Rectangle_1_" class="st4" d="M13.4,20.2h1.7c0.9,0,1.7,0.8,1.7,1.7v1.7c0,0.9-0.8,1.7-1.7,1.7h-1.7
					c-0.9,0-1.7-0.8-1.7-1.7v-1.7C11.8,20.9,12.5,20.2,13.4,20.2z"/>
				
					<linearGradient id="Rectangle_13_" gradientUnits="userSpaceOnUse" x1="-520.5317" y1="337.5135" x2="-520.5317" y2="336.7698" gradientTransform="matrix(5.04 0 0 -5.04 2644.48 1715.7999)">
					<stop  offset="0" style="stop-color:#06B073"/>
					<stop  offset="1" style="stop-color:#1DE196"/>
				</linearGradient>
				<path id="Rectangle_2_" class="st5" d="M20.2,13.4h1.7c0.9,0,1.7,0.8,1.7,1.7v1.7c0,0.9-0.8,1.7-1.7,1.7h-1.7
					c-0.9,0-1.7-0.8-1.7-1.7v-1.7C18.5,14.2,19.2,13.4,20.2,13.4z"/>
				
					<linearGradient id="Rectangle_14_" gradientUnits="userSpaceOnUse" x1="-520.5317" y1="337.5135" x2="-520.5317" y2="336.7698" gradientTransform="matrix(5.04 0 0 -5.04 2644.48 1735.96)">
					<stop  offset="0" style="stop-color:#06B073"/>
					<stop  offset="1" style="stop-color:#1DE196"/>
				</linearGradient>
				<path id="Rectangle_3_" class="st6" d="M20.2,33.6h1.7c0.9,0,1.7,0.8,1.7,1.7V37c0,0.9-0.8,1.7-1.7,1.7h-1.7
					c-0.9,0-1.7-0.8-1.7-1.7v-1.7C18.5,34.4,19.2,33.6,20.2,33.6z"/>
				
					<linearGradient id="Rectangle_15_" gradientUnits="userSpaceOnUse" x1="-520.5317" y1="337.5135" x2="-520.5317" y2="336.7698" gradientTransform="matrix(5.04 0 0 -5.04 2644.48 1722.52)">
					<stop  offset="0" style="stop-color:#06B073"/>
					<stop  offset="1" style="stop-color:#1DE196"/>
				</linearGradient>
				<path id="Rectangle_4_" class="st7" d="M20.2,20.2h1.7c0.9,0,1.7,0.8,1.7,1.7v1.7c0,0.9-0.8,1.7-1.7,1.7h-1.7
					c-0.9,0-1.7-0.8-1.7-1.7v-1.7C18.5,20.9,19.2,20.2,20.2,20.2z"/>
				
					<linearGradient id="Rectangle_16_" gradientUnits="userSpaceOnUse" x1="-520.5317" y1="337.5135" x2="-520.5317" y2="336.7698" gradientTransform="matrix(5.04 0 0 -5.04 2651.2 1729.24)">
					<stop  offset="0" style="stop-color:#06B073"/>
					<stop  offset="1" style="stop-color:#1DE196"/>
				</linearGradient>
				<path id="Rectangle_5_" class="st8" d="M26.9,26.9h1.7c0.9,0,1.7,0.8,1.7,1.7v1.7c0,0.9-0.8,1.7-1.7,1.7h-1.7
					c-0.9,0-1.7-0.8-1.7-1.7v-1.7C25.2,27.6,26,26.9,26.9,26.9z"/>
				
					<linearGradient id="Rectangle_17_" gradientUnits="userSpaceOnUse" x1="-520.5317" y1="337.5135" x2="-520.5317" y2="336.7698" gradientTransform="matrix(5.04 0 0 -5.04 2651.2 1715.7999)">
					<stop  offset="0" style="stop-color:#06B073"/>
					<stop  offset="1" style="stop-color:#1DE196"/>
				</linearGradient>
				<path id="Rectangle_6_" class="st9" d="M26.9,13.4h1.7c0.9,0,1.7,0.8,1.7,1.7v1.7c0,0.9-0.8,1.7-1.7,1.7h-1.7
					c-0.9,0-1.7-0.8-1.7-1.7v-1.7C25.2,14.2,26,13.4,26.9,13.4z"/>
				
					<linearGradient id="Rectangle_18_" gradientUnits="userSpaceOnUse" x1="-520.5317" y1="337.5135" x2="-520.5317" y2="336.7698" gradientTransform="matrix(5.04 0 0 -5.04 2651.2 1735.96)">
					<stop  offset="0" style="stop-color:#06B073"/>
					<stop  offset="1" style="stop-color:#1DE196"/>
				</linearGradient>
				<path id="Rectangle_7_" class="st10" d="M26.9,33.6h1.7c0.9,0,1.7,0.8,1.7,1.7V37c0,0.9-0.8,1.7-1.7,1.7h-1.7
					c-0.9,0-1.7-0.8-1.7-1.7v-1.7C25.2,34.4,26,33.6,26.9,33.6z"/>
				
					<linearGradient id="Rectangle_19_" gradientUnits="userSpaceOnUse" x1="-520.5317" y1="337.5135" x2="-520.5317" y2="336.7698" gradientTransform="matrix(5.04 0 0 -5.04 2651.2 1722.52)">
					<stop  offset="0" style="stop-color:#06B073"/>
					<stop  offset="1" style="stop-color:#1DE196"/>
				</linearGradient>
				<path id="Rectangle_8_" class="st11" d="M26.9,20.2h1.7c0.9,0,1.7,0.8,1.7,1.7v1.7c0,0.9-0.8,1.7-1.7,1.7h-1.7
					c-0.9,0-1.7-0.8-1.7-1.7v-1.7C25.2,20.9,26,20.2,26.9,20.2z"/>
				
					<linearGradient id="Rectangle_20_" gradientUnits="userSpaceOnUse" x1="-520.5317" y1="337.5135" x2="-520.5317" y2="336.7698" gradientTransform="matrix(5.04 0 0 -5.04 2657.9199 1729.24)">
					<stop  offset="0" style="stop-color:#06B073"/>
					<stop  offset="1" style="stop-color:#1DE196"/>
				</linearGradient>
				<path id="Rectangle_9_" class="st12" d="M33.6,26.9h1.7c0.9,0,1.7,0.8,1.7,1.7v1.7c0,0.9-0.8,1.7-1.7,1.7h-1.7
					c-0.9,0-1.7-0.8-1.7-1.7v-1.7C31.9,27.6,32.7,26.9,33.6,26.9z"/>
				
					<linearGradient id="Rectangle_21_" gradientUnits="userSpaceOnUse" x1="-520.5317" y1="337.5135" x2="-520.5317" y2="336.7698" gradientTransform="matrix(5.04 0 0 -5.04 2657.9199 1715.7999)">
					<stop  offset="0" style="stop-color:#06B073"/>
					<stop  offset="1" style="stop-color:#1DE196"/>
				</linearGradient>
				<path id="Rectangle_10_" class="st13" d="M33.6,13.4h1.7c0.9,0,1.7,0.8,1.7,1.7v1.7c0,0.9-0.8,1.7-1.7,1.7h-1.7
					c-0.9,0-1.7-0.8-1.7-1.7v-1.7C31.9,14.2,32.7,13.4,33.6,13.4z"/>
			</g>
		</g>
	</g>
</g>
</svg>
