<svg width="392" height="300" viewBox="0 0 392 300" fill="none" xmlns="http://www.w3.org/2000/svg">
<g clip-path="url(#clip0_6012_4626)">
<rect x="168" y="84" width="43.1999" height="57.5999" rx="1" fill="#61707C"/>
<rect x="220.8" y="122.4" width="43.1999" height="57.5999" rx="1" fill="#61707C"/>
<rect x="220.8" y="84" width="43.1999" height="28.8" rx="1" fill="#61707C"/>
<rect x="168" y="151.2" width="43.1999" height="28.8" rx="1" fill="#61707C"/>
<path d="M390.442 24.405V254.95C390.442 259.275 386.925 262.795 382.596 262.795H38.6078C34.2841 262.795 30.762 259.275 30.762 254.95V24.405H390.442ZM392 22.85H29.2089V254.95C29.2089 260.14 33.4173 264.35 38.6078 264.35H382.601C387.792 264.35 392 260.14 392 254.95V22.85Z" fill="#61707C"/>
<path d="M392 22.85H29.2089V7.5C29.2089 3.36 32.5756 0 36.724 0H384.485C388.633 0 392 3.36 392 7.5V22.85Z" fill="#61707C"/>
<path d="M352.761 12.265H344.97C344.832 12.265 344.72 12.3769 344.72 12.515V13.57C344.72 13.7081 344.832 13.82 344.97 13.82H352.761C352.899 13.82 353.011 13.7081 353.011 13.57V12.515C353.011 12.3769 352.899 12.265 352.761 12.265Z" fill="#66FFCC"/>
<path d="M365.316 10.115H360.682C360.405 10.115 360.181 10.3388 360.181 10.615V15.255C360.181 15.5311 360.405 15.755 360.682 15.755H365.316C365.593 15.755 365.817 15.5311 365.817 15.255V10.615C365.817 10.3388 365.593 10.115 365.316 10.115Z" fill="#66FFCC"/>
<path d="M378.227 12.61L379.805 11.03C380.006 10.83 380.006 10.5 379.805 10.295L379.44 9.93003C379.239 9.73003 378.909 9.73003 378.708 9.93003L377.13 11.51L375.552 9.93003C375.351 9.73003 375.021 9.73003 374.82 9.93003L374.455 10.295C374.254 10.495 374.254 10.825 374.455 11.03L376.033 12.61L374.455 14.19C374.254 14.39 374.254 14.72 374.455 14.925L374.82 15.29C375.021 15.49 375.351 15.49 375.552 15.29L377.13 13.71L378.708 15.29C378.909 15.49 379.239 15.49 379.44 15.29L379.805 14.925C380.006 14.725 380.006 14.395 379.805 14.19L378.227 12.61Z" fill="#66FFCC"/>
<path d="M217.108 300H0.941898C0.420848 300 0 299.58 0 299.06C0 298.54 0.420848 298.12 0.941898 298.12H217.108C217.629 298.12 218.049 298.54 218.049 299.06C218.049 299.58 217.629 300 217.108 300Z" fill="#61707C"/>
<path d="M32.6558 132.175H25.7519C25.1985 132.175 24.7499 132.623 24.7499 133.175V298.06C24.7499 298.612 25.1985 299.06 25.7519 299.06H32.6558C33.2092 299.06 33.6578 298.612 33.6578 298.06V133.175C33.6578 132.623 33.2092 132.175 32.6558 132.175Z" fill="#61707C"/>
<path d="M197.047 132.175H190.143C189.59 132.175 189.141 132.623 189.141 133.175V298.06C189.141 298.612 189.59 299.06 190.143 299.06H197.047C197.601 299.06 198.049 298.612 198.049 298.06V133.175C198.049 132.623 197.601 132.175 197.047 132.175Z" fill="#61707C"/>
<path d="M37.5857 160.805L6.93396 210.99V167.07C6.93396 163.61 9.73961 160.805 13.2016 160.805H37.5907H37.5857Z" fill="#8380FF"/>
<path d="M74.1043 160.805L32.6708 228.645H13.2016C9.74462 228.645 6.93396 225.835 6.93396 222.38V210.995L37.5857 160.81H74.1043V160.805Z" fill="#EDF0F2"/>
<path d="M110.623 160.805L69.1944 228.64H32.6658L74.1043 160.805H110.623Z" fill="#8380FF"/>
<path d="M147.142 160.805L105.703 228.64H69.1945L110.623 160.805H147.142Z" fill="#EDF0F2"/>
<path d="M183.665 160.805L142.232 228.64H105.703L147.142 160.805H183.665Z" fill="#8380FF"/>
<path d="M215.003 167.07V169.28L178.75 228.64H142.232L183.67 160.8H208.741C212.208 160.8 215.008 163.61 215.008 167.065L215.003 167.07Z" fill="#EDF0F2"/>
<path d="M215.003 169.285V222.375C215.003 225.835 212.203 228.64 208.736 228.64H178.745L214.998 169.28L215.003 169.285Z" fill="#8380FF"/>
<path d="M22.1246 245.385L8.61738 267.515C7.62037 266.99 6.939 265.94 6.939 264.74V248.52C6.939 246.79 8.34182 245.385 10.0703 245.385H22.1246Z" fill="#8380FF"/>
<path d="M58.6482 245.385L44.9155 267.87H10.0653C9.53923 267.87 9.04323 267.74 8.61237 267.515L22.1196 245.385H58.6432H58.6482Z" fill="#EDF0F2"/>
<path d="M95.1668 245.385L81.4291 267.875H44.9105L58.6482 245.385H95.1668Z" fill="#8380FF"/>
<path d="M131.685 245.385L117.958 267.875H81.4291L95.1668 245.385H131.685Z" fill="#EDF0F2"/>
<path d="M168.204 245.385L154.471 267.875H117.958L131.685 245.385H168.204Z" fill="#8380FF"/>
<path d="M204.723 245.385L190.985 267.875H154.471L168.204 245.385H204.723Z" fill="#EDF0F2"/>
<path d="M215.003 248.52V264.74C215.003 266.47 213.605 267.875 211.872 267.875H190.99L204.723 245.39H211.872C213.605 245.39 215.003 246.795 215.003 248.525V248.52Z" fill="#8380FF"/>
<path d="M18.6776 128.26V140.42L29.2089 146.495L39.7351 140.42V128.26L29.2089 122.18L18.6776 128.26Z" fill="#FFD703"/>
<path d="M183.069 128.26V140.42L193.595 146.495L204.121 140.42V128.26L193.595 122.18L183.069 128.26Z" fill="#FFD703"/>
</g>
<defs>
<clipPath id="clip0_6012_4626">
<rect width="392" height="300" fill="white"/>
</clipPath>
</defs>
</svg>
