<?xml version="1.0" encoding="UTF-8"?>
<svg width="370px" height="240px" viewBox="0 0 370 240" version="1.1" xmlns="http://www.w3.org/2000/svg" xmlns:xlink="http://www.w3.org/1999/xlink">
    <!-- Generator: Sketch 58 (84663) - https://sketch.com -->
    <title>speedo</title>
    <desc>Created with Sketch.</desc>
    <g id="speedo" stroke="none" stroke-width="1" fill="none" fill-rule="evenodd">
        <g id="speedometer" transform="translate(10.000000, 18.000000)">
            <path d="M268.2,51 L202.6,177.8 L215.2,186.8 L314.8,86.6 C301.2,72.6 285.4,60.6 268.2,51 Z" id="Path" fill="#E0E6EB" fill-rule="nonzero"></path>
            <g id="lines" transform="translate(15.200000, 25.000000)" opacity="0.8" stroke="#333333">
                <path d="M35.4,32.6 L41,41.6" id="Path" stroke-width="2"></path>
                <path d="M29,36.6 L35,45.6" id="Path" stroke-width="2"></path>
                <path d="M23,41 L29.2,49.6" id="Path" stroke-width="2"></path>
                <path d="M17,45.4 L23.4,53.8" id="Path" stroke-width="2"></path>
                <path d="M11.2,50.2 L18,58.4" id="Path" stroke-width="2"></path>
                <path d="M5.4,55.2 L12.6,63" id="Path" stroke-width="2"></path>
                <path d="M0,60.2 L15.4,76.2" id="Path" stroke-width="4"></path>
                <path d="M298,60.2 L282.6,76.2" id="Path" stroke-width="4"></path>
                <path d="M292.6,55.2 L285.4,63" id="Path" stroke-width="2"></path>
                <path d="M287,50.2 L280.2,58.4" id="Path" stroke-width="2"></path>
                <path d="M281.2,45.4 L274.6,53.8" id="Path" stroke-width="2"></path>
                <path d="M275.2,41 L269,49.6" id="Path" stroke-width="2"></path>
                <path d="M269,36.6 L263,45.6" id="Path" stroke-width="2"></path>
                <path d="M262.8,32.6 L257.2,41.6" id="Path" stroke-width="2"></path>
                <path d="M149,0 L149,10.6" id="Path" stroke-width="2"></path>
                <path d="M141.6,0.2 L142,10.8" id="Path" stroke-width="2"></path>
                <path d="M134,1.2 L135.6,21.2" id="Path" stroke-width="4"></path>
                <path d="M126.6,1.2 L127.8,11.8" id="Path" stroke-width="2"></path>
                <path d="M119.2,2 L120.6,12.6" id="Path" stroke-width="2"></path>
                <path d="M111.8,3.2 L113.6,13.8" id="Path" stroke-width="2"></path>
                <path d="M104.4,4.6 L106.6,15.2" id="Path" stroke-width="2"></path>
                <path d="M97.2,6.4 L99.8,16.8" id="Path" stroke-width="2"></path>
                <path d="M89.8,8.4 L92.8,18.6" id="Path" stroke-width="2"></path>
                <path d="M82.8,10.6 L86,20.6" id="Path" stroke-width="2"></path>
                <path d="M75.6,13 L79.2,23" id="Path" stroke-width="2"></path>
                <path d="M68.6,15.6 L72.6,25.6" id="Path" stroke-width="2"></path>
                <path d="M61.8,18.6 L66,28.2" id="Path" stroke-width="2"></path>
                <path d="M55,21.8 L59.6,31.2" id="Path" stroke-width="2"></path>
                <path d="M48.2,25.2 L53.4,34.6" id="Path" stroke-width="2"></path>
                <path d="M41.8,28.8 L47,38" id="Path" stroke-width="2"></path>
                <path d="M256.4,28.8 L251,38" id="Path" stroke-width="2"></path>
                <path d="M249.8,25.2 L244.8,34.6" id="Path" stroke-width="2"></path>
                <path d="M243.2,21.8 L238.4,31.2" id="Path" stroke-width="2"></path>
                <path d="M236.4,18.6 L232,28.2" id="Path" stroke-width="2"></path>
                <path d="M229.4,15.6 L225.4,25.6" id="Path" stroke-width="2"></path>
                <path d="M222.4,13 L218.8,23" id="Path" stroke-width="2"></path>
                <path d="M215.4,10.6 L212,20.6" id="Path" stroke-width="2"></path>
                <path d="M208.2,8.4 L205.2,18.6" id="Path" stroke-width="2"></path>
                <path d="M201,6.4 L198.4,16.8" id="Path" stroke-width="2"></path>
                <path d="M193.6,4.6 L191.4,15.2" id="Path" stroke-width="2"></path>
                <path d="M186.4,3.2 L184.4,13.8" id="Path" stroke-width="2"></path>
                <path d="M179,2 L177.4,12.6" id="Path" stroke-width="2"></path>
                <path d="M171.4,1.2 L170.4,11.8" id="Path" stroke-width="2"></path>
                <path d="M164,0.6 L163.2,11.2" id="Path" stroke-width="2"></path>
                <path d="M156.6,0.2 L156.2,10.8" id="Path" stroke-width="2"></path>
            </g>
            <g id="numbers" transform="translate(0.400000, 0.600000)" fill="#333333" fill-rule="nonzero">
                <path d="M8.6,73 C8.6,74 8.4,74.8 8.2,75.6 C8,76.4 7.6,77 7.4,77.4 C7,77.8 6.6,78.2 6,78.4 C5.4,78.6 5,78.8 4.4,78.8 C3.8,78.8 3.2,78.6 2.8,78.4 C2.2,78.2 1.8,77.8 1.4,77.4 C1,77 0.8,76.4 0.6,75.6 C0.4,74.8 0.2,74 0.2,73 C0.2,72 0.4,71.2 0.6,70.4 C0.8,69.6 1.2,69 1.4,68.6 C1.8,68.2 2.2,67.8 2.8,67.6 C3.4,67.4 3.8,67.2 4.4,67.2 C5,67.2 5.6,67.4 6,67.6 C6.6,67.8 7,68.2 7.4,68.6 C7.8,69 8,69.6 8.2,70.4 C8.6,71 8.6,71.8 8.6,73 Z M6.6,73 C6.6,72.2 6.6,71.4 6.4,71 C6.2,70.4 6.2,70 6,69.6 C5.8,69.2 5.6,69 5.2,69 C5,68.8 4.6,68.8 4.4,68.8 C4.2,68.8 3.8,68.8 3.6,69 C3.4,69.2 3.2,69.4 2.8,69.6 C2.6,70 2.4,70.4 2.4,71 C2.2,71.6 2.2,72.2 2.2,73 C2.2,73.8 2.2,74.6 2.4,75 C2.6,75.6 2.6,76 2.8,76.4 C3,76.8 3.2,77 3.6,77 C3.8,77.2 4.2,77.2 4.4,77.2 C4.6,77.2 5,77.2 5.2,77 C5.4,76.8 5.8,76.6 6,76.4 C6.2,76 6.4,75.6 6.4,75 C6.6,74.4 6.6,73.8 6.6,73 Z" id="Shape"></path>
                <path d="M143.4,1 C143.4,1.2 143.4,1.6 143.2,1.6 C143,1.8 142.8,1.8 142.4,1.8 L139.2,1.8 L138.8,4.2 C139.4,4 139.8,4 140.2,4 C140.8,4 141.4,4 141.8,4.2 C142.2,4.4 142.6,4.6 143,5 C143.4,5.4 143.6,5.6 143.8,6.2 C144,6.6 144,7 144,7.6 C144,8.2 143.8,8.8 143.6,9.2 C143.4,9.8 143,10.2 142.6,10.6 C142.2,11 141.8,11.2 141.2,11.4 C140.6,11.6 140.2,11.6 139.4,11.6 C139,11.6 138.6,11.6 138.4,11.4 C138,11.4 137.8,11.2 137.4,11.2 C137.2,11 136.8,11 136.6,10.8 C136.4,10.6 136.2,10.4 136,10.2 L136.6,9.4 C136.8,9.2 136.8,9.2 137.2,9.2 C137.4,9.2 137.4,9.2 137.6,9.4 C137.8,9.4 137.8,9.6 138,9.6 C138.2,9.8 138.4,9.8 138.6,9.8 C138.8,9.8 139.2,10 139.4,10 C139.8,10 140,10 140.4,9.8 C140.8,9.6 141,9.6 141,9.4 C141.2,9.2 141.4,9 141.4,8.6 C141.4,8.4 141.6,8 141.6,7.6 C141.6,7 141.4,6.4 141,6.2 C140.6,5.8 140,5.6 139.4,5.6 C138.8,5.6 138.2,5.8 137.8,6 L136.6,5.6 L137.6,2.84217094e-14 L143.4,2.84217094e-14 L143.4,1 Z" id="Path"></path>
                <path d="M153.6,6 C153.6,7 153.4,7.8 153.2,8.6 C153,9.4 152.6,10 152.4,10.4 C152,10.8 151.6,11.2 151,11.4 C150.4,11.6 150,11.8 149.4,11.8 C148.8,11.8 148.2,11.6 147.8,11.4 C147.2,11.2 146.8,10.8 146.4,10.4 C146,10 145.8,9.4 145.6,8.6 C145.4,7.8 145.2,7 145.2,6 C145.2,5 145.4,4.2 145.6,3.4 C145.8,2.6 146.2,2 146.4,1.6 C146.8,1.2 147.2,0.8 147.8,0.6 C148.4,0.4 148.8,0.2 149.4,0.2 C150,0.2 150.6,0.4 151,0.6 C151.4,0.8 152,1.2 152.4,1.6 C152.8,2 153,2.6 153.2,3.4 C153.4,4.2 153.6,5 153.6,6 Z M151.6,6 C151.6,5.2 151.6,4.4 151.4,4 C151.2,3.4 151.2,3 151,2.6 C150.8,2.2 150.6,2 150.2,2 C150,1.8 149.6,1.8 149.4,1.8 C149.2,1.8 148.8,1.8 148.6,2 C148.4,2.2 148.2,2.4 147.8,2.6 C147.6,3 147.4,3.4 147.4,4 C147.2,4.6 147.2,5.2 147.2,6 C147.2,6.8 147.2,7.6 147.4,8 C147.6,8.6 147.6,9 147.8,9.4 C148,9.8 148.2,10 148.6,10 C148.8,10.2 149.2,10.2 149.4,10.2 C149.6,10.2 150,10.2 150.2,10 C150.4,9.8 150.8,9.6 151,9.4 C151.2,9 151.4,8.6 151.4,8 C151.6,7.4 151.6,6.8 151.6,6 Z" id="Shape"></path>
                <path d="M159.8,3 C159.8,3.4 159.8,3.8 159.6,4.2 C159.4,4.6 159.2,4.8 159,5.2 C158.8,5.6 158.4,5.6 158.2,5.8 C157.8,6 157.6,6 157.2,6 C156.8,6 156.4,6 156.2,5.8 C155.8,5.6 155.6,5.4 155.4,5.2 C155.2,5 155,4.6 154.8,4.2 C154.6,3.8 154.6,3.4 154.6,3 C154.6,2.6 154.6,2.2 154.8,1.8 C155,1.4 155.2,1.2 155.4,0.8 C155.6,0.6 156,0.4 156.2,0.2 C156.6,0 156.8,0 157.2,0 C157.6,0 158,0 158.2,0.2 C158.6,0.4 158.8,0.6 159,0.8 C159.2,1 159.4,1.4 159.6,1.8 C159.8,2.2 159.8,2.6 159.8,3 Z M163.6,0.4 L163.6,0.4 C163.8,0.2 164,0.2 164.2,0.2 L165.6,0.2 L157,11.4 L156.8,11.6 C156.8,11.6 156.6,11.6 156.4,11.6 L155,11.6 L163.6,0.4 Z M158.4,3 C158.4,2.6 158.4,2.4 158.4,2.2 C158.4,2 158.2,1.8 158.2,1.6 C158,1.4 158,1.4 157.8,1.4 C157.6,1.4 157.6,1.4 157.4,1.4 C157.2,1.4 157,1.4 157,1.4 C156.8,1.4 156.8,1.6 156.6,1.6 C156.4,1.6 156.4,1.8 156.4,2.2 C156.4,2.6 156.4,2.6 156.4,3 C156.4,3.2 156.4,3.6 156.4,3.8 C156.4,4 156.6,4.2 156.6,4.2 C156.8,4.4 156.8,4.4 157,4.4 C157.2,4.4 157.2,4.4 157.4,4.4 C157.6,4.4 157.8,4.4 157.8,4.4 C158,4.4 158,4.2 158.2,4.2 C158.4,4 158.4,4 158.4,3.8 C158.2,3.6 158.4,3.2 158.4,3 Z M166.4,9 C166.4,9.4 166.4,9.8 166.2,10.2 C166,10.6 165.8,10.8 165.6,11 C165.4,11.2 165,11.4 164.8,11.6 C164.4,11.8 164.2,11.8 163.8,11.8 C163.4,11.8 163,11.8 162.8,11.6 C162.4,11.4 162.2,11.2 162,11 C161.8,10.8 161.6,10.4 161.4,10.2 C161.2,9.8 161.2,9.4 161.2,9 C161.2,8.6 161.2,8.2 161.4,7.8 C161.6,7.4 161.8,7.2 162,6.8 C162.2,6.6 162.6,6.4 162.8,6.2 C163.2,6 163.4,6 163.8,6 C164.2,6 164.6,6 164.8,6.2 C165.2,6.4 165.4,6.6 165.6,6.8 C165.8,7 166,7.4 166.2,7.8 C166.4,8.2 166.4,8.6 166.4,9 Z M164.8,9 C164.8,8.6 164.8,8.4 164.8,8.2 C164.8,8 164.6,7.8 164.6,7.6 C164.6,7.4 164.4,7.4 164.2,7.4 C164,7.4 164,7.4 163.8,7.4 C163.6,7.4 163.4,7.4 163.4,7.4 C163.2,7.4 163.2,7.6 163,7.6 C163,7.8 162.8,7.8 162.8,8.2 C162.8,8.4 162.8,8.6 162.8,9 C162.8,9.2 162.8,9.6 162.8,9.8 C162.8,10 163,10.2 163,10.2 C163,10.4 163.2,10.4 163.4,10.4 C163.6,10.4 163.6,10.4 163.8,10.4 C164,10.4 164.2,10.4 164.2,10.4 C164.4,10.4 164.4,10.2 164.6,10.2 C164.8,10.2 164.8,10 164.8,9.8 C164.8,9.6 164.8,9.4 164.8,9 Z" id="Shape"></path>
                <path d="M315,72.6 L317.4,72.6 L317.4,65.8 C317.4,65.6 317.4,65.2 317.4,65 L315.8,66.4 C315.8,66.4 315.6,66.4 315.6,66.6 L315.4,66.6 C315.2,66.6 315.2,66.6 315.2,66.6 C315.2,66.6 315,66.6 315,66.4 L314.4,65.6 L318,62.6 L319.6,62.6 L319.6,72.8 L321.6,72.8 L321.6,74.2 L315.2,74.2 L315,72.6 L315,72.6 Z" id="Path"></path>
                <path d="M331,68.2 C331,69.2 330.8,70 330.6,70.8 C330.4,71.6 330,72.2 329.8,72.6 C329.4,73 329,73.4 328.4,73.6 C327.8,73.8 327.4,74 326.8,74 C326.2,74 325.6,73.8 325.2,73.6 C324.6,73.4 324.2,73 323.8,72.6 C323.4,72.2 323.2,71.6 323,70.8 C322.8,70 322.6,69.2 322.6,68.2 C322.6,67.2 322.8,66.4 323,65.6 C323.2,64.8 323.6,64.2 323.8,63.8 C324,63.4 324.6,63 325.2,62.8 C325.8,62.6 326.2,62.4 326.8,62.4 C327.4,62.4 328,62.6 328.4,62.8 C329,63 329.4,63.4 329.8,63.8 C330.2,64.2 330.4,64.8 330.6,65.6 C331,66.4 331,67.2 331,68.2 Z M329,68.2 C329,67.4 329,66.6 328.8,66.2 C328.6,65.6 328.6,65.2 328.4,64.8 C328.2,64.4 328,64.2 327.6,64.2 C327.4,64 327,64 326.8,64 C326.6,64 326.2,64 326,64.2 C325.8,64.4 325.6,64.6 325.4,64.8 C325.2,65 325,65.6 325,66.2 C324.8,66.8 324.8,67.4 324.8,68.2 C324.8,69 324.8,69.8 325,70.2 C325.2,70.8 325.2,71.2 325.4,71.6 C325.6,72 325.8,72.2 326,72.2 C326.2,72.4 326.6,72.4 326.8,72.4 C327,72.4 327.4,72.4 327.6,72.2 C327.8,72 328.2,71.8 328.4,71.6 C328.6,71.2 328.8,70.8 328.8,70.2 C329,69.8 329,69 329,68.2 Z" id="Shape"></path>
                <path d="M340.4,68.2 C340.4,69.2 340.2,70 340,70.8 C339.8,71.6 339.4,72.2 339.2,72.6 C338.8,73 338.4,73.4 337.8,73.6 C337.2,73.8 336.8,74 336.2,74 C335.6,74 335,73.8 334.6,73.6 C334,73.4 333.6,73 333.2,72.6 C332.8,72.2 332.6,71.6 332.4,70.8 C332.2,70 332,69.2 332,68.2 C332,67.2 332.2,66.4 332.4,65.6 C332.6,64.8 333,64.2 333.2,63.8 C333.6,63.4 334,63 334.6,62.8 C335.2,62.6 335.6,62.4 336.2,62.4 C336.8,62.4 337.4,62.6 337.8,62.8 C338.2,63 338.8,63.4 339.2,63.8 C339.6,64.2 339.8,64.8 340,65.6 C340.2,66.4 340.4,67.2 340.4,68.2 Z M338.2,68.2 C338.2,67.4 338.2,66.6 338,66.2 C337.8,65.6 337.8,65.2 337.6,64.8 C337.4,64.4 337.2,64.2 336.8,64.2 C336.6,64 336.2,64 336,64 C335.8,64 335.4,64 335.2,64.2 C335,64.4 334.8,64.6 334.4,64.8 C334.2,65.2 334,65.6 334,66.2 C333.8,66.8 333.8,67.4 333.8,68.2 C333.8,69 333.8,69.8 334,70.2 C334.2,70.8 334.2,71.2 334.4,71.6 C334.6,72 334.8,72.2 335.2,72.2 C335.4,72.4 335.8,72.4 336,72.4 C336.2,72.4 336.6,72.4 336.8,72.2 C337,72 337.4,71.8 337.6,71.6 C337.8,71.2 338,70.8 338,70.2 C338.2,69.8 338.2,69 338.2,68.2 Z" id="Shape"></path>
                <path d="M346.6,65.2 C346.6,65.6 346.6,66 346.4,66.4 C346.2,66.8 346,67 345.8,67.4 C345.6,67.8 345.2,67.8 345,68 C344.6,68.2 344.4,68.2 344,68.2 C343.6,68.2 343.2,68.2 343,68 C342.6,67.8 342.4,67.6 342.2,67.4 C342,67.2 341.8,66.8 341.6,66.4 C341.4,66 341.4,65.6 341.4,65.2 C341.4,64.8 341.4,64.4 341.6,64 C341.8,63.6 342,63.4 342.2,63 C342.4,62.8 342.8,62.6 343,62.4 C343.4,62.2 343.6,62.2 344,62.2 C344.4,62.2 344.8,62.2 345,62.4 C345.4,62.6 345.6,62.8 345.8,63 C346,63.2 346.2,63.6 346.4,64 C346.6,64.4 346.6,64.8 346.6,65.2 Z M350.4,62.8 L350.6,62.6 C350.6,62.6 350.8,62.6 351,62.6 L352.4,62.6 L343.8,73.8 L343.6,74 C343.6,74 343.4,74 343.2,74 L341.8,74 L350.4,62.8 Z M345,65.2 C345,64.8 345,64.6 345,64.4 C345,64.2 344.8,64 344.8,63.8 C344.6,63.6 344.6,63.6 344.4,63.6 C344.2,63.6 344.2,63.6 344,63.6 C343.8,63.6 343.6,63.6 343.6,63.6 C343.4,63.6 343.4,63.8 343.2,63.8 C343,63.8 343,64 343,64.4 C343,64.8 343,64.8 343,65.2 C343,65.4 343,65.8 343,66 C343,66.2 343.2,66.4 343.2,66.4 C343.4,66.6 343.4,66.6 343.6,66.6 C343.8,66.6 343.8,66.6 344,66.6 C344.2,66.6 344.4,66.6 344.4,66.6 C344.6,66.6 344.6,66.4 344.8,66.4 C345,66.2 345,66.2 345,66 C345,65.8 345,65.6 345,65.2 Z M353,71.2 C353,71.6 353,72 352.8,72.4 C352.6,72.8 352.4,73 352.2,73.2 C352,73.4 351.6,73.6 351.4,73.8 C351,74 350.8,74 350.4,74 C350,74 349.6,74 349.4,73.8 C349,73.6 348.8,73.4 348.6,73.2 C348.4,73 348.2,72.6 348,72.4 C347.8,72 347.8,71.6 347.8,71.2 C347.8,70.8 347.8,70.4 348,70 C348.2,69.6 348.4,69.4 348.6,69 C348.8,68.8 349.2,68.6 349.4,68.4 C349.8,68.2 350,68.2 350.4,68.2 C350.8,68.2 351.2,68.2 351.4,68.4 C351.8,68.6 352,68.8 352.2,69 C352.4,69.2 352.6,69.6 352.8,70 C353,70.4 353,70.8 353,71.2 Z M351.6,71.2 C351.6,70.8 351.6,70.6 351.6,70.4 C351.6,70.2 351.4,70 351.4,69.8 C351.4,69.6 351.2,69.6 351,69.6 C350.8,69.6 350.8,69.6 350.6,69.6 C350.4,69.6 350.2,69.6 350.2,69.6 C350,69.6 350,69.8 349.8,69.8 C349.8,70 349.6,70 349.6,70.4 C349.6,70.6 349.6,70.8 349.6,71.2 C349.6,71.4 349.6,71.8 349.6,72 C349.6,72.2 349.8,72.4 349.8,72.4 C349.8,72.6 350,72.6 350.2,72.6 C350.4,72.6 350.4,72.6 350.6,72.6 C350.8,72.6 351,72.6 351,72.6 C351.2,72.6 351.2,72.4 351.4,72.4 C351.6,72.4 351.6,72.2 351.6,72 C351.6,71.8 351.6,71.6 351.6,71.2 Z" id="Shape"></path>
            </g>
        </g>
    </g>
</svg>